<?xml version="1.0" encoding="UTF-8"?>
<svg width="24px" height="225px" viewBox="0 0 24 225" version="1.1" xmlns="http://www.w3.org/2000/svg" xmlns:xlink="http://www.w3.org/1999/xlink">
    <!-- Generator: Sketch 49.3 (51167) - http://www.bohemiancoding.com/sketch -->
    <title>Hellocihan.com cihan</title>
    <desc>Created with Sketch.</desc>
    <defs></defs>
    <g id="Page-1" stroke="none" stroke-width="1" fill="none" fill-rule="evenodd">
        <g id="Desktop-HD-Copy" transform="translate(-20.000000, -52.000000)" fill="#383838">
            <path d="M77.855,154.2 L77.855,160.5 L76.397,160.5 L76.397,157.917 L73.535,157.917 L73.535,160.5 L72.077,160.5 L72.077,154.2 L73.535,154.2 L73.535,156.684 L76.397,156.684 L76.397,154.2 L77.855,154.2 Z M83.993,158.097 C83.993,158.115 83.9840001,158.240999 83.966,158.475 L80.303,158.475 C80.3690003,158.775002 80.5249988,159.011999 80.771,159.186 C81.0170012,159.360001 81.3229982,159.447 81.689,159.447 C81.9410013,159.447 82.164499,159.4095 82.3595,159.3345 C82.554501,159.2595 82.7359992,159.141001 82.904,158.979 L83.651,159.789 C83.1949977,160.311003 82.5290044,160.572 81.653,160.572 C81.1069973,160.572 80.6240021,160.465501 80.204,160.2525 C79.7839979,160.039499 79.4600011,159.744002 79.232,159.366 C79.0039989,158.987998 78.89,158.559002 78.89,158.079 C78.89,157.604998 79.0024989,157.177502 79.2275,156.7965 C79.4525011,156.415498 79.761498,156.118501 80.1545,155.9055 C80.547502,155.692499 80.9869976,155.586 81.473,155.586 C81.9470024,155.586 82.3759981,155.687999 82.76,155.892 C83.1440019,156.096001 83.4454989,156.388498 83.6645,156.7695 C83.8835011,157.150502 83.993,157.592997 83.993,158.097 Z M81.482,156.648 C81.1639984,156.648 80.8970011,156.737999 80.681,156.918 C80.4649989,157.098001 80.3330002,157.343998 80.285,157.656 L82.67,157.656 C82.6219998,157.349998 82.4900011,157.105501 82.274,156.9225 C82.0579989,156.739499 81.7940016,156.648 81.482,156.648 Z M84.929,153.822 L86.333,153.822 L86.333,160.5 L84.929,160.5 L84.929,153.822 Z M87.638,153.822 L89.042,153.822 L89.042,160.5 L87.638,160.5 L87.638,153.822 Z M92.651,160.572 C92.1409974,160.572 91.683502,160.465501 91.2785,160.2525 C90.873498,160.039499 90.5570011,159.744002 90.329,159.366 C90.1009989,158.987998 89.987,158.559002 89.987,158.079 C89.987,157.598998 90.1009989,157.170002 90.329,156.792 C90.5570011,156.413998 90.873498,156.118501 91.2785,155.9055 C91.683502,155.692499 92.1409974,155.586 92.651,155.586 C93.1610025,155.586 93.616998,155.692499 94.019,155.9055 C94.421002,156.118501 94.7359989,156.413998 94.964,156.792 C95.1920011,157.170002 95.306,157.598998 95.306,158.079 C95.306,158.559002 95.1920011,158.987998 94.964,159.366 C94.7359989,159.744002 94.421002,160.039499 94.019,160.2525 C93.616998,160.465501 93.1610025,160.572 92.651,160.572 Z M92.651,159.42 C93.0110018,159.42 93.3064988,159.298501 93.5375,159.0555 C93.7685012,158.812499 93.884,158.487002 93.884,158.079 C93.884,157.670998 93.7685012,157.345501 93.5375,157.1025 C93.3064988,156.859499 93.0110018,156.738 92.651,156.738 C92.2909982,156.738 91.9940012,156.859499 91.76,157.1025 C91.5259988,157.345501 91.409,157.670998 91.409,158.079 C91.409,158.487002 91.5259988,158.812499 91.76,159.0555 C91.9940012,159.298501 92.2909982,159.42 92.651,159.42 Z M98.582,160.572 C98.0659974,160.572 97.6025021,160.465501 97.1915,160.2525 C96.7804979,160.039499 96.4595012,159.744002 96.2285,159.366 C95.9974988,158.987998 95.882,158.559002 95.882,158.079 C95.882,157.598998 95.9974988,157.170002 96.2285,156.792 C96.4595012,156.413998 96.7804979,156.118501 97.1915,155.9055 C97.6025021,155.692499 98.0659974,155.586 98.582,155.586 C99.0920026,155.586 99.5374981,155.692499 99.9185,155.9055 C100.299502,156.118501 100.576999,156.422998 100.751,156.819 L99.662,157.404 C99.4099987,156.959998 99.0470024,156.738 98.573,156.738 C98.2069982,156.738 97.9040012,156.857999 97.664,157.098 C97.4239988,157.338001 97.304,157.664998 97.304,158.079 C97.304,158.493002 97.4239988,158.819999 97.664,159.06 C97.9040012,159.300001 98.2069982,159.42 98.573,159.42 C99.0530024,159.42 99.4159988,159.198002 99.662,158.754 L100.751,159.348 C100.576999,159.732002 100.299502,160.031999 99.9185,160.248 C99.5374981,160.464001 99.0920026,160.572 98.582,160.572 Z M101.561,155.658 L102.965,155.658 L102.965,160.5 L101.561,160.5 L101.561,155.658 Z M102.263,154.983 C102.004999,154.983 101.795001,154.908001 101.633,154.758 C101.470999,154.607999 101.39,154.422001 101.39,154.2 C101.39,153.977999 101.470999,153.792001 101.633,153.642 C101.795001,153.491999 102.004999,153.417 102.263,153.417 C102.521001,153.417 102.730999,153.488999 102.893,153.633 C103.055001,153.777001 103.136,153.956999 103.136,154.173 C103.136,154.407001 103.055001,154.600499 102.893,154.7535 C102.730999,154.906501 102.521001,154.983 102.263,154.983 Z M107.213,155.586 C107.813003,155.586 108.297498,155.765998 108.6665,156.126 C109.035502,156.486002 109.22,157.019996 109.22,157.728 L109.22,160.5 L107.816,160.5 L107.816,157.944 C107.816,157.559998 107.732001,157.273501 107.564,157.0845 C107.395999,156.895499 107.153002,156.801 106.835,156.801 C106.480998,156.801 106.199001,156.910499 105.989,157.1295 C105.778999,157.348501 105.674,157.673998 105.674,158.106 L105.674,160.5 L104.27,160.5 L104.27,153.822 L105.674,153.822 L105.674,156.162 C105.860001,155.975999 106.084999,155.8335 106.349,155.7345 C106.613001,155.6355 106.900998,155.586 107.213,155.586 Z M112.442,155.586 C113.192004,155.586 113.767998,155.764498 114.17,156.1215 C114.572002,156.478502 114.773,157.016996 114.773,157.737 L114.773,160.5 L113.459,160.5 L113.459,159.897 C113.194999,160.347002 112.703004,160.572 111.983,160.572 C111.610998,160.572 111.288501,160.509001 111.0155,160.383 C110.742499,160.256999 110.534001,160.083001 110.39,159.861 C110.245999,159.638999 110.174,159.387001 110.174,159.105 C110.174,158.654998 110.343498,158.301001 110.6825,158.043 C111.021502,157.784999 111.544996,157.656 112.253,157.656 L113.369,157.656 C113.369,157.349998 113.276001,157.114501 113.09,156.9495 C112.903999,156.784499 112.625002,156.702 112.253,156.702 C111.994999,156.702 111.741501,156.7425 111.4925,156.8235 C111.243499,156.9045 111.032001,157.013999 110.858,157.152 L110.354,156.171 C110.618001,155.984999 110.934498,155.841001 111.3035,155.739 C111.672502,155.636999 112.051998,155.586 112.442,155.586 Z M112.334,159.627 C112.574001,159.627 112.786999,159.571501 112.973,159.4605 C113.159001,159.349499 113.291,159.186001 113.369,158.97 L113.369,158.475 L112.406,158.475 C111.829997,158.475 111.542,158.663998 111.542,159.042 C111.542,159.222001 111.612499,159.364499 111.7535,159.4695 C111.894501,159.574501 112.087999,159.627 112.334,159.627 Z M118.985,155.586 C119.585003,155.586 120.069498,155.765998 120.4385,156.126 C120.807502,156.486002 120.992,157.019996 120.992,157.728 L120.992,160.5 L119.588,160.5 L119.588,157.944 C119.588,157.559998 119.504001,157.273501 119.336,157.0845 C119.167999,156.895499 118.925002,156.801 118.607,156.801 C118.252998,156.801 117.971001,156.910499 117.761,157.1295 C117.550999,157.348501 117.446,157.673998 117.446,158.106 L117.446,160.5 L116.042,160.5 L116.042,155.658 L117.383,155.658 L117.383,156.225 C117.569001,156.020999 117.799999,155.863501 118.076,155.7525 C118.352001,155.641499 118.654998,155.586 118.985,155.586 Z M122.792,160.572 C122.545999,160.572 122.339001,160.488001 122.171,160.32 C122.002999,160.151999 121.919,159.942001 121.919,159.69 C121.919,159.431999 122.002999,159.223501 122.171,159.0645 C122.339001,158.905499 122.545999,158.826 122.792,158.826 C123.038001,158.826 123.244999,158.905499 123.413,159.0645 C123.581001,159.223501 123.665,159.431999 123.665,159.69 C123.665,159.942001 123.581001,160.151999 123.413,160.32 C123.244999,160.488001 123.038001,160.572 122.792,160.572 Z M126.896,160.572 C126.379997,160.572 125.916502,160.465501 125.5055,160.2525 C125.094498,160.039499 124.773501,159.744002 124.5425,159.366 C124.311499,158.987998 124.196,158.559002 124.196,158.079 C124.196,157.598998 124.311499,157.170002 124.5425,156.792 C124.773501,156.413998 125.094498,156.118501 125.5055,155.9055 C125.916502,155.692499 126.379997,155.586 126.896,155.586 C127.406003,155.586 127.851498,155.692499 128.2325,155.9055 C128.613502,156.118501 128.890999,156.422998 129.065,156.819 L127.976,157.404 C127.723999,156.959998 127.361002,156.738 126.887,156.738 C126.520998,156.738 126.218001,156.857999 125.978,157.098 C125.737999,157.338001 125.618,157.664998 125.618,158.079 C125.618,158.493002 125.737999,158.819999 125.978,159.06 C126.218001,159.300001 126.520998,159.42 126.887,159.42 C127.367002,159.42 127.729999,159.198002 127.976,158.754 L129.065,159.348 C128.890999,159.732002 128.613502,160.031999 128.2325,160.248 C127.851498,160.464001 127.406003,160.572 126.896,160.572 Z M132.116,160.572 C131.605997,160.572 131.148502,160.465501 130.7435,160.2525 C130.338498,160.039499 130.022001,159.744002 129.794,159.366 C129.565999,158.987998 129.452,158.559002 129.452,158.079 C129.452,157.598998 129.565999,157.170002 129.794,156.792 C130.022001,156.413998 130.338498,156.118501 130.7435,155.9055 C131.148502,155.692499 131.605997,155.586 132.116,155.586 C132.626003,155.586 133.081998,155.692499 133.484,155.9055 C133.886002,156.118501 134.200999,156.413998 134.429,156.792 C134.657001,157.170002 134.771,157.598998 134.771,158.079 C134.771,158.559002 134.657001,158.987998 134.429,159.366 C134.200999,159.744002 133.886002,160.039499 133.484,160.2525 C133.081998,160.465501 132.626003,160.572 132.116,160.572 Z M132.116,159.42 C132.476002,159.42 132.771499,159.298501 133.0025,159.0555 C133.233501,158.812499 133.349,158.487002 133.349,158.079 C133.349,157.670998 133.233501,157.345501 133.0025,157.1025 C132.771499,156.859499 132.476002,156.738 132.116,156.738 C131.755998,156.738 131.459001,156.859499 131.225,157.1025 C130.990999,157.345501 130.874,157.670998 130.874,158.079 C130.874,158.487002 130.990999,158.812499 131.225,159.0555 C131.459001,159.298501 131.755998,159.42 132.116,159.42 Z M141.908,155.586 C142.514003,155.586 142.995498,155.764498 143.3525,156.1215 C143.709502,156.478502 143.888,157.013996 143.888,157.728 L143.888,160.5 L142.484,160.5 L142.484,157.944 C142.484,157.559998 142.404501,157.273501 142.2455,157.0845 C142.086499,156.895499 141.860001,156.801 141.566,156.801 C141.235998,156.801 140.975001,156.907499 140.783,157.1205 C140.590999,157.333501 140.495,157.649998 140.495,158.07 L140.495,160.5 L139.091,160.5 L139.091,157.944 C139.091,157.181996 138.785003,156.801 138.173,156.801 C137.848998,156.801 137.591001,156.907499 137.399,157.1205 C137.206999,157.333501 137.111,157.649998 137.111,158.07 L137.111,160.5 L135.707,160.5 L135.707,155.658 L137.048,155.658 L137.048,156.216 C137.228001,156.011999 137.448499,155.856001 137.7095,155.748 C137.970501,155.639999 138.256998,155.586 138.569,155.586 C138.911002,155.586 139.219999,155.653499 139.496,155.7885 C139.772001,155.923501 139.993999,156.119999 140.162,156.378 C140.360001,156.125999 140.610498,155.931001 140.9135,155.793 C141.216502,155.654999 141.547998,155.586 141.908,155.586 Z M-77.197,174.572 C-77.7130026,174.572 -78.1764979,174.465501 -78.5875,174.2525 C-78.9985021,174.039499 -79.3194988,173.744002 -79.5505,173.366 C-79.7815012,172.987998 -79.897,172.559002 -79.897,172.079 C-79.897,171.598998 -79.7815012,171.170002 -79.5505,170.792 C-79.3194988,170.413998 -78.9985021,170.118501 -78.5875,169.9055 C-78.1764979,169.692499 -77.7130026,169.586 -77.197,169.586 C-76.6869975,169.586 -76.2415019,169.692499 -75.8605,169.9055 C-75.4794981,170.118501 -75.2020009,170.422998 -75.028,170.819 L-76.117,171.404 C-76.3690013,170.959998 -76.7319976,170.738 -77.206,170.738 C-77.5720018,170.738 -77.8749988,170.857999 -78.115,171.098 C-78.3550012,171.338001 -78.475,171.664998 -78.475,172.079 C-78.475,172.493002 -78.3550012,172.819999 -78.115,173.06 C-77.8749988,173.300001 -77.5720018,173.42 -77.206,173.42 C-76.7259976,173.42 -76.3630012,173.198002 -76.117,172.754 L-75.028,173.348 C-75.2020009,173.732002 -75.4794981,174.031999 -75.8605,174.248 C-76.2415019,174.464001 -76.6869975,174.572 -77.197,174.572 Z M-74.218,169.658 L-72.814,169.658 L-72.814,174.5 L-74.218,174.5 L-74.218,169.658 Z M-73.516,168.983 C-73.7740013,168.983 -73.9839992,168.908001 -74.146,168.758 C-74.3080008,168.607999 -74.389,168.422001 -74.389,168.2 C-74.389,167.977999 -74.3080008,167.792001 -74.146,167.642 C-73.9839992,167.491999 -73.7740013,167.417 -73.516,167.417 C-73.2579987,167.417 -73.0480008,167.488999 -72.886,167.633 C-72.7239992,167.777001 -72.643,167.956999 -72.643,168.173 C-72.643,168.407001 -72.7239992,168.600499 -72.886,168.7535 C-73.0480008,168.906501 -73.2579987,168.983 -73.516,168.983 Z M-68.566,169.586 C-67.965997,169.586 -67.4815018,169.765998 -67.1125,170.126 C-66.7434982,170.486002 -66.559,171.019996 -66.559,171.728 L-66.559,174.5 L-67.963,174.5 L-67.963,171.944 C-67.963,171.559998 -68.0469992,171.273501 -68.215,171.0845 C-68.3830008,170.895499 -68.6259984,170.801 -68.944,170.801 C-69.2980018,170.801 -69.579999,170.910499 -69.79,171.1295 C-70.0000011,171.348501 -70.105,171.673998 -70.105,172.106 L-70.105,174.5 L-71.509,174.5 L-71.509,167.822 L-70.105,167.822 L-70.105,170.162 C-69.9189991,169.975999 -69.6940013,169.8335 -69.43,169.7345 C-69.1659987,169.6355 -68.8780016,169.586 -68.566,169.586 Z M-63.337,169.586 C-62.5869963,169.586 -62.011002,169.764498 -61.609,170.1215 C-61.206998,170.478502 -61.006,171.016996 -61.006,171.737 L-61.006,174.5 L-62.32,174.5 L-62.32,173.897 C-62.5840013,174.347002 -63.0759964,174.572 -63.796,174.572 C-64.1680019,174.572 -64.4904986,174.509001 -64.7635,174.383 C-65.0365014,174.256999 -65.2449993,174.083001 -65.389,173.861 C-65.5330007,173.638999 -65.605,173.387001 -65.605,173.105 C-65.605,172.654998 -65.4355017,172.301001 -65.0965,172.043 C-64.7574983,171.784999 -64.2340035,171.656 -63.526,171.656 L-62.41,171.656 C-62.41,171.349998 -62.5029991,171.114501 -62.689,170.9495 C-62.8750009,170.784499 -63.1539981,170.702 -63.526,170.702 C-63.7840013,170.702 -64.0374988,170.7425 -64.2865,170.8235 C-64.5355012,170.9045 -64.7469991,171.013999 -64.921,171.152 L-65.425,170.171 C-65.1609987,169.984999 -64.8445018,169.841001 -64.4755,169.739 C-64.1064982,169.636999 -63.727002,169.586 -63.337,169.586 Z M-63.445,173.627 C-63.2049988,173.627 -62.9920009,173.571501 -62.806,173.4605 C-62.6199991,173.349499 -62.4880004,173.186001 -62.41,172.97 L-62.41,172.475 L-63.373,172.475 C-63.9490029,172.475 -64.237,172.663998 -64.237,173.042 C-64.237,173.222001 -64.1665007,173.364499 -64.0255,173.4695 C-63.8844993,173.574501 -63.6910012,173.627 -63.445,173.627 Z M-56.794,169.586 C-56.193997,169.586 -55.7095018,169.765998 -55.3405,170.126 C-54.9714982,170.486002 -54.787,171.019996 -54.787,171.728 L-54.787,174.5 L-56.191,174.5 L-56.191,171.944 C-56.191,171.559998 -56.2749992,171.273501 -56.443,171.0845 C-56.6110008,170.895499 -56.8539984,170.801 -57.172,170.801 C-57.5260018,170.801 -57.807999,170.910499 -58.018,171.1295 C-58.2280011,171.348501 -58.333,171.673998 -58.333,172.106 L-58.333,174.5 L-59.737,174.5 L-59.737,169.658 L-58.396,169.658 L-58.396,170.225 C-58.2099991,170.020999 -57.9790014,169.863501 -57.703,169.7525 C-57.4269986,169.641499 -57.1240017,169.586 -56.794,169.586 Z M-48.802,169.658 L-50.989,174.797 C-51.2110011,175.355003 -51.4854984,175.747999 -51.8125,175.976 C-52.1395016,176.204001 -52.5339977,176.318 -52.996,176.318 C-53.2480013,176.318 -53.4969988,176.279 -53.743,176.201 C-53.9890012,176.123 -54.1899992,176.015001 -54.346,175.877 L-53.833,174.878 C-53.7249995,174.974 -53.6005007,175.049 -53.4595,175.103 C-53.3184993,175.157 -53.1790007,175.184 -53.041,175.184 C-52.848999,175.184 -52.6930006,175.1375 -52.573,175.0445 C-52.4529994,174.9515 -52.3450005,174.797001 -52.249,174.581 L-52.231,174.536 L-54.328,169.658 L-52.879,169.658 L-51.52,172.943 L-50.152,169.658 L-48.802,169.658 Z M-44.203,168.11 C-43.3749959,168.11 -42.6385032,168.279498 -41.9935,168.6185 C-41.3484968,168.957502 -40.8460018,169.423997 -40.486,170.018 C-40.1259982,170.612003 -39.946,171.283996 -39.946,172.034 C-39.946,172.562003 -40.0224992,173.016498 -40.1755,173.3975 C-40.3285008,173.778502 -40.5429986,174.067999 -40.819,174.266 C-41.0950014,174.464001 -41.4189981,174.563 -41.791,174.563 C-42.0970015,174.563 -42.354999,174.497001 -42.565,174.365 C-42.7750011,174.232999 -42.9279995,174.038001 -43.024,173.78 C-43.3480016,174.302003 -43.8609965,174.563 -44.563,174.563 C-44.9470019,174.563 -45.2979984,174.467001 -45.616,174.275 C-45.9340016,174.082999 -46.1844991,173.814502 -46.3675,173.4695 C-46.5505009,173.124498 -46.642,172.730002 -46.642,172.286 C-46.642,171.847998 -46.5505009,171.456502 -46.3675,171.1115 C-46.1844991,170.766498 -45.9355016,170.498001 -45.6205,170.306 C-45.3054984,170.113999 -44.953002,170.018 -44.563,170.018 C-43.968997,170.018 -43.5070017,170.215998 -43.177,170.612 L-43.177,170.081 L-41.953,170.081 L-41.953,172.997 C-41.953,173.381002 -41.8090014,173.573 -41.521,173.573 C-41.310999,173.573 -41.1475006,173.447001 -41.0305,173.195 C-40.9134994,172.942999 -40.855,172.562003 -40.855,172.052 C-40.855,171.445997 -40.9944986,170.910502 -41.2735,170.4455 C-41.5525014,169.980498 -41.9454975,169.617501 -42.4525,169.3565 C-42.9595025,169.095499 -43.5429967,168.965 -44.203,168.965 C-44.8630033,168.965 -45.4464975,169.104499 -45.9535,169.3835 C-46.4605025,169.662501 -46.8534986,170.047998 -47.1325,170.54 C-47.4115014,171.032002 -47.551,171.589997 -47.551,172.214 C-47.551,172.850003 -47.4130014,173.415498 -47.137,173.9105 C-46.8609986,174.405502 -46.4725025,174.792499 -45.9715,175.0715 C-45.4704975,175.350501 -44.8930033,175.49 -44.239,175.49 C-43.5909968,175.49 -43.0000027,175.358001 -42.466,175.094 L-42.178,175.922 C-42.4480014,176.060001 -42.7674982,176.1665 -43.1365,176.2415 C-43.5055018,176.3165 -43.8729982,176.354 -44.239,176.354 C-45.0910043,176.354 -45.8439967,176.175502 -46.498,175.8185 C-47.1520033,175.461498 -47.6589982,174.968003 -48.019,174.338 C-48.3790018,173.707997 -48.559,173.000004 -48.559,172.214 C-48.559,171.433996 -48.3775018,170.732003 -48.0145,170.108 C-47.6514982,169.483997 -47.1400033,168.995002 -46.48,168.641 C-45.8199967,168.286998 -45.0610043,168.11 -44.203,168.11 Z M-44.284,173.528 C-43.9539984,173.528 -43.6840011,173.418501 -43.474,173.1995 C-43.263999,172.980499 -43.159,172.676002 -43.159,172.286 C-43.159,171.901998 -43.263999,171.602001 -43.474,171.386 C-43.6840011,171.169999 -43.9539984,171.062 -44.284,171.062 C-44.6200017,171.062 -44.889999,171.171499 -45.094,171.3905 C-45.298001,171.609501 -45.4,171.907998 -45.4,172.286 C-45.4,172.670002 -45.298001,172.972999 -45.094,173.195 C-44.889999,173.417001 -44.6200017,173.528 -44.284,173.528 Z M-33.952,169.658 L-33.952,173.69 C-33.952,174.578004 -34.1829977,175.237998 -34.645,175.67 C-35.1070023,176.102002 -35.7819956,176.318 -36.67,176.318 C-37.1380023,176.318 -37.5819979,176.261001 -38.002,176.147 C-38.4220021,176.032999 -38.7699986,175.868001 -39.046,175.652 L-38.488,174.644 C-38.283999,174.812001 -38.0260016,174.9455 -37.714,175.0445 C-37.4019984,175.1435 -37.0900016,175.193 -36.778,175.193 C-36.2919976,175.193 -35.9335012,175.083501 -35.7025,174.8645 C-35.4714988,174.645499 -35.356,174.314002 -35.356,173.87 L-35.356,173.663 C-35.7220018,174.065002 -36.2319967,174.266 -36.886,174.266 C-37.3300022,174.266 -37.7364982,174.168501 -38.1055,173.9735 C-38.4745018,173.778499 -38.7669989,173.504002 -38.983,173.15 C-39.1990011,172.795998 -39.307,172.388002 -39.307,171.926 C-39.307,171.463998 -39.1990011,171.056002 -38.983,170.702 C-38.7669989,170.347998 -38.4745018,170.073501 -38.1055,169.8785 C-37.7364982,169.683499 -37.3300022,169.586 -36.886,169.586 C-36.1839965,169.586 -35.6500018,169.816998 -35.284,170.279 L-35.284,169.658 L-33.952,169.658 Z M-36.607,173.114 C-36.2349981,173.114 -35.9305012,173.004501 -35.6935,172.7855 C-35.4564988,172.566499 -35.338,172.280002 -35.338,171.926 C-35.338,171.571998 -35.4564988,171.285501 -35.6935,171.0665 C-35.9305012,170.847499 -36.2349981,170.738 -36.607,170.738 C-36.9790019,170.738 -37.2849988,170.847499 -37.525,171.0665 C-37.7650012,171.285501 -37.885,171.571998 -37.885,171.926 C-37.885,172.280002 -37.7650012,172.566499 -37.525,172.7855 C-37.2849988,173.004501 -36.9790019,173.114 -36.607,173.114 Z M-26.446,169.586 C-25.839997,169.586 -25.3585018,169.764498 -25.0015,170.1215 C-24.6444982,170.478502 -24.466,171.013996 -24.466,171.728 L-24.466,174.5 L-25.87,174.5 L-25.87,171.944 C-25.87,171.559998 -25.9494992,171.273501 -26.1085,171.0845 C-26.2675008,170.895499 -26.4939985,170.801 -26.788,170.801 C-27.1180017,170.801 -27.378999,170.907499 -27.571,171.1205 C-27.763001,171.333501 -27.859,171.649998 -27.859,172.07 L-27.859,174.5 L-29.263,174.5 L-29.263,171.944 C-29.263,171.181996 -29.5689969,170.801 -30.181,170.801 C-30.5050016,170.801 -30.762999,170.907499 -30.955,171.1205 C-31.147001,171.333501 -31.243,171.649998 -31.243,172.07 L-31.243,174.5 L-32.647,174.5 L-32.647,169.658 L-31.306,169.658 L-31.306,170.216 C-31.1259991,170.011999 -30.9055013,169.856001 -30.6445,169.748 C-30.3834987,169.639999 -30.0970016,169.586 -29.785,169.586 C-29.4429983,169.586 -29.1340014,169.653499 -28.858,169.7885 C-28.5819986,169.923501 -28.3600008,170.119999 -28.192,170.378 C-27.993999,170.125999 -27.7435015,169.931001 -27.4405,169.793 C-27.1374985,169.654999 -26.8060018,169.586 -26.446,169.586 Z M-21.253,169.586 C-20.5029963,169.586 -19.927002,169.764498 -19.525,170.1215 C-19.122998,170.478502 -18.922,171.016996 -18.922,171.737 L-18.922,174.5 L-20.236,174.5 L-20.236,173.897 C-20.5000013,174.347002 -20.9919964,174.572 -21.712,174.572 C-22.0840019,174.572 -22.4064986,174.509001 -22.6795,174.383 C-22.9525014,174.256999 -23.1609993,174.083001 -23.305,173.861 C-23.4490007,173.638999 -23.521,173.387001 -23.521,173.105 C-23.521,172.654998 -23.3515017,172.301001 -23.0125,172.043 C-22.6734983,171.784999 -22.1500035,171.656 -21.442,171.656 L-20.326,171.656 C-20.326,171.349998 -20.4189991,171.114501 -20.605,170.9495 C-20.7910009,170.784499 -21.0699981,170.702 -21.442,170.702 C-21.7000013,170.702 -21.9534988,170.7425 -22.2025,170.8235 C-22.4515012,170.9045 -22.6629991,171.013999 -22.837,171.152 L-23.341,170.171 C-23.0769987,169.984999 -22.7605018,169.841001 -22.3915,169.739 C-22.0224982,169.636999 -21.643002,169.586 -21.253,169.586 Z M-21.361,173.627 C-21.1209988,173.627 -20.9080009,173.571501 -20.722,173.4605 C-20.5359991,173.349499 -20.4040004,173.186001 -20.326,172.97 L-20.326,172.475 L-21.289,172.475 C-21.8650029,172.475 -22.153,172.663998 -22.153,173.042 C-22.153,173.222001 -22.0825007,173.364499 -21.9415,173.4695 C-21.8004993,173.574501 -21.6070012,173.627 -21.361,173.627 Z M-17.653,169.658 L-16.249,169.658 L-16.249,174.5 L-17.653,174.5 L-17.653,169.658 Z M-16.951,168.983 C-17.2090013,168.983 -17.4189992,168.908001 -17.581,168.758 C-17.7430008,168.607999 -17.824,168.422001 -17.824,168.2 C-17.824,167.977999 -17.7430008,167.792001 -17.581,167.642 C-17.4189992,167.491999 -17.2090013,167.417 -16.951,167.417 C-16.6929987,167.417 -16.4830008,167.488999 -16.321,167.633 C-16.1589992,167.777001 -16.078,167.956999 -16.078,168.173 C-16.078,168.407001 -16.1589992,168.600499 -16.321,168.7535 C-16.4830008,168.906501 -16.6929987,168.983 -16.951,168.983 Z M-14.944,167.822 L-13.54,167.822 L-13.54,174.5 L-14.944,174.5 L-14.944,167.822 Z M-11.704,174.572 C-11.9500012,174.572 -12.1569992,174.488001 -12.325,174.32 C-12.4930008,174.151999 -12.577,173.942001 -12.577,173.69 C-12.577,173.431999 -12.4930008,173.223501 -12.325,173.0645 C-12.1569992,172.905499 -11.9500012,172.826 -11.704,172.826 C-11.4579988,172.826 -11.2510008,172.905499 -11.083,173.0645 C-10.9149992,173.223501 -10.831,173.431999 -10.831,173.69 C-10.831,173.942001 -10.9149992,174.151999 -11.083,174.32 C-11.2510008,174.488001 -11.4579988,174.572 -11.704,174.572 Z M-7.6,174.572 C-8.11600258,174.572 -8.57949795,174.465501 -8.9905,174.2525 C-9.40150206,174.039499 -9.72249885,173.744002 -9.9535,173.366 C-10.1845012,172.987998 -10.3,172.559002 -10.3,172.079 C-10.3,171.598998 -10.1845012,171.170002 -9.9535,170.792 C-9.72249885,170.413998 -9.40150206,170.118501 -8.9905,169.9055 C-8.57949795,169.692499 -8.11600258,169.586 -7.6,169.586 C-7.08999745,169.586 -6.64450191,169.692499 -6.2635,169.9055 C-5.8824981,170.118501 -5.60500087,170.422998 -5.431,170.819 L-6.52,171.404 C-6.77200126,170.959998 -7.13499763,170.738 -7.609,170.738 C-7.97500183,170.738 -8.2779988,170.857999 -8.518,171.098 C-8.7580012,171.338001 -8.878,171.664998 -8.878,172.079 C-8.878,172.493002 -8.7580012,172.819999 -8.518,173.06 C-8.2779988,173.300001 -7.97500183,173.42 -7.609,173.42 C-7.1289976,173.42 -6.76600123,173.198002 -6.52,172.754 L-5.431,173.348 C-5.60500087,173.732002 -5.8824981,174.031999 -6.2635,174.248 C-6.64450191,174.464001 -7.08999745,174.572 -7.6,174.572 Z M-2.38,174.572 C-2.89000255,174.572 -3.34749798,174.465501 -3.7525,174.2525 C-4.15750203,174.039499 -4.47399886,173.744002 -4.702,173.366 C-4.93000114,172.987998 -5.044,172.559002 -5.044,172.079 C-5.044,171.598998 -4.93000114,171.170002 -4.702,170.792 C-4.47399886,170.413998 -4.15750203,170.118501 -3.7525,169.9055 C-3.34749798,169.692499 -2.89000255,169.586 -2.38,169.586 C-1.86999745,169.586 -1.41400201,169.692499 -1.012,169.9055 C-0.60999799,170.118501 -0.29500114,170.413998 -0.067,170.792 C0.16100114,171.170002 0.275,171.598998 0.275,172.079 C0.275,172.559002 0.16100114,172.987998 -0.067,173.366 C-0.29500114,173.744002 -0.60999799,174.039499 -1.012,174.2525 C-1.41400201,174.465501 -1.86999745,174.572 -2.38,174.572 Z M-2.38,173.42 C-2.0199982,173.42 -1.72450116,173.298501 -1.4935,173.0555 C-1.26249885,172.812499 -1.147,172.487002 -1.147,172.079 C-1.147,171.670998 -1.26249885,171.345501 -1.4935,171.1025 C-1.72450116,170.859499 -2.0199982,170.738 -2.38,170.738 C-2.7400018,170.738 -3.03699883,170.859499 -3.271,171.1025 C-3.50500117,171.345501 -3.622,171.670998 -3.622,172.079 C-3.622,172.487002 -3.50500117,172.812499 -3.271,173.0555 C-3.03699883,173.298501 -2.7400018,173.42 -2.38,173.42 Z M7.412,169.586 C8.01800303,169.586 8.49949822,169.764498 8.8565,170.1215 C9.21350179,170.478502 9.392,171.013996 9.392,171.728 L9.392,174.5 L7.988,174.5 L7.988,171.944 C7.988,171.559998 7.9085008,171.273501 7.7495,171.0845 C7.59049921,170.895499 7.36400147,170.801 7.07,170.801 C6.73999835,170.801 6.47900096,170.907499 6.287,171.1205 C6.09499904,171.333501 5.999,171.649998 5.999,172.07 L5.999,174.5 L4.595,174.5 L4.595,171.944 C4.595,171.181996 4.28900306,170.801 3.677,170.801 C3.35299838,170.801 3.09500096,170.907499 2.903,171.1205 C2.71099904,171.333501 2.615,171.649998 2.615,172.07 L2.615,174.5 L1.211,174.5 L1.211,169.658 L2.552,169.658 L2.552,170.216 C2.7320009,170.011999 2.9524987,169.856001 3.2135,169.748 C3.47450131,169.639999 3.76099844,169.586 4.073,169.586 C4.41500171,169.586 4.72399862,169.653499 5,169.7885 C5.27600138,169.923501 5.49799916,170.119999 5.666,170.378 C5.86400099,170.125999 6.11449849,169.931001 6.4175,169.793 C6.72050151,169.654999 7.0519982,169.586 7.412,169.586 Z M13.019,171.404 L15.566,171.404 L15.566,172.529 L13.019,172.529 L13.019,171.404 Z M23.414,171.899 L21.848,171.899 L21.848,173.429 L20.687,173.429 L20.687,171.899 L19.13,171.899 L19.13,170.801 L20.687,170.801 L20.687,169.271 L21.848,169.271 L21.848,170.801 L23.414,170.801 L23.414,171.899 Z M26.528,168.092 C27.4100044,168.092 28.0999975,168.360497 28.598,168.8975 C29.0960025,169.434503 29.345,170.206995 29.345,171.215 C29.345,171.929004 29.2115013,172.540997 28.9445,173.051 C28.6774987,173.561003 28.3010024,173.947999 27.815,174.212 C27.3289976,174.476001 26.7680032,174.608 26.132,174.608 C25.7959983,174.608 25.4750015,174.5705 25.169,174.4955 C24.8629985,174.4205 24.6020011,174.314001 24.386,174.176 L24.926,173.105 C25.2320015,173.315001 25.6249976,173.42 26.105,173.42 C26.6390027,173.42 27.0619984,173.262502 27.374,172.9475 C27.6860016,172.632498 27.8539999,172.178003 27.878,171.584 C27.4999981,171.962002 26.9780033,172.151 26.312,172.151 C25.909998,172.151 25.5440016,172.070001 25.214,171.908 C24.8839983,171.745999 24.623001,171.516501 24.431,171.2195 C24.238999,170.922499 24.143,170.579002 24.143,170.189 C24.143,169.768998 24.2479989,169.400002 24.458,169.082 C24.668001,168.763998 24.9544982,168.519501 25.3175,168.3485 C25.6805018,168.177499 26.0839978,168.092 26.528,168.092 Z M26.636,171.062 C26.9540016,171.062 27.213499,170.973501 27.4145,170.7965 C27.615501,170.619499 27.716,170.393001 27.716,170.117 C27.716,169.840999 27.618501,169.616001 27.4235,169.442 C27.228499,169.267999 26.9600017,169.181 26.618,169.181 C26.3059984,169.181 26.052501,169.264999 25.8575,169.433 C25.662499,169.601001 25.565,169.828999 25.565,170.117 C25.565,170.405001 25.662499,170.634499 25.8575,170.8055 C26.052501,170.976501 26.3119984,171.062 26.636,171.062 Z M32.747,174.608 C32.2249974,174.608 31.760002,174.479001 31.352,174.221 C30.943998,173.962999 30.6245012,173.589502 30.3935,173.1005 C30.1624988,172.611498 30.047,172.028003 30.047,171.35 C30.047,170.671997 30.1624988,170.088502 30.3935,169.5995 C30.6245012,169.110498 30.943998,168.737001 31.352,168.479 C31.760002,168.220999 32.2249974,168.092 32.747,168.092 C33.2690026,168.092 33.733998,168.220999 34.142,168.479 C34.550002,168.737001 34.8694988,169.110498 35.1005,169.5995 C35.3315012,170.088502 35.447,170.671997 35.447,171.35 C35.447,172.028003 35.3315012,172.611498 35.1005,173.1005 C34.8694988,173.589502 34.550002,173.962999 34.142,174.221 C33.733998,174.479001 33.2690026,174.608 32.747,174.608 Z M32.747,173.375 C33.1310019,173.375 33.4324989,173.210002 33.6515,172.88 C33.8705011,172.549998 33.98,172.040003 33.98,171.35 C33.98,170.659997 33.8705011,170.150002 33.6515,169.82 C33.4324989,169.489998 33.1310019,169.325 32.747,169.325 C32.3689981,169.325 32.0705011,169.489998 31.8515,169.82 C31.6324989,170.150002 31.523,170.659997 31.523,171.35 C31.523,172.040003 31.6324989,172.549998 31.8515,172.88 C32.0705011,173.210002 32.3689981,173.375 32.747,173.375 Z M40.865,170.567 C41.7530044,170.567 42.4084979,170.743998 42.8315,171.098 C43.2545021,171.452002 43.466,171.925997 43.466,172.52 C43.466,172.904002 43.370001,173.253498 43.178,173.5685 C42.985999,173.883502 42.693502,174.135499 42.3005,174.3245 C41.907498,174.513501 41.4230029,174.608 40.847,174.608 C40.4029978,174.608 39.9665021,174.549501 39.5375,174.4325 C39.1084979,174.315499 38.7440015,174.149001 38.444,173.933 L39.02,172.817 C39.2600012,172.997001 39.5359984,173.1365 39.848,173.2355 C40.1600016,173.3345 40.4809983,173.384 40.811,173.384 C41.1770018,173.384 41.4649989,173.312001 41.675,173.168 C41.885001,173.023999 41.99,172.823001 41.99,172.565 C41.99,172.294999 41.8805011,172.091001 41.6615,171.953 C41.4424989,171.814999 41.0630027,171.746 40.523,171.746 L38.912,171.746 L39.236,168.2 L43.079,168.2 L43.079,169.37 L40.451,169.37 L40.352,170.567 L40.865,170.567 Z M46.958,170.765 C47.5100028,170.855 47.9329985,171.060498 48.227,171.3815 C48.5210015,171.702502 48.668,172.099998 48.668,172.574 C48.668,172.940002 48.572001,173.277498 48.38,173.5865 C48.187999,173.895502 47.895502,174.142999 47.5025,174.329 C47.109498,174.515001 46.6280028,174.608 46.058,174.608 C45.6139978,174.608 45.1775021,174.549501 44.7485,174.4325 C44.3194979,174.315499 43.9550015,174.149001 43.655,173.933 L44.222,172.817 C44.4620012,172.997001 44.7394984,173.1365 45.0545,173.2355 C45.3695016,173.3345 45.6919983,173.384 46.022,173.384 C46.3880018,173.384 46.6759989,173.313501 46.886,173.1725 C47.096001,173.031499 47.201,172.832001 47.201,172.574 C47.201,172.057997 46.8080039,171.8 46.022,171.8 L45.356,171.8 L45.356,170.837 L46.652,169.37 L43.97,169.37 L43.97,168.2 L48.38,168.2 L48.38,169.145 L46.958,170.765 Z M54.005,173.312 L54.005,174.5 L49.244,174.5 L49.244,173.555 L51.674,171.26 C51.9320013,171.013999 52.1059995,170.802501 52.196,170.6255 C52.2860004,170.448499 52.331,170.273001 52.331,170.099 C52.331,169.846999 52.2455009,169.653501 52.0745,169.5185 C51.9034991,169.383499 51.6530016,169.316 51.323,169.316 C51.0469986,169.316 50.7980011,169.368499 50.576,169.4735 C50.3539989,169.578501 50.1680007,169.735999 50.018,169.946 L48.956,169.262 C49.2020012,168.895998 49.5409978,168.609501 49.973,168.4025 C50.4050022,168.195499 50.8999972,168.092 51.458,168.092 C51.9260023,168.092 52.3354982,168.168499 52.6865,168.3215 C53.0375018,168.474501 53.310499,168.690499 53.5055,168.9695 C53.700501,169.248501 53.798,169.576998 53.798,169.955 C53.798,170.297002 53.7260007,170.617998 53.582,170.918 C53.4379993,171.218002 53.1590021,171.559998 52.745,171.944 L51.296,173.312 L54.005,173.312 Z M62.087,168.2 L62.087,169.145 L59.747,174.5 L58.163,174.5 L60.422,169.388 L58.334,169.388 L58.334,170.414 L57.038,170.414 L57.038,168.2 L62.087,168.2 Z M65.255,174.608 C64.7329974,174.608 64.268002,174.479001 63.86,174.221 C63.451998,173.962999 63.1325012,173.589502 62.9015,173.1005 C62.6704988,172.611498 62.555,172.028003 62.555,171.35 C62.555,170.671997 62.6704988,170.088502 62.9015,169.5995 C63.1325012,169.110498 63.451998,168.737001 63.86,168.479 C64.268002,168.220999 64.7329974,168.092 65.255,168.092 C65.7770026,168.092 66.241998,168.220999 66.65,168.479 C67.058002,168.737001 67.3774988,169.110498 67.6085,169.5995 C67.8395012,170.088502 67.955,170.671997 67.955,171.35 C67.955,172.028003 67.8395012,172.611498 67.6085,173.1005 C67.3774988,173.589502 67.058002,173.962999 66.65,174.221 C66.241998,174.479001 65.7770026,174.608 65.255,174.608 Z M65.255,173.375 C65.6390019,173.375 65.9404989,173.210002 66.1595,172.88 C66.3785011,172.549998 66.488,172.040003 66.488,171.35 C66.488,170.659997 66.3785011,170.150002 66.1595,169.82 C65.9404989,169.489998 65.6390019,169.325 65.255,169.325 C64.8769981,169.325 64.5785011,169.489998 64.3595,169.82 C64.1404989,170.150002 64.031,170.659997 64.031,171.35 C64.031,172.040003 64.1404989,172.549998 64.3595,172.88 C64.5785011,173.210002 64.8769981,173.375 65.255,173.375 Z M71.042,168.2 L71.042,174.5 L69.584,174.5 L69.584,169.37 L68.324,169.37 L68.324,168.2 L71.042,168.2 Z M77.117,168.2 L77.117,174.5 L75.659,174.5 L75.659,169.37 L74.399,169.37 L74.399,168.2 L77.117,168.2 Z M81.158,170.765 C81.7100028,170.855 82.1329985,171.060498 82.427,171.3815 C82.7210015,171.702502 82.868,172.099998 82.868,172.574 C82.868,172.940002 82.772001,173.277498 82.58,173.5865 C82.387999,173.895502 82.095502,174.142999 81.7025,174.329 C81.309498,174.515001 80.8280028,174.608 80.258,174.608 C79.8139978,174.608 79.3775021,174.549501 78.9485,174.4325 C78.5194979,174.315499 78.1550015,174.149001 77.855,173.933 L78.422,172.817 C78.6620012,172.997001 78.9394984,173.1365 79.2545,173.2355 C79.5695016,173.3345 79.8919983,173.384 80.222,173.384 C80.5880018,173.384 80.8759989,173.313501 81.086,173.1725 C81.296001,173.031499 81.401,172.832001 81.401,172.574 C81.401,172.057997 81.0080039,171.8 80.222,171.8 L79.556,171.8 L79.556,170.837 L80.852,169.37 L78.17,169.37 L78.17,168.2 L82.58,168.2 L82.58,169.145 L81.158,170.765 Z M90.401,171.188 C90.7130016,171.344001 90.9514992,171.547999 91.1165,171.8 C91.2815008,172.052001 91.364,172.342998 91.364,172.673 C91.364,173.063002 91.2530011,173.403499 91.031,173.6945 C90.8089989,173.985501 90.497002,174.210499 90.095,174.3695 C89.692998,174.528501 89.2280026,174.608 88.7,174.608 C88.1719974,174.608 87.708502,174.528501 87.3095,174.3695 C86.910498,174.210499 86.6015011,173.985501 86.3825,173.6945 C86.1634989,173.403499 86.054,173.063002 86.054,172.673 C86.054,172.342998 86.1364992,172.052001 86.3015,171.8 C86.4665008,171.547999 86.7019985,171.344001 87.008,171.188 C86.7739988,171.043999 86.5940006,170.862501 86.468,170.6435 C86.3419994,170.424499 86.279,170.174001 86.279,169.892 C86.279,169.525998 86.380999,169.208001 86.585,168.938 C86.789001,168.667999 87.0739982,168.459501 87.44,168.3125 C87.8060018,168.165499 88.2259976,168.092 88.7,168.092 C89.1800024,168.092 89.6044982,168.165499 89.9735,168.3125 C90.3425018,168.459501 90.628999,168.667999 90.833,168.938 C91.037001,169.208001 91.139,169.525998 91.139,169.892 C91.139,170.174001 91.0760006,170.424499 90.95,170.6435 C90.8239994,170.862501 90.6410012,171.043999 90.401,171.188 Z M88.7,169.163 C88.4059985,169.163 88.1705009,169.233499 87.9935,169.3745 C87.8164991,169.515501 87.728,169.708999 87.728,169.955 C87.728,170.195001 87.8149991,170.383999 87.989,170.522 C88.1630009,170.660001 88.3999985,170.729 88.7,170.729 C89.0000015,170.729 89.2399991,170.660001 89.42,170.522 C89.6000009,170.383999 89.69,170.195001 89.69,169.955 C89.69,169.708999 89.6000009,169.515501 89.42,169.3745 C89.2399991,169.233499 89.0000015,169.163 88.7,169.163 Z M88.7,173.537 C89.0660018,173.537 89.3554989,173.454501 89.5685,173.2895 C89.7815011,173.124499 89.888,172.904001 89.888,172.628 C89.888,172.351999 89.7815011,172.133001 89.5685,171.971 C89.3554989,171.808999 89.0660018,171.728 88.7,171.728 C88.3399982,171.728 88.055001,171.808999 87.845,171.971 C87.6349989,172.133001 87.53,172.351999 87.53,172.628 C87.53,172.910001 87.6349989,173.131999 87.845,173.294 C88.055001,173.456001 88.3399982,173.537 88.7,173.537 Z M94.244,168.092 C95.1260044,168.092 95.8159975,168.360497 96.314,168.8975 C96.8120025,169.434503 97.061,170.206995 97.061,171.215 C97.061,171.929004 96.9275013,172.540997 96.6605,173.051 C96.3934987,173.561003 96.0170024,173.947999 95.531,174.212 C95.0449976,174.476001 94.4840032,174.608 93.848,174.608 C93.5119983,174.608 93.1910015,174.5705 92.885,174.4955 C92.5789985,174.4205 92.3180011,174.314001 92.102,174.176 L92.642,173.105 C92.9480015,173.315001 93.3409976,173.42 93.821,173.42 C94.3550027,173.42 94.7779984,173.262502 95.09,172.9475 C95.4020016,172.632498 95.5699999,172.178003 95.594,171.584 C95.2159981,171.962002 94.6940033,172.151 94.028,172.151 C93.625998,172.151 93.2600016,172.070001 92.93,171.908 C92.5999983,171.745999 92.339001,171.516501 92.147,171.2195 C91.954999,170.922499 91.859,170.579002 91.859,170.189 C91.859,169.768998 91.9639989,169.400002 92.174,169.082 C92.384001,168.763998 92.6704982,168.519501 93.0335,168.3485 C93.3965018,168.177499 93.7999978,168.092 94.244,168.092 Z M94.352,171.062 C94.6700016,171.062 94.929499,170.973501 95.1305,170.7965 C95.331501,170.619499 95.432,170.393001 95.432,170.117 C95.432,169.840999 95.334501,169.616001 95.1395,169.442 C94.944499,169.267999 94.6760017,169.181 94.334,169.181 C94.0219984,169.181 93.768501,169.264999 93.5735,169.433 C93.378499,169.601001 93.281,169.828999 93.281,170.117 C93.281,170.405001 93.378499,170.634499 93.5735,170.8055 C93.768501,170.976501 94.0279984,171.062 94.352,171.062 Z M100.427,171.404 L102.974,171.404 L102.974,172.529 L100.427,172.529 L100.427,171.404 Z M106.727,168.2 L108.185,168.2 L108.185,174.5 L106.727,174.5 L106.727,168.2 Z M111.209,174.572 C110.806998,174.572 110.414002,174.5225 110.03,174.4235 C109.645998,174.3245 109.340001,174.200001 109.112,174.05 L109.58,173.042 C109.796001,173.180001 110.056998,173.2925 110.363,173.3795 C110.669002,173.4665 110.968999,173.51 111.263,173.51 C111.857003,173.51 112.154,173.363001 112.154,173.069 C112.154,172.930999 112.073001,172.832 111.911,172.772 C111.748999,172.712 111.500002,172.661 111.164,172.619 C110.767998,172.559 110.441001,172.49 110.183,172.412 C109.924999,172.334 109.701501,172.196001 109.5125,171.998 C109.323499,171.799999 109.229,171.518002 109.229,171.152 C109.229,170.845998 109.317499,170.574501 109.4945,170.3375 C109.671501,170.100499 109.929498,169.916001 110.2685,169.784 C110.607502,169.651999 111.007998,169.586 111.47,169.586 C111.812002,169.586 112.152498,169.6235 112.4915,169.6985 C112.830502,169.7735 113.110999,169.876999 113.333,170.009 L112.865,171.008 C112.438998,170.767999 111.974003,170.648 111.47,170.648 C111.169998,170.648 110.945001,170.69 110.795,170.774 C110.644999,170.858 110.57,170.965999 110.57,171.098 C110.57,171.248001 110.650999,171.353 110.813,171.413 C110.975001,171.473 111.232998,171.53 111.587,171.584 C111.983002,171.65 112.306999,171.7205 112.559,171.7955 C112.811001,171.8705 113.029999,172.006999 113.216,172.205 C113.402001,172.403001 113.495,172.678998 113.495,173.033 C113.495,173.333001 113.405001,173.599999 113.225,173.834 C113.044999,174.068001 112.782502,174.249499 112.4375,174.3785 C112.092498,174.507501 111.683002,174.572 111.209,174.572 Z M117.482,174.266 C117.343999,174.368001 117.174501,174.4445 116.9735,174.4955 C116.772499,174.5465 116.561001,174.572 116.339,174.572 C115.762997,174.572 115.317502,174.425001 115.0025,174.131 C114.687498,173.836999 114.53,173.405003 114.53,172.835 L114.53,170.846 L113.783,170.846 L113.783,169.766 L114.53,169.766 L114.53,168.587 L115.934,168.587 L115.934,169.766 L117.14,169.766 L117.14,170.846 L115.934,170.846 L115.934,172.817 C115.934,173.021001 115.986499,173.178499 116.0915,173.2895 C116.196501,173.400501 116.344999,173.456 116.537,173.456 C116.759001,173.456 116.947999,173.396001 117.104,173.276 L117.482,174.266 Z M120.227,169.586 C120.977004,169.586 121.552998,169.764498 121.955,170.1215 C122.357002,170.478502 122.558,171.016996 122.558,171.737 L122.558,174.5 L121.244,174.5 L121.244,173.897 C120.979999,174.347002 120.488004,174.572 119.768,174.572 C119.395998,174.572 119.073501,174.509001 118.8005,174.383 C118.527499,174.256999 118.319001,174.083001 118.175,173.861 C118.030999,173.638999 117.959,173.387001 117.959,173.105 C117.959,172.654998 118.128498,172.301001 118.4675,172.043 C118.806502,171.784999 119.329996,171.656 120.038,171.656 L121.154,171.656 C121.154,171.349998 121.061001,171.114501 120.875,170.9495 C120.688999,170.784499 120.410002,170.702 120.038,170.702 C119.779999,170.702 119.526501,170.7425 119.2775,170.8235 C119.028499,170.9045 118.817001,171.013999 118.643,171.152 L118.139,170.171 C118.403001,169.984999 118.719498,169.841001 119.0885,169.739 C119.457502,169.636999 119.836998,169.586 120.227,169.586 Z M120.119,173.627 C120.359001,173.627 120.571999,173.571501 120.758,173.4605 C120.944001,173.349499 121.076,173.186001 121.154,172.97 L121.154,172.475 L120.191,172.475 C119.614997,172.475 119.327,172.663998 119.327,173.042 C119.327,173.222001 119.397499,173.364499 119.5385,173.4695 C119.679501,173.574501 119.872999,173.627 120.119,173.627 Z M126.77,169.586 C127.370003,169.586 127.854498,169.765998 128.2235,170.126 C128.592502,170.486002 128.777,171.019996 128.777,171.728 L128.777,174.5 L127.373,174.5 L127.373,171.944 C127.373,171.559998 127.289001,171.273501 127.121,171.0845 C126.952999,170.895499 126.710002,170.801 126.392,170.801 C126.037998,170.801 125.756001,170.910499 125.546,171.1295 C125.335999,171.348501 125.231,171.673998 125.231,172.106 L125.231,174.5 L123.827,174.5 L123.827,169.658 L125.168,169.658 L125.168,170.225 C125.354001,170.020999 125.584999,169.863501 125.861,169.7525 C126.137001,169.641499 126.439998,169.586 126.77,169.586 Z M132.908,169.586 C133.358002,169.586 133.767498,169.689499 134.1365,169.8965 C134.505502,170.103501 134.794999,170.394498 135.005,170.7695 C135.215001,171.144502 135.32,171.580998 135.32,172.079 C135.32,172.577002 135.215001,173.013498 135.005,173.3885 C134.794999,173.763502 134.505502,174.054499 134.1365,174.2615 C133.767498,174.468501 133.358002,174.572 132.908,174.572 C132.241997,174.572 131.735002,174.362002 131.387,173.942 L131.387,174.5 L130.046,174.5 L130.046,167.822 L131.45,167.822 L131.45,170.171 C131.804002,169.780998 132.289997,169.586 132.908,169.586 Z M132.665,173.42 C133.025002,173.42 133.320499,173.298501 133.5515,173.0555 C133.782501,172.812499 133.898,172.487002 133.898,172.079 C133.898,171.670998 133.782501,171.345501 133.5515,171.1025 C133.320499,170.859499 133.025002,170.738 132.665,170.738 C132.304998,170.738 132.009501,170.859499 131.7785,171.1025 C131.547499,171.345501 131.432,171.670998 131.432,172.079 C131.432,172.487002 131.547499,172.812499 131.7785,173.0555 C132.009501,173.298501 132.304998,173.42 132.665,173.42 Z M141.134,169.658 L141.134,174.5 L139.802,174.5 L139.802,173.924 C139.615999,174.134001 139.394001,174.294499 139.136,174.4055 C138.877999,174.516501 138.599001,174.572 138.299,174.572 C137.662997,174.572 137.159002,174.389002 136.787,174.023 C136.414998,173.656998 136.229,173.114004 136.229,172.394 L136.229,169.658 L137.633,169.658 L137.633,172.187 C137.633,172.967004 137.959997,173.357 138.614,173.357 C138.950002,173.357 139.219999,173.247501 139.424,173.0285 C139.628001,172.809499 139.73,172.484002 139.73,172.052 L139.73,169.658 L141.134,169.658 Z M142.439,167.822 L143.843,167.822 L143.843,174.5 L142.439,174.5 L142.439,167.822 Z" id="Hellocihan.com-cihan" transform="translate(31.995500, 164.885500) rotate(-90.000000) translate(-31.995500, -164.885500) "></path>
        </g>
    </g>
</svg>