<?xml version="1.0" encoding="UTF-8"?>
<svg width="208px" height="49px" viewBox="0 0 208 49" version="1.1" xmlns="http://www.w3.org/2000/svg" xmlns:xlink="http://www.w3.org/1999/xlink">
    <!-- Generator: Sketch 49.3 (51167) - http://www.bohemiancoding.com/sketch -->
    <title>Group 2</title>
    <desc>Created with Sketch.</desc>
    <defs>
        <polygon id="path-1" points="0 0 69.469869 0 69.469869 16.9698603 0 16.9698603"></polygon>
    </defs>
    <g id="Page-1" stroke="none" stroke-width="1" fill="none" fill-rule="evenodd">
        <g id="Desktop-HD-Copy" transform="translate(-66.000000, -89.000000)">
            <g id="Group-2" transform="translate(66.000000, 89.000000)">
                <g id="Group" transform="translate(21.000000, 6.000000)">
                    <path d="M6.05647059,37.3675294 C4.90728837,37.3675294 3.87200461,37.1268259 2.95058824,36.6454118 C2.02917186,36.1639976 1.30706144,35.4910631 0.784235294,34.6265882 C0.261409151,33.7621133 0,32.781182 0,31.6837647 C0,30.5863475 0.261409151,29.6054161 0.784235294,28.7409412 C1.30706144,27.8764663 2.02917186,27.2035318 2.95058824,26.7221176 C3.87200461,26.2407035 4.90728837,26 6.05647059,26 C7.11247587,26 8.05458409,26.1863511 8.88282353,26.5590588 C9.71106296,26.9317666 10.3943502,27.4701141 10.9327059,28.1741176 L8.61882353,30.2395294 C7.94587899,29.390584 7.15388691,28.9661176 6.24282353,28.9661176 C5.47670205,28.9661176 4.86070821,29.2119975 4.39482353,29.7037647 C3.92893885,30.1955319 3.696,30.8555253 3.696,31.6837647 C3.696,32.5120041 3.92893885,33.1719975 4.39482353,33.6637647 C4.86070821,34.1555319 5.47670205,34.4014118 6.24282353,34.4014118 C7.15388691,34.4014118 7.94587899,33.9769454 8.61882353,33.128 L10.9327059,35.1934118 C10.3943502,35.8974153 9.71106296,36.4357628 8.88282353,36.8084706 C8.05458409,37.1811783 7.11247587,37.3675294 6.05647059,37.3675294 Z M17.8475295,26.2484706 L21.5124707,26.2484706 L21.5124707,37.1190588 L17.8475295,37.1190588 L17.8475295,26.2484706 Z M39.8569414,26.2484706 L39.8569414,37.1190588 L36.1920003,37.1190588 L36.1920003,33.1124706 L32.8065885,33.1124706 L32.8065885,37.1190588 L29.1416473,37.1190588 L29.1416473,26.2484706 L32.8065885,26.2484706 L32.8065885,30.0997647 L36.1920003,30.0997647 L36.1920003,26.2484706 L39.8569414,26.2484706 Z M54.8936475,35.2244706 L50.7628239,35.2244706 L50.0329416,37.1190588 L46.3058828,37.1190588 L51.0578828,26.2484706 L54.6607063,26.2484706 L59.4127063,37.1190588 L55.6235298,37.1190588 L54.8936475,35.2244706 Z M53.8842357,32.5844706 L52.8282357,29.8512941 L51.7722357,32.5844706 L53.8842357,32.5844706 Z M76.5769417,26.2484706 L76.5769417,37.1190588 L73.5642358,37.1190588 L69.4334123,32.1807059 L69.4334123,37.1190588 L65.8616476,37.1190588 L65.8616476,26.2484706 L68.8743535,26.2484706 L73.005177,31.1868235 L73.005177,26.2484706 L76.5769417,26.2484706 Z M101.184001,33.1745882 L101.184001,37.1190588 L97.5190596,37.1190588 L97.5190596,33.128 L93.4192949,26.2484706 L97.2861185,26.2484706 L99.5068243,30.0065882 L101.74306,26.2484706 L105.283766,26.2484706 L101.184001,33.1745882 Z M111.608472,26.2484706 L115.273413,26.2484706 L115.273413,37.1190588 L111.608472,37.1190588 L111.608472,26.2484706 Z M122.902589,26.2484706 L126.56753,26.2484706 L126.56753,34.2771765 L131.474825,34.2771765 L131.474825,37.1190588 L122.902589,37.1190588 L122.902589,26.2484706 Z M148.048942,37.1190588 L148.017884,32.1651765 L145.657413,36.1407059 L144.042354,36.1407059 L141.681884,32.336 L141.681884,37.1190588 L138.34306,37.1190588 L138.34306,26.2484706 L141.355766,26.2484706 L144.896472,32.0409412 L148.344001,26.2484706 L151.356707,26.2484706 L151.387766,37.1190588 L148.048942,37.1190588 Z M166.424472,35.2244706 L162.293648,35.2244706 L161.563766,37.1190588 L157.836707,37.1190588 L162.588707,26.2484706 L166.191531,26.2484706 L170.943531,37.1190588 L167.154354,37.1190588 L166.424472,35.2244706 Z M165.41506,32.5844706 L164.35906,29.8512941 L163.30306,32.5844706 L165.41506,32.5844706 Z M186.989649,34.2771765 L186.989649,37.1190588 L177.004237,37.1190588 L177.004237,34.8672941 L181.973649,29.0903529 L177.159531,29.0903529 L177.159531,26.2484706 L186.741178,26.2484706 L186.741178,28.5002353 L181.771766,34.2771765 L186.989649,34.2771765 Z" id="CIHAN-YILMAZ" fill="#FFFFFF"></path>
                    <g id="Page-1">
                        <mask id="mask-2" fill="white">
                            <use xlink:href="#path-1"></use>
                        </mask>
                        <g id="Clip-2"></g>
                        <path d="M60.7091306,12.6616817 C60.3350563,10.7720092 61.3016066,9.5308607 62.2980738,9.39478646 C62.6463882,9.33910961 63.1511175,9.56471223 63.2517812,9.98659432 C63.4172528,10.7815114 63.2278031,11.9606729 60.9975367,13.4569699 C61.0008773,13.4697384 60.7924231,13.0824502 60.7091306,12.6616817 M55.813576,1.71702227 C56.9783358,1.59638908 56.930231,6.68265546 54.5923969,9.89365109 C54.2909996,8.73312271 53.8287332,2.11559432 55.813576,1.71702227 M45.6253795,8.45236288 C45.4671087,7.2619917 45.4588686,1.95546769 46.732755,2.10156376 C47.4361393,2.38648079 46.2868205,7.39398297 45.6253795,8.45236288 M36.3969777,8.37857249 C36.2386328,7.18820131 36.2304668,1.88160306 37.5043533,2.02769913 C38.2077376,2.31261616 37.0583445,7.32011834 36.3969777,8.37857249 M27.0947114,8.37857249 C26.9363664,7.18820131 26.9282004,1.88160306 28.2020869,2.02769913 C28.9054712,2.31261616 27.7560782,7.32011834 27.0947114,8.37857249 M7.34434891,10.4685332 C7.2860738,10.3755157 7.29817424,10.4326773 7.2329952,10.3448563 C6.97591659,9.64540655 6.48039258,8.08422751 6.4230083,6.3108083 C6.35805197,4.305031 6.69241004,1.9538345 7.67803886,1.9538345 C8.34593843,1.9538345 9.05570699,6.71895677 7.34434891,10.4685332 M3.92623537,15.3211795 C2.52354978,15.3211795 1.62410873,14.0241314 1.62410873,12.6257515 C1.62410873,11.2272974 2.44968515,9.93024934 3.85244498,9.93024934 C4.48367205,9.93024934 4.83465895,9.9998083 5.32632271,10.4273323 C5.41562838,10.7786162 5.66810437,11.5889742 5.79118734,11.9569611 C5.95576812,12.449293 6.15175066,12.8684284 6.34929214,13.3245332 C6.0670476,14.4945638 5.14184672,15.3211795 3.92623537,15.3211795 M68.7363227,11.7478389 C68.5174013,11.5937996 68.3482179,11.5683367 68.2080607,11.8673585 C65.790052,17.1041751 61.7155454,14.4910004 62.1203533,14.720983 C63.0241742,14.3074153 65.4011306,12.401114 65.0418293,9.76893493 C64.8236502,8.16017074 63.4430127,7.44669039 61.9773751,7.70221004 C59.4192834,8.14814454 58.4781218,10.907341 58.9572397,13.3502188 C59.0411262,13.7697253 59.1909341,14.1158127 59.3405192,14.4546991 C56.4497026,16.8054502 55.3017201,12.3501882 55.1714362,11.8178432 C55.1662397,11.7893367 57.4036328,9.92453319 58.0258031,5.48070349 C58.6780389,0.82329738 57.1923576,-0.0246240175 55.6728991,0.00187816594 C52.8616633,0.0508737991 52.1020825,5.92470786 53.1226022,10.820114 C53.0371568,10.8423847 52.6393271,11.0626424 52.0001568,11.0872886 C51.5401175,9.64013581 49.5748729,8.37152009 49.0603445,8.86021441 C47.7729472,10.0833236 49.3725803,12.4740878 50.4979952,12.6616817 C49.8219297,16.8258651 45.593755,15.794507 46.3808031,10.5773629 C47.7577288,8.02045895 48.8049734,4.21847205 48.6179734,1.92324934 C48.5518293,1.11066419 47.9511131,0.0219218341 46.5921524,0.0757427948 C43.9788293,0.179227511 43.6948031,6.05469476 44.0012485,10.2247428 C43.9859559,10.1220747 43.8406022,10.7314022 42.7696764,11.0344328 C42.5162354,9.62825808 40.2522659,8.21681266 39.7191786,8.89547642 C38.7215978,10.1655026 40.4504755,12.429769 41.2695934,12.587817 C40.5934537,16.7520747 36.365279,15.7206424 37.1524013,10.5034983 C38.5293271,7.94666856 39.5764974,4.14468166 39.3895716,1.84945895 C39.3234275,1.03679956 38.7226371,-0.0519427948 37.3636764,0.00187816594 C34.7503533,0.105362882 34.4663271,5.98083013 34.7727725,10.1508782 C34.7572572,10.0466511 34.6084886,10.6758738 33.4939122,10.974079 C33.4565716,9.1498083 31.1842878,8.31331921 30.6384319,8.89547642 C29.6656459,9.93292183 30.8611393,12.0617821 31.9673271,12.587817 C31.2912616,16.7520747 27.0630127,15.7206424 27.8501349,10.5034983 C29.2270607,7.94666856 30.2741568,4.14468166 30.0873052,1.84945895 C30.0210869,1.03679956 29.4203707,-0.0519427948 28.0614843,0.00187816594 C25.4481611,0.105362882 25.2379253,6.27621441 25.5442965,10.4462624 C24.6835323,14.1341489 21.7969472,18.7398127 22.171838,9.51371223 C22.2088817,8.86667293 22.2493402,8.62072969 21.9267856,8.37857249 C21.6848511,8.19016201 21.1351349,8.28072969 20.8347026,8.28830175 C20.4693882,8.3029262 20.377707,8.51672533 20.2970127,8.83965109 C20.1088991,9.6739131 20.0751961,10.4825638 20.0483227,11.5859306 C20.0307288,12.1020179 19.989231,12.3429131 19.7906502,13.0466686 C19.5919952,13.750424 18.4595279,15.0364852 17.839362,14.8215725 C16.9791917,14.5255201 17.2612135,12.0972668 17.4225279,10.4287428 C17.5568948,9.11009214 17.1268467,8.51798734 16.0247419,8.30270349 C15.3796328,8.16818821 14.9875192,8.18882576 14.3157594,7.97710524 C13.6803009,7.77681703 13.5365061,6.57479083 12.1815541,6.97544148 C11.4400869,7.19465983 11.9166066,8.76526681 11.7385891,9.92935852 C10.8626808,15.6552406 9.04026594,15.8124721 8.19486856,13.0309306 C12.0024974,3.70550262 9.29630524,0.0290484716 7.71241004,0.0290484716 C6.06251921,0.0290484716 4.17641004,1.16545022 4.97503886,8.43692183 C4.58671135,8.32363799 4.46741441,8.26269039 4.04234017,8.26269039 C1.63806507,8.26269039 -2.22707424e-05,10.2062581 -2.22707424e-05,12.6037777 C-2.22707424e-05,15.0012974 1.63806507,16.9447908 4.04234017,16.9447908 C5.46158035,16.9447908 6.45797336,16.299459 7.21265459,15.3009131 C7.70498646,16.0060048 8.30458908,16.9557035 9.40105197,16.9130179 C12.6692834,16.7857777 13.6198729,10.0817646 13.7318948,9.70776463 C14.0813227,9.76165983 14.411969,9.86358559 14.7344493,9.91740655 C15.2721393,9.99817511 15.3110389,10.2108607 15.2989384,10.7516686 C15.1565541,15.3110092 15.9978686,16.9075245 17.9063969,16.9075245 C18.9696764,16.9075245 19.9175934,15.8628782 20.5704231,15.115769 C21.0580782,16.1221838 21.8351044,16.8767908 22.8775978,16.9075245 C25.4036197,16.9702537 26.3707638,12.9441489 26.2825716,13.4739699 C26.2133838,13.8897646 27.1020607,16.8848083 29.702541,16.8956467 C32.9238555,16.9090834 33.5225672,13.3667734 33.5940563,12.7733323 C33.6029646,12.6552231 33.6068249,12.6676948 33.5940563,12.7733323 C33.5932397,12.7843934 33.5924231,12.7961227 33.5915323,12.8094109 C34.6141306,12.6192188 35.1418729,12.0709131 35.1418729,12.0709131 C35.1418729,12.0709131 35.9629952,16.9507297 39.0048817,16.8956467 C42.1633926,16.8384852 42.7589865,13.6363978 42.8373795,13.0120004 C42.847624,12.8638258 42.8537856,12.8811969 42.8373795,13.0120004 C42.8369341,13.018162 42.8364886,13.0235812 42.8360432,13.0303367 C44.050838,12.5883367 44.3702747,12.1447777 44.3702747,12.1447777 C44.3702747,12.1447777 45.0230301,16.9276424 48.2332834,16.9695114 C51.0940345,17.006852 52.1541961,14.0774328 52.1605061,12.8512057 C52.6429646,12.8563279 53.5355017,12.5650266 53.514493,12.5483236 C53.514493,12.5483236 54.5624799,16.7301009 57.4886328,16.9447908 C58.8626633,17.0456773 59.893279,16.1718476 60.4808555,15.7731271 C61.8615672,16.891341 66.4592135,18.3194895 69.362279,13.3975812 C69.7719122,12.6912275 68.8910301,11.8566686 68.7363227,11.7478389 M21.2254057,6.82778646 C22.0204712,6.82778646 22.6650607,6.18304847 22.6650607,5.38776026 C22.6650607,4.59239782 22.0204712,3.94773406 21.2254057,3.94773406 C20.4303402,3.94773406 19.7857507,4.59239782 19.7857507,5.38776026 C19.7857507,6.18304847 20.4303402,6.82778646 21.2254057,6.82778646" id="Fill-1" fill="#333333" mask="url(#mask-2)"></path>
                    </g>
                </g>
                <rect id="Rectangle-3" fill="#156FFF" x="0" y="0" width="1" height="49"></rect>
            </g>
        </g>
    </g>
</svg>