<svg width="104" height="100" viewBox="0 0 104 100" fill="none" xmlns="http://www.w3.org/2000/svg">
<path d="M12.0626 38.2846C11.7104 38.4373 11.3638 38.7155 11.1164 39.0103C10.4909 39.7554 9.74866 40.3811 9.1357 41.1343C8.96759 41.3408 8.82491 41.5494 8.70982 41.7743C8.66413 41.8631 8.64301 41.9571 8.60205 42.0472C8.46713 42.3442 8.04211 42.3124 7.99685 42.5562C7.96754 42.7155 8.20979 42.8416 8.07358 43.1094C7.5658 44.1094 7.2869 45.1266 6.91102 46.1365C6.85067 46.2983 6.78558 46.4403 6.78472 46.6017C6.78213 47.0841 6.75067 47.573 6.48514 48.0949C6.33858 48.3833 6.46876 48.612 6.39936 48.8936C6.06227 50.2618 6.23038 51.4794 6.33599 52.7021C6.41013 53.5584 6.5679 54.4056 6.86662 55.1356C7.25414 56.0833 7.83693 56.8944 8.59559 57.5322C8.75034 57.6618 8.93526 57.7034 9.17708 57.6013C10.1176 57.2052 10.9423 56.7163 11.5186 55.6459C12.5854 53.6652 13.454 51.6957 13.673 49.6803C13.6864 49.5571 13.6471 49.3979 13.839 49.3197C14.0282 49.2425 14.1153 49.3545 14.1532 49.4974C14.2398 49.8283 14.3403 50.1502 14.2873 50.5489C14.1485 51.5923 13.9222 52.6528 13.5368 53.7069C13.1441 54.7794 12.6173 55.8468 11.8518 56.8279C11.8358 56.8485 11.8229 56.8734 11.8044 56.8901C10.7371 57.8416 9.69823 58.8524 8.51024 59.588C8.15376 59.8086 7.79382 60.0609 7.41018 60.23C6.31444 60.712 5.3049 60.7837 4.38503 60.5605C3.14316 60.2592 2.24484 59.5434 1.63317 58.4485C0.711999 56.8009 0.33698 54.8584 0.119296 52.8176C0.095157 52.5919 0.0102389 52.3489 0.439571 52.2468C0.575785 52.2142 0.590441 52.0592 0.599062 51.9481C0.61458 51.7468 0.633977 51.5438 0.633977 51.3476C0.63484 50.2528 0.774502 49.1219 0.904681 47.9936C0.917613 47.8807 0.97796 47.7343 0.94089 47.6592C0.665876 47.0991 1.20642 46.7232 1.60558 46.3575C1.78533 46.1923 1.8668 46.0472 1.9168 45.8657C2.14052 45.0554 2.43191 44.2386 2.82676 43.4541C3.12979 42.8511 3.22937 42.1635 3.82983 41.6489C3.85742 41.1172 4.52383 40.721 4.53892 40.1554C4.54409 39.9635 4.77298 39.6215 4.96782 39.4665C5.37517 39.1429 5.59673 38.6223 6.07994 38.388C6.19029 38.3343 6.31056 38.1665 6.37565 38.0386C6.60023 37.5974 6.95068 37.7446 7.22785 37.5682C7.51278 37.3871 7.45501 36.9464 7.82831 36.8365C8.25333 36.7116 8.65335 36.4665 9.06587 36.2519C9.70168 35.921 10.2452 36.0979 10.7134 36.2979C11.3828 36.5837 12.0742 36.8094 12.8441 36.903C13.0372 36.9262 13.1781 36.8824 13.3238 36.6867C13.3553 36.6446 13.3885 36.6026 13.426 36.567C13.7984 36.2142 14.0351 35.6343 14.6386 35.691C15.0343 35.7283 15.511 35.5176 15.8373 35.7936C15.9968 35.9288 16.2977 35.8961 16.515 35.9734C17.2831 36.2464 17.4779 36.9133 17.0322 37.8571C16.605 38.7605 16.2602 39.6734 15.8606 40.5798C15.6248 41.1142 15.2839 41.5957 14.8459 42.0206C14.176 42.67 13.6308 43.3815 13.3113 44.2176C13.2329 44.4232 13.1544 44.6425 13.0243 44.8283C12.6665 45.3395 12.2915 45.4116 12.035 45.0464C11.8725 44.815 11.7031 44.5893 11.5423 44.3558C11.4789 44.264 11.394 44.1743 11.3824 44.0562C11.2875 43.0738 11.1492 42.1167 11.3362 41.0215C11.4772 40.1931 11.8583 39.3768 12.0436 38.5592C12.0634 38.473 12.1428 38.3764 12.0626 38.2846ZM9.17579 37.0644C9.11372 36.9249 9.03052 36.9124 8.9413 36.9537C8.543 37.1361 8.14988 37.3313 7.77184 37.6069C7.6283 37.7116 7.51321 37.794 7.56105 37.9386C7.61321 38.097 7.76106 38.0056 7.89038 37.9197C8.30851 37.6421 8.67878 37.2481 9.17579 37.0644Z" fill="white"/>
<path d="M17.1093 47.0022C17.3981 43.7035 17.9266 40.3584 18.5107 37.0017C18.6697 36.0884 18.796 35.182 18.865 34.2867C18.9068 33.7429 18.8598 33.2429 18.7598 32.7597C18.6452 32.2069 18.4904 31.7172 17.852 31.6284C17.4947 31.5786 17.5675 31.4713 17.9068 31.0665C18.4663 30.3987 19.0762 29.9704 19.8077 29.8816C20.2228 29.8314 20.6379 29.7902 21.0414 29.7833C21.5936 29.7738 22.1354 29.7996 22.6807 29.8125C23.3803 29.8296 23.9036 30.161 24.2877 30.5983C24.8864 31.2811 25.333 32.0987 25.4929 33.1283C25.5636 33.5841 25.5472 34.0635 25.5265 34.5356C25.4959 35.2361 25.5037 35.9408 25.3696 36.6575C25.1899 37.6193 24.9537 38.6077 24.4472 39.5781C24.3291 39.8043 24.1627 40.0052 24.242 40.2266C24.2592 40.276 24.2476 40.3786 24.2084 40.4236C23.7838 40.9176 23.8377 41.4009 23.7325 41.8966C23.6118 42.4657 23.2635 43.0275 23.0523 43.6017C22.6432 44.7142 22.1087 45.8236 21.9134 46.9365C21.8427 47.3378 21.5509 47.6726 21.4401 48.061C21.2056 48.8846 21.1699 49.6708 20.9987 50.4803C20.8349 51.2537 20.6892 52.0241 20.5957 52.7867C20.5703 52.9974 20.5996 53.1756 20.6159 53.3623C20.6707 53.9914 20.7513 54.6077 20.6836 55.285C20.6091 56.0283 20.0741 56.7296 19.3482 56.9833C19.19 57.0386 19.0439 57.0502 18.8973 57.0305C17.8076 56.8837 17.3037 56.1593 17.13 55.0949C16.9826 54.1932 16.889 53.276 16.9317 52.2944C16.9701 51.4108 16.8731 50.5696 16.9382 49.6743C17.0033 48.7816 17.0528 47.8927 17.1093 47.0022Z" fill="white"/>
<path d="M20.7822 18.8468C21.0554 18.7412 21.3615 18.6403 21.6132 18.7008C22.0279 18.8004 22.437 18.6382 22.8788 18.3828C23.2224 18.1841 23.5013 18.1549 23.8534 18.2455C24.5285 18.4189 25.0927 18.7532 25.6966 19.018C26.3975 19.3257 26.7643 19.9832 26.6583 20.9412C26.6359 21.1429 26.5643 21.3682 26.5962 21.542C26.8333 22.842 26.0893 24.1815 25.4932 25.5167C25.4169 25.6875 25.3147 25.8206 25.1406 25.9026C24.8962 26.018 24.6681 26.1463 24.5233 26.4339C24.4767 26.5266 24.3228 26.6532 24.2349 26.6669C23.8125 26.7352 23.3771 27.0532 22.9758 27.0717C22.1499 27.1103 21.2813 27.2648 20.5455 27.0283C20.4899 27.0107 20.4274 27.0043 20.3744 26.9832C20.0291 26.8438 19.5136 26.9953 19.3209 26.5953C18.9678 25.8609 18.6303 25.121 18.8928 24.0845C19.1144 23.2094 19.3256 22.3352 19.3838 21.4845C19.4084 21.1296 19.4657 20.7549 19.1536 20.5854C19.0308 20.5189 19.0821 20.4008 19.1523 20.2446C19.4644 19.5489 19.8726 19.0039 20.627 18.8961C20.6701 18.8897 20.7162 18.8682 20.7822 18.8468Z" fill="white"/>
<path d="M30.4126 41.679C30.9135 40.7116 31.4157 39.7442 31.9153 38.7764C32.9584 36.7549 34.1865 34.8176 35.6659 32.9919C35.9297 32.6665 36.1875 32.3343 36.4233 31.9927C36.7604 31.5039 37.1832 31.2678 37.6414 31.2404C37.9113 31.224 38.1574 31.1253 38.4272 31.0245C39.442 30.6459 40.4718 30.4039 41.3804 30.5043C42.3313 30.6095 42.9486 31.2125 43.2077 32.1519C43.3581 32.6987 43.4594 33.2519 43.2947 33.9271C43.149 34.5249 43.1917 35.0876 43.1335 35.6683C43.0339 36.667 42.8382 37.6889 42.7391 38.6871C42.6848 39.2348 42.5352 39.7584 42.3106 40.3172C41.9554 41.2004 41.6416 42.0944 41.4002 42.9794C41.2408 43.5622 41.2239 44.1408 41.1748 44.7133C41.1589 44.8983 41.1864 45.0588 41.0032 45.2288C40.6325 45.5721 40.6243 45.9425 40.6545 46.2747C40.689 46.6584 40.6519 47.0592 40.6472 47.4528C40.6446 47.6773 40.6429 47.8786 40.4045 48.0927C40.3226 48.1665 40.2248 48.3597 40.2502 48.4168C40.4424 48.8477 40.0041 49.4725 40.2144 49.8867C40.3817 50.2168 40.2709 50.5464 39.9097 50.8657C39.6743 51.0734 39.5566 51.4738 39.1907 51.47C38.7777 51.4661 38.3574 51.5313 38.0772 51.1992C37.7332 50.7914 37.2668 50.5103 36.9293 50.0803C36.1858 49.1318 35.7521 47.991 35.5711 46.6717C35.2568 44.3794 35.4224 41.9301 35.659 39.4584C35.809 37.8876 35.9793 36.312 36.1409 34.7386C36.1616 34.5378 36.197 34.3309 36.0582 34.1584C35.6827 34.506 35.3831 34.8837 35.1042 35.2811C33.8899 37.0112 32.9188 38.8266 31.9433 40.6429C31.2415 41.9507 30.71 43.2811 30.1751 44.6116C29.9557 45.1571 29.7652 45.7082 29.6669 46.2584C29.5859 46.715 29.2854 47.1949 29.3453 47.6395C28.8457 48.3571 29.1513 48.9811 28.9018 49.6764C28.713 50.2026 28.6086 50.7189 28.6199 51.2348C28.6285 51.6129 28.4229 52.0545 28.0987 52.4378C28.0112 52.5412 27.9241 52.6335 27.8146 52.6979C27.425 52.9258 27.2767 53.0683 27.1435 53.388C27.1146 53.4575 27.0668 53.5717 27.04 53.5644C26.6741 53.4618 26.4223 53.9481 26.0908 54.0391C25.6119 54.1704 25.3262 53.9429 25.1279 53.6777C24.7369 53.1545 24.3968 52.5798 24.6891 51.6691C24.7753 51.4 24.7641 51.1271 24.7753 50.8627C24.8593 48.9331 25.2524 46.9348 25.455 44.9807C25.5425 44.1369 25.6994 43.276 25.7137 42.4421C25.7266 41.682 25.9081 40.8627 26.0667 40.0627C26.2697 39.0395 26.4051 38.0296 26.5637 37.015C26.9801 34.3545 27.2086 31.7335 27.5987 29.0794C27.8146 27.6103 28.0388 26.1313 28.1741 24.6889C28.4548 21.694 29.2052 18.6339 29.7143 15.6095C30.1635 12.9442 30.7139 10.2627 31.0471 7.61632C31.22 6.24207 31.5075 4.84379 31.7394 3.45709C31.7851 3.18413 31.8321 2.90816 31.8429 2.64422C31.8545 2.35065 31.8183 2.09314 31.4519 2.10473C31.2066 2.11246 31.1325 1.96568 31.3941 1.70816C31.5394 1.56482 31.5631 1.40173 31.639 1.24593C31.8993 0.714173 32.245 0.443787 32.7601 0.391856C33.7374 0.292714 34.7184 0.181984 35.684 0.126619C36.4276 0.0841302 37.0703 0.264817 37.5324 0.731341C37.6281 0.827907 37.7272 0.881126 37.866 0.91589C38.635 1.10816 38.8803 1.57469 38.7018 2.48842C38.6738 2.63177 38.6717 2.75967 38.6945 2.87812C38.7949 3.39143 38.5919 3.98928 38.4936 4.53349C38.4139 4.9734 38.1962 5.4631 38.0971 5.93821C38.0363 6.23091 37.8983 6.52791 37.9703 6.79572C37.985 6.85151 37.9927 6.9352 37.9604 6.991C37.6699 7.49443 37.8242 7.92662 37.7044 8.39143C37.5246 9.09057 37.5914 9.73177 37.4263 10.415C37.2677 11.0713 37.2604 11.7103 36.972 12.3824C36.8763 12.6056 36.8509 12.8412 36.8091 13.0687C36.6457 13.9549 36.4134 14.8343 35.9271 15.721C35.7599 16.0253 35.6543 16.3695 35.6 16.6828C35.4663 17.4541 35.0693 18.2459 35.0335 19.0065C35.0314 19.0498 35.0042 19.1017 35.006 19.1429C35.0228 19.4884 34.5176 19.7665 34.6206 20.1721C34.6943 20.4622 34.5581 20.8755 34.4917 21.2374C34.4249 21.6022 34.327 21.9717 34.2447 22.3391C34.1525 22.7519 34.0762 23.1635 33.9688 23.5777C33.6555 24.7837 33.5955 25.9386 33.4796 27.1043C33.4529 27.3734 33.477 27.6339 33.2511 27.9077C33.1796 27.9944 33.1408 28.0756 33.1899 28.1537C33.3865 28.4652 33.2033 28.8674 33.0765 29.2567C33.0395 29.3717 32.9813 29.4953 32.9787 29.6009C32.9593 30.4541 32.6696 31.3498 32.5157 32.224C32.3312 33.2704 32.0075 34.3292 31.7398 35.3833C31.7166 35.4751 31.7023 35.6185 31.651 35.6524C31.0458 36.0507 31.3247 36.4773 31.2036 36.8919C30.9933 37.6086 31.0575 38.3069 30.6432 39.0369C30.6066 39.1013 30.5656 39.1876 30.5747 39.2404C30.7032 40.0073 30.4592 40.8622 30.4126 41.679Z" fill="white"/>
<path d="M57.2251 39.7125C56.7053 40.5017 56.2363 41.2099 55.7716 41.9202C54.7862 43.4253 53.6456 44.8086 52.305 46.0373C52.2473 46.0901 52.18 46.1412 52.1391 46.2034C51.5654 47.079 50.7338 47.5713 49.9278 48.0919C49.3588 48.4592 48.7411 48.624 48.176 49.0223C46.9302 49.2125 45.6564 49.4919 44.6085 49.0494C43.602 48.6245 43.046 47.7708 42.8503 46.6438C42.6002 45.2017 42.727 43.6416 43.224 41.9914C43.483 41.1309 43.9637 40.3399 44.5585 39.606C44.8133 39.2919 45.1262 38.9983 45.5146 38.7627C45.878 38.5425 46.1772 38.1579 46.6237 38.0674C46.7397 38.0438 47.1802 37.7811 46.8862 37.5043C46.8315 37.4528 46.9824 37.3597 47.0669 37.3395C47.7928 37.1652 48.4083 36.6172 49.0631 36.1837C49.3609 35.9863 49.7071 35.9142 50.0317 35.7837C50.1873 35.721 50.3537 35.6824 50.4963 35.5863C51.6373 34.8163 52.8296 34.4425 54.0086 33.9721C54.9155 33.6103 55.7686 33.085 56.5945 32.4434C56.9695 32.1524 57.1148 31.8601 57.132 31.4537C57.1993 29.8395 57.2915 28.2172 57.3898 26.594C57.4204 26.0833 57.5001 25.5588 57.5532 25.0416C57.6118 24.4704 57.5678 23.9481 57.3225 23.5193C57.1506 23.2189 56.8816 23.024 56.4807 23.1223C55.313 23.4077 54.1521 23.8133 53.0766 24.7395C52.6365 25.118 52.3882 25.5275 52.2938 26.067C52.1632 26.8125 51.9326 27.5678 51.8425 28.3172C51.7792 28.8412 51.4416 29.4142 51.0227 29.9099C50.5196 30.5056 50.0674 30.694 49.5053 30.5476C49.2191 30.473 48.9316 30.4 48.6385 30.3391C48.3557 30.2807 48.1419 30.1266 47.9777 29.9236C47.8367 29.7502 47.7665 29.5446 47.9553 29.206C48.1906 28.7846 48.351 28.3395 48.5471 27.9056C48.9829 26.9395 49.6411 26.0897 50.4373 25.3567C52.5508 23.4107 54.8491 22.0906 57.3113 21.3944C57.8299 21.2481 58.3213 21.221 58.8153 21.2082C60.202 21.1725 61.3986 21.5262 62.5452 21.9781C62.8366 22.0931 63.1819 22.1931 63.2198 22.6052C63.2233 22.6438 63.2491 22.6846 63.2815 22.6974C63.9294 22.9614 63.9884 23.7459 64.3815 24.2356C64.6552 24.5768 64.5078 25.0919 64.4065 25.5661C64.332 25.9163 64.3121 26.2395 64.3156 26.567C64.3212 27.1524 64.382 27.7185 64.3052 28.3331C64.266 28.6481 64.2876 28.9489 64.3595 29.2258C64.4264 29.4824 64.4259 29.7532 64.344 30.0674C64.2177 30.5528 64.4009 30.9425 64.3302 31.4296C64.1936 32.3708 64.2591 33.2562 64.2638 34.1597C64.269 35.1747 64.3018 36.1876 64.2479 37.2253C64.2354 37.4682 64.2169 37.7146 64.2276 37.9494C64.2488 38.4258 64.0125 38.9528 63.725 39.3404C63.3384 39.8627 63.3664 40.2464 63.4345 40.6386C63.5505 41.3026 63.9181 41.8296 63.9 42.573C63.8979 42.6622 64.0056 42.7223 64.0746 42.782C64.391 43.0571 64.2341 43.4713 63.9992 43.882C63.7431 44.3292 63.4117 44.6567 62.9133 44.7026C61.9728 44.7893 61.1447 44.612 60.4904 44.1717C59.0045 43.1713 57.6514 42.0275 57.3385 39.9558C57.3294 39.8983 57.2924 39.8545 57.2251 39.7125ZM57.0924 36.3077C57.0859 35.4545 57.0932 34.8635 57.073 34.2824C57.0574 33.8481 56.9747 33.818 56.5389 34.0725C55.6759 34.5764 54.7979 35.0086 53.9357 35.5373C52.5939 36.361 51.2972 37.2404 50.1631 38.4159C49.7648 38.8288 49.2674 39.2416 49.1471 39.8356C48.9476 40.8167 48.6359 41.8228 48.8488 42.7077C48.8717 42.8022 48.8506 42.9249 48.832 43.0378C48.6876 43.915 48.8493 44.6841 48.8678 45.5034C48.873 45.7228 48.9523 45.903 49.0506 46.067C49.4402 46.7185 49.8304 46.7343 50.6002 46.0485C51.7313 45.0404 52.7947 43.9674 53.7012 42.7292C54.5823 41.5249 55.2974 40.2515 56.1199 39.0262C56.7992 38.0142 57.3126 37.0425 57.0924 36.3077Z" fill="white"/>
<path d="M71.7139 37.8292C71.454 37.24 71.454 37.24 71.0859 37.0258C70.6867 37.4816 70.9518 37.897 70.7371 38.4C70.3992 38.3421 70.5208 37.8786 70.2199 37.8198C69.9776 38.0365 70.0837 38.2018 70.113 38.3979C70.1475 38.6236 70.0664 38.764 69.7608 38.9335C69.3642 39.1537 68.8681 39.2005 68.5745 39.7558C68.5069 39.8837 68.1741 40.0146 68.1064 39.7709C68.0823 39.6829 68.0698 39.5962 67.9762 39.6515C67.1361 40.1481 66.8292 39.5215 66.3619 39.2906C66.0063 39.1151 65.8653 38.6464 65.8498 38.2065C65.8197 37.3288 65.7447 36.4687 65.7718 35.5644C65.8145 34.1515 66.0382 32.6949 66.086 31.2829C66.1145 30.4451 66.149 29.6073 66.1373 28.7807C66.1257 27.9236 66.2361 27.0236 66.293 26.1421C66.3912 24.6288 66.6046 23.0726 66.5572 21.6129C66.505 20.0069 66.5973 18.3327 66.2007 16.858C66.0451 16.2807 65.7878 15.8524 65.2084 15.7112C65.1317 15.6927 65.0524 15.6743 65.0386 15.5691C65.2028 15.3005 65.4584 15.2091 65.6964 15.1181C66.4421 14.8331 67.1667 14.6794 67.8659 14.7262C68.9724 14.8 70.0143 15.0228 70.8854 15.5133C71.8411 16.0515 72.601 16.8288 73.0347 17.9052C73.2024 18.3211 73.3537 18.7481 73.5265 19.2078C73.83 18.9726 73.9321 18.6807 74.0653 18.3979C74.5826 17.2988 75.2322 16.2447 75.9309 15.2103C76.5051 14.3601 77.2146 13.6232 77.9832 12.9468C79.0337 12.0219 80.1712 11.5266 81.3066 11.4249C82.2093 11.3442 82.9434 11.6181 83.4011 12.3133C83.6055 12.6236 83.9003 12.8653 84.1956 13.0885C84.7603 13.5163 85.0279 14.1949 85.3495 14.8211C85.9508 15.9923 86.1746 17.3683 86.181 18.8584C86.184 19.5936 86.2362 20.3151 86.3168 21.0202C86.3604 21.4035 86.3215 21.8155 86.2642 22.2073C86.1215 23.1829 86.206 24.0859 86.094 25.0545C85.9224 26.546 85.4646 28.0636 85.2228 29.5558C85.1685 29.8915 84.8611 30.1863 84.8232 30.5095C84.7594 31.0524 84.4525 31.5369 84.0951 32.0121C83.9128 32.2545 83.8038 32.4704 83.8706 32.7271C83.9257 32.9391 83.8878 33.2249 83.7072 33.4528C83.4244 33.8091 83.524 34.0683 83.5593 34.3468C83.5796 34.5095 83.6568 34.6387 83.6736 34.8125C83.7253 35.34 83.9132 35.7983 83.7382 36.4305C83.6412 36.7807 83.7714 37.0983 83.9137 37.385C84.0753 37.7116 84.165 38.0936 84.0184 38.561C83.8231 39.1833 83.4684 39.4013 83.0287 39.1614C82.2976 38.7627 81.6411 38.2739 81.0558 37.6975C80.6993 37.3464 80.3221 37.0168 79.9717 36.6597C78.4918 35.1524 77.7901 33.1258 77.6224 30.7352C77.4353 28.0653 77.6879 25.2666 77.9461 22.4627C78.0535 21.297 78.094 20.1472 78.241 18.9713C78.4337 17.4327 78.7044 15.8837 79.2384 14.3035C79.3725 13.9069 79.4583 13.5151 79.4143 13.1537C79.3751 12.8331 79.2229 12.7872 78.9087 13.0455C78.3233 13.5266 77.8207 14.0927 77.3776 14.7163C76.1396 16.4571 75.1964 18.27 74.552 20.1636C74.458 20.4391 74.3209 20.7133 74.2046 20.9885C73.8662 21.788 73.8011 22.5262 73.8239 23.2777C73.8524 24.1992 73.8451 25.1438 73.6459 26.1322C73.5705 26.5048 73.5968 26.8133 73.6563 27.1455C73.7416 27.6176 73.7119 28.1679 73.6485 28.6893C73.5774 29.2764 73.5769 29.8357 73.5649 30.3979C73.5438 31.4018 73.3631 32.4159 72.9325 33.4674C72.8954 33.5576 72.8187 33.6554 72.814 33.7348C72.7493 34.7597 72.1213 35.8335 72.0618 36.8623C72.0445 37.1593 71.7816 37.4906 71.7139 37.8292Z" fill="white"/>
<path d="M21.9586 63.5082C21.8461 63.6301 21.7879 63.6713 21.7681 63.7176C21.3586 64.6803 20.8672 65.6279 20.4723 66.5953C19.9839 67.7936 19.4464 68.9884 18.83 70.1678C18.4296 70.9344 18.08 71.7219 17.5567 72.4417C16.423 74.0017 14.9307 74.9348 13.5638 73.8421C12.9198 73.3271 12.7491 72.4829 12.4818 71.7082C12.1353 70.7026 12.1892 69.5155 12.2103 68.3507C12.2405 66.6966 12.3805 65.0103 12.4612 63.3417C12.5099 62.3404 12.534 61.346 12.5409 60.358C12.5465 59.6043 12.5271 59.6108 11.9525 59.2146C12.0111 59.0116 12.1551 59.0653 12.2633 59.0253C13.137 58.706 13.9586 58.5627 14.7436 58.7314C15.1509 58.8189 15.6169 58.8047 16.0419 58.8777C16.2669 58.9163 16.4631 58.9781 16.6329 59.1039C17.0101 59.3841 17.4674 59.5674 17.7261 59.9884C17.9248 60.3129 18.0795 60.6631 18.0873 61.1005C18.0907 61.2897 18.0925 61.4751 18.133 61.6502C18.3158 62.4412 18.1576 63.3481 18.1244 64.2125C18.1205 64.3168 18.0851 64.4331 18.0964 64.5296C18.1916 65.3339 17.9718 66.2133 17.845 67.07C17.8002 67.3726 17.8205 67.6593 17.817 67.9455C17.811 68.4095 17.6959 68.8726 17.5459 69.3451C17.358 69.9387 17.3614 70.5211 17.0566 71.1223C17.011 71.2133 17.0493 71.3271 17.0579 71.4262C17.0605 71.455 17.0959 71.4691 17.1334 71.5073C17.3597 71.388 17.4446 71.1571 17.5674 70.9623C18.2946 69.8116 18.8309 68.6129 19.3624 67.4159C20.143 65.6575 20.9805 63.9073 21.6793 62.1365C21.7948 61.8434 21.9198 61.5502 21.9664 61.261C22.0142 60.9653 22.053 60.6846 22.3698 60.4507C22.478 60.3708 22.494 60.2468 22.5086 60.1378C22.5729 59.6537 22.6539 59.1653 22.6918 58.688C22.7099 58.4597 22.816 58.1593 22.5324 58.082C22.447 58.0588 22.5173 57.9301 22.5354 57.8421C22.5694 57.6786 22.5957 57.5159 22.6306 57.3524C22.7117 56.9734 22.7854 56.6 22.322 56.5687C22.4026 56.4623 22.4341 56.3923 22.472 56.3751C23.2453 56.0253 24.0113 55.6176 24.7997 55.5069C26.1321 55.3202 27.3404 55.4283 28.3607 55.9575C28.7374 56.1532 28.937 56.5369 28.8236 57.1069C28.6909 57.7738 28.6443 58.4245 28.5577 59.0829C28.4223 60.1146 28.4012 61.1189 28.2115 62.1644C28.1046 62.7537 28.1158 63.3245 27.8602 63.9344C27.8456 63.9687 27.8477 64.0069 27.849 64.0408C27.877 64.8185 27.6309 65.6455 27.4429 66.4575C27.2705 67.2039 27.1895 67.9275 27.1222 68.6498C27.0869 69.0284 27.0136 69.4065 26.8166 69.7859C26.7347 69.9438 26.7339 70.0773 26.7179 70.2133C26.6791 70.5502 26.7356 70.5756 27.058 70.4193C27.233 70.3344 27.4089 70.2507 27.583 70.1588C27.796 70.0464 27.9684 70.0726 28.1223 70.1429C28.2443 70.1983 28.2835 70.3086 28.1831 70.4872C28.0507 70.7223 27.8908 70.9382 27.6723 71.1017C27.3404 71.3498 27.0804 71.6803 26.7748 71.9588C26.4515 72.2532 26.2877 72.6009 26.1929 72.9833C26.0709 73.4747 26.0278 73.9687 25.8549 74.4507C25.52 75.3841 25.3915 76.2983 25.1019 77.2245C25.0226 77.4773 24.9208 77.7 24.7476 77.9502C24.4381 78.397 24.129 78.8837 24.0531 79.3846C23.9471 80.0803 23.604 80.7605 23.316 81.4417C22.9841 82.2262 22.6315 83.0103 22.3811 83.7983C22.1599 84.4949 21.884 85.2013 21.7302 85.8842C21.6172 86.3846 21.3263 86.8691 21.2771 87.3717C21.2426 87.7193 20.8982 88.0833 20.6663 88.3987C20.4072 88.752 20.2176 89.1254 20.0357 89.4781C19.8305 89.876 19.5667 90.2717 19.4326 90.688C19.3481 90.9511 19.1223 91.1408 18.9382 91.3043C18.5765 91.6258 18.4261 91.9996 18.3084 92.3743C18.1343 92.9296 17.936 93.4648 17.5062 93.9533C17.4554 94.0116 17.4136 94.0953 17.3989 94.1636C17.2795 94.7266 16.8648 95.2185 16.6122 95.7477C16.5006 95.9816 16.2855 96.0803 16.1475 96.2975C15.6337 97.1078 14.9811 97.8327 14.2832 98.5043C13.6944 99.0708 13.0185 99.4872 12.3379 99.8168C11.618 100.165 11.0533 99.9335 10.4917 99.758C10.3697 99.7198 10.3416 99.5854 10.311 99.4558C9.73515 96.9987 9.91749 94.3811 11.1744 91.4846C11.865 89.8936 12.6849 88.3528 13.6207 86.8365C14.7807 84.9567 15.9393 83.0764 17.2648 81.2713C17.9998 80.2696 18.777 79.2987 19.5887 78.3545C19.9266 77.9614 20.0792 77.5794 20.1546 77.1498C20.4637 75.3846 20.687 73.6357 20.9564 71.8781C21.3103 69.5734 21.587 67.285 21.872 64.9949C21.931 64.5189 22.0319 64.0275 21.9586 63.5082ZM19.6085 79.8052C19.5732 79.8035 19.5378 79.8013 19.5025 79.7996C19.1826 80.2035 18.8533 80.6009 18.5459 81.0116C17.814 81.9897 17.2273 83.0361 16.5562 84.0417C15.4518 85.6962 14.4578 87.394 13.4905 89.0975C12.7931 90.3262 12.2167 91.5949 11.5904 92.8468C11.5283 92.9704 11.4982 93.1013 11.4503 93.2288C11.1882 93.9271 11.1611 94.6172 10.9042 95.3039C10.5774 96.1781 10.5675 96.9631 10.5412 97.7657C10.5205 98.4185 10.8813 98.7211 11.3891 98.8769C11.6706 98.9631 12.0193 98.8151 12.2935 98.591C12.7435 98.2232 13.1401 97.8159 13.5022 97.3078C14.2397 96.2717 14.8354 95.1992 15.4221 94.1163C15.6613 93.6747 15.8885 93.2219 15.9178 92.7614C15.9221 92.6953 15.951 92.6095 15.995 92.5477C16.3303 92.0764 16.5014 91.5532 16.6114 91.085C16.764 90.4348 17.0166 89.7932 17.2179 89.1507C17.4929 88.2726 17.755 87.3957 17.9951 86.5193C18.0645 86.2666 18.0321 86.0073 18.1403 85.7657C18.4184 85.1438 18.483 84.5335 18.6442 83.9258C18.8645 83.0945 19.0649 82.2567 19.2365 81.4266C19.3477 80.8884 19.4826 80.346 19.6085 79.8052Z" fill="white"/>
<path d="M28.5657 74.5163C28.7705 72.1755 29.1455 69.8021 29.5597 67.4206C29.6727 66.7725 29.7623 66.1296 29.811 65.494C29.8408 65.1086 29.8076 64.7536 29.7369 64.4107C29.6554 64.0184 29.5455 63.6712 29.0925 63.6081C28.839 63.573 28.8907 63.4966 29.1313 63.2094C29.5283 62.7356 29.961 62.4318 30.48 62.3687C30.7749 62.333 31.0693 62.3039 31.3555 62.2991C31.7473 62.2923 32.1314 62.3103 32.5185 62.3197C33.0151 62.3318 33.3862 62.5669 33.6586 62.8772C34.0837 63.3618 34.4005 63.9416 34.5139 64.6721C34.5639 64.9957 34.5522 65.336 34.538 65.6708C34.516 66.1678 34.5216 66.6678 34.4264 67.1764C34.2988 67.8588 34.1311 68.5601 33.772 69.2485C33.6884 69.409 33.5703 69.5515 33.6263 69.709C33.6388 69.7438 33.6302 69.8163 33.6026 69.8485C33.3013 70.1991 33.3392 70.5416 33.2651 70.8936C33.1793 71.2974 32.9319 71.6961 32.7823 72.1034C32.4922 72.8927 32.1129 73.6798 31.9741 74.4695C31.9241 74.7545 31.7167 74.9918 31.6383 75.2674C31.4719 75.8519 31.4465 76.4094 31.3253 76.9841C31.209 77.5326 31.1055 78.079 31.0395 78.6206C31.021 78.7699 31.0421 78.8961 31.0538 79.0287C31.0926 79.4751 31.1495 79.9124 31.1016 80.3927C31.0486 80.9202 30.6688 81.418 30.1542 81.5978C30.0421 81.6373 29.9382 81.6455 29.8343 81.6313C29.061 81.527 28.7032 81.0133 28.5804 80.2579C28.4756 79.6184 28.4092 78.9674 28.4394 78.2708C28.4666 77.6442 28.398 77.0472 28.4442 76.412C28.4903 75.7785 28.5256 75.1481 28.5657 74.5163Z" fill="white"/>
<path d="M36.8814 38.3244C38.6164 37.1811 38.453 38.242 40 38.3639C40.166 38.3768 40.3031 38.43 40.3983 38.5476C40.8867 39.1528 41.2993 39.8034 41.2536 40.7686C41.2385 41.0927 41.3105 41.3914 41.3505 41.6982C41.4902 42.7682 41.6075 43.8382 41.4001 45.039C41.2393 45.9708 41.0928 46.9034 40.8997 47.8373C40.6996 48.8025 40.7294 49.6978 40.6298 50.6309C40.5488 51.3897 40.4458 52.154 40.3677 52.912C40.3229 53.345 40.3893 53.806 40.0807 54.2897C40.0544 54.3309 40.0393 54.3948 40.0492 54.4317C40.1845 54.9497 39.8919 55.6146 40.0561 56.1219C39.8061 56.7317 39.9837 57.2596 39.8 57.8583C39.7349 58.0708 39.7561 58.2588 39.7996 58.4489C39.8893 58.842 39.8914 59.2562 39.7337 59.745C39.5961 60.1704 39.5487 60.6107 39.572 61.0193C39.5944 61.4111 39.4716 61.8403 39.4828 62.2416C39.4888 62.4566 39.4289 62.7068 39.4535 62.9304C39.4677 63.0566 39.4897 63.1965 39.3496 63.4034C39.2328 63.0729 39.3759 62.6425 39.1845 62.3875C39.1237 62.4176 39.1134 62.4678 39.1112 62.5085C39.0487 63.5918 39.0121 64.6686 38.9185 65.7596C38.8685 66.3403 38.7189 66.9459 38.6168 67.5394C38.5952 67.6661 38.5051 67.7562 38.4202 67.8558C38.2189 68.0931 38.1499 68.2961 38.1939 68.5725C38.3021 69.2502 38.3293 69.9665 38.3892 70.6669C38.4013 70.8064 38.331 70.8214 38.2142 70.8382C38.0387 70.8639 38.1077 70.9789 38.1137 71.0519C38.1211 71.1502 38.1663 71.1742 38.262 71.0579C38.3435 70.9592 38.4142 70.9648 38.4392 71.051C38.475 71.1729 38.5142 71.2974 38.5142 71.4339C38.5142 71.5472 38.509 71.7236 38.3081 71.5987C38.2293 71.5493 38.1711 71.6781 38.2025 71.7523C38.3138 72.0163 38.3224 72.3322 38.3832 72.6206C38.4202 72.7974 38.2879 72.9867 38.3495 73.1669C38.478 73.5416 38.6043 73.9154 38.781 74.2566C38.9414 74.5661 39.075 74.8965 39.2604 75.1841C39.3867 75.3802 39.3401 75.5759 39.1707 75.8C38.9754 76.0588 38.8008 76.3695 38.4543 76.3944C38.1262 76.4176 37.8573 76.3107 37.5741 76.2373C37.5288 76.2253 37.5094 76.1579 37.4878 76.109C37.4603 76.0463 37.4672 75.9304 37.4167 75.9163C36.9814 75.7957 36.9206 75.3141 36.6456 75.0425C36.5563 74.9545 36.4943 74.848 36.4852 74.7158C36.4499 74.212 36.2292 73.8201 36.1003 73.3734C35.9365 72.8055 35.9024 72.1695 35.7481 71.5931C35.5179 70.7352 35.5313 69.7652 35.4817 68.8274C35.4002 67.2785 35.3558 65.715 35.3041 64.1545C35.2877 63.6648 35.2942 63.1669 35.2964 62.6703C35.3028 61.2291 35.2683 59.8017 35.3231 58.3442C35.3688 57.1219 35.4468 55.8909 35.5498 54.6528C35.6567 53.3665 35.7395 52.0867 35.8227 50.8068C35.8822 49.897 35.9632 48.9789 35.9658 48.0875C35.9692 46.9407 36.1873 45.7236 36.0723 44.6227C35.9662 43.6068 35.9541 42.5562 35.8813 41.5291C35.8511 41.1064 37.1016 40.3433 37.0033 39.9592C36.9137 39.6085 37.1322 38.5695 36.8814 38.3244Z" fill="white"/>
<path d="M59.1266 51.1021C58.9689 51.3935 58.8331 51.6287 58.7137 51.8673C58.2111 52.8746 57.5757 53.8587 57.2433 54.8952C56.9877 55.6931 56.6575 56.4866 56.4407 57.2905C56.2817 57.8806 56.1885 58.4197 56.17 58.9841C56.1523 59.527 56.2726 60.0201 56.1825 60.5815C56.1174 60.9892 56.1377 61.3785 56.0217 61.7952C55.9661 61.9948 56.0351 62.148 56.0446 62.3214C56.0597 62.6008 56.0834 62.857 55.8532 63.1605C55.7933 63.2403 55.77 63.3562 55.7566 63.4497C55.6911 63.909 55.5471 64.3841 55.5639 64.8261C55.5665 64.8905 55.5519 64.9944 55.5027 65.0012C55.1769 65.045 55.2329 65.2806 55.1277 65.4712C55.051 65.6107 54.8574 65.8712 54.6057 65.8377C54.3932 65.8098 54.2872 65.9867 54.3048 66.1553C54.3484 66.5643 53.9988 66.7935 53.7389 67.0472C53.3776 67.3995 52.919 67.439 52.5267 67.736C52.4168 67.8188 52.0896 67.924 52.1202 67.7836C52.2047 67.3948 51.947 67.5858 51.8051 67.6227C51.3672 67.7356 51.1154 67.5888 50.9801 67.2446C50.8728 66.9703 50.7986 66.6927 50.7853 66.3566C50.7564 65.63 50.634 64.9386 50.5499 64.2326C50.5447 64.1884 50.5348 64.145 50.537 64.0987C50.5999 62.7472 50.399 61.4905 50.44 60.1484C50.4904 58.5064 50.4865 56.8811 50.6068 55.2175C50.6361 54.8111 50.718 54.3836 50.6046 54.0175C50.3033 54.1643 50.249 54.4493 50.121 54.6673C49.5869 55.5776 49.0834 56.4969 48.6679 57.4416C48.2937 58.2935 48.0511 59.1266 47.9666 59.9678C47.9015 60.6141 47.858 61.2699 47.6993 61.9227C47.5804 62.4137 47.62 62.8703 47.4394 63.3673C47.3717 63.554 47.3851 63.7502 47.3829 63.9347C47.379 64.2287 47.3842 64.5201 47.223 64.836C47.0976 65.0811 47.1842 65.2721 47.1644 65.4888C47.1407 65.748 47.1239 66.0051 46.9721 66.2592C46.8333 66.4909 46.9148 66.6678 46.8544 66.8798C46.726 67.3321 46.4932 67.7957 46.5135 68.2369C46.5165 68.3021 46.4824 68.3901 46.4182 68.409C46.0652 68.5141 46.1165 68.7562 46.0932 68.9656C46.0488 69.3643 45.6453 69.9884 45.2699 70.2115C45.1979 70.2545 45.1108 70.2446 45.0462 70.3309C44.7134 70.7738 44.3263 70.6909 43.9599 70.7982C43.8332 70.8356 43.778 70.7416 43.7155 70.6763C43.25 70.1914 42.9409 69.5931 42.8275 68.8472C42.7478 68.321 42.7254 67.7716 42.6874 67.2283C42.6189 66.2484 42.5465 65.2699 42.5008 64.2806C42.468 63.5656 42.5163 62.818 42.4516 62.1171C42.4094 61.6635 42.5366 61.151 42.3753 60.7334C42.3068 60.5553 42.4447 60.2446 42.4706 59.9987C42.4904 59.8124 42.4779 59.6437 42.4098 59.4828C42.3426 59.324 42.3314 59.0974 42.3818 58.8931C42.509 58.3746 42.531 57.9055 42.3529 57.5017C42.3421 57.4772 42.3223 57.4476 42.3318 57.4218C42.5197 56.9145 42.3404 56.5257 42.2904 56.1158C42.2072 55.4287 42.1426 54.7193 41.8852 54.118C41.7757 53.8635 41.527 53.7729 41.2757 53.6918C41.0917 53.6317 40.9003 53.5815 40.7722 53.4411C40.6589 53.3163 40.7046 53.1969 40.9046 53.1253C41.1744 53.0283 41.4468 52.9407 41.715 52.8789C42.743 52.6424 43.7677 52.4231 44.6987 52.6004C44.9104 52.6403 45.0897 52.7064 45.2251 52.8699C45.3561 53.0283 45.5272 53.1738 45.8341 53.0291C45.8777 53.0085 45.9479 52.9969 45.9682 53.0188C46.173 53.2424 46.5562 53.2034 46.7665 53.4107C47.1372 53.7755 47.4036 54.2145 47.4903 54.8051C47.5816 55.4257 47.742 56.0137 47.8636 56.6201C47.8916 56.7609 47.8855 56.9193 47.9011 57.1562C48.214 56.5643 48.5024 56.051 48.7563 55.5304C49.1912 54.6377 49.7214 53.7862 50.3171 52.9566C50.5581 52.621 50.8633 52.3965 51.1973 52.2343C52.3151 51.6909 53.3069 51.6274 54.1561 52.0772C54.2152 52.1081 54.2755 52.1386 54.3406 52.1587C55.4812 52.5115 56.0338 53.3699 56.0648 54.6836C56.0691 54.8755 56.0485 55.0854 56.1252 55.2497C56.2886 55.1733 56.2985 55.0476 56.3511 54.9424C57.108 53.433 57.7886 51.9012 58.7801 50.46C58.8214 50.3995 58.8753 50.3356 58.8939 50.2738C59.1525 49.4171 59.8357 49.054 60.5172 48.7266C60.859 48.5626 61.2112 48.4386 61.5621 48.3167C62.3121 48.0553 62.8066 48.2875 63.2411 48.657C63.4014 48.7931 63.5394 48.9553 63.6803 49.1128C63.7954 49.2411 63.8441 49.4128 63.8984 49.5918C64.0648 50.1394 64.0855 50.7484 64.1303 51.348C64.2002 52.2806 64.3196 53.1931 64.2941 54.1639C64.2674 55.1871 64.2734 56.1999 64.2364 57.2261C64.2213 57.6446 64.1467 58.0832 64.0678 58.5175C64.0234 58.7618 64.0864 58.9682 64.0079 59.2261C63.8704 59.6759 63.6846 60.1047 63.3402 60.4892C63.2501 60.5897 63.223 60.6476 63.2592 60.7429C63.3652 61.0236 63.3484 61.3772 63.5053 61.6278C63.629 61.8257 63.3734 62.0506 63.3424 62.2699C63.3122 62.4854 63.2932 62.6587 63.3626 62.8343C63.5756 63.3708 63.4432 63.7437 62.935 64.3025C62.7673 64.4871 62.644 64.533 62.4656 64.5291C62.0108 64.5193 61.697 64.3021 61.4216 64.0309C61.1957 63.8081 60.9996 63.5536 60.7724 63.3326C60.3051 62.8776 60.1698 62.1811 59.9318 61.5643C59.5594 60.6004 59.3585 59.5403 59.2723 58.421C59.2327 57.9068 59.324 57.3536 59.2546 56.8459C59.1831 56.3205 59.2245 55.7446 59.2387 55.1819C59.2684 53.9802 59.2637 52.7892 59.2667 51.5957C59.2667 51.4313 59.2745 51.2545 59.1266 51.1021Z" fill="white"/>
<path d="M74.32 56.821C73.951 57.3811 73.6182 57.8837 73.2885 58.3871C72.5893 59.4553 71.7802 60.4369 70.8289 61.3086C70.7879 61.3459 70.7401 61.3824 70.7112 61.4266C70.3043 62.0476 69.7142 62.397 69.1426 62.7661C68.7387 63.027 68.3003 63.1442 67.8994 63.4266C67.0158 63.5614 66.1118 63.7596 65.3683 63.4459C64.654 63.1442 64.2596 62.5386 64.1208 61.7386C63.9432 60.7154 64.0333 59.609 64.3859 58.4377C64.5695 57.8274 64.9105 57.2661 65.3329 56.7455C65.5135 56.5227 65.7355 56.3141 66.011 56.1472C66.2687 55.9905 66.4813 55.718 66.7981 55.6536C66.88 55.6369 67.1929 55.4506 66.9843 55.2541C66.9455 55.2176 67.0524 55.1515 67.1123 55.1373C67.6274 55.0137 68.0641 54.6249 68.5288 54.3171C68.7404 54.1772 68.9857 54.1262 69.2159 54.0335C69.3262 53.9888 69.4443 53.9618 69.5456 53.8935C70.3552 53.3472 71.2013 53.082 72.038 52.748C72.6811 52.4914 73.2863 52.1184 73.8726 51.6635C74.1385 51.4566 74.242 51.2498 74.2536 50.9614C74.3015 49.8159 74.367 48.6648 74.4368 47.5133C74.4584 47.1506 74.5148 46.7785 74.5528 46.4116C74.5942 46.0064 74.5631 45.6356 74.389 45.3317C74.267 45.1184 74.0765 44.9802 73.792 45.0498C72.963 45.2523 72.1397 45.5403 71.3763 46.1974C71.0642 46.4661 70.8884 46.7562 70.8211 47.1395C70.7284 47.6678 70.5646 48.2038 70.5008 48.7356C70.456 49.1077 70.2164 49.5141 69.9194 49.8661C69.5624 50.2884 69.2417 50.4223 68.8426 50.3184C68.6396 50.2656 68.4357 50.2137 68.2275 50.1704C68.027 50.1287 67.8753 50.0197 67.7585 49.8755C67.6589 49.7528 67.6089 49.6068 67.743 49.3665C67.9098 49.0674 68.0236 48.7519 68.1628 48.4438C68.4719 47.7583 68.9387 47.1553 69.5038 46.6352C71.0035 45.2545 72.6341 44.3176 74.3812 43.824C74.7489 43.7201 75.0976 43.7008 75.4481 43.6918C76.4322 43.6665 77.2809 43.9176 78.0948 44.2382C78.3012 44.3197 78.5465 44.3905 78.5732 44.6828C78.5758 44.7103 78.5944 44.739 78.6168 44.7485C79.0767 44.9356 79.1185 45.4927 79.3974 45.8399C79.5914 46.082 79.4871 46.4472 79.4155 46.7837C79.3621 47.0326 79.3483 47.2618 79.3504 47.494C79.3547 47.9094 79.3978 48.3111 79.3435 48.7472C79.3155 48.9704 79.331 49.1841 79.3819 49.3807C79.4293 49.5626 79.4289 49.7545 79.3711 49.9777C79.2815 50.3219 79.4112 50.5987 79.3612 50.9442C79.2642 51.612 79.3108 52.2403 79.3142 52.8811C79.3177 53.6013 79.3409 54.3197 79.303 55.0562C79.294 55.2287 79.281 55.4034 79.2884 55.5699C79.3034 55.9081 79.1358 56.282 78.9319 56.5571C78.6573 56.9274 78.6771 57.2 78.7258 57.4781C78.8077 57.9489 79.069 58.3232 79.056 58.8506C79.0543 58.9137 79.131 58.9566 79.1797 58.9991C79.4043 59.194 79.2931 59.488 79.1263 59.7794C78.9448 60.0965 78.7095 60.3292 78.356 60.3614C77.6887 60.4232 77.1007 60.2974 76.6369 59.985C75.5826 59.2751 74.6226 58.4635 74.4002 56.9935C74.3941 56.9528 74.3679 56.9219 74.32 56.821ZM74.226 54.4051C74.2213 53.8 74.2265 53.3802 74.2118 52.9682C74.201 52.6601 74.142 52.6386 73.8333 52.8193C73.2208 53.1768 72.5975 53.4832 71.9858 53.8588C71.0336 54.4429 70.1142 55.0669 69.3094 55.9008C69.0266 56.194 68.674 56.4871 68.5883 56.9086C68.4469 57.6043 68.2257 58.3184 68.3766 58.9459C68.393 59.0133 68.3779 59.1004 68.365 59.1802C68.2624 59.8026 68.377 60.3485 68.3904 60.93C68.3938 61.0854 68.4503 61.2133 68.5201 61.3296C68.7965 61.7918 69.0732 61.8034 69.6193 61.3163C70.422 60.6013 71.1767 59.8399 71.8195 58.9614C72.4449 58.1068 72.9523 57.2034 73.5359 56.3339C74.0178 55.6159 74.3821 54.9266 74.226 54.4051Z" fill="white"/>
<path d="M85.5341 56.7099C85.3768 56.9146 85.4613 57.0537 85.3578 57.1966C85.1639 56.9313 85.1195 56.5846 85.0759 56.2288C84.9815 55.4605 84.8018 54.7343 84.6306 54.0043C84.4992 53.4434 84.3479 52.891 84.3358 52.2713C84.3242 51.6923 84.4242 51.1056 84.7414 50.4876C84.9302 50.1198 85.0725 49.7408 85.2427 49.3683C85.3591 49.1133 85.4449 48.8485 85.7311 48.667C85.8682 48.5798 85.9385 48.4077 85.9833 48.2579C86.0988 47.8755 86.3333 47.5601 86.6264 47.2438C86.901 46.9472 87.1394 46.6077 87.361 46.2721C87.8463 45.5361 88.3752 44.8318 88.9766 44.1721C89.1093 44.027 89.2628 43.8889 89.352 43.6601C88.7602 43.8979 88.3601 44.358 87.9817 44.8223C87.3541 45.5914 86.6752 46.3116 85.8212 46.7009C84.9449 47.1 84.047 47.3949 83.1866 47.4691C82.6711 47.5137 82.1732 47.4554 81.7141 47.3301C81.5145 47.2755 81.4111 47.1043 81.3507 46.9228C81.2732 46.6889 81.0145 46.5781 81.0766 46.2507C81.0813 46.2253 81.0572 46.1867 81.0348 46.1854C80.608 46.1605 80.6395 45.7275 80.5029 45.4477C80.3628 45.1605 80.486 44.8382 80.7507 44.5296C80.8688 44.3914 80.8365 44.3519 80.7322 44.3404C80.6485 44.3313 80.5916 44.3472 80.5822 44.2185C80.5645 43.9824 80.4546 43.7854 80.4235 43.5537C80.3891 43.2966 80.3778 43.0425 80.5029 42.7206C80.6322 42.388 80.7011 42.0446 80.8636 41.603C81.0089 41.9228 81.324 41.9095 81.5214 42.0867C81.6818 42.2309 82.0503 42.1425 82.3241 42.1648C82.7905 42.2026 83.3 42.1004 83.7616 42.1562C83.9181 42.1751 84.091 42.1717 84.2617 42.1352C85.0807 41.9605 85.8997 41.7923 86.7226 41.5768C87.0821 41.4824 87.4506 41.2858 87.814 41.1266C88.8265 40.6833 89.8421 40.2858 90.859 39.97C91.4051 39.8 91.9207 39.779 92.3375 40.018C92.4306 40.0708 92.5263 40.0974 92.5039 40.2635C92.4789 40.4532 92.6246 40.5356 92.7276 40.6343C93.0035 40.8987 92.9983 41.273 92.8651 41.7309C92.6767 42.3798 92.256 42.9395 91.8638 43.5172C91.3254 44.3086 90.6301 44.9691 90.0059 45.6893C89.3632 46.4309 88.6485 47.1082 88.0532 47.8906C87.4351 48.7034 86.8933 49.5459 86.4601 50.4322C86.3122 50.7348 86.4006 50.9665 86.5195 51.1687C86.6239 51.3455 86.7898 51.4562 86.9631 51.5601C87.6838 51.9931 88.4119 52.418 89.0007 53.0142C89.1955 53.2112 89.3809 53.418 89.5671 53.6236C89.6197 53.6811 89.6779 53.7348 89.6684 53.8412C89.652 54.0322 89.6572 54.2107 89.8788 54.2163C89.968 54.2185 89.9568 54.3163 90.0188 54.3768C90.3404 54.082 90.6146 53.7309 90.9529 53.4485C91.4547 53.0292 91.8827 53.0429 92.372 53.1266C92.0047 53.5777 91.6789 53.9755 91.3556 54.3751C91.1573 54.6198 90.9633 54.8678 90.7667 55.1137C90.4219 55.5451 90.3684 55.9477 90.5452 56.2871C90.6146 56.4206 90.6197 56.5365 90.5861 56.7056C90.5469 56.903 90.4848 57.1249 90.7038 57.2099C90.7995 57.2468 90.8098 57.3863 90.6861 57.5408C90.5827 57.6695 90.6038 57.7992 90.6331 57.9099C90.6779 58.0786 90.7167 58.9734 90.6939 59.1554C90.6715 59.3318 90.5331 59.3163 90.4421 59.3846C90.3038 59.4889 90.2654 59.594 90.421 59.6159C90.7344 59.6601 90.7779 59.8781 90.6982 60.2082C90.5766 60.7125 90.4503 61.2185 90.418 61.7103C90.4016 61.9575 90.5309 62.1846 90.3771 62.4429C90.2249 62.6987 90.1887 62.9283 90.1667 63.1605C90.1197 63.6622 89.9719 64.1773 89.8693 64.6858C89.7917 65.0695 89.6542 65.4743 89.4938 65.8528C89.1731 66.6082 88.9507 67.3678 88.7033 68.118C88.452 68.8798 88.0425 69.6137 87.8131 70.3794C87.6394 70.9614 87.2972 71.5605 86.945 72.1404C86.5902 72.7253 86.2544 73.3279 86.0243 73.9507C85.763 74.6584 85.4126 75.3528 85.0738 76.0477C84.9492 76.303 84.725 76.5288 84.5815 76.7734C84.4048 77.0755 84.2259 77.3828 84.1082 77.7112C83.9802 78.0704 83.7315 78.4069 83.4552 78.7112C83.3763 78.7974 83.3017 78.8438 83.3392 78.9567C83.3733 79.0601 83.2612 79.1824 83.1987 79.2824C82.7249 80.0378 82.2922 80.8228 81.743 81.5301C81.3197 82.0751 81.1016 82.6764 80.6908 83.2125C80.5796 83.3575 80.4761 83.5146 80.3507 83.6451C79.8524 84.1618 79.3791 84.7082 78.8196 85.1562C77.9976 85.8142 77.3902 85.5876 77.0704 85.1172C76.7992 84.7185 76.5406 84.3107 76.2302 83.9477C76.1798 83.8884 76.1212 83.8172 76.1203 83.7331C76.1074 82.4601 76.1966 81.167 76.6703 79.7953C76.8966 79.1408 77.0919 78.485 77.3169 77.8305C77.7773 76.4897 78.3631 75.1601 78.8898 73.8253C79.0959 73.3039 79.292 72.7811 79.4925 72.2588C80.0179 70.8901 80.5929 69.5296 81.3292 68.1962C81.5296 67.8335 81.5102 67.4086 81.9159 67.1039C81.9098 66.712 82.2318 66.3627 82.4245 66.0167C82.7241 65.4803 82.8663 64.8863 83.3418 64.4052C83.4293 64.3167 83.4884 64.1936 83.5496 64.0828C84.0914 63.0996 84.7177 62.1502 85.3458 61.2034C85.5966 60.8262 85.704 60.4708 85.7182 60.1043C85.7574 59.1 85.7389 58.1155 85.6729 57.1477C85.663 56.997 85.6178 56.8695 85.5341 56.7099ZM85.4303 62.7979C85.2496 63.2206 84.9203 63.5798 84.6949 63.985C84.2992 64.6966 83.9155 65.4125 83.5043 66.1185C82.9913 66.9983 82.5646 67.8987 82.1404 68.7974C81.6391 69.8588 81.2089 70.9326 80.7688 72.0047C80.3097 73.1245 79.8472 74.2464 79.4058 75.3657C78.8485 76.7798 78.2661 78.194 77.7648 79.6142C77.3876 80.6824 77.1721 81.7365 76.9643 82.7906C76.9333 82.9481 76.988 83.0622 77.0622 83.1549C77.3307 83.4923 77.7178 83.6442 78.2152 83.606C78.4739 83.5858 78.7179 83.4777 78.9209 83.2103C79.2282 82.806 79.6166 82.4343 79.6731 81.9356C79.6813 81.8657 79.7498 81.7738 79.8058 81.7022C79.9683 81.4936 80.086 81.2674 80.1852 81.0425C80.399 80.5567 80.6856 80.0901 80.8813 79.5961C81.0723 79.1137 81.1628 78.627 81.4128 78.1472C81.462 78.0532 81.5516 77.9661 81.5676 77.8713C81.6796 77.1966 81.9072 76.5198 82.1516 75.8391C83.1267 73.1223 83.9112 70.4082 84.6276 67.6949C85.0634 66.0446 85.2514 64.4361 85.4303 62.7979ZM85.3001 55.1755C85.2009 55.5348 85.2384 55.8472 85.3962 56.1691C85.5402 55.8588 85.5281 55.7047 85.3001 55.1755Z" fill="white"/>
<path d="M101.867 33.415C101.645 33.5829 101.573 33.7447 101.773 34.0399C101.919 34.2567 101.852 34.3923 101.743 34.5459C101.657 34.6683 101.486 34.7266 101.519 34.9309C101.534 35.0253 101.422 35.082 101.334 35.0833C100.779 35.0906 100.26 35.2537 99.7406 35.4206C99.7191 35.4279 99.6846 35.3957 99.6566 35.382C99.9238 35.0172 99.9238 35.0172 100.765 34.7339C100.617 34.5919 100.46 34.6477 100.326 34.6777C99.9402 34.7635 99.5596 34.7953 99.1738 34.6734C99.0768 34.6429 98.9634 34.6481 98.8596 34.6571C98.4768 34.6919 98.3233 34.8442 98.4009 35.2022C98.6281 36.2507 98.6074 37.3314 98.8147 38.3756C98.9268 38.9391 98.9988 39.5069 99.1018 40.07C99.1945 40.5751 98.8759 41.1241 98.4699 41.4472C98.0587 41.7743 97.544 41.7318 97.1112 41.955C96.787 42.1228 96.4228 42.1936 96.0922 42.3704C95.6314 42.6176 94.7792 42.2258 94.4761 41.6696C94.2395 41.2344 94.0882 40.7631 93.927 40.2966C93.6171 39.3966 93.308 38.4962 92.9937 37.5979C92.8649 37.2296 92.8558 37.2189 92.4571 37.2962C91.9545 37.3932 91.4829 37.609 90.9717 37.6811C90.5518 37.7404 90.1389 37.8528 89.7181 37.9005C89.1871 37.961 88.6685 37.8086 88.1448 37.7468C88.0142 37.7314 87.9241 37.6442 87.8633 37.5271C87.7879 37.3816 87.6693 37.2691 87.5262 37.2009C87.3491 37.1163 87.234 36.9472 87.1978 36.8047C86.8926 35.6047 86.546 34.4056 86.7572 33.1434C86.8443 32.6219 87.0228 32.412 87.5336 32.5223C88.272 32.6816 88.9323 32.4241 89.6177 32.2992C90.2255 32.1889 90.8225 32.0198 91.4234 31.8713C91.8096 31.7756 91.8355 31.7575 91.779 31.3678C91.673 30.6356 91.5346 29.909 91.4372 29.1747C91.3303 28.3704 91.2337 27.5674 91.2074 26.7562C91.2001 26.5301 91.148 26.3052 91.1169 26.0816C91.7217 25.9005 92.3364 25.8511 92.9519 25.8103C93.0045 25.8069 93.0601 25.8005 93.1101 25.812C94.3179 26.0919 95.5266 26.3738 96.5961 27.0382C97.0616 27.3279 97.4241 27.7017 97.4362 28.3005C97.4392 28.4417 97.4289 28.5756 97.3953 28.7159C97.3254 29.0056 97.2728 29.3009 97.3884 29.5983C97.4474 29.7502 97.4112 29.9056 97.3828 30.0653C97.3237 30.3979 97.4035 30.4743 97.7509 30.4159C98.2906 30.3253 98.8246 30.2073 99.3738 30.1708C99.6648 30.1515 99.9281 30.1863 100.198 30.2996C100.487 30.4211 100.811 30.5202 101.061 30.6687C101.479 30.9181 101.995 31.1962 101.905 31.8455C101.896 31.9047 101.897 31.9691 101.954 31.9665C102.369 31.9477 102.302 32.3472 102.452 32.5494C102.526 32.6477 102.58 32.8219 102.364 32.9434C102.127 33.0756 102.488 33.2258 102.405 33.3876C102.233 33.5056 102.049 33.2781 101.867 33.415Z" fill="#156FFF"/>
<path d="M68.8436 65.5897L69.1811 65.6073C68.9919 66.0112 68.7207 66.0413 69.0733 66.1275C68.8436 65.5897 70.0596 65.5636 69.8311 65.0258L70.0587 65.0485C70.007 65.0683 70.0148 65.1031 69.9635 65.1224C70.4247 65.2026 70.0208 64.6211 70.4902 64.4777C70.6609 64.4417 70.804 64.4644 70.7325 64.5777L71.0027 64.2803C71.1053 64.2413 71.1269 64.3438 71.0252 64.3829L71.5153 64.0837L71.5191 64.1009C71.551 63.982 71.6528 63.7726 71.7067 63.6782C71.8739 63.6872 71.6692 63.7661 71.7351 63.8146L71.9549 63.5455C72.1381 63.6224 71.9687 63.8717 71.7636 63.9511C72.289 64.3391 71.9317 63.6992 72.6584 63.7245L72.4222 63.9219C72.7434 64.1335 72.8994 63.9241 73.2951 63.961C73.1753 63.8992 72.4554 63.7915 72.6994 63.5108C72.8063 63.5078 72.9304 63.4709 73.0451 63.2842C73.1386 63.4696 73.2787 63.3443 73.4774 63.2344L73.5852 63.4876C73.7701 63.3095 73.6908 63.1923 73.7658 63.0181C74.0236 62.9228 74.1684 63.0889 74.3051 63.2219C74.7172 63.0696 73.8831 63.0477 74.3258 62.7747C74.6991 62.7095 74.8788 62.497 75.1986 62.1584C75.4689 62.1322 75.2318 62.3292 75.3487 62.3597L75.4556 62.064C75.5077 62.0443 75.5211 62.1129 75.5275 62.1473C75.6616 61.9876 75.4219 61.8936 75.6582 61.6953C75.5982 61.3855 76.4043 61.8267 76.5905 61.3606C76.7069 61.3919 76.6233 61.531 76.6948 61.6151C77.0565 61.1953 77.0177 61.282 77.2643 60.8305L77.6639 60.8417C77.3384 60.7666 77.5354 60.4039 77.7143 60.0983C77.5876 60.0477 77.4785 60.0026 77.4126 59.988L77.7725 59.6554C77.8427 59.6722 77.8406 59.7773 77.8203 59.9138C77.8397 59.8799 77.8574 59.8464 77.8699 59.8176C78.0643 59.8382 78.054 60.0185 78.0113 60.2082C77.9376 60.1816 77.8613 60.1537 77.7867 60.1267C77.7535 60.3267 77.7354 60.5395 77.8264 60.6747C77.8402 60.6331 77.8811 60.5837 77.9328 60.5425C77.9251 60.5962 77.9251 60.6408 77.9492 60.6597C77.9759 60.679 77.994 60.6035 78.0328 60.5078L78.26 60.7391L78.2311 60.6185L78.8652 60.5318C79.1286 60.0679 79.2786 59.4923 79.8554 59.0859C79.7937 59.3606 79.9769 59.4335 80.0808 59.6786C79.789 59.5009 79.645 60.0151 79.2958 60.1155C79.4782 60.0623 79.4946 60.1949 79.4704 60.255L79.9411 59.7503C80.0196 59.9528 80.1338 59.8413 80.3239 59.8537C80.0269 59.5159 80.6377 59.3962 80.8196 59.1687C80.8951 59.2932 80.9002 59.4528 80.5959 59.5528C81.0515 59.7013 80.7963 58.9065 81.2257 59.0138C81.1563 59.049 81.1089 59.0464 81.1119 59.1254C81.2231 58.934 81.6697 58.8425 81.6274 59.0001L81.558 59.0348C82.0486 58.8679 82.9874 58.388 82.9068 58.0237C82.9309 58.0644 83.0275 58.4524 83.0297 58.5327L83.3607 57.0318C83.4159 57.3511 84.0064 57.9035 83.6905 58.2421C83.8211 58.2327 83.9793 58.2151 84.1707 58.0099C84.0758 58.0026 83.7935 57.6807 83.8862 57.6082C84.3176 57.8005 84.1629 57.691 84.6392 57.8069C84.497 57.7962 84.4233 57.291 84.6116 57.2258C84.6134 57.3052 84.825 57.6623 84.7797 57.7382L85.0349 57.0988C84.9573 57.2279 85.1819 57.4812 85.3384 57.5619C85.253 57.4958 85.7328 57.3983 85.8337 57.3018L85.5966 57.2833C86.1363 57.1262 85.8259 56.4413 86.3436 56.2417C86.3221 56.3601 86.4397 56.87 86.7216 56.8125C86.7398 56.5344 86.766 55.4936 87.1402 55.1215L87.2829 55.2134L87.5639 54.9151C87.4963 55.3494 87.2083 56.3322 87.0031 56.7546C87.2393 56.7734 87.1234 56.8842 87.404 56.7468C87.5583 56.8241 87.329 56.9996 87.248 57.0434L87.9471 56.8301C87.8019 56.5777 88.3407 56.3417 88.22 56.134L87.6157 56.7232C87.4717 56.4743 87.7045 55.7842 88.2015 55.6322C88.3679 55.6867 88.3153 56.1421 88.3635 56.2262C88.3855 56.1091 88.7386 55.8614 88.8101 55.9078L88.67 56.1344C88.9769 56.1228 88.9493 55.6009 89.3761 55.7194C89.4929 55.6902 89.8494 55.9228 89.8011 55.758C89.4929 55.5305 89.0558 54.6091 89.0778 54.331C89.1252 54.3348 89.7791 54.376 89.9684 54.4726C90.2503 54.634 89.9386 55.1541 90.1792 55.2928C90.155 55.2177 90.2167 55.0859 90.246 55.0395C90.3874 55.0528 90.2938 55.2846 90.53 55.146C90.4572 54.8589 91.0486 54.9533 90.5516 54.8683C90.7637 54.6876 90.8352 54.8134 91.1176 54.6799C90.9525 54.5447 91.1253 53.9777 91.3387 53.7966C91.3533 53.8713 91.446 53.9374 91.49 53.967C92.0017 53.7764 92.3267 53.7945 92.7978 53.6031C92.8681 53.6511 93.1284 53.6378 93.0797 53.7936C93.1276 53.7181 93.1517 53.6009 93.2944 53.5352C93.672 53.6546 92.9858 53.7035 93.3164 53.8975C93.2694 53.7327 93.6017 53.5275 93.7681 53.3451C93.6043 53.1279 93.2707 53.4932 93.1047 53.6756C92.9646 53.3413 93.1802 52.8438 93.6099 52.4876C93.9677 52.2447 93.869 52.6348 93.9173 52.5597C94.6772 52.3185 94.3057 51.7181 95.016 51.7108C95.3454 51.8258 95.1997 52.1322 95.3161 52.2644C95.0298 52.4756 94.7712 52.3284 94.5583 52.4249L94.8656 52.4176C94.7932 52.5301 94.6022 52.6709 94.4608 52.6563C94.7432 52.7674 95.7165 52.182 96.3588 52.1382C96.4312 52.0267 96.5765 51.8837 96.4592 51.8301L96.2907 51.9305C96.0553 51.8228 96.5346 51.5584 96.2734 51.5674C96.467 51.3511 96.6627 51.0533 97.0429 51.0172L97.2045 51.2365C97.1687 51.1679 96.9235 51.1786 96.8575 51.2906C96.9566 51.1262 97.5119 51.4164 97.5407 51.0352L97.2343 50.9593C97.4287 50.7408 97.6269 50.3631 97.9606 50.3215C97.7269 50.1335 97.9015 50.3764 97.5744 50.1777C97.9002 50.4567 96.7933 50.467 97.2399 50.7194C96.8885 50.4777 96.8028 50.7297 96.4019 50.5636C96.4433 50.6404 96.5661 50.6777 96.2958 50.7378C96.2937 50.7657 96.2786 50.8061 96.2683 50.8305C96.2596 50.831 96.2566 50.831 96.2489 50.8314L96.2665 50.8352C96.2605 50.8516 96.2605 50.8546 96.273 50.8365C96.348 50.8481 96.4139 50.8713 96.4519 50.9082C96.3997 51.143 95.9932 51.2958 95.8954 51.4447C95.729 51.4657 95.9213 51.3275 95.8044 51.2739L95.6579 51.4975C95.5656 51.3267 95.1393 51.3627 95.4505 51.1138L95.129 51.2357C94.9009 51.2116 94.6268 51.2769 94.4983 51.4172C94.3324 51.4395 94.1996 51.7692 94.2733 51.576L93.8194 51.8902L93.7966 51.8477C93.2944 52.0258 92.9052 52.5558 92.2086 52.4636C92.0616 52.576 91.9133 52.7009 91.615 52.7636L91.4965 52.6314C91.3059 52.7713 90.7951 52.7455 90.7714 52.9438C90.3684 52.6267 89.7046 53.2885 89.3011 53.373L89.3726 53.579C89.1114 53.6764 88.8899 53.837 88.6062 54.052L88.7019 54.2207C88.4907 54.482 87.9433 54.3932 87.5169 54.5949C87.5174 54.5146 87.6351 54.4859 87.7307 54.4936C87.0376 54.3121 86.7691 55.258 86.1742 55.1709C86.0863 55.2859 85.9923 55.3009 85.891 55.2928C85.9018 55.2876 85.91 55.2799 85.916 55.2709C85.9031 55.2739 85.885 55.2812 85.8673 55.2893C85.8022 55.2816 85.7337 55.2696 85.6638 55.2666C85.7315 55.288 85.794 55.3031 85.8414 55.3013C85.7535 55.3443 85.6268 55.4262 85.513 55.5288L85.3724 55.3644C85.3625 55.3713 85.3548 55.3764 85.344 55.3837C85.1819 55.3713 85.2785 55.5194 85.4112 55.631C85.3578 55.6915 85.313 55.7558 85.2854 55.8224C85.0435 55.564 84.981 56.0786 84.6909 55.8172C84.672 56.0151 84.0732 56.231 84.1517 56.5953C84.1275 56.5541 84.0793 56.5507 84.15 56.5164C83.9844 56.5434 83.8185 56.5709 83.7275 56.7232L83.5564 56.5112L83.3784 56.9777C83.1163 56.9211 82.9965 56.873 83.1081 56.6001C82.7663 57.0975 82.7749 56.8807 82.5025 57.343L82.4516 57.1795C82.3115 57.2503 82.1774 57.5614 82.033 57.473C81.5791 57.3245 80.4334 58.1511 79.4864 58.252C79.8566 58.6322 79.01 58.2232 79.1428 58.5919C79.0454 58.5069 78.9031 58.5001 78.9919 58.3447C78.6247 58.646 78.2859 58.4696 78.1376 58.9009C78.0393 58.8159 78.1527 58.7018 78.0803 58.6584C78.0578 58.6971 77.9919 58.8138 77.9186 58.77C77.8458 58.7262 77.9371 58.6516 77.9811 58.5739C77.5634 58.7923 77.6768 59.1425 77.7923 59.4666C77.5078 59.4215 77.41 59.4928 77.3509 59.7687C77.2281 59.7031 77.0522 59.6558 77.2992 59.4953C77.1436 59.5503 76.3203 59.7747 76.4237 60.0292C76.3474 59.9885 76.2073 60.1091 76.1819 60.1558C75.8418 60.2979 75.8017 60.2898 75.4853 60.467L75.5957 60.4649C75.6103 60.8232 75.3568 60.661 75.112 60.8245L75.1047 60.7906C74.399 60.8683 74.8952 61.0198 74.1826 61.0636L74.3055 61.2331C74.4447 61.658 73.6654 61.2541 73.3955 61.5743L73.5718 61.6194C73.4511 61.8468 72.78 61.3344 72.5662 61.3773C72.508 61.3627 72.6041 61.2902 72.649 61.2365C72.0377 61.2434 72.7041 61.5099 72.3636 61.7455C72.2308 61.6481 72.2869 61.3713 72.0265 61.4679C71.8506 61.4241 71.5157 62.2391 71.0549 62.1597C71.1795 62.2228 71.3028 62.2859 71.1709 62.4468C70.9282 62.6138 70.2751 62.4228 70.1988 62.8576C70.1523 62.8468 70.1264 62.8267 70.1122 62.8026C69.954 62.9846 69.5333 63.2644 69.5001 63.4953C68.9927 62.9541 68.4199 64.4275 68.125 63.8408L67.5284 64.1812L67.5133 64.1134C67.1021 64.2734 67.0383 64.4876 66.9741 64.6979C66.8633 64.7048 66.9008 64.6164 66.8926 64.582C66.2628 64.7601 66.2189 64.8146 65.8943 65.3524L65.7456 65.1898C65.6745 65.3661 64.7684 65.3219 64.3265 65.8322C64.3205 65.8078 64.3127 65.7653 64.3429 65.7159C63.8317 66.2589 62.5644 65.9829 62.7036 66.791L62.3833 67.1803C62.9433 66.9477 62.4639 67.5189 62.7433 67.5151C62.5562 67.667 62.0928 67.5992 62.3303 67.4262L62.3889 67.4387C62.2911 67.0322 61.6605 67.6674 61.5436 67.4181C60.5074 67.9979 59.3772 68.3455 58.3982 68.8769L58.6629 69.0893L58.3146 69.2619C58.19 69.2473 58.0754 69.1134 58.3241 68.9902C58.1098 68.9052 57.9904 69.346 58.0172 69.4095C57.4809 69.5614 58.0236 68.9867 57.8745 69.0606L57.6883 69.191L57.7508 69.1983C57.6534 69.3992 57.7055 69.5258 57.4072 69.6739C57.1921 69.7211 57.2176 69.5571 57.1391 69.5867C57.1288 69.567 57.099 69.5717 57.0236 69.6404L56.5826 69.8546L56.8753 69.976C56.746 70.1876 56.4671 70.1876 56.8025 70.3228C56.2977 70.1022 55.1334 71.0764 54.8929 71.0649C54.7196 71.3726 54.4584 71.5185 54.1252 71.6837C54.2312 71.6829 54.4183 71.897 54.1234 72.0262C53.9377 71.4696 53.4906 72.1009 53.0579 71.8713C53.3967 71.994 52.3022 72.382 52.813 72.5391C52.5578 72.6314 52.6906 72.361 52.4466 72.3443C52.0052 72.8494 51.1612 72.9232 50.522 73.388C50.55 73.4593 50.722 73.4919 50.6345 73.6743L50.084 73.5601C49.9693 73.6709 50.184 74.0078 49.8055 73.9267C49.8728 73.9606 49.9732 74.0129 49.8961 74.0863C48.3757 74.5468 47.3502 75.9507 45.6553 76.1769C45.9131 76.1915 45.7997 76.2773 45.6648 76.3661C45.773 76.3413 45.7605 76.5262 45.8316 76.6026L45.1234 76.7005C45.1708 77.0043 44.5337 77.082 44.6186 77.3481L44.7699 77.1992C44.704 77.6146 45.4752 77.6048 45.6571 77.9756C45.7286 77.5056 46.633 78.0142 46.7903 77.3073C46.9291 77.3211 46.7782 77.47 46.8791 77.5202C46.8959 77.3035 47.0089 77.1919 47.2946 77.1108L47.2899 77.1649C47.955 76.7121 48.3365 76.676 49.1715 76.3138L49.009 76.1734C49.19 76.0979 49.2581 76.1318 49.3624 76.1297C49.3947 75.752 48.8844 76.3915 48.8831 75.997C49.3185 76.2211 50.065 75.3065 50.4564 75.6224C50.7146 75.4726 50.2603 75.4644 50.5185 75.3151L50.6517 75.3842L50.6327 75.2052C50.8151 75.1288 50.9815 75.2155 51.0427 75.3048C50.9953 75.3176 50.9422 75.3992 50.903 75.4327C51.1979 75.4331 51.4923 75.0254 51.5923 75.0232L51.3056 75.1013C51.9457 74.585 52.8846 74.2219 53.4393 73.6121L53.3393 73.5584C53.7717 73.1065 53.8101 73.4108 54.3416 73.0116L54.3321 73.0434C54.3989 72.8949 54.5278 72.7657 54.6898 72.6855C54.6015 72.8657 55.0709 72.7189 54.9437 72.9357C55.4136 72.4464 55.1485 72.6455 55.3446 72.1219L55.5097 72.2108C55.5658 72.0129 55.5386 71.9408 55.8046 71.7413C55.6373 71.9945 56.1072 71.8477 55.9339 72.155C56.7046 72.1125 56.655 71.3455 57.1831 71.634C57.2439 71.0958 56.5391 71.7112 56.6481 71.5425C56.4468 71.4898 56.7149 71.1288 56.927 71.0619C57.1253 70.9627 57.5331 71.3704 58.0142 71.094C57.965 71.1189 57.9779 71.1498 57.9288 71.1747C58.1655 71.1722 58.2107 70.8443 58.5228 70.8799C58.5176 70.5782 58.8198 70.7327 58.6901 70.4159L58.2827 70.7318C58.4918 70.5142 58.5353 70.0348 59.0457 69.9722C59.0465 70.0503 58.9664 70.1979 58.906 70.2893C59.0763 70.3091 59.1082 70.1009 59.2845 70.1211C59.4138 70.4387 58.7784 70.4863 58.6344 70.8631C58.8349 70.9159 59.0263 70.3636 59.0698 70.761C59.037 70.2434 59.5767 70.5477 59.7319 70.052L59.8091 70.2425C59.8453 70.1855 59.9065 70.0417 60.0048 69.9928L59.9595 70.3202C60.1168 69.9756 60.5669 70.2073 60.7656 69.9631C60.2306 70.2584 60.5259 69.8121 60.2272 69.8061C60.7591 69.2073 60.866 70.0674 61.5617 69.5816C61.4751 69.661 61.1251 69.6773 61.2372 69.5099C61.3988 69.4704 61.6234 69.4387 61.7613 69.4859C62.2333 69.1842 61.5855 69.3425 61.735 69.1198C62.0217 69.2477 61.9286 68.9009 62.107 68.7151L62.2075 68.8962C62.8321 68.7112 62.1506 68.4365 62.7329 68.3056L62.6558 68.6734L62.8838 68.4666L62.9416 68.7031C63.145 68.3953 63.2558 68.3872 63.5679 68.294C63.4338 68.2009 63.4269 67.943 63.6726 67.8035C63.9007 67.8211 63.6705 68.0284 64.0093 67.8125C63.9908 67.97 63.9804 68.1601 63.7369 68.0743C63.7532 68.1421 63.72 68.231 63.7351 68.2988C63.9847 68.3254 64.2093 68.0803 64.336 68.0104C64.2834 68.0297 64.2192 68.0516 64.1752 68.0417L64.5537 67.5181C64.671 67.5447 64.636 67.6335 64.6011 67.7207C64.6951 67.6464 64.7223 67.5249 64.8675 67.4292C64.9067 67.5988 64.9977 67.7473 64.8184 67.9301L65.2206 67.5099C65.2874 67.5576 65.5663 67.5571 65.5313 67.6451C65.849 67.5915 66.0452 67.0091 66.4663 66.9374C66.4698 66.8983 66.4926 66.8511 66.5581 66.7902C66.9146 66.6477 67.3099 66.6747 67.6043 66.261L67.9711 66.4108C68.2539 66.1863 67.4879 66.2335 67.9586 65.8597C68.2854 65.5816 68.2151 66.0164 68.3845 66.0245C68.4996 65.7958 68.6811 65.3576 69.1358 65.4035C69.0483 65.5112 68.9393 65.5164 68.8436 65.5897ZM72.6903 63.5112C72.6334 63.5872 72.5416 63.7812 72.4313 63.6992C72.4123 63.4443 72.53 63.5134 72.6903 63.5112ZM78.4686 60.1833C78.4406 60.2722 78.338 60.2829 78.2048 60.2588C78.2699 60.2095 78.3553 60.1782 78.4686 60.1833ZM94.929 51.4486C94.9268 51.4528 94.9255 51.4563 94.9242 51.4614C94.7177 51.4584 94.7923 51.4623 94.929 51.4486ZM95.3281 51.3829C95.3544 51.3413 95.341 51.3155 95.3148 51.2949C95.3087 51.3541 95.2281 51.391 95.129 51.4155C95.1751 51.455 95.2367 51.4704 95.3281 51.3829ZM57.1382 69.6747L57.2322 69.6846C57.1098 69.8207 57.1257 69.7503 57.1382 69.6747Z" fill="white"/>
</svg>
