<?xml version="1.0" encoding="UTF-8"?>
<svg width="57px" height="55px" viewBox="0 0 57 55" version="1.1" xmlns="http://www.w3.org/2000/svg" xmlns:xlink="http://www.w3.org/1999/xlink">
    <!-- Generator: Sketch 49.3 (51167) - http://www.bohemiancoding.com/sketch -->
    <title>signature</title>
    <desc>Created with Sketch.</desc>
    <defs></defs>
    <g id="Page-1" stroke="none" stroke-width="1" fill="none" fill-rule="evenodd">
        <g id="Desktop-HD-Copy" transform="translate(-87.000000, -582.000000)" fill-rule="nonzero">
            <g id="signature" transform="translate(87.000000, 582.000000)">
                <g id="imza_cihan">
                    <g id="Page-1">
                        <g id="imza_cihan">
                            <g id="Page-1">
                                <g id="imza_cihan">
                                    <path d="M6.63447506,21.0565022 C6.44077987,21.1405364 6.25016672,21.2934978 6.11408224,21.4556652 C5.77007769,21.8654507 5.3618242,22.2096137 5.02469501,22.6238841 C4.93223339,22.7374249 4.85375958,22.8521459 4.79045895,22.9758369 C4.76532836,23.0246996 4.75371139,23.0763948 4.73118867,23.1259657 C4.65698234,23.2893133 4.42322046,23.2718455 4.39832695,23.4059228 C4.38220543,23.4934978 4.51544496,23.562897 4.44052738,23.7101931 C4.16124593,24.2601931 4.00785451,24.8196352 3.80111987,25.3750644 C3.76792853,25.4640558 3.7321293,25.5421889 3.73165514,25.6309442 C3.73023265,25.8962661 3.71292574,26.1651287 3.56688384,26.4521673 C3.48627629,26.6107941 3.55787476,26.7366095 3.51970472,26.8914592 C3.33430736,27.6439915 3.42676895,28.3136695 3.4848538,28.9861802 C3.52563173,29.457103 3.61240339,29.9230687 3.77670053,30.3245923 C3.98983637,30.8457941 4.3103699,31.2919313 4.7276325,31.6427039 C4.81274453,31.7139915 4.91445229,31.7368883 5.04745477,31.6807081 C5.56476553,31.4628327 6.0183015,31.1939699 6.33527881,30.6052574 C6.92205434,29.5158798 7.39977254,28.4326394 7.52020971,27.3241416 C7.52755924,27.2563948 7.50598487,27.1688198 7.61148593,27.1258584 C7.71556446,27.0833691 7.76345486,27.1449786 7.78431796,27.2235837 C7.83197123,27.4055794 7.88721115,27.582618 7.85805017,27.8019099 C7.78171009,28.3757511 7.65724254,28.9590343 7.44529211,29.5387768 C7.22931129,30.1286695 6.93959831,30.7157297 6.51854247,31.2553434 C6.50977046,31.2666738 6.50265802,31.2803648 6.49246353,31.2895709 C5.90545095,31.812897 5.3340857,32.3687982 4.68069045,32.7733905 C4.48462444,32.894721 4.28666179,33.0335194 4.0756597,33.1265236 C3.47299976,33.3916095 2.91775602,33.4310301 2.41182514,33.3082832 C1.72879474,33.1425751 1.23471791,32.7488412 0.898299957,32.1466738 C0.391657833,31.2404721 0.185397352,30.172103 0.0656714408,29.049678 C0.0523949039,28.9255151 0.00568994431,28.7919099 0.241822633,28.7357297 C0.316740233,28.7177897 0.324800987,28.6325751 0.329542607,28.5714378 C0.338077524,28.4607297 0.34874617,28.3490772 0.34874617,28.2412018 C0.349220332,27.6390343 0.42603458,27.0170386 0.497633048,26.3964592 C0.504745477,26.3343777 0.537936818,26.2538841 0.51754785,26.2125751 C0.366290165,25.9045279 0.663589754,25.6977467 0.883126773,25.4966309 C0.981989557,25.4057511 1.02679787,25.3259657 1.05429926,25.2261159 C1.17734431,24.7804507 1.33761107,24.3312446 1.55477728,23.8997426 C1.72144523,23.5680901 1.77621094,23.1899356 2.1064648,22.9069099 C2.12163798,22.614442 2.48816523,22.3965665 2.49646306,22.0854507 C2.49930804,21.9799356 2.62519805,21.7918026 2.73235867,21.7065879 C2.95640023,21.5286052 3.07825987,21.2422747 3.34402768,21.1133905 C3.40472042,21.0838841 3.47086602,20.9915879 3.50666525,20.9212446 C3.63018447,20.6785837 3.82293133,20.7595493 3.97537443,20.6625323 C4.13208497,20.5629184 4.10031611,20.3204935 4.30562827,20.2600644 C4.53939016,20.1913734 4.75940131,20.0565879 4.98628783,19.9385622 C5.33598235,19.7565665 5.63494151,19.8538198 5.89241151,19.9638198 C6.2605983,20.1210301 6.64087624,20.2451931 7.06430291,20.2966523 C7.17051523,20.3093992 7.2480407,20.2853219 7.32817413,20.1776824 C7.34548101,20.1545493 7.36373625,20.1314162 7.38436231,20.111824 C7.5892003,19.9177897 7.71935777,19.5988841 8.05127118,19.630043 C8.26891157,19.6505794 8.53112317,19.534678 8.71059348,19.6864592 C8.79831343,19.7608155 8.96379599,19.7428755 9.08328485,19.7853648 C9.50576322,19.9354935 9.61292384,20.3023176 9.36778204,20.8213948 C9.13283476,21.3182832 8.94316997,21.8203648 8.72339589,22.3189055 C8.59371254,22.6127897 8.40618149,22.8776394 8.16530716,23.1113305 C7.79688328,23.4684764 7.49697577,23.8598497 7.32129873,24.319678 C7.27815004,24.4327467 7.23500125,24.5533691 7.16340279,24.6555794 C6.96662556,24.9367168 6.76036509,24.9763734 6.61930187,24.7754935 C6.52992235,24.6482618 6.43674947,24.5240986 6.3483183,24.3956867 C6.31346735,24.3451717 6.26676239,24.2958369 6.26036121,24.2309228 C6.20820338,23.6906008 6.13210039,23.1642059 6.23499358,22.5618026 C6.31251905,22.1062232 6.52209864,21.6572533 6.62404348,21.2075751 C6.63494923,21.1601287 6.67857214,21.1070172 6.63447506,21.0565022 L6.63447506,21.0565022 L6.63447506,21.0565022 Z M5.0467435,20.3854077 C5.01260386,20.3086909 4.96684721,20.3018455 4.91777142,20.3245065 C4.6987086,20.4248283 4.4824907,20.5322317 4.27457067,20.6837768 C4.19562268,20.7413734 4.13232205,20.7866952 4.15863805,20.8662446 C4.18732485,20.9533477 4.26864363,20.9030687 4.33976793,20.8558584 C4.56973652,20.703133 4.77338911,20.4864378 5.0467435,20.3854077 L5.0467435,20.3854077 L5.0467435,20.3854077 Z" id="Fill-1" fill="#FFFFFF"></path>
                                    <path d="M9.41021956,25.8511802 C9.56906384,24.0368883 9.85972517,22.197103 10.1809699,20.3509442 C10.2684528,19.8486266 10.3379176,19.3500858 10.3758505,18.8576824 C10.3988473,18.5586052 10.3730055,18.2836052 10.3180027,18.0178111 C10.2549392,17.7137768 10.1698271,17.444442 9.81871013,17.3955794 C9.62216998,17.3681974 9.66223667,17.3091845 9.84881942,17.0865879 C10.1565506,16.7192919 10.4920202,16.4837125 10.8943467,16.4348497 C11.1226557,16.4072317 11.3509647,16.3845709 11.5728725,16.3807941 C11.8765733,16.3756008 12.1745842,16.389764 12.4744916,16.3968455 C12.8592741,16.4062875 13.1470905,16.5885194 13.3583296,16.8290558 C13.6876352,17.2046137 13.9332511,17.6542919 14.0212082,18.2205794 C14.0600895,18.4712661 14.0510804,18.7349356 14.0397005,18.9945923 C14.0228677,19.3798283 14.0271352,19.7674249 13.953403,20.1616309 C13.8545402,20.6906223 13.7246198,21.2342489 13.4460496,21.7679614 C13.3810894,21.8923606 13.2895762,22.0028327 13.333199,22.1246352 C13.3426823,22.1517812 13.3362811,22.2081974 13.3147067,22.2329828 C13.0811819,22.504678 13.1108171,22.7704721 13.0529693,23.0431117 C12.9865866,23.3561159 12.7950252,23.6651073 12.6788554,23.9809442 C12.4538656,24.5927897 12.1598852,25.2029828 12.0524874,25.8150644 C12.0136061,26.0357725 11.8531023,26.2198927 11.7921725,26.4335194 C11.6632004,26.8865022 11.6435227,27.3189485 11.5494015,27.7641416 C11.4593107,28.1895065 11.3791774,28.6132188 11.3277308,29.0326824 C11.313743,29.1485837 11.3298645,29.2465452 11.3388736,29.3492275 C11.3689829,29.695279 11.413317,30.0342489 11.3760953,30.4067382 C11.3350803,30.8155794 11.0408628,31.2012875 10.6416183,31.3407941 C10.5546096,31.3712446 10.4742392,31.377618 10.3936316,31.3667596 C9.7942908,31.2860301 9.5171431,30.8875751 9.42159944,30.3021673 C9.34051775,29.8062232 9.28907118,29.3017812 9.3125422,28.7619313 C9.33364239,28.2759014 9.28029917,27.8132404 9.31609838,27.3208369 C9.35189763,26.8298497 9.37916192,26.3409871 9.41021956,25.8511802" id="Fill-2" fill="#FFFFFF"></path>
                                    <path d="M11.4301498,10.3657296 C11.5804592,10.307661 11.7487867,10.2521888 11.887242,10.2854721 C12.1153139,10.340236 12.3403038,10.2510086 12.5833118,10.1105579 C12.7722654,10.0012661 12.9256568,9.9852146 13.119352,10.0350214 C13.4906209,10.1303863 13.8009599,10.3142704 14.1331104,10.4599141 C14.5186041,10.6291631 14.7203601,10.990794 14.6620381,11.517661 C14.6497099,11.6286052 14.6103545,11.7525322 14.6278985,11.848133 C14.7582931,12.563133 14.3490912,13.2998498 14.0212082,14.034206 C13.9792449,14.1281545 13.9230566,14.2013305 13.8272759,14.2464163 C13.692851,14.3099141 13.5674351,14.3804936 13.4877759,14.5386481 C13.4621711,14.5896352 13.3775332,14.6592704 13.3291687,14.666824 C13.0968293,14.7043562 12.8573775,14.8792704 12.6366551,14.8894206 C12.1824078,14.9106652 11.7046896,14.9956438 11.2999923,14.8655794 C11.2694089,14.8559013 11.2350321,14.8523605 11.2058711,14.840794 C11.0159693,14.7640772 10.7324204,14.8474034 10.6264451,14.6274034 C10.4322758,14.2235193 10.2466414,13.8165665 10.3910237,13.2465021 C10.5128833,12.7651931 10.6290531,12.2843562 10.661059,11.8165021 C10.6745726,11.6212875 10.7061044,11.4152146 10.5344577,11.3219743 C10.4668896,11.2853863 10.4951023,11.2204721 10.5337465,11.1345494 C10.7053931,10.7519099 10.9299089,10.4521245 11.3448006,10.3928755 C11.3685087,10.3893348 11.3938764,10.3775322 11.4301498,10.3657296" id="Fill-3" fill="#FFFFFF"></path>
                                    <path d="M16.7270138,22.9234335 C17.0025019,22.3913734 17.2787013,21.8593133 17.5534782,21.3270172 C18.1272143,20.2152146 18.802658,19.1496781 19.6163201,18.1455151 C19.7614137,17.9665879 19.9031881,17.7838841 20.0328714,17.5959871 C20.2182687,17.3271245 20.4508452,17.1972961 20.7028624,17.1821889 C20.8512751,17.1732188 20.9866483,17.1189271 21.135061,17.0634548 C21.6931497,16.8552574 22.2595362,16.7221245 22.7593031,16.7773606 C23.2823038,16.8351931 23.6218039,17.1668456 23.7642895,17.6835622 C23.8470307,17.9842919 23.9027448,18.2885622 23.8121798,18.6598713 C23.7320465,18.9886909 23.7555175,19.2981545 23.7235116,19.6175323 C23.6687458,20.166824 23.5611111,20.7288626 23.5065824,21.2779184 C23.4767102,21.5791202 23.394443,21.867103 23.2709239,22.174442 C23.0755691,22.660236 22.9029741,23.1519313 22.7702088,23.6386695 C22.6824888,23.9592275 22.6732427,24.2774249 22.6462154,24.5923176 C22.6374434,24.6940558 22.6526166,24.782339 22.5518572,24.8758155 C22.3479676,25.0646566 22.343463,25.2683691 22.3600587,25.4510729 C22.3790251,25.662103 22.3586361,25.8825751 22.3560283,26.0990343 C22.3546058,26.2224893 22.3536575,26.3331974 22.2225517,26.4509871 C22.1775063,26.4915879 22.1236888,26.5978111 22.1376767,26.6292059 C22.2434148,26.8662018 22.0023034,27.2098927 22.1179989,27.4376824 C22.2099862,27.6192059 22.1490565,27.8004935 21.9503827,27.9761159 C21.8209363,28.0903648 21.7562133,28.3106008 21.5549315,28.3084764 C21.3278079,28.3063519 21.0966539,28.3422317 20.9425512,28.1595279 C20.7533607,27.935279 20.496839,27.7806652 20.3112044,27.5441416 C19.9022397,27.0224677 19.6637363,26.395043 19.5641623,25.6694206 C19.3913302,24.4086695 19.4823692,23.0615236 19.6125267,21.702103 C19.6950309,20.8381545 19.7886779,19.9716095 19.8775834,19.1062446 C19.8889632,18.9957725 19.9084039,18.8819956 19.8320638,18.787103 C19.6255662,18.9783048 19.460795,19.1860301 19.3074036,19.4046137 C18.6395462,20.3561374 18.1054028,21.3546352 17.5688885,22.3536052 C17.1829206,23.0728541 16.8905996,23.8046137 16.5963821,24.5363734 C16.4757079,24.8363948 16.3709181,25.1394849 16.3168636,25.442103 C16.2722924,25.6932618 16.1070469,25.9571673 16.1400012,26.2017168 C15.8652243,26.5963948 16.0333147,26.9396137 15.8960448,27.3220172 C15.7922033,27.6114163 15.7348297,27.8953863 15.7409938,28.1791202 C15.7457355,28.3870816 15.6326478,28.6299786 15.4543629,28.8407725 C15.4062355,28.897661 15.3583451,28.9484121 15.2981265,28.9838198 C15.0838053,29.1091631 15.0022494,29.1875323 14.9289913,29.3633905 C14.9131069,29.4016309 14.886791,29.4644206 14.8720919,29.4604077 C14.6708101,29.4039915 14.5323548,29.6714378 14.3500395,29.7214806 C14.0866425,29.7937125 13.9294578,29.6686052 13.8204006,29.5227253 C13.6053681,29.2349786 13.4183112,28.9189055 13.5790521,28.4180044 C13.6264683,28.27 13.6203042,28.1198713 13.6264683,27.9744636 C13.6726991,26.913176 13.888917,25.8141202 14.000345,24.7393777 C14.0484725,24.2753004 14.13477,23.8017812 14.1425937,23.343133 C14.1497061,22.9250858 14.2495172,22.4744636 14.336763,22.0344636 C14.4484281,21.4717168 14.5228716,20.9162875 14.6101174,20.3582618 C14.8391377,18.8949786 14.9647906,17.4534121 15.1793489,15.9936695 C15.2981265,15.1856652 15.4214087,14.3722318 15.4958521,13.5788626 C15.6501918,11.9316953 16.0629498,10.2486481 16.3429425,8.58519311 C16.589981,7.11931333 16.8927334,5.64446351 17.0759971,4.18896996 C17.1710665,3.43313305 17.3291995,2.66407725 17.4567491,1.90139485 C17.4818797,1.7512661 17.5077215,1.59948498 17.5136486,1.4543133 C17.5200498,1.29285408 17.500135,1.15122318 17.2986161,1.15759657 C17.163717,1.16184549 17.122939,1.08111588 17.2668472,0.939484977 C17.3467435,0.860643776 17.359783,0.770944207 17.4015092,0.685257511 C17.5447062,0.392789699 17.7348452,0.244077253 18.018157,0.215515022 C18.5556196,0.160987125 19.095216,0.100085837 19.6262775,0.0696351931 C20.0352422,0.0462660943 20.38873,0.145643777 20.6428808,0.40223176 C20.6955128,0.455343348 20.7500415,0.484613735 20.8263816,0.503733903 C21.2493341,0.609484977 21.3842331,0.86607296 21.2860816,1.36862661 C21.2706714,1.44746781 21.269486,1.51781116 21.2820512,1.58296137 C21.3372912,1.86527897 21.2256259,2.19409871 21.1715715,2.49341202 C21.1277115,2.73536481 21.0079856,3.00469956 20.9534569,3.26600858 C20.9200286,3.4269957 20.8441626,3.59034335 20.8837552,3.73763948 C20.8918159,3.76832618 20.8960834,3.81435622 20.8783023,3.84504291 C20.7185097,4.12193133 20.8033847,4.35963519 20.7374762,4.61527897 C20.6386135,4.99980689 20.675361,5.35246782 20.5845588,5.72826179 C20.4973131,6.08918454 20.4932828,6.44066523 20.3346756,6.81032189 C20.2820435,6.93306868 20.2680557,7.06266097 20.2450589,7.18776822 C20.1552052,7.6752146 20.0274186,8.15888413 19.7599911,8.6465665 C19.6680038,8.81392702 19.6099189,9.00324034 19.5800467,9.17555793 C19.5065515,9.59974247 19.2881999,10.0352575 19.2685222,10.4535408 C19.2673368,10.477382 19.2524008,10.5059442 19.253349,10.5286052 C19.2625952,10.7186266 18.9847363,10.871588 19.0413986,11.0946567 C19.0819395,11.2542275 19.0070219,11.4815451 18.9705114,11.6805365 C18.9337637,11.8811802 18.8799465,12.0844206 18.834664,12.2864807 C18.7839285,12.5135622 18.7419652,12.7399356 18.6829322,12.9677253 C18.5105742,13.6310301 18.47762,14.2662447 18.4138452,14.9073605 C18.3991461,15.0553648 18.4124226,15.1986481 18.2881923,15.3492489 C18.2488368,15.3969313 18.2274996,15.4415451 18.2545267,15.4845064 C18.3626357,15.6558798 18.2618763,15.8770601 18.1921745,16.0911588 C18.1717855,16.1544206 18.1397795,16.2224034 18.1383571,16.2804721 C18.1276884,16.7497426 17.9683699,17.242382 17.8837321,17.7232188 C17.7822614,18.2987125 17.6042135,18.8810515 17.4569862,19.4607941 C17.4441839,19.5113091 17.4363602,19.5901503 17.4081475,19.6087982 C17.0752858,19.8278541 17.2286772,20.0624893 17.1620575,20.2905151 C17.0463619,20.684721 17.081687,21.0687768 16.8538521,21.4703004 C16.8337003,21.5057081 16.8111775,21.5531545 16.8161562,21.5821889 C16.8868064,22.0040129 16.7526185,22.4742275 16.7270138,22.9234335" id="Fill-4" fill="#FFFFFF"></path>
                                    <path d="M31.4739269,21.8418456 C31.1880073,22.2759442 30.9300631,22.6654291 30.6744898,23.0560945 C30.1325226,23.8839271 29.5052063,24.644721 28.7678841,25.3205364 C28.7361154,25.3495709 28.6991307,25.377661 28.6766081,25.4118883 C28.3610532,25.8934335 27.9037239,26.1641845 27.4603825,26.4505151 C27.1474355,26.6525751 26.8076985,26.7432188 26.4968853,26.9622747 C25.8117211,27.0668456 25.1111467,27.2205151 24.5348027,26.9771459 C23.9812186,26.7434548 23.675384,26.2739485 23.5677494,25.6540772 C23.4302424,24.8609442 23.4999441,24.002897 23.7732985,23.095279 C23.9157842,22.6219956 24.1801295,22.1869529 24.5073013,21.7833048 C24.6474162,21.6105151 24.8195371,21.4490558 25.033147,21.3194636 C25.2330064,21.1983691 25.3975405,20.986867 25.6431565,20.93706 C25.7069313,20.9240772 25.9492281,20.7796137 25.7875388,20.6273606 C25.7574296,20.5990343 25.8404079,20.5478111 25.8868758,20.5367168 C26.2861202,20.4408798 26.624672,20.139442 26.9847979,19.9010301 C27.1486209,19.7924463 27.338997,19.7527897 27.517519,19.6810301 C27.6031051,19.6465665 27.6946186,19.625322 27.7730924,19.5724463 C28.4006457,19.1489699 29.0564118,18.9433691 29.7048285,18.6846566 C30.2036468,18.4856652 30.6728301,18.1967382 31.1270774,17.8438412 C31.3333378,17.6837982 31.4132342,17.5230471 31.4227175,17.2995065 C31.459702,16.4117168 31.5104374,15.5194421 31.5644918,14.6266953 C31.5813247,14.345794 31.6251846,14.057339 31.6543456,13.772897 C31.6865886,13.4587125 31.6624063,13.1714378 31.5275073,12.9356223 C31.4329119,12.7703863 31.2849734,12.6632189 31.0644881,12.7172747 C30.4222356,12.8742489 29.7837763,13.0973176 29.1922593,13.6067167 C28.9501995,13.8149141 28.8136409,14.0401073 28.7617201,14.336824 C28.6898846,14.7468455 28.5630463,15.1622961 28.5134964,15.5744421 C28.4786454,15.862661 28.293011,16.1777897 28.0625682,16.4504291 C27.7858946,16.7780687 27.5371968,16.8816952 27.228043,16.8012018 C27.0706212,16.7601287 26.9124883,16.72 26.7512731,16.6864806 C26.5957479,16.6543777 26.4781559,16.5696352 26.387828,16.4579828 C26.3103024,16.362618 26.2716582,16.2495494 26.3754997,16.0633047 C26.504946,15.8315021 26.5931401,15.5867167 26.701012,15.3480687 C26.9407008,14.8167167 27.3027236,14.3493348 27.7406122,13.9461588 C28.9030204,12.8759013 30.1671363,12.1498069 31.5213431,11.7669313 C31.8065516,11.6864378 32.0768239,11.6715665 32.3485188,11.6644849 C33.1112084,11.6448927 33.7693453,11.8393991 34.3999807,12.0879614 C34.5602476,12.1512232 34.7501494,12.2062232 34.7710125,12.4328326 C34.7729092,12.4540772 34.7871341,12.4765021 34.8049152,12.4835837 C35.1612479,12.6287553 35.1937281,13.0602575 35.4099459,13.3295923 C35.5604923,13.5172532 35.4794107,13.8005151 35.4236965,14.0613519 C35.3826816,14.2539699 35.3717758,14.4317167 35.3736725,14.611824 C35.3767546,14.9337983 35.410183,15.2451502 35.3679826,15.583176 C35.3464082,15.7564378 35.3582623,15.9219099 35.3978548,16.0741631 C35.4346023,16.2153219 35.4343652,16.3642704 35.3893198,16.53706 C35.3198551,16.8040343 35.4206144,17.0183691 35.3817332,17.2862875 C35.3065786,17.8039485 35.3426149,18.2909228 35.3452228,18.7878111 C35.3480678,19.3460729 35.3660859,19.9031545 35.3364508,20.4739271 C35.3295754,20.6075323 35.319381,20.7430257 35.325308,20.8721459 C35.336925,21.1341631 35.2070046,21.4240343 35.0488715,21.6371889 C34.8362098,21.9244636 34.8516201,22.1354935 34.8890789,22.3512446 C34.9528537,22.7164163 35.1550839,23.0062875 35.1451263,23.4151287 C35.1439409,23.4642275 35.2032112,23.4972747 35.2411443,23.5300858 C35.4151617,23.6813948 35.3288641,23.9091845 35.1996551,24.1350858 C35.0588289,24.3810515 34.8765137,24.5611588 34.6024479,24.5864163 C34.0851373,24.6340986 33.6297045,24.5366095 33.2698156,24.2944206 C32.4525973,23.7441845 31.7084001,23.1151073 31.5362793,21.9756867 C31.5313005,21.9440558 31.5109116,21.9199786 31.4739269,21.8418456 L31.4739269,21.8418456 L31.4739269,21.8418456 Z M31.400906,19.9692489 C31.3973498,19.4999786 31.4013801,19.1749356 31.3902373,18.8553219 C31.3817024,18.6164378 31.3361828,18.5999142 31.096494,18.7398927 C30.6218578,19.0170172 30.1389238,19.254721 29.6647617,19.5455364 C28.9267286,19.9985194 28.2135888,20.4821889 27.5898286,21.1287339 C27.3707659,21.3558155 27.0971743,21.582897 27.0310287,21.9095923 C26.9212603,22.4492059 26.7498507,23.0025107 26.8669686,23.4892489 C26.879534,23.5411802 26.8679169,23.6086909 26.8577225,23.6707725 C26.7783004,24.1532618 26.8672058,24.5762661 26.8774003,25.0268883 C26.8802453,25.1475107 26.9238681,25.2466523 26.9779226,25.336824 C27.1922439,25.6951503 27.4068021,25.7038841 27.8302289,25.3266738 C28.4523294,24.7721889 29.0372083,24.18206 29.5357896,23.5010515 C30.0203832,22.8386909 30.4137006,22.1383262 30.8660511,21.4643992 C31.2396908,20.9077897 31.5220544,20.3733691 31.400906,19.9692489 L31.400906,19.9692489 L31.400906,19.9692489 Z" id="Fill-5" fill="#FFFFFF"></path>
                                    <path d="M39.4426939,20.8060515 C39.2997342,20.4819529 39.2997342,20.4819529 39.0972669,20.3641631 C38.8777299,20.6148497 39.0235347,20.8433477 38.9054684,21.12 C38.7195968,21.088133 38.7864537,20.8331974 38.6209712,20.8008584 C38.4877317,20.9200644 38.5460536,21.0109442 38.562175,21.1188198 C38.5811416,21.2429828 38.5365703,21.3201717 38.3684799,21.4134121 C38.1503654,21.5345065 37.8774851,21.560236 37.7160328,21.8656867 C37.6788112,21.9360301 37.4957847,22.0080257 37.458563,21.8739485 C37.4452864,21.825558 37.4384111,21.7778755 37.3869645,21.8083262 C36.9248937,22.0814378 36.7560918,21.7368026 36.4990961,21.6098069 C36.3035043,21.5132618 36.2259787,21.2554935 36.2174439,21.0135408 C36.2008482,20.5308155 36.159596,20.0577683 36.1745322,19.5604077 C36.1980032,18.7833262 36.3210483,17.9821673 36.3473641,17.205558 C36.3630116,16.7447854 36.3819781,16.2840129 36.3755769,15.8293777 C36.3691756,15.3579828 36.4298683,14.8629828 36.4611632,14.378133 C36.5152176,13.5458155 36.6325726,12.6898927 36.6064938,11.8870816 C36.577807,11.0037768 36.6285424,10.0829399 36.4104278,9.27186695 C36.3248415,8.9543777 36.1833042,8.71879828 35.8646672,8.64113735 C35.8224668,8.63098713 35.778844,8.6208369 35.7712574,8.56300431 C35.8615853,8.41523604 36.0021742,8.36495707 36.133043,8.31491414 C36.5431931,8.15817597 36.9417264,8.07366954 37.3262717,8.09939914 C37.9348587,8.14 38.5078835,8.26251074 38.9870242,8.53231759 C39.5126328,8.8283262 39.9306066,9.25581546 40.1691102,9.84783259 C40.2613346,10.0765665 40.3445501,10.3114378 40.4396196,10.5642489 C40.6065246,10.4348927 40.6627127,10.2743777 40.7359709,10.1188198 C41.0204681,9.51429184 41.3777491,8.93454937 41.7620575,8.36566523 C42.0778494,7.89804719 42.4680848,7.49274678 42.8908001,7.1207296 C43.4685667,6.61203862 44.0942233,6.33963518 44.7186948,6.28369098 C45.2151425,6.23931333 45.6188914,6.38991414 45.8706714,6.77231759 C45.9830478,6.94298282 46.1452112,7.07587983 46.3076118,7.19862661 C46.6181878,7.43396995 46.7654149,7.80716741 46.9422777,8.1515665 C47.2730058,8.79575109 47.3960507,9.55253218 47.3996068,10.372103 C47.4012664,10.7764592 47.4299534,11.1732618 47.4742873,11.5610944 C47.4982326,11.7718884 47.4768951,11.9984979 47.4453634,12.2140129 C47.3668898,12.7505579 47.4133577,13.2472103 47.3517163,13.7799786 C47.2573584,14.6002575 47.0055782,15.4349356 46.8725759,16.2556867 C46.8427037,16.440279 46.6736648,16.6024463 46.6528017,16.7801931 C46.6177134,17.0787982 46.448912,17.3453004 46.2523718,17.6066095 C46.1520865,17.7399786 46.0921051,17.8587125 46.1288525,17.9998713 C46.1591991,18.1164806 46.138336,18.2736909 46.038999,18.3990343 C45.8834738,18.594957 45.9382396,18.7375323 45.9576801,18.8907297 C45.9688229,18.9801931 46.0112607,19.0512446 46.0205068,19.1468456 C46.0489564,19.4369529 46.1523239,19.6890558 46.056069,20.0367596 C46.0027255,20.2293777 46.0743238,20.4040558 46.1525608,20.5617382 C46.2414661,20.7413734 46.2907792,20.9514592 46.2101713,21.2085194 C46.1027738,21.5507941 45.9076561,21.6707081 45.6658335,21.5387554 C45.2637441,21.3194636 44.9026696,21.0506008 44.5807137,20.7335838 C44.3846477,20.5404935 44.1772018,20.3592059 43.9844549,20.1628111 C43.1705557,19.3337982 42.7845879,18.2191631 42.6923633,16.9043563 C42.5894702,15.4358798 42.7283997,13.896588 42.8704112,12.3544635 C42.9294443,11.7133476 42.95173,11.0809657 43.0325746,10.4341845 C43.1385498,9.58793994 43.2874367,8.73603005 43.5811801,7.86688839 C43.6549123,7.64877684 43.7020915,7.43326179 43.6779092,7.23450644 C43.6563348,7.05817597 43.5726452,7.03291845 43.3998131,7.17502149 C43.0778571,7.43963518 42.8014206,7.75098713 42.5577013,8.09396995 C41.8768046,9.05139483 41.3580713,10.0484764 41.0036353,11.0899356 C40.9519517,11.2414807 40.8765598,11.3923176 40.8125479,11.5436266 C40.6264395,11.9833906 40.5906402,12.3893991 40.6032054,12.8027253 C40.6188529,13.3095279 40.6148224,13.8290772 40.5052911,14.3727039 C40.4638019,14.5775966 40.4782638,14.7473176 40.510981,14.9300215 C40.5579229,15.1896781 40.5415643,15.4922961 40.5067135,15.7790987 C40.4675951,16.1020172 40.467358,16.4095923 40.4607198,16.7188198 C40.4491029,17.2709442 40.3497658,17.8287339 40.112922,18.40706 C40.092533,18.4566309 40.0503326,18.5104507 40.0477246,18.5541202 C40.0121625,19.1178111 39.6667356,19.7084121 39.6340183,20.2742275 C39.624535,20.4375751 39.4799156,20.6198069 39.4426939,20.8060515" id="Fill-6" fill="#FFFFFF"></path>
                                    <path d="M12.0771439,34.9294849 C12.0152657,34.9965236 11.9832598,35.0191845 11.9723541,35.044678 C11.7471271,35.5741416 11.4768548,36.0953434 11.2596885,36.6274034 C10.9910758,37.2864592 10.6954357,37.9436266 10.3564099,38.5922961 C10.1361616,39.0138841 9.9438889,39.4470386 9.65607258,39.842897 C9.03254949,40.7009442 8.21177504,41.2141202 7.45999117,40.613133 C7.10579213,40.3298713 7.01190804,39.865558 6.8649178,39.4394849 C6.67430466,38.8864162 6.70393978,38.2334978 6.71555674,37.5928541 C6.73215246,36.6831117 6.80920375,35.7556652 6.85353792,34.837897 C6.88032808,34.2871889 6.89360462,33.7402574 6.89739792,33.196867 C6.90047992,32.7823606 6.88981131,32.7859014 6.5737823,32.5680257 C6.60602533,32.4563734 6.68521041,32.4858798 6.74471773,32.4639271 C7.22528094,32.2883048 7.67715734,32.2094636 8.10888189,32.3022317 C8.33292341,32.3503863 8.58920801,32.3425966 8.82296989,32.3827253 C8.94672619,32.4039699 9.05459803,32.4379614 9.14800795,32.5071245 C9.35545385,32.6612661 9.60699679,32.76206 9.74924541,32.9936266 C9.85853973,33.1720816 9.94365182,33.3646996 9.9479193,33.605236 C9.94981595,33.7093348 9.95076426,33.8113091 9.97304989,33.907618 C10.0735722,34.342661 9.98656351,34.8414378 9.96830828,35.3168455 C9.96617454,35.3742059 9.94673391,35.438176 9.952898,35.4912875 C10.0052929,35.9336481 9.88438159,36.4173176 9.81467978,36.8884764 C9.79002336,37.0548927 9.80116616,37.2125751 9.7992695,37.3700214 C9.79595037,37.6251931 9.73264974,37.8798927 9.65014553,38.1397854 C9.54677821,38.4662446 9.54867487,38.7865665 9.38105862,39.1172747 C9.35592798,39.1673176 9.37702822,39.2298713 9.38176983,39.2843992 C9.38319231,39.3002146 9.40263294,39.3080044 9.423259,39.3290129 C9.54772656,39.2633905 9.59443152,39.1363948 9.66199958,39.0292275 C10.0619552,38.3963734 10.356884,37.7370816 10.6492049,37.0787339 C11.0785587,36.1116309 11.5392071,35.1490129 11.9235154,34.1750644 C11.9870531,34.0138412 12.0558066,33.852618 12.0814113,33.6935194 C12.1077273,33.5308798 12.1290646,33.3765022 12.3033192,33.2478541 C12.3628265,33.2039485 12.3715985,33.1357297 12.3796592,33.0757725 C12.4149843,32.8095065 12.4595555,32.5408798 12.4804187,32.2783905 C12.4903761,32.1528111 12.548698,31.9875751 12.3926987,31.9450858 C12.3457566,31.932339 12.3844009,31.8615236 12.3943583,31.813133 C12.4130877,31.7231974 12.4275496,31.6337339 12.4467532,31.5437982 C12.4913244,31.3353648 12.5318653,31.13 12.2770031,31.1127683 C12.3213373,31.0542275 12.3386442,31.0157511 12.3595074,31.0063091 C12.7848307,30.8139271 13.2061237,30.589678 13.6397448,30.5287768 C14.3725622,30.4260945 15.0371003,30.4855794 15.5982711,30.7766309 C15.8054799,30.8842703 15.9152484,31.0953004 15.8528961,31.4087768 C15.7798751,31.7756008 15.7542704,32.1334548 15.7066171,32.495558 C15.6321736,33.0630257 15.6205567,33.6153863 15.5162411,34.1904077 C15.457445,34.5145065 15.463609,34.8284548 15.32302,35.1638841 C15.3149592,35.1827683 15.3161447,35.2037768 15.3168559,35.2224249 C15.3322662,35.6501503 15.1968929,36.1050214 15.0935256,36.5516309 C14.9986932,36.9621245 14.9541219,37.3601073 14.9171373,37.757382 C14.8976967,37.9655794 14.8573929,38.1735408 14.7490469,38.3822103 C14.7040015,38.4690772 14.7035273,38.5424893 14.6947553,38.6173176 C14.6734181,38.802618 14.7044756,38.8165452 14.8818123,38.7306223 C14.9780671,38.6838841 15.0747962,38.6378541 15.1705769,38.587339 C15.2876949,38.5254935 15.3825274,38.5398927 15.4671653,38.5786052 C15.5342592,38.6090558 15.5558336,38.669721 15.5005937,38.7679184 C15.4278098,38.8972747 15.3398527,39.0160085 15.2196527,39.1059442 C15.0371003,39.242382 14.8941404,39.4241416 14.72605,39.577339 C14.5482393,39.7392703 14.4581485,39.9304721 14.4059907,40.1407941 C14.3388967,40.4110729 14.3151886,40.6827683 14.2201191,40.9478541 C14.0359072,41.4612661 13.9652571,41.9640558 13.8059386,42.4734548 C13.7623157,42.6124893 13.7063646,42.735 13.611058,42.872618 C13.4408338,43.1183477 13.2708468,43.3860301 13.2291205,43.6615022 C13.1707986,44.0441416 12.9820821,44.4182832 12.823712,44.792897 C12.6411596,45.2243992 12.4472274,45.6556652 12.3094833,46.0890558 C12.1878607,46.4721673 12.0361289,46.8607081 11.9514909,47.2362661 C11.8893757,47.5115023 11.729346,47.7780045 11.7023188,48.0544207 C11.6833523,48.2456224 11.4939246,48.4457942 11.366375,48.6192919 C11.2238893,48.8135621 11.1195737,49.018927 11.0195255,49.2129615 C10.9066749,49.4317811 10.7615813,49.6494207 10.6878492,49.8783903 C10.6413812,50.0230902 10.5171508,50.1274247 10.4159172,50.2173604 C10.2170062,50.3941632 10.134265,50.5997638 10.0695419,50.8058368 C9.97376111,51.1112874 9.86470387,51.4056437 9.62833407,51.6742702 C9.60035852,51.7063735 9.57736168,51.7524034 9.56930093,51.7899356 C9.50362947,52.0996351 9.27555756,52.3701505 9.13662807,52.6612017 C9.0752241,52.7898495 8.95692068,52.8441414 8.88105473,52.9635839 C8.59845415,53.4092489 8.23951354,53.8079402 7.85567934,54.1773604 C7.53182672,54.4889483 7.16008366,54.7179184 6.78573273,54.8992058 C6.38980742,55.0908799 6.07923134,54.9634121 5.77031478,54.8668667 C5.70322084,54.8458586 5.68781057,54.7719742 5.67097781,54.7006868 C5.35423759,53.3492919 5.45452286,51.9096138 6.1458511,50.3165023 C6.52565486,49.4414592 6.97658296,48.5940345 7.49128585,47.7600644 C8.12927082,46.7261587 8.76654462,45.6920172 9.49556873,44.6991845 C9.89979186,44.1482404 10.3272489,43.6142919 10.7736725,43.0949786 C10.959544,42.8787554 11.0434706,42.6686695 11.0849598,42.432382 C11.2549469,41.4615022 11.3777549,40.4995923 11.5259305,39.5329614 C11.720574,38.2653648 11.8727801,37.0067382 12.0294906,35.7471673 C12.0619707,35.4853863 12.1174476,35.2151073 12.0771439,34.9294849 L12.0771439,34.9294849 L12.0771439,34.9294849 Z M10.7845782,43.8928327 C10.7651375,43.8918883 10.7456969,43.8907081 10.7262563,43.889764 C10.5503422,44.1118883 10.3692123,44.3304721 10.2001735,44.5563734 C9.79760994,45.0943348 9.47494266,45.6698283 9.10580752,46.2228971 C8.49840597,47.1328753 7.95169717,48.0666954 7.41968739,49.0035839 C7.03609028,49.6793994 6.71911297,50.3771673 6.37463428,51.0657298 C6.3404946,51.1337126 6.32389893,51.2057081 6.29758295,51.2758155 C6.15343767,51.6598713 6.13850157,52.039442 5.9972013,52.4171247 C5.81749391,52.8979615 5.81204104,53.3296995 5.79757906,53.7711161 C5.78619918,54.1301505 5.98463603,54.2965666 6.26391743,54.3822534 C6.41873132,54.4296995 6.61052986,54.3482616 6.7613134,54.2250431 C7.00882599,54.0227466 7.22694051,53.7987339 7.42608857,53.5192489 C7.83173419,52.9494207 8.15938011,52.3595281 8.48204739,51.7639701 C8.61362734,51.521073 8.73856903,51.2720385 8.75469057,51.0187552 C8.75706135,50.9824034 8.7729458,50.9351931 8.79712804,50.9012017 C8.98157709,50.6420172 9.07569827,50.3542702 9.1361539,50.096738 C9.22008059,49.7391201 9.35901007,49.386223 9.46972687,49.032854 C9.62098459,48.5498926 9.76512982,48.0676396 9.89718395,47.5856224 C9.93535398,47.4465879 9.91757292,47.3040127 9.97708024,47.1711161 C10.1299975,46.8290771 10.1655596,46.4934121 10.2542279,46.1591631 C10.3753764,45.7019313 10.485619,45.2411588 10.5799773,44.7846352 C10.6411442,44.4886266 10.7153505,44.1902574 10.7845782,43.8928327 L10.7845782,43.8928327 L10.7845782,43.8928327 Z" id="Fill-7" fill="#FFFFFF"></path>
                                    <path d="M15.7111216,40.9839699 C15.8237351,39.6965452 16.0299956,38.3911802 16.2578304,37.0813305 C16.3199457,36.7248927 16.3692585,36.3712875 16.3960487,36.0216952 C16.4124072,35.809721 16.394152,35.6145065 16.3552707,35.4259014 C16.3104624,35.2101503 16.2500068,35.0191845 16.0008346,34.9844849 C15.861431,34.9651287 15.8898807,34.9231117 16.0221719,34.7651931 C16.2405235,34.5045923 16.4785528,34.3374677 16.7639985,34.3027683 C16.9261619,34.283176 17.0880882,34.2671245 17.2455099,34.2645279 C17.4610166,34.2607511 17.6722558,34.2706652 17.8851545,34.2758584 C18.1582719,34.2824677 18.3623986,34.411824 18.5122338,34.5824893 C18.7459956,34.8489915 18.9202502,35.167897 18.9826026,35.5696566 C19.010104,35.7476394 19.0037027,35.9348283 18.9958791,36.1189485 C18.983788,36.3922961 18.98687,36.6672961 18.934475,36.9470172 C18.864299,37.322339 18.7720746,37.7080471 18.5745862,38.0866738 C18.5285924,38.174957 18.4636322,38.2533262 18.4944528,38.339957 C18.5013281,38.3590772 18.4965865,38.3989699 18.4814133,38.4166738 C18.3156937,38.6095279 18.3365569,38.797897 18.2957789,38.9914592 C18.2485998,39.2135838 18.1125152,39.4328755 18.0302482,39.6568883 C17.8706926,40.0909871 17.6620612,40.5239055 17.5857212,40.9582404 C17.5582197,41.1149786 17.4441839,41.2455151 17.4010352,41.39706 C17.3095219,41.7185622 17.2955341,42.0251931 17.2289142,42.3412661 C17.1649024,42.64294 17.108003,42.9434335 17.0717296,43.2413305 C17.0615352,43.3234764 17.0731521,43.3928755 17.0795533,43.4658155 C17.1008905,43.7113091 17.1321853,43.9518456 17.1058693,44.2159871 C17.0767082,44.5060945 16.8678399,44.7799142 16.5847652,44.8788198 C16.5231241,44.9005364 16.4659875,44.9050214 16.408851,44.8972317 C15.9835277,44.8398713 15.7867505,44.5573176 15.7191824,44.141867 C15.6615717,43.7901503 15.6250612,43.43206 15.6416569,43.0489485 C15.656593,42.7043133 15.6188971,42.3759657 15.6442648,42.0266095 C15.6696325,41.6781974 15.6890731,41.3314378 15.7111216,40.9839699" id="Fill-8" fill="#FFFFFF"></path>
                                    <path d="M20.2848886,21.0784548 C21.2391395,20.4496137 21.1492859,21.033133 22.0001697,21.1001717 C22.0914459,21.1072533 22.1668376,21.1365236 22.2192325,21.2012018 C22.4878454,21.5340343 22.7147319,21.8918883 22.6896013,22.4227683 C22.6813034,22.6009871 22.7208959,22.765279 22.7429444,22.9340558 C22.8197587,23.5225323 22.8842447,24.1110085 22.7702088,24.7714806 C22.6817776,25.2839485 22.6011699,25.7968883 22.4949577,26.3105364 C22.3849521,26.8414162 22.4013107,27.3338198 22.346545,27.8469956 C22.3019738,28.2643348 22.2453115,28.6847426 22.2023998,29.1016095 C22.1777433,29.3397854 22.2142537,29.5933048 22.0445037,29.8593348 C22.0300418,29.8819956 22.0217441,29.9171673 22.0271969,29.9374677 C22.1016403,30.222382 21.9406623,30.5880257 22.0309902,30.8670386 C21.8934832,31.2024677 21.9911606,31.4928111 21.890164,31.822103 C21.8543649,31.9389485 21.8659817,32.042339 21.889927,32.1469099 C21.9392399,32.363133 21.9404253,32.5909228 21.8536536,32.8597854 C21.7780247,33.0937125 21.7519459,33.3359014 21.7647481,33.5606223 C21.7770765,33.7761374 21.7095083,34.0121889 21.7156725,34.232897 C21.7189916,34.3511588 21.6860373,34.4887768 21.6995509,34.6117596 C21.7073745,34.6811588 21.7194657,34.7581117 21.6424143,34.8718883 C21.5781654,34.6901287 21.6568764,34.4533691 21.5516123,34.3131544 C21.518184,34.3296781 21.5124941,34.3572961 21.5113085,34.379721 C21.4769318,34.9755151 21.45678,35.5677683 21.4053333,36.1678111 C21.377832,36.4871889 21.2955649,36.8202574 21.2393767,37.1467168 C21.2275226,37.2163519 21.1779727,37.2659228 21.1312678,37.3206867 C21.0205509,37.4512232 20.982618,37.5628755 21.0068003,37.7148927 C21.0663076,38.087618 21.0812436,38.4815879 21.1141979,38.866824 C21.1208361,38.9435408 21.082192,38.9518026 21.017943,38.9610085 C20.921451,38.9751717 20.9593841,39.0384335 20.9627032,39.0785622 C20.9667335,39.132618 20.9916271,39.1458369 21.0442591,39.081867 C21.0890673,39.0275751 21.1279487,39.0306437 21.1416993,39.0780901 C21.1613771,39.1451287 21.1829513,39.2135838 21.1829513,39.2886481 C21.1829513,39.3509657 21.1801065,39.4479828 21.0696268,39.3792919 C21.0262408,39.3521459 20.9942349,39.4229614 21.0115418,39.4637982 C21.0727087,39.6089699 21.0774504,39.7827039 21.1108787,39.9413305 C21.1312678,40.0385838 21.058484,40.1426824 21.0923864,40.241824 C21.1630365,40.447897 21.2325013,40.6534978 21.3297046,40.8411588 C21.4178987,41.0113519 21.4913937,41.1931117 21.5933387,41.3512661 C21.6628034,41.4591416 21.6371987,41.5667812 21.5440258,41.69 C21.4366282,41.832339 21.3406104,42.0032404 21.1499972,42.0169313 C20.9695785,42.0296781 20.82164,41.9709014 20.6658777,41.9305364 C20.6409842,41.9239271 20.6303156,41.886867 20.6184615,41.859957 C20.6032882,41.8254935 20.6070816,41.7617596 20.5793432,41.7539699 C20.3398912,41.6876394 20.3064629,41.4227897 20.1552052,41.2733691 C20.1061294,41.2249786 20.0719897,41.1664378 20.0670111,41.0937339 C20.0475704,40.8166095 19.9261849,40.6010945 19.8552978,40.3553648 C19.7652069,40.0430687 19.7464775,39.6932404 19.6616025,39.3762232 C19.5350013,38.9043563 19.5423508,38.3708798 19.5150865,37.8551073 C19.4702781,37.0031974 19.4458588,36.1432618 19.417409,35.2849786 C19.4084,35.0156437 19.4119562,34.741824 19.4131416,34.4687125 C19.4166979,33.6760515 19.3977313,32.8909442 19.4278407,32.0893133 C19.4529713,31.4170386 19.495883,30.740043 19.5525453,30.0590343 C19.6113413,29.3515879 19.656861,28.6476824 19.7026175,27.9437768 C19.7353347,27.4433477 19.7799059,26.9384335 19.7813285,26.4481545 C19.7832251,25.8174249 19.9031881,25.1479828 19.8398875,24.5425107 C19.7815656,23.9837768 19.7749273,23.4059228 19.7348605,22.8410515 C19.7182649,22.6085408 20.4060368,22.1888412 20.3519824,21.9775751 C20.3026697,21.784721 20.4228697,21.2132404 20.2848886,21.0784548" id="Fill-9" fill="#FFFFFF"></path>
                                    <path d="M32.5196913,28.1061802 C32.4329196,28.2664592 32.3582392,28.3958155 32.2925677,28.52706 C32.0161312,29.0810729 31.6666738,29.622339 31.4838843,30.1924034 C31.3432954,30.6312232 31.1616913,31.0676824 31.0424394,31.5098069 C30.9549565,31.8343777 30.9037472,32.1308584 30.8935525,32.4412661 C30.8838324,32.7398713 30.9499779,33.0110945 30.900428,33.3198497 C30.8646287,33.5440986 30.8757715,33.7581974 30.8119967,33.9874034 C30.7814133,34.0971673 30.8193462,34.1814378 30.8245621,34.2768026 C30.8328598,34.4304721 30.8458993,34.5713948 30.719298,34.7382832 C30.6863437,34.7821889 30.6735415,34.8459228 30.6661919,34.897382 C30.6301555,35.149957 30.5509706,35.4112661 30.5602167,35.6543992 C30.5616392,35.6898069 30.5535785,35.7469313 30.5265511,35.7507081 C30.347318,35.7747854 30.3781385,35.9043777 30.3202907,36.0091845 C30.2780903,36.0859014 30.1716409,36.2291845 30.0331857,36.2107725 C29.9163048,36.1954291 29.8579828,36.2926824 29.867703,36.3854507 C29.8916482,36.6104077 29.6993756,36.7364592 29.5564157,36.8759657 C29.3577419,37.069764 29.1054876,37.0914806 28.8897439,37.2548283 C28.8292882,37.3003863 28.6493438,37.3582188 28.6661764,37.2810301 C28.7126443,37.0671673 28.57087,37.1722103 28.4928703,37.1925107 C28.2519959,37.2545923 28.1135407,37.1738626 28.0390972,36.9845493 C27.9800641,36.8337125 27.9392862,36.6809871 27.9319366,36.4961588 C27.9160521,36.0965236 27.8487211,35.7162446 27.8024903,35.32794 C27.7996454,35.3036266 27.7941925,35.2797854 27.7953779,35.2542919 C27.8299917,34.5109657 27.719512,33.8198069 27.7420348,33.0816738 C27.7697732,32.1785408 27.7676395,31.2846137 27.8337851,30.369678 C27.8499065,30.1461374 27.8949519,29.9110301 27.8325997,29.709678 C27.66688,29.7904077 27.6370078,29.9471459 27.5665947,30.06706 C27.2728514,30.5677253 26.9959407,31.0733477 26.7673946,31.592897 C26.5616083,32.0614592 26.4281317,32.5196352 26.3816639,32.9822961 C26.3458647,33.3377897 26.3219195,33.6984764 26.2346737,34.0575107 C26.1692392,34.3275537 26.1910507,34.5787125 26.0917138,34.85206 C26.054492,34.9547426 26.0618416,35.062618 26.0606562,35.1641202 C26.0585225,35.3258155 26.0613673,35.4860945 25.9726991,35.6598283 C25.9037085,35.7946137 25.9513619,35.8996566 25.9404561,36.0188626 C25.9274166,36.1614378 25.9181704,36.3028327 25.834718,36.4425751 C25.7583778,36.570043 25.8031862,36.6672961 25.7699948,36.7839055 C25.6993447,37.0327039 25.571321,37.2876394 25.5824638,37.5303004 C25.5841232,37.5661802 25.5653939,37.6145709 25.5300688,37.624957 C25.3358995,37.6827897 25.3641122,37.8159228 25.3513098,37.9311159 C25.3268904,38.1504077 25.1049827,38.4936266 24.898485,38.6163734 C24.8588925,38.6399786 24.8110022,38.6345493 24.7754401,38.6819956 C24.5924134,38.9256008 24.3795147,38.880043 24.1779958,38.9390558 C24.108294,38.9595923 24.0779477,38.907897 24.0435708,38.8720172 C23.7875234,38.605279 23.6175364,38.2762232 23.555184,37.8659657 C23.511324,37.5765665 23.4989958,37.2744206 23.4781326,36.9755794 C23.4404368,36.4366738 23.4006072,35.8984764 23.3754766,35.3543777 C23.3574585,34.9611159 23.3840115,34.5499142 23.3484495,34.164442 C23.3252153,33.9149356 23.3951543,33.6330901 23.3064859,33.4034121 C23.2687901,33.3054507 23.3446561,33.1345493 23.3588809,32.9992919 C23.3697867,32.8968455 23.3629113,32.8040772 23.3254526,32.715558 C23.2884678,32.6282188 23.2823038,32.5035837 23.3100423,32.3912232 C23.3799811,32.1060729 23.3920722,31.8480687 23.2941577,31.6259442 C23.2882308,31.6124893 23.2773251,31.5962018 23.2825409,31.5820386 C23.3859082,31.3030257 23.2872824,31.0891631 23.2597811,30.8637339 C23.2140245,30.4858155 23.1784622,30.0956223 23.0369249,29.7649142 C22.9767063,29.6249356 22.8399106,29.5751287 22.7016924,29.5305151 C22.6004588,29.4974677 22.4951947,29.4698497 22.4247817,29.392661 C22.3624295,29.3239699 22.3875601,29.2583477 22.4975655,29.2189271 C22.6459783,29.1655794 22.7958135,29.1174249 22.9432779,29.0834335 C23.5087161,28.9533691 24.0722576,28.8327467 24.5843527,28.930236 C24.7007595,28.9521889 24.7993851,28.9885408 24.8738286,29.0784764 C24.9459012,29.1655794 25.0400225,29.2456008 25.2088241,29.1660515 C25.2327693,29.154721 25.2714135,29.1483477 25.2825563,29.1603863 C25.3951698,29.2833691 25.6059348,29.2618883 25.7216303,29.3759014 C25.92552,29.5765452 26.072036,29.8180257 26.1196893,30.1428327 C26.1699505,30.4841631 26.2581447,30.8075537 26.3250015,31.1410945 C26.3404118,31.2185194 26.3370927,31.3056223 26.3456275,31.4359228 C26.5177484,31.1104077 26.6763554,30.8280901 26.8159962,30.5417596 C27.0552109,30.0507725 27.3468207,29.5824463 27.6744666,29.1261588 C27.8069948,28.9415665 27.9748483,28.8181117 28.1585861,28.7288841 C28.773337,28.430043 29.3188604,28.3951073 29.7859101,28.6424893 C29.8183903,28.6594849 29.8515816,28.6762446 29.8873807,28.687339 C30.5146972,28.8813734 30.8186349,29.3534764 30.8357049,30.0760301 C30.8380757,30.1815452 30.8266958,30.2969743 30.8688962,30.387382 C30.95875,30.3453648 30.9642028,30.2762018 30.9931267,30.2183691 C31.409441,29.388176 31.7837918,28.5457081 32.3290781,27.7530471 C32.351838,27.719764 32.3814731,27.6845923 32.3916675,27.6506008 C32.5339161,27.179442 32.9096896,26.9797426 33.2845146,26.7996352 C33.4725199,26.7094636 33.666215,26.6412446 33.859199,26.5742059 C34.27172,26.4304507 34.5436519,26.5581544 34.7826296,26.7613948 C34.8708237,26.8362232 34.9466895,26.9254507 35.0242151,27.0120816 C35.0875157,27.082661 35.1143059,27.1770816 35.1441781,27.2755151 C35.2356914,27.5767168 35.2470712,27.9116738 35.2717276,28.2414378 C35.3101348,28.7543777 35.3758063,29.2562232 35.3618184,29.7901717 C35.3471195,30.3529184 35.3504386,30.91 35.3300495,31.4743992 C35.3217518,31.7045493 35.2807368,31.9457941 35.2373509,32.184678 C35.2129316,32.3189915 35.2475453,32.4325323 35.2043966,32.5743992 C35.1287679,32.8217812 35.0265859,33.0575966 34.8371582,33.2690986 C34.7876082,33.3243348 34.7726722,33.3562018 34.792587,33.4086052 C34.8509088,33.5629828 34.8416627,33.7574893 34.9279601,33.8953434 C34.9960024,34.0041631 34.8554135,34.1278541 34.8383436,34.2484764 C34.8217479,34.3669743 34.8113164,34.462339 34.8494864,34.5588841 C34.9666043,34.8539485 34.8938204,35.0590772 34.614302,35.3664162 C34.5220775,35.4679184 34.4542724,35.493176 34.3561209,35.4910515 C34.1060004,35.4856223 33.9334054,35.3661802 33.7819105,35.2169956 C33.6576802,35.0944849 33.5498083,34.9545065 33.4248665,34.83294 C33.1678707,34.5827253 33.0934274,34.1996137 32.9625586,33.8604077 C32.7577206,33.330236 32.6472409,32.7471889 32.5998247,32.1315665 C32.5780132,31.8487768 32.6282745,31.5445065 32.5901043,31.2652574 C32.5507489,30.9763305 32.5735087,30.6595493 32.5813323,30.3500858 C32.5976909,29.6891416 32.5950829,29.0340986 32.5967426,28.3776394 C32.5967426,28.2872317 32.6010101,28.1899786 32.5196913,28.1061802" id="Fill-10" fill="#FFFFFF"></path>
                                    <path d="M40.8760857,31.2515665 C40.6731444,31.5596137 40.4901179,31.8360301 40.3087508,32.1129184 C39.9242054,32.7004507 39.4792043,33.2403004 38.9559666,33.719721 C38.9334439,33.7402574 38.9071279,33.7603219 38.8912435,33.7846352 C38.6674391,34.1262018 38.342875,34.3183477 38.0285057,34.5213519 C37.8063607,34.6648713 37.5652495,34.7293133 37.3447641,34.8846352 C36.858748,34.9587554 36.361589,35.0678111 35.9526243,34.8952574 C35.5597811,34.7293133 35.342852,34.3962446 35.2665119,33.9562446 C35.1688345,33.3934978 35.2183844,32.784957 35.4123167,32.1407725 C35.5133133,31.8051073 35.7008443,31.4963519 35.9331837,31.2100214 C36.0325207,31.0875107 36.1546174,30.9727897 36.3061121,30.8809657 C36.4478866,30.7948069 36.5647676,30.6449142 36.7390221,30.6095065 C36.7840675,30.6003004 36.9561882,30.4978541 36.8414411,30.3897426 C36.8201037,30.369678 36.8788999,30.3333262 36.9118542,30.3255364 C37.195166,30.2575537 37.435329,30.0436909 37.6909024,29.874442 C37.807309,29.7974893 37.9422082,29.7693992 38.0688095,29.7184121 C38.1295022,29.6938626 38.1944625,29.6789915 38.2501764,29.6414592 C38.6954145,29.3409657 39.1608047,29.1950858 39.6209788,29.0114378 C39.9747037,28.870279 40.3075654,28.6651503 40.6299957,28.4149356 C40.7762745,28.3011588 40.833174,28.187382 40.8395753,28.0287554 C40.8658913,27.3987339 40.9019276,26.7656437 40.9403346,26.1323176 C40.9521887,25.9328541 40.9832463,25.7281974 41.0041094,25.5263734 C41.0268693,25.3035408 41.0097993,25.0995923 40.9140186,24.9324677 C40.8469248,24.8151503 40.7421349,24.7391416 40.5856615,24.777382 C40.1297547,24.8887982 39.67693,25.0471889 39.2570595,25.4085837 C39.0854128,25.5563519 38.9886837,25.7159228 38.9516992,25.9267168 C38.9007268,26.2172961 38.810636,26.5121245 38.7755479,26.8045923 C38.7508916,27.0092489 38.6190745,27.2327897 38.4557257,27.4263519 C38.2594227,27.6586266 38.0830342,27.7322747 37.8634973,27.6751503 C37.7518322,27.6461159 37.6396928,27.6175537 37.5251826,27.5937125 C37.41494,27.5708155 37.3314876,27.5108584 37.2672385,27.4315452 C37.2124729,27.3640343 37.1849715,27.2837768 37.2587035,27.1515879 C37.350454,26.98706 37.4130434,26.8135622 37.4896206,26.6440772 C37.6596076,26.267103 37.9163663,25.9354507 38.2271795,25.6493563 C39.0519844,24.8899786 39.9488619,24.374678 40.9097513,24.1032188 C41.1119813,24.0460945 41.3037799,24.0354721 41.4965267,24.0305151 C42.0377827,24.0165879 42.5045952,24.154678 42.9522042,24.3310085 C43.0657659,24.3758584 43.200665,24.4148069 43.2153641,24.575558 C43.2167865,24.5906652 43.226981,24.6064806 43.2393093,24.6116738 C43.4922747,24.7145923 43.5152715,25.0209871 43.6686629,25.2119529 C43.7753494,25.3450858 43.7179758,25.5459657 43.6786203,25.7310301 C43.6492224,25.86794 43.6416358,25.9939915 43.6428212,26.1216952 C43.645192,26.3501931 43.6689,26.5711374 43.6390278,26.8109657 C43.6236175,26.9337125 43.6321525,27.0512661 43.660128,27.1593777 C43.686207,27.2594636 43.6859699,27.3649786 43.654201,27.4877253 C43.6048881,27.6770386 43.6762496,27.8292919 43.6487481,28.0193133 C43.595405,28.3866095 43.6210097,28.7321889 43.6229064,29.0846137 C43.6248029,29.4807081 43.6376054,29.8758584 43.6167422,30.2809228 C43.6117636,30.3758155 43.6046511,30.4718883 43.6086815,30.5634764 C43.6169792,30.7494849 43.5247549,30.9550858 43.4126155,31.1063948 C43.2615949,31.3101073 43.2725007,31.46 43.2992908,31.6129614 C43.3443362,31.8719099 43.4880072,32.0777467 43.4808949,32.3678541 C43.4799465,32.4025537 43.5221468,32.4261588 43.5489371,32.4495279 C43.6724563,32.5566952 43.6112893,32.7183905 43.519539,32.8786695 C43.4197279,33.0531117 43.2902817,33.1810515 43.0958752,33.1987554 C42.7288738,33.2327467 42.4054954,33.1635837 42.1503961,32.9917382 C41.570496,32.6013091 41.0425166,32.1549356 40.9201828,31.3464592 C40.9168636,31.3240343 40.9024017,31.3070386 40.8760857,31.2515665 L40.8760857,31.2515665 L40.8760857,31.2515665 Z M40.824402,29.9228327 C40.8217942,29.59 40.8246391,29.3591416 40.8165784,29.1325323 C40.8106514,28.9630471 40.7781712,28.9512446 40.6084212,29.0506223 C40.2715291,29.2472533 39.9287099,29.4157941 39.592292,29.622339 C39.0685801,29.9436052 38.5628863,30.286824 38.120256,30.7454721 C37.9647308,30.9066952 37.7707986,31.0679184 37.7236194,31.299721 C37.645857,31.6823606 37.5242343,32.0751503 37.6072128,32.4202574 C37.6162218,32.4573176 37.6079239,32.505236 37.6008115,32.5491416 C37.5443863,32.8914163 37.6074498,33.1916738 37.6147994,33.5115236 C37.6166959,33.5969743 37.6477535,33.6673176 37.6861607,33.7312875 C37.8381296,33.9855151 37.9903356,33.9918883 38.2907173,33.7239699 C38.7321622,33.3307081 39.1472909,32.9119529 39.5007788,32.4287554 C39.8447833,31.9587768 40.1238276,31.4618883 40.4448354,30.9836481 C40.7098919,30.5887339 40.9102254,30.2096352 40.824402,29.9228327 L40.824402,29.9228327 L40.824402,29.9228327 Z" id="Fill-11" fill="#FFFFFF"></path>
                                    <path d="M47.0437482,31.1904291 C46.9572138,31.3030257 47.0036817,31.3795065 46.946782,31.4581117 C46.8400958,31.3122317 46.8156762,31.1215022 46.791731,30.9258155 C46.7398105,30.5032832 46.6409474,30.1038841 46.5468264,29.7023606 C46.4745168,29.3938412 46.3913015,29.090043 46.3846632,28.7491845 C46.3782619,28.4307511 46.4332646,28.1080687 46.607756,27.7681545 C46.7115979,27.5658584 46.7898345,27.3574249 46.8834815,27.1525323 C46.9474933,27.0123176 46.9946725,26.8666738 47.1520944,26.766824 C47.2274862,26.7189055 47.2661302,26.6242489 47.2907867,26.541867 C47.3543246,26.3315452 47.4832965,26.1580471 47.6445114,25.9840772 C47.795532,25.8209657 47.9266378,25.6342489 48.0484974,25.4496566 C48.3154508,25.0448283 48.6063493,24.6574677 48.937077,24.2946566 C49.0100979,24.2148713 49.0944989,24.1388626 49.1435746,24.0130471 C48.8180626,24.1438198 48.5980515,24.396867 48.3898943,24.6522747 C48.0447044,25.075279 47.6713014,25.4713734 47.201644,25.6854721 C46.7196588,25.905 46.2258187,26.0671673 45.752605,26.1080044 C45.4690562,26.1325537 45.1952275,26.1004507 44.9427363,26.0315236 C44.8329679,26.0015452 44.7760684,25.9073606 44.742877,25.8075107 C44.7002024,25.6788626 44.5579538,25.6179614 44.5920935,25.4378541 C44.5947015,25.4239271 44.5814248,25.4026824 44.5690966,25.4019743 C44.3343864,25.3882832 44.3516934,25.1501073 44.2765387,24.9962018 C44.1994874,24.8382832 44.2672924,24.6610085 44.4128603,24.4912875 C44.4778204,24.415279 44.4600393,24.3935622 44.4026658,24.3871889 C44.3566721,24.3822317 44.3253774,24.3909657 44.3201615,24.3201503 C44.3104414,24.190322 44.2499856,24.0819743 44.2329158,23.9545065 C44.2139493,23.8131117 44.2077851,23.6733691 44.2765387,23.4963305 C44.3476629,23.3133905 44.385596,23.1245493 44.4749755,22.8816523 C44.5548717,23.0575107 44.7281781,23.0501931 44.8367611,23.1476824 C44.9249552,23.2269956 45.1276595,23.1783691 45.278206,23.1906437 C45.5347277,23.2114163 45.8149574,23.155236 46.0688712,23.1859228 C46.1549317,23.1963091 46.2500009,23.1944206 46.3438854,23.1743563 C46.7943393,23.0782832 47.2447927,22.9857511 47.6973806,22.8672533 C47.895106,22.815322 48.0978105,22.7072103 48.2976699,22.6196352 C48.854573,22.3757941 49.4131357,22.1572103 49.9724102,21.9834764 C50.2727918,21.89 50.5563403,21.8784335 50.785598,22.0099142 C50.8368076,22.0389485 50.8894394,22.0535838 50.8771111,22.1449356 C50.8633607,22.2492703 50.9434938,22.2945923 51.000156,22.3488841 C51.1518879,22.4942919 51.1490431,22.7001287 51.0757852,22.9519956 C50.9721808,23.3089055 50.7407897,23.6167168 50.525046,23.934442 C50.2289318,24.369721 49.8465201,24.7330044 49.5032267,25.1290986 C49.149739,25.5369956 48.7566586,25.9094849 48.4292496,26.3398069 C48.0892758,26.7868883 47.7912646,27.2502574 47.5529983,27.7377039 C47.4716795,27.9041202 47.5202808,28.0315879 47.5857157,28.1427683 C47.6430892,28.2400214 47.7343654,28.3009228 47.829672,28.3580471 C48.2260711,28.5962232 48.6265011,28.8299142 48.9503535,29.1577897 C49.0575145,29.2661374 49.1594594,29.3799142 49.2618782,29.4929828 C49.2908021,29.5246137 49.3228078,29.5541202 49.3175922,29.612661 C49.308583,29.7177039 49.3114283,29.8159014 49.4332879,29.8189699 C49.4823636,29.8201503 49.4761993,29.8739699 49.5103389,29.9072533 C49.6872017,29.7450858 49.8379853,29.5519956 50.0240937,29.3966738 C50.3000562,29.1660515 50.5354773,29.1736052 50.8045645,29.2196352 C50.6025713,29.4677253 50.423338,29.6865452 50.2455274,29.9063091 C50.1364699,30.0408584 50.0297837,30.1772961 49.9216745,30.3125537 C49.73201,30.5497854 49.7026117,30.7712018 49.7998153,30.9579184 C49.8379853,31.0313305 49.8408301,31.0950644 49.8223379,31.1880687 C49.8007635,31.2966523 49.7666239,31.4186909 49.887061,31.4654291 C49.9396928,31.4857297 49.9453828,31.5624463 49.8773405,31.6474249 C49.8204414,31.7182404 49.8320579,31.7895279 49.8481797,31.8504291 C49.8728357,31.9431974 49.8941732,32.4353648 49.8816079,32.5354507 C49.8692797,32.6324677 49.793177,32.6239699 49.7431526,32.6615022 C49.6670495,32.7188626 49.6459494,32.7766952 49.7315356,32.7887339 C49.9038936,32.8130471 49.9278389,32.9329614 49.8839788,33.1144849 C49.8171222,33.3918456 49.7476574,33.6701503 49.729876,33.9406652 C49.7208669,34.0766309 49.7919913,34.2015022 49.7073534,34.3436052 C49.6236638,34.4842919 49.603749,34.6105794 49.5916581,34.7382832 C49.5658163,35.0142275 49.4844971,35.2974893 49.4280723,35.5772103 C49.3853975,35.7882404 49.3097687,36.0108369 49.2215742,36.2190343 C49.0451863,36.6344849 48.9228522,37.0522961 48.7867677,37.4649142 C48.6485498,37.8839055 48.4233226,38.2875537 48.2971955,38.7086695 C48.201652,39.0287554 48.0134096,39.3582832 47.8197146,39.6771889 C47.6245966,39.9989271 47.4399108,40.3303434 47.3133093,40.6728541 C47.1696383,41.062103 46.9768912,41.4440343 46.7905458,41.8262018 C46.7220292,41.9666523 46.5987473,42.0908155 46.519799,42.2253648 C46.4225959,42.3915452 46.3242075,42.560558 46.2594844,42.7411374 C46.1890713,42.9387125 46.0522755,43.1237768 45.9003065,43.2911374 C45.8569207,43.3385838 45.8159057,43.3640772 45.8365317,43.4261588 C45.8552611,43.4830471 45.79362,43.550322 45.7592433,43.605322 C45.4986914,44.0207725 45.260662,44.4525107 44.9586208,44.8415236 C44.7258071,45.1413091 44.6058443,45.4720172 44.3799061,45.7668456 C44.3187391,45.8466309 44.2618396,45.9330257 44.1928491,46.0047854 C43.9187834,46.2889914 43.6584685,46.589485 43.3507374,46.8359229 C42.8986238,47.1977897 42.5645766,47.0731546 42.3886627,46.814442 C42.2395386,46.5951505 42.09729,46.3709012 41.9265916,46.1712018 C41.8988532,46.1386266 41.8666102,46.099442 41.866136,46.053176 C41.8590236,45.3530471 41.9080994,44.641824 42.1686514,43.8874034 C42.293119,43.5274249 42.4005166,43.1667382 42.524273,42.8067596 C42.7774754,42.0693348 43.0996686,41.3380471 43.3893816,40.6039271 C43.5027063,40.3171245 43.6105781,40.0296137 43.7208209,39.742339 C44.0098226,38.9895709 44.3260886,38.2412875 44.7310229,37.5078755 C44.8412656,37.3084121 44.8305971,37.074721 45.0536903,36.9071245 C45.0503711,36.6916095 45.2274707,36.4994636 45.3334458,36.3092059 C45.4982171,36.0141416 45.5764538,35.6874463 45.8379543,35.4228327 C45.8860816,35.3742059 45.9185618,35.3064592 45.9522272,35.245558 C46.2502383,34.704764 46.5947169,34.182618 46.9401438,33.6618883 C47.0781252,33.4543992 47.1371583,33.2589485 47.1449818,33.0573606 C47.1665561,32.505 47.1563618,31.9634978 47.1200883,31.4312018 C47.1146357,31.3483477 47.0897422,31.2782404 47.0437482,31.1904291 L47.0437482,31.1904291 L47.0437482,31.1904291 Z M46.9866116,34.5388198 C46.887275,34.7713305 46.7061448,34.9689055 46.5821517,35.1917382 C46.364511,35.5831117 46.1535091,35.9768456 45.9273338,36.3651503 C45.6452074,36.8490558 45.4104972,37.3442919 45.1772094,37.8385838 C44.9014842,38.422339 44.6648774,39.01294 44.4228177,39.6025966 C44.1703263,40.2184548 43.9159385,40.8354935 43.6731675,41.4511159 C43.3666217,42.2289055 43.0463252,43.0066952 42.7706001,43.7877897 C42.5631542,44.375322 42.4446136,44.9550644 42.3303407,45.5348069 C42.3132708,45.6214378 42.3433802,45.6842275 42.3841581,45.7352146 C42.5318596,45.9207511 42.7447583,46.0043133 43.0183497,45.9833048 C43.1605983,45.9722103 43.2947862,45.9127253 43.4064513,45.7656652 C43.5754902,45.5433048 43.7891001,45.3388841 43.8201578,45.0645923 C43.8246623,45.0261159 43.8623582,44.9756008 43.8931787,44.9361802 C43.9825582,44.8214592 44.0472814,44.69706 44.1018099,44.5733691 C44.2194022,44.3061588 44.377061,44.0495709 44.4846959,43.7778755 C44.5897227,43.5125537 44.6395097,43.2448713 44.7770167,42.9809657 C44.8040439,42.9292703 44.8533568,42.8813519 44.8621288,42.8291845 C44.9237698,42.4581117 45.0489486,42.0858584 45.1833736,41.7114806 C45.7196507,40.2172747 46.1511382,38.7244849 46.5451668,37.2321673 C46.7848558,36.3245493 46.8882233,35.4398283 46.9866116,34.5388198 L46.9866116,34.5388198 L46.9866116,34.5388198 Z M46.9150133,30.3465452 C46.8604845,30.5441202 46.8811107,30.7159657 46.9678825,30.8930044 C47.0470673,30.722339 47.0404291,30.6375966 46.9150133,30.3465452 L46.9150133,30.3465452 L46.9150133,30.3465452 Z" id="Fill-12" fill="#FFFFFF"></path>
                                    <path d="M56.0265109,18.3782618 C55.9044143,18.470558 55.8648216,18.5595493 55.9748269,18.7219529 C56.0554349,18.8411588 56.0182131,18.9157511 55.9584687,19.0002574 C55.9110526,19.0675323 55.8169311,19.0996352 55.8351864,19.2119956 C55.8434842,19.2639271 55.7818433,19.2950858 55.7334784,19.2957941 C55.4285925,19.2998069 55.1429096,19.3895065 54.8572272,19.4813305 C54.8453732,19.4853434 54.8264067,19.4676394 54.8109962,19.4600858 C54.9579868,19.259442 54.9579868,19.259442 55.4205316,19.1036481 C55.3392128,19.0255151 55.2531528,19.0562018 55.1791831,19.0727253 C54.9669955,19.1199356 54.7576531,19.1374034 54.5454655,19.0703648 C54.4921225,19.0536052 54.4297702,19.0564378 54.3726336,19.0613948 C54.1621056,19.0805151 54.0777046,19.1643133 54.1203795,19.3611802 C54.2453209,19.9378541 54.2339413,20.5322317 54.3479771,21.1065452 C54.409618,21.4164806 54.4492107,21.7287768 54.5058729,22.0384764 C54.5568456,22.3163091 54.3816428,22.6182188 54.1583126,22.7959657 C53.9321371,22.9758369 53.6490625,22.9524677 53.4110331,23.0752146 C53.2327482,23.1675107 53.0324145,23.2064592 52.8505735,23.3037125 C52.5971336,23.439678 52.1284249,23.2241631 51.9617569,22.9182404 C51.8315994,22.6788841 51.7483837,22.4196996 51.6597158,22.1631117 C51.4892543,21.6681117 51.3192672,21.1728755 51.1464353,20.6788198 C51.0755483,20.4762875 51.0705691,20.4703863 50.8512693,20.5128755 C50.574833,20.5662232 50.3154662,20.684957 50.0342881,20.7246137 C49.8033713,20.7571889 49.5762476,20.8190343 49.3448565,20.845236 C49.0527728,20.8785194 48.7675642,20.794721 48.4795109,20.7607297 C48.4076752,20.7522317 48.3581256,20.7043133 48.3246968,20.6398713 C48.2832077,20.5598497 48.2180107,20.4980044 48.1392997,20.4604721 C48.0418592,20.4139699 47.9785587,20.3209657 47.9586439,20.2425966 C47.7907907,19.5825966 47.6001775,18.9230687 47.7163471,18.2288412 C47.7642376,17.9420386 47.862389,17.8266095 48.1433302,17.8872747 C48.5494497,17.9748497 48.9126579,17.8332188 49.2896169,17.7645279 C49.6239007,17.7038626 49.952258,17.6108584 50.2827492,17.5291845 C50.4951738,17.4765452 50.5093986,17.4666309 50.4783411,17.2522961 C50.4200189,16.8495923 50.3439162,16.449957 50.2903357,16.046073 C50.2315396,15.6037125 50.1784335,15.1620601 50.1639712,14.7159228 C50.1599413,14.5915236 50.1312543,14.4678326 50.1141842,14.3448498 C50.4468089,14.245236 50.7848867,14.2180901 51.1234383,14.1956652 C51.1523622,14.1937768 51.1829457,14.190236 51.2104471,14.1966094 C51.8747482,14.3505151 52.5395231,14.5056009 53.1277211,14.8710086 C53.3837688,15.0303433 53.5831537,15.2359442 53.589792,15.565236 C53.5914516,15.642897 53.5857616,15.7165451 53.5672694,15.7937339 C53.5288624,15.9530687 53.4999384,16.1154721 53.5634759,16.2790558 C53.5959564,16.362618 53.5760416,16.4480687 53.5603942,16.5358798 C53.5279141,16.7188198 53.5717742,16.7608369 53.7628613,16.7287339 C54.0596868,16.6789271 54.3534301,16.6140129 54.6554713,16.5939485 C54.815501,16.5833262 54.9603572,16.6024463 55.1090074,16.664764 C55.2678515,16.7315665 55.4458995,16.7860945 55.5831692,16.8677683 C55.8131381,17.0049142 56.097161,17.1578755 56.047374,17.5150214 C56.0428692,17.5475966 56.0433435,17.5830044 56.0744009,17.5815879 C56.3027103,17.5712018 56.2659624,17.7909657 56.3487038,17.9021459 C56.3892447,17.9562018 56.4188795,18.0520386 56.2998651,18.1188412 C56.1697076,18.1915452 56.3683817,18.2741631 56.3228621,18.3631544 C56.2280298,18.4280687 56.1265588,18.3029614 56.0265109,18.3782618 Z" id="Fill-13" fill="#156FFF"></path>
                                    <path d="M37.8639715,36.0743348 L38.0496058,36.0840129 C37.9455273,36.3061374 37.7964033,36.322661 37.9903356,36.3701073 C37.8639715,36.0743348 38.5327771,36.0599356 38.4071241,35.7641631 L38.5323028,35.7766738 C38.5038531,35.7875323 38.5081205,35.8066523 38.479908,35.8172747 C38.7335846,35.8614162 38.5114396,35.5415665 38.769621,35.4627253 C38.863505,35.442897 38.9422159,35.4554077 38.9028604,35.5177253 L39.0515102,35.3541416 C39.1079356,35.332661 39.1197895,35.3890772 39.0638385,35.410558 L39.3333995,35.2460301 L39.3355333,35.2554721 C39.3530773,35.1900858 39.4090284,35.0748927 39.4386636,35.0229614 C39.5306509,35.0279184 39.4180375,35.0713519 39.4543109,35.0980257 L39.5752223,34.9500214 C39.6759817,34.9922747 39.5828087,35.1294206 39.4699582,35.1730901 C39.7589599,35.3864806 39.5624198,35.0345279 39.9621385,35.0484548 L39.8322181,35.1570386 C40.0088434,35.2734121 40.0946667,35.1582188 40.312307,35.1785194 C40.2463986,35.1445279 39.8504732,35.085279 39.9846611,34.9309014 C40.0434571,34.9292489 40.1117365,34.9089485 40.1748001,34.8062661 C40.2262466,34.9082404 40.303298,34.8393133 40.4125923,34.7788841 L40.4718626,34.9181545 C40.5735704,34.8201931 40.5299474,34.7557511 40.5711995,34.6599142 C40.712974,34.6075107 40.7926331,34.6988626 40.867788,34.7720386 C41.0944373,34.6882404 40.6356856,34.6762018 40.8791678,34.5260729 C41.0844799,34.4901931 41.1833427,34.3733477 41.3592569,34.187103 C41.5079066,34.1727039 41.3775121,34.2810515 41.4417609,34.2978111 L41.5005571,34.1351717 C41.5292439,34.1243133 41.5365933,34.1620816 41.5401497,34.1809657 C41.6138819,34.0931545 41.4820648,34.0414592 41.6119852,33.9324034 C41.5790309,33.7619743 42.0223724,34.0046352 42.1247914,33.7482832 C42.1888032,33.7655151 42.1428096,33.8419956 42.182165,33.8882618 C42.381076,33.6574034 42.3597386,33.7050858 42.495349,33.4567596 L42.7151231,33.462897 C42.5361269,33.4215879 42.644473,33.2221245 42.7428616,33.0540558 C42.6731598,33.0262018 42.6131783,33.0014162 42.5769048,32.9933905 L42.7748676,32.8104507 C42.8135117,32.8196566 42.8123263,32.8774893 42.8011835,32.9525537 C42.8118522,32.9339055 42.8215724,32.9154935 42.8284479,32.8996781 C42.9353715,32.9110085 42.9296815,33.0101503 42.9062104,33.1144849 C42.8656696,33.0998497 42.8237062,33.0845065 42.7826912,33.0696352 C42.7644361,33.1796352 42.7544787,33.2967168 42.8045027,33.3710729 C42.8120893,33.348176 42.8346119,33.3210301 42.8630617,33.2983691 C42.8587942,33.3278755 42.8587942,33.3524249 42.8720707,33.3628111 C42.8867698,33.3734335 42.8967272,33.3318883 42.9180645,33.2792489 L43.0430061,33.4064806 L43.0271218,33.3401503 L43.3758678,33.2924677 C43.5207244,33.0372961 43.6032286,32.7207511 43.9204431,32.4972103 C43.8865404,32.6482832 43.9872998,32.6884121 44.0444364,32.8231974 C43.8839326,32.7254721 43.8047475,33.0082618 43.6127118,33.0634978 C43.712997,33.0342275 43.7220063,33.1071673 43.7087297,33.1402146 L43.9676221,32.862618 C44.0107709,32.9740343 44.0735974,32.912661 44.1781501,32.9195065 C44.0148012,32.7337339 44.350745,32.6678755 44.4507932,32.5427683 C44.4922825,32.6112232 44.4951274,32.6990343 44.3277482,32.7540343 C44.5783429,32.8357081 44.4379908,32.3985408 44.6741236,32.4575537 C44.6359535,32.4769099 44.6098746,32.4754935 44.6115342,32.5189271 C44.672701,32.4136481 44.918317,32.3633691 44.895083,32.45 L44.8569129,32.4691202 C45.1267112,32.3772961 45.6430737,32.1133905 45.5987395,31.9129828 C45.6120161,31.9354077 45.6651222,32.1487982 45.6663076,32.19294 L45.8483858,31.3674677 C45.8787322,31.5430901 46.203533,31.8468883 46.0297529,32.033133 C46.1015881,32.02794 46.1885969,32.0182618 46.2938609,31.9054291 C46.2417031,31.9014163 46.0864151,31.7243777 46.1373873,31.6844849 C46.3747058,31.790236 46.2895936,31.730043 46.5515682,31.7937768 C46.4733311,31.7878755 46.4327902,31.510043 46.5363951,31.4741631 C46.5373434,31.5178327 46.65375,31.7142275 46.6288565,31.7560085 L46.7692084,31.4042919 C46.726534,31.4753434 46.8500532,31.6146137 46.9361133,31.6589915 C46.8891715,31.6226394 47.1530427,31.5690558 47.2085197,31.5159442 L47.0781252,31.5057941 C47.3749503,31.4193992 47.2042523,31.042661 47.4889865,30.932897 C47.4771326,30.9980471 47.5418557,31.2784764 47.6969067,31.2468456 C47.7068641,31.0938841 47.7213258,30.5214592 47.9271121,30.3168026 L48.0055861,30.3673176 L48.1601628,30.2032618 C48.122941,30.4421459 47.9645708,30.9827039 47.8517203,31.2149786 C47.9816409,31.2253648 47.917866,31.2862661 48.0722057,31.2107297 C48.1570806,31.2532188 48.0309535,31.349764 47.9863822,31.3738412 L48.3709278,31.2565236 C48.2910316,31.1177253 48.5873828,30.987897 48.5210001,30.8736481 L48.1886124,31.1977467 C48.1094275,31.0608369 48.2374511,30.6812661 48.5108057,30.5977039 C48.6023189,30.6276824 48.5733949,30.878133 48.599948,30.9243992 C48.6120393,30.859957 48.8062086,30.7237554 48.8455639,30.7492489 L48.7685125,30.8738841 C48.9373144,30.8675107 48.9221409,30.5804721 49.1568511,30.6456223 C49.2211003,30.6295709 49.4171662,30.7575107 49.3906131,30.666867 C49.2211003,30.5417596 48.9807001,30.034957 48.9927914,29.8819956 C49.0188701,29.8841202 49.3785222,29.9067812 49.4826006,29.9598927 C49.6376516,30.0486481 49.4662419,30.3347426 49.5985333,30.4109871 C49.5852568,30.3696781 49.6191594,30.2972103 49.6352807,30.2717168 C49.7130434,30.2790343 49.6615969,30.4065022 49.791517,30.3302574 C49.7514504,30.172339 50.0767255,30.2242703 49.8033713,30.1775323 C49.9200149,30.0781545 49.9593706,30.1473176 50.1146586,30.0739055 C50.0238568,29.9995493 50.118926,29.6877253 50.2362813,29.5881117 C50.2443418,29.6291845 50.2953144,29.6655364 50.3194966,29.681824 C50.6009117,29.5770172 50.779671,29.5869313 51.0388004,29.4816523 C51.0774448,29.5080901 51.2206414,29.5007725 51.1938514,29.5864592 C51.2201675,29.5449142 51.2334441,29.4804721 51.3119176,29.4443563 C51.5196009,29.5099786 51.1421679,29.5368883 51.3240089,29.6435838 C51.2981672,29.55294 51.4809565,29.4401073 51.5724696,29.3397854 C51.4823791,29.2203434 51.2988785,29.4212232 51.2076018,29.5215452 C51.1305509,29.337661 51.2490915,29.0640772 51.4854613,28.8681545 C51.6822384,28.7345493 51.6279466,28.9491202 51.6544997,28.9078111 C52.0724736,28.7751503 51.8681099,28.4449142 52.2588194,28.4409014 C52.4399491,28.5041631 52.359816,28.6727039 52.4238278,28.7454077 C52.2664059,28.8615452 52.1241571,28.7805794 52.0070391,28.8336909 L52.176078,28.8296781 C52.1362484,28.8915236 52.0312213,28.9689485 51.9534591,28.9609228 C52.1087471,29.02206 52.6440759,28.7000858 52.9973266,28.6760085 C53.0371562,28.6146352 53.1170524,28.5360301 53.0525667,28.5065236 L52.9598679,28.5617596 C52.8304217,28.5025107 53.0940559,28.357103 52.9503844,28.36206 C53.0568341,28.2430901 53.1644685,28.0792703 53.3735744,28.059442 L53.4624797,28.1800644 C53.4428019,28.1422961 53.3079026,28.1481974 53.2716295,28.2098069 C53.3261578,28.1193992 53.6315186,28.2789699 53.6474029,28.0693563 L53.478838,28.0275751 C53.5857616,27.9074249 53.6948191,27.6996996 53.8783197,27.6768026 C53.7498217,27.5734121 53.8458396,27.7070172 53.6658951,27.5977253 C53.8451283,27.7511588 53.2363043,27.756824 53.4819202,27.8956223 C53.2886991,27.7627253 53.2415199,27.9012875 53.0210349,27.8099356 C53.0437945,27.8521889 53.1113629,27.8727253 52.9627127,27.9057725 C52.9615275,27.9211159 52.9532296,27.9433048 52.9475396,27.9567596 C52.9427979,27.9569956 52.9411383,27.9569956 52.9368709,27.9572317 L52.9465914,27.9593563 C52.9432722,27.9683262 52.9432722,27.9699786 52.9501475,27.9600644 C52.9913997,27.9664378 53.0276732,27.9791845 53.0485363,27.9994849 C53.0198493,28.1286052 52.7962821,28.2126394 52.7424647,28.2945493 C52.6509511,28.3061159 52.7566895,28.2301073 52.6924407,28.2006008 L52.6118328,28.3235838 C52.5610975,28.2296352 52.3266247,28.2494636 52.497797,28.1125537 L52.3209347,28.1795923 C52.1955189,28.1663734 52.0447353,28.2022533 51.9740852,28.279442 C51.8828086,28.2917168 51.8097881,28.4730044 51.8503286,28.3667812 L51.6006822,28.5395709 L51.588117,28.5162018 C51.3119176,28.6141631 51.0978335,28.9056867 50.7147105,28.8549356 C50.6338661,28.9167812 50.5523103,28.9854721 50.3882502,29.0199356 L50.3230527,28.9472317 C50.2182631,29.0241845 49.9373219,29.0100214 49.9242828,29.1190772 C49.7026117,28.9446352 49.337507,29.3086266 49.1155994,29.3551287 L49.1549546,29.4684335 C49.0112836,29.5220172 48.8894239,29.6103004 48.7334246,29.7285622 L48.7860564,29.8213305 C48.6698872,29.9650858 48.3687938,29.9162232 48.134321,30.0271673 C48.134558,29.9830257 48.1992811,29.9672103 48.2519129,29.9714592 C47.8706868,29.8716095 47.7229854,30.391867 47.3958133,30.3439485 C47.3474489,30.4072103 47.2957654,30.4154721 47.2400514,30.4109871 C47.2459784,30.4081545 47.2504832,30.4039055 47.2538023,30.3989485 C47.2466897,30.4006008 47.2367323,30.4046137 47.2270119,30.4090986 C47.1912127,30.4048497 47.153517,30.3982404 47.1151096,30.3965879 C47.1523314,30.4083905 47.1867084,30.4166523 47.2127871,30.4157081 C47.1644222,30.4393133 47.0947209,30.4843992 47.0321312,30.5408155 L46.9548429,30.4504077 C46.9493898,30.4541845 46.9451225,30.4570172 46.9391955,30.4610301 C46.8500532,30.4541845 46.9031594,30.5356223 46.9761803,30.5969956 C46.946782,30.630279 46.9221259,30.6656867 46.9069524,30.7022747 C46.7739501,30.5601717 46.7395736,30.8431974 46.5800178,30.699442 C46.5695865,30.8082618 46.2402809,30.9269956 46.2834296,31.1274034 C46.2701531,31.1047426 46.2436,31.1028541 46.2824809,31.0839699 C46.1914422,31.0988412 46.100166,31.1139485 46.0501416,31.1977467 L45.9560206,31.0811374 L45.8581061,31.3377253 C45.7139608,31.3065665 45.6480523,31.2801287 45.7094563,31.13 C45.521451,31.4035838 45.5261927,31.2843777 45.3763575,31.5386052 L45.3483819,31.4486695 C45.2713307,31.487618 45.1975985,31.6587554 45.1181764,31.6101287 C44.86853,31.5284548 44.2383686,31.9830901 43.7175016,32.0385622 C43.9211542,32.2477039 43.4555272,32.0227467 43.5285481,32.2255151 C43.4749677,32.1787768 43.396731,32.175 43.4455698,32.0895493 C43.2435767,32.2552574 43.057231,32.1582404 42.9756751,32.3954721 C42.9216206,32.3487339 42.983973,32.2859442 42.9441435,32.262103 C42.9318153,32.2833477 42.8955418,32.3475537 42.855238,32.3234764 C42.8151714,32.2993992 42.8654325,32.2583262 42.8896147,32.2156008 C42.6598833,32.3357511 42.7222355,32.5283691 42.7857733,32.7065879 C42.6292998,32.6818026 42.5754824,32.7209871 42.5430024,32.8727683 C42.4754342,32.8366523 42.3787053,32.8106867 42.5145526,32.7224034 C42.4289663,32.752618 41.9761415,32.8760729 42.0330411,33.0160515 C41.9910777,32.9936266 41.9140264,33.059957 41.9000386,33.0856867 C41.7129816,33.1638198 41.6909331,33.1593348 41.5169158,33.256824 L41.5776085,33.2556437 C41.5856692,33.4527467 41.4462655,33.3635194 41.3116035,33.4534548 L41.3075732,33.4348069 C40.9194715,33.4775323 41.1923518,33.5608584 40.8004568,33.5849356 L40.868025,33.678176 C40.9446021,33.911867 40.5159596,33.6897426 40.367547,33.8658369 L40.4645132,33.8906223 C40.3981304,34.0157297 40.0289952,33.7338841 39.9114031,33.7574893 C39.8793972,33.7494636 39.9322663,33.7095709 39.9569226,33.6800644 C39.6207418,33.6838412 39.9872689,33.8304291 39.7999751,33.9600214 C39.726954,33.9064378 39.7577746,33.7541845 39.6145776,33.8072961 C39.5178487,33.7832188 39.3336366,34.2314806 39.080197,34.1878111 C39.1487135,34.2225107 39.2165186,34.2572103 39.1439718,34.3457297 C39.0104952,34.4375537 38.6513175,34.3325107 38.6093541,34.5716309 C38.5837495,34.5657297 38.5695246,34.5546352 38.5617009,34.5414162 C38.4746922,34.6415022 38.2433011,34.7954077 38.2250458,34.9224034 C37.9460015,34.6247426 37.6309208,35.4351073 37.4687574,35.1124249 L37.1406373,35.2996137 L37.1323395,35.2623176 C36.9061642,35.3503648 36.8710762,35.4681545 36.8357512,35.5838198 C36.7748212,35.5875966 36.7954473,35.5389699 36.7909428,35.5200858 C36.4445675,35.6180471 36.4203852,35.6480257 36.2418632,35.9437982 L36.1600701,35.8543348 C36.1209519,35.9513519 35.6226076,35.9270386 35.3795995,36.2077039 C35.3762804,36.1942489 35.3720129,36.1708798 35.3886085,36.1437339 C35.1074305,36.442339 34.4104124,36.290558 34.4869895,36.735043 L34.3108383,36.9491416 C34.6188066,36.8212018 34.3551725,37.1353863 34.5088009,37.1332618 C34.4059078,37.216824 34.1510456,37.1795279 34.2816774,37.0843992 L34.3139204,37.0912446 C34.2601029,36.8677039 33.9132535,37.21706 33.8490045,37.0799142 C33.2790617,37.3988198 32.6574353,37.5900214 32.1190243,37.8822533 L32.2645922,37.9990986 L32.0730307,38.0939915 C32.0045143,38.0859657 31.9414506,38.0123176 32.0782463,37.9445709 C31.9604172,37.8978327 31.8947457,38.1402574 31.9094447,38.1751931 C31.614516,38.2587554 31.9130009,37.9426824 31.8309709,37.9832832 L31.7285519,38.055043 L31.7629286,38.0590558 C31.7093484,38.1695279 31.7380352,38.2391631 31.5739751,38.3206008 C31.4556716,38.3465665 31.4696594,38.2563948 31.4265107,38.2726824 C31.4208208,38.261824 31.4044622,38.2644206 31.3629729,38.3021889 L31.1204391,38.4199786 L31.2814171,38.4867812 C31.2102928,38.6031545 31.0569015,38.6031545 31.2413504,38.6775107 C30.9637286,38.5561802 30.3233728,39.0920172 30.1910816,39.0856437 C30.0957749,39.2548927 29.9521039,39.3351503 29.7688403,39.4260301 C29.8271623,39.425558 29.9300554,39.5433477 29.767892,39.6143992 C29.66571,39.3082404 29.419857,39.6554721 29.1818277,39.5291845 C29.3681733,39.5966952 28.7662247,39.8100858 29.0471657,39.8964806 C28.9068138,39.9472317 28.9798347,39.7985194 28.8456468,39.7893133 C28.6028759,40.0671459 28.1386711,40.1077467 27.78708,40.3633905 C27.8024903,40.4025751 27.8970856,40.4205151 27.8489583,40.5208369 L27.5462058,40.4580471 C27.4831423,40.5189485 27.6012086,40.7042489 27.3930515,40.6596352 C27.430036,40.6782832 27.485276,40.7070816 27.4428385,40.7474463 C26.6066537,41.0007297 26.0426379,41.7728541 25.1104354,41.8972533 C25.2522099,41.905279 25.1898577,41.9524893 25.1156512,42.0013519 C25.1751585,41.987661 25.1682832,42.0893992 25.2074015,42.1314163 L24.8178775,42.185236 C24.8439564,42.3523606 24.4935507,42.3950858 24.5402556,42.5414378 L24.6234711,42.4595279 C24.5871977,42.6880257 25.0113357,42.6825966 25.1113837,42.8865452 C25.1507392,42.6280687 25.6481351,42.9077897 25.7346698,42.5190129 C25.8110098,42.5265665 25.7280315,42.6084764 25.7835084,42.6360945 C25.7927547,42.5168883 25.8548698,42.4555151 26.0120546,42.4109014 L26.0094466,42.4406437 C26.3752626,42.1916095 26.5850794,42.1717812 27.0443052,41.9725537 L26.9549257,41.8953648 C27.0544998,41.8538198 27.0919586,41.8724677 27.1493322,41.8712875 C27.1671133,41.6635622 26.8864093,42.015279 26.885698,41.7983477 C27.1251499,41.9215665 27.5357742,41.4185408 27.7510438,41.5922747 C27.8930554,41.5098927 27.643172,41.5054077 27.7851835,41.4232618 L27.8584414,41.4612661 L27.8480099,41.3628327 C27.9482952,41.3208155 28.0398085,41.3684978 28.0734739,41.4175966 C28.0473951,41.424678 28.0182341,41.4695279 27.9966598,41.48794 C28.1588232,41.488176 28.3207495,41.2639271 28.3757523,41.2627467 L28.2180934,41.3057081 C28.5701587,41.0217382 29.0865212,40.8220386 29.3916443,40.4866095 L29.3366417,40.457103 C29.5744338,40.2085408 29.5955341,40.3759014 29.887855,40.1563734 L29.8826392,40.1738412 C29.9193867,40.0921673 29.990274,40.0211159 30.0794165,39.9769743 C30.0308147,40.0761159 30.2889961,39.9953863 30.2190571,40.1145923 C30.4774754,39.8454935 30.3316707,39.9550214 30.4395424,39.6670386 L30.5303445,39.7159014 C30.5611651,39.6070816 30.5462289,39.5674249 30.6925079,39.457661 C30.6005204,39.5969313 30.8589388,39.5162018 30.7636321,39.6852146 C31.187533,39.6618456 31.1602687,39.2400214 31.450693,39.3986481 C31.4841214,39.1026394 31.096494,39.4411374 31.1564754,39.3483691 C31.0457587,39.3193348 31.193223,39.1208155 31.3098668,39.0839915 C31.4189241,39.0294636 31.6432028,39.2537125 31.9077852,39.1016952 C31.8807579,39.1153863 31.8878704,39.132382 31.8608431,39.1460729 C31.9910006,39.1446566 32.0158942,38.9643133 32.1875408,38.9839055 C32.1846958,38.8179614 32.3508896,38.90294 32.2795282,38.7287339 L32.0554867,38.9024677 C32.1704709,38.7827897 32.1944162,38.5191202 32.4751201,38.4846566 C32.4755942,38.527618 32.4314971,38.6088198 32.3983058,38.6590986 C32.4919528,38.669957 32.5094968,38.5554721 32.606463,38.5665665 C32.6775872,38.7412446 32.3281298,38.7674463 32.2489447,38.9746996 C32.3591874,39.0037339 32.4644514,38.6999356 32.4883966,38.9185194 C32.4703784,38.6338412 32.7672039,38.8012018 32.852553,38.5285622 L32.8949906,38.6333691 C32.9149054,38.6019743 32.9485708,38.522897 33.0026252,38.4959871 L32.9777318,38.6760945 C33.0642663,38.4865452 33.3117789,38.6140129 33.4210733,38.4796996 C33.1268557,38.642103 33.2892562,38.3966095 33.1249591,38.3933048 C33.4175171,38.0640129 33.4763131,38.53706 33.8589619,38.2698497 C33.8113086,38.3135194 33.6187988,38.3224893 33.6804399,38.2304291 C33.7693453,38.2087125 33.8928645,38.1912446 33.9687304,38.2172103 C34.2283342,38.0512661 33.8720013,38.1383691 33.9542685,38.0158584 C34.1119274,38.0862018 34.0607178,37.8954721 34.1588695,37.7932618 L34.2141093,37.8928755 C34.5576396,37.7911374 34.1828145,37.6400644 34.503111,37.5680687 L34.4606735,37.7703648 L34.5860894,37.6565879 L34.6178582,37.7866523 C34.7297606,37.6174034 34.7906903,37.6129184 34.962337,37.5616952 C34.8886048,37.5104721 34.8848114,37.3686052 35.0199477,37.2918883 C35.1453635,37.3015665 35.0187623,37.4155794 35.2051079,37.2968455 C35.1949135,37.3834764 35.1892236,37.4880471 35.0552727,37.4408369 C35.0642817,37.478133 35.0460266,37.5269956 35.0543243,37.5642919 C35.1915944,37.5789271 35.3151135,37.4441416 35.3848153,37.4056652 C35.3558915,37.4162875 35.3205664,37.4283262 35.2963842,37.422897 L35.5045413,37.1349142 C35.5690272,37.1495493 35.5498237,37.1984121 35.5306201,37.2463305 C35.5823038,37.2054935 35.5972399,37.1386909 35.6771362,37.0860515 C35.6987106,37.1792919 35.7487346,37.2609657 35.650109,37.3615236 L35.8713055,37.1304291 C35.9080531,37.1566309 36.0614445,37.1563948 36.042241,37.2047854 C36.2169697,37.175279 36.3248415,36.854957 36.5564696,36.8155364 C36.5583663,36.7940558 36.5709316,36.7680901 36.6069679,36.7345709 C36.8030339,36.6562018 37.0204372,36.6710729 37.1823635,36.4435194 L37.3841194,36.5259014 C37.5396446,36.4024463 37.1183517,36.4284121 37.3772441,36.2228111 C37.5569515,36.0698497 37.5183073,36.3089699 37.6114802,36.3134548 C37.6747808,36.1876394 37.774592,35.9466309 38.0247125,35.9718883 C37.9765849,36.0311374 37.9166034,36.0339699 37.8639715,36.0743348 L37.8639715,36.0743348 L37.8639715,36.0743348 Z M39.9796825,34.9311374 C39.9483877,34.9729184 39.8978894,35.0796137 39.8371967,35.0345279 C39.8267652,34.8943133 39.8914883,34.9323176 39.9796825,34.9311374 L39.9796825,34.9311374 L39.9796825,34.9311374 Z M43.1577535,33.1007941 C43.1423432,33.1496566 43.0859178,33.155558 43.0126598,33.142339 C43.048459,33.1151931 43.0954011,33.0979614 43.1577535,33.1007941 L43.1577535,33.1007941 L43.1577535,33.1007941 Z M52.2109289,28.2966738 C52.2097437,28.2990343 52.2090324,28.3009228 52.2083211,28.3037554 C52.0947592,28.302103 52.1357745,28.3042275 52.2109289,28.2966738 L52.2109289,28.2966738 L52.2109289,28.2966738 Z M52.4304661,28.260558 C52.4449278,28.237661 52.4375783,28.2234978 52.4231165,28.2121673 C52.4197974,28.2447426 52.375463,28.265043 52.3209347,28.2784978 C52.3463021,28.3002146 52.3802047,28.3087125 52.4304661,28.260558 L52.4304661,28.260558 L52.4304661,28.260558 Z M31.4260366,38.3210729 L31.4777201,38.3265022 C31.4103891,38.4013305 31.4191611,38.362618 31.4260366,38.3210729 L31.4260366,38.3210729 L31.4260366,38.3210729 Z" id="Fill-71" fill="#FFFFFF"></path>
                                </g>
                            </g>
                        </g>
                    </g>
                </g>
            </g>
        </g>
    </g>
</svg>