<?xml version="1.0" encoding="UTF-8"?>
<svg width="334px" height="194px" viewBox="0 0 334 194" version="1.1" xmlns="http://www.w3.org/2000/svg" xmlns:xlink="http://www.w3.org/1999/xlink">
    <!-- Generator: Sketch 49.3 (51167) - http://www.bohemiancoding.com/sketch -->
    <title>USER EXPERIENCE USER</title>
    <desc>Created with Sketch.</desc>
    <defs></defs>
    <g id="Page-1" stroke="none" stroke-width="1" fill="none" fill-rule="evenodd">
        <g id="Desktop-HD-Copy" transform="translate(-89.000000, -183.000000)" fill="#156FFF">
            <path d="M97.368,183.6 L97.368,223.056 C97.368,225.864 97.584,226.728 99.96,226.728 L101.112,226.728 C103.488,226.728 103.704,225.864 103.704,223.056 L103.704,183.6 L111.336,183.6 L111.336,224.136 C111.336,232.056 109.464,234.36 102.192,234.36 L98.448,234.36 C91.176,234.36 89.232,232.056 89.232,224.136 L89.232,183.6 L97.368,183.6 Z M128.832,223.056 L128.832,220.32 C128.832,216.072 127.536,214.632 122.64,210.456 C117.168,205.704 115.224,203.184 115.224,196.2 L115.224,193.464 C115.224,185.544 117.096,183.24 124.368,183.24 L127.824,183.24 C135.096,183.24 136.968,185.544 136.968,193.464 L136.968,200.448 L129.336,200.448 L129.336,194.544 C129.336,191.736 129.048,190.872 126.744,190.872 L125.88,190.872 C123.504,190.872 123.288,191.736 123.288,194.4 L123.288,196.128 C123.288,200.376 124.584,201.744 129.48,205.992 C134.952,210.816 136.968,213.264 136.968,220.248 L136.968,224.136 C136.968,232.056 135.024,234.36 127.824,234.36 L124.368,234.36 C117.096,234.36 115.224,232.056 115.224,224.136 L115.224,215.712 L122.784,215.712 L122.784,223.056 C122.784,225.864 123,226.728 125.376,226.728 L126.312,226.728 C128.616,226.728 128.832,225.864 128.832,223.056 Z M149.064,191.232 L149.064,203.904 L156.48,203.904 L156.48,211.536 L149.064,211.536 L149.064,226.368 L158.208,226.368 L158.208,234 L140.928,234 L140.928,183.6 L158.208,183.6 L158.208,191.232 L149.064,191.232 Z M184.272,218.304 L184.272,225.144 C184.272,228.384 184.488,231.48 185.424,234 L177,234 C176.208,232.344 176.136,229.32 176.136,226.152 L176.136,216.936 C176.136,213.912 175.56,212.472 172.896,212.472 L169.8,212.472 L169.8,234 L161.664,234 L161.664,183.6 L175.056,183.6 C182.328,183.6 184.272,185.904 184.272,193.824 L184.272,199.224 C184.272,204.984 183.264,207.648 179.952,208.728 C183.264,209.808 184.272,212.616 184.272,218.304 Z M176.136,201.168 L176.136,194.904 C176.136,192.096 175.92,191.232 173.544,191.232 L169.8,191.232 L169.8,204.84 L173.544,204.84 C175.848,204.84 176.136,203.904 176.136,201.168 Z M206.592,191.232 L206.592,203.904 L214.008,203.904 L214.008,211.536 L206.592,211.536 L206.592,226.368 L215.736,226.368 L215.736,234 L198.456,234 L198.456,183.6 L215.736,183.6 L215.736,191.232 L206.592,191.232 Z M232.152,191.88 L234.024,183.6 L241.296,183.6 L235.536,207.504 L241.8,234 L233.592,234 L231.288,223.776 C230.496,220.176 229.776,216.432 229.128,212.256 C228.552,216.432 227.832,220.176 227.04,223.776 L224.808,234 L217.536,234 L223.584,207.504 L217.752,183.6 L225.96,183.6 L227.832,191.88 C228.624,195.408 229.632,199.656 229.992,203.04 C230.496,199.656 231.36,195.336 232.152,191.88 Z M244.68,234 L244.68,183.6 L257.856,183.6 C265.128,183.6 267,185.904 267,193.824 L267,205.632 C267,213.48 265.128,215.856 257.856,215.856 L252.816,215.856 L252.816,234 L244.68,234 Z M252.816,208.224 L256.272,208.224 C258.648,208.224 258.936,207.288 258.936,204.552 L258.936,194.904 C258.936,192.096 258.648,191.232 256.272,191.232 L252.816,191.232 L252.816,208.224 Z M278.592,191.232 L278.592,203.904 L286.008,203.904 L286.008,211.536 L278.592,211.536 L278.592,226.368 L287.736,226.368 L287.736,234 L270.456,234 L270.456,183.6 L287.736,183.6 L287.736,191.232 L278.592,191.232 Z M313.8,218.304 L313.8,225.144 C313.8,228.384 314.016,231.48 314.952,234 L306.528,234 C305.736,232.344 305.664,229.32 305.664,226.152 L305.664,216.936 C305.664,213.912 305.088,212.472 302.424,212.472 L299.328,212.472 L299.328,234 L291.192,234 L291.192,183.6 L304.584,183.6 C311.856,183.6 313.8,185.904 313.8,193.824 L313.8,199.224 C313.8,204.984 312.792,207.648 309.48,208.728 C312.792,209.808 313.8,212.616 313.8,218.304 Z M305.664,201.168 L305.664,194.904 C305.664,192.096 305.448,191.232 303.072,191.232 L299.328,191.232 L299.328,204.84 L303.072,204.84 C305.376,204.84 305.664,203.904 305.664,201.168 Z M318.12,234 L318.12,183.6 L326.256,183.6 L326.256,234 L318.12,234 Z M339.144,191.232 L339.144,203.904 L346.56,203.904 L346.56,211.536 L339.144,211.536 L339.144,226.368 L348.288,226.368 L348.288,234 L331.008,234 L331.008,183.6 L348.288,183.6 L348.288,191.232 L339.144,191.232 Z M365.496,234 L360.168,209.448 C359.448,206.064 359.016,203.184 358.512,199.944 C358.656,203.184 358.872,206.064 358.872,209.448 L358.872,234 L351.816,234 L351.816,183.6 L362.112,183.6 L366.504,205.632 C367.152,208.944 367.656,212.112 368.088,215.352 C368.016,212.112 367.8,208.944 367.8,205.56 L367.8,183.6 L374.784,183.6 L374.784,234 L365.496,234 Z M387.24,194.544 L387.24,223.056 C387.24,225.864 387.456,226.728 389.832,226.728 L390.984,226.728 C393.36,226.728 393.576,225.864 393.576,223.056 L393.576,212.976 L401.208,212.976 L401.208,224.136 C401.208,232.056 399.336,234.36 392.064,234.36 L388.32,234.36 C380.976,234.36 379.104,232.056 379.104,224.136 L379.104,193.464 C379.104,185.544 380.976,183.24 388.32,183.24 L392.064,183.24 C399.336,183.24 401.208,185.544 401.208,193.464 L401.208,202.464 L393.576,202.464 L393.576,194.544 C393.576,191.736 393.36,190.872 390.984,190.872 L389.832,190.872 C387.456,190.872 387.24,191.736 387.24,194.544 Z M413.664,191.232 L413.664,203.904 L421.08,203.904 L421.08,211.536 L413.664,211.536 L413.664,226.368 L422.808,226.368 L422.808,234 L405.528,234 L405.528,183.6 L422.808,183.6 L422.808,191.232 L413.664,191.232 Z M97.368,254.6 L97.368,294.056 C97.368,296.864 97.584,297.728 99.96,297.728 L101.112,297.728 C103.488,297.728 103.704,296.864 103.704,294.056 L103.704,254.6 L111.336,254.6 L111.336,295.136 C111.336,303.056 109.464,305.36 102.192,305.36 L98.448,305.36 C91.176,305.36 89.232,303.056 89.232,295.136 L89.232,254.6 L97.368,254.6 Z M128.832,294.056 L128.832,291.32 C128.832,287.072 127.536,285.632 122.64,281.456 C117.168,276.704 115.224,274.184 115.224,267.2 L115.224,264.464 C115.224,256.544 117.096,254.24 124.368,254.24 L127.824,254.24 C135.096,254.24 136.968,256.544 136.968,264.464 L136.968,271.448 L129.336,271.448 L129.336,265.544 C129.336,262.736 129.048,261.872 126.744,261.872 L125.88,261.872 C123.504,261.872 123.288,262.736 123.288,265.4 L123.288,267.128 C123.288,271.376 124.584,272.744 129.48,276.992 C134.952,281.816 136.968,284.264 136.968,291.248 L136.968,295.136 C136.968,303.056 135.024,305.36 127.824,305.36 L124.368,305.36 C117.096,305.36 115.224,303.056 115.224,295.136 L115.224,286.712 L122.784,286.712 L122.784,294.056 C122.784,296.864 123,297.728 125.376,297.728 L126.312,297.728 C128.616,297.728 128.832,296.864 128.832,294.056 Z M149.064,262.232 L149.064,274.904 L156.48,274.904 L156.48,282.536 L149.064,282.536 L149.064,297.368 L158.208,297.368 L158.208,305 L140.928,305 L140.928,254.6 L158.208,254.6 L158.208,262.232 L149.064,262.232 Z M184.272,289.304 L184.272,296.144 C184.272,299.384 184.488,302.48 185.424,305 L177,305 C176.208,303.344 176.136,300.32 176.136,297.152 L176.136,287.936 C176.136,284.912 175.56,283.472 172.896,283.472 L169.8,283.472 L169.8,305 L161.664,305 L161.664,254.6 L175.056,254.6 C182.328,254.6 184.272,256.904 184.272,264.824 L184.272,270.224 C184.272,275.984 183.264,278.648 179.952,279.728 C183.264,280.808 184.272,283.616 184.272,289.304 Z M176.136,272.168 L176.136,265.904 C176.136,263.096 175.92,262.232 173.544,262.232 L169.8,262.232 L169.8,275.84 L173.544,275.84 C175.848,275.84 176.136,274.904 176.136,272.168 Z M198.456,305 L198.456,254.6 L206.592,254.6 L206.592,305 L198.456,305 Z M224.952,305 L219.624,280.448 C218.904,277.064 218.472,274.184 217.968,270.944 C218.112,274.184 218.328,277.064 218.328,280.448 L218.328,305 L211.272,305 L211.272,254.6 L221.568,254.6 L225.96,276.632 C226.608,279.944 227.112,283.112 227.544,286.352 C227.472,283.112 227.256,279.944 227.256,276.56 L227.256,254.6 L234.24,254.6 L234.24,305 L224.952,305 Z M250.296,305 L242.16,305 L242.16,262.16 L236.76,262.16 L236.76,254.6 L255.696,254.6 L255.696,262.16 L250.296,262.16 L250.296,305 Z M266.424,262.232 L266.424,274.904 L273.84,274.904 L273.84,282.536 L266.424,282.536 L266.424,297.368 L275.568,297.368 L275.568,305 L258.288,305 L258.288,254.6 L275.568,254.6 L275.568,262.232 L266.424,262.232 Z M301.632,289.304 L301.632,296.144 C301.632,299.384 301.848,302.48 302.784,305 L294.36,305 C293.568,303.344 293.496,300.32 293.496,297.152 L293.496,287.936 C293.496,284.912 292.92,283.472 290.256,283.472 L287.16,283.472 L287.16,305 L279.024,305 L279.024,254.6 L292.416,254.6 C299.688,254.6 301.632,256.904 301.632,264.824 L301.632,270.224 C301.632,275.984 300.624,278.648 297.312,279.728 C300.624,280.808 301.632,283.616 301.632,289.304 Z M293.496,272.168 L293.496,265.904 C293.496,263.096 293.28,262.232 290.904,262.232 L287.16,262.232 L287.16,275.84 L290.904,275.84 C293.208,275.84 293.496,274.904 293.496,272.168 Z M314.088,262.232 L314.088,275.624 L321.144,275.624 L321.144,283.256 L314.088,283.256 L314.088,305 L305.952,305 L305.952,254.6 L322.8,254.6 L322.8,262.232 L314.088,262.232 Z M338.064,305 L337.128,297.872 L330.144,297.872 L329.28,305 L322.008,305 L328.56,254.6 L339.72,254.6 L346.2,305 L338.064,305 Z M331.296,289.16 L331.152,290.672 L336.192,290.672 L336.048,289.16 C334.968,277.928 334.104,268.712 333.672,260.936 C333.168,268.712 332.376,277.928 331.296,289.16 Z M356.712,265.544 L356.712,294.056 C356.712,296.864 356.928,297.728 359.304,297.728 L360.456,297.728 C362.832,297.728 363.048,296.864 363.048,294.056 L363.048,283.976 L370.68,283.976 L370.68,295.136 C370.68,303.056 368.808,305.36 361.536,305.36 L357.792,305.36 C350.448,305.36 348.576,303.056 348.576,295.136 L348.576,264.464 C348.576,256.544 350.448,254.24 357.792,254.24 L361.536,254.24 C368.808,254.24 370.68,256.544 370.68,264.464 L370.68,273.464 L363.048,273.464 L363.048,265.544 C363.048,262.736 362.832,261.872 360.456,261.872 L359.304,261.872 C356.928,261.872 356.712,262.736 356.712,265.544 Z M383.136,262.232 L383.136,274.904 L390.552,274.904 L390.552,282.536 L383.136,282.536 L383.136,297.368 L392.28,297.368 L392.28,305 L375,305 L375,254.6 L392.28,254.6 L392.28,262.232 L383.136,262.232 Z M89.376,376 L89.376,325.6 L102.768,325.6 C110.04,325.6 111.984,327.904 111.984,335.824 L111.984,365.776 C111.984,373.696 110.04,376 102.768,376 L89.376,376 Z M97.512,368.368 L101.256,368.368 C103.632,368.368 103.848,367.504 103.848,364.696 L103.848,336.904 C103.848,334.096 103.632,333.232 101.256,333.232 L97.512,333.232 L97.512,368.368 Z M124.512,333.232 L124.512,345.904 L131.928,345.904 L131.928,353.536 L124.512,353.536 L124.512,368.368 L133.656,368.368 L133.656,376 L116.376,376 L116.376,325.6 L133.656,325.6 L133.656,333.232 L124.512,333.232 Z M150.144,365.056 L150.144,362.32 C150.144,358.072 148.848,356.632 143.952,352.456 C138.48,347.704 136.536,345.184 136.536,338.2 L136.536,335.464 C136.536,327.544 138.408,325.24 145.68,325.24 L149.136,325.24 C156.408,325.24 158.28,327.544 158.28,335.464 L158.28,342.448 L150.648,342.448 L150.648,336.544 C150.648,333.736 150.36,332.872 148.056,332.872 L147.192,332.872 C144.816,332.872 144.6,333.736 144.6,336.4 L144.6,338.128 C144.6,342.376 145.896,343.744 150.792,347.992 C156.264,352.816 158.28,355.264 158.28,362.248 L158.28,366.136 C158.28,374.056 156.336,376.36 149.136,376.36 L145.68,376.36 C138.408,376.36 136.536,374.056 136.536,366.136 L136.536,357.712 L144.096,357.712 L144.096,365.056 C144.096,367.864 144.312,368.728 146.688,368.728 L147.624,368.728 C149.928,368.728 150.144,367.864 150.144,365.056 Z M162.24,376 L162.24,325.6 L170.376,325.6 L170.376,376 L162.24,376 Z M186.072,354.976 L186.072,347.344 L196.872,347.344 L196.872,366.136 C196.872,374.056 195,376.36 187.728,376.36 L183.984,376.36 C176.64,376.36 174.768,374.056 174.768,366.136 L174.768,335.464 C174.768,327.544 176.64,325.24 183.984,325.24 L187.728,325.24 C195,325.24 196.872,327.544 196.872,335.464 L196.872,343.168 L189.24,343.168 L189.24,336.544 C189.24,333.736 189.024,332.872 186.648,332.872 L185.496,332.872 C183.12,332.872 182.904,333.736 182.904,336.544 L182.904,365.056 C182.904,367.864 183.12,368.728 185.496,368.728 L186.648,368.728 C189.024,368.728 189.24,367.864 189.24,365.056 L189.24,354.976 L186.072,354.976 Z M214.872,376 L209.544,351.448 C208.824,348.064 208.392,345.184 207.888,341.944 C208.032,345.184 208.248,348.064 208.248,351.448 L208.248,376 L201.192,376 L201.192,325.6 L211.488,325.6 L215.88,347.632 C216.528,350.944 217.032,354.112 217.464,357.352 C217.392,354.112 217.176,350.944 217.176,347.56 L217.176,325.6 L224.16,325.6 L224.16,376 L214.872,376 Z M236.976,333.232 L236.976,345.904 L244.392,345.904 L244.392,353.536 L236.976,353.536 L236.976,368.368 L246.12,368.368 L246.12,376 L228.84,376 L228.84,325.6 L246.12,325.6 L246.12,333.232 L236.976,333.232 Z M272.184,360.304 L272.184,367.144 C272.184,370.384 272.4,373.48 273.336,376 L264.912,376 C264.12,374.344 264.048,371.32 264.048,368.152 L264.048,358.936 C264.048,355.912 263.472,354.472 260.808,354.472 L257.712,354.472 L257.712,376 L249.576,376 L249.576,325.6 L262.968,325.6 C270.24,325.6 272.184,327.904 272.184,335.824 L272.184,341.224 C272.184,346.984 271.176,349.648 267.864,350.728 C271.176,351.808 272.184,354.616 272.184,360.304 Z M264.048,343.168 L264.048,336.904 C264.048,334.096 263.832,333.232 261.456,333.232 L257.712,333.232 L257.712,346.84 L261.456,346.84 C263.76,346.84 264.048,345.904 264.048,343.168 Z" id="USER-EXPERIENCE-USER"></path>
        </g>
    </g>
</svg>