<svg width="227" height="22" viewBox="0 0 227 22" fill="none" xmlns="http://www.w3.org/2000/svg">
<path d="M38.185 16.8024C36.0602 16.8024 34.2986 16.1032 32.9 14.705C31.5148 13.2934 30.8223 11.5389 30.8223 9.44152C30.8223 7.34419 31.5148 5.59641 32.9 4.19819C34.2986 2.78652 36.0602 2.08069 38.185 2.08069C39.4625 2.08069 40.646 2.38319 41.7352 2.98819C42.8245 3.59319 43.6785 4.40658 44.2971 5.42836L41.1704 7.22319C40.9015 6.72574 40.498 6.33586 39.9601 6.05352C39.4357 5.75774 38.8439 5.60986 38.185 5.60986C37.0554 5.60986 36.1409 5.96613 35.4416 6.67869C34.7558 7.3778 34.4129 8.29874 34.4129 9.44152C34.4129 10.5843 34.7558 11.512 35.4416 12.2245C36.1409 12.9236 37.0554 13.2732 38.185 13.2732C38.8439 13.2732 39.4357 13.132 39.9601 12.8497C40.498 12.5539 40.9015 12.1506 41.1704 11.6397L44.2971 13.4547C43.6785 14.4899 42.8245 15.31 41.7352 15.915C40.6594 16.5066 39.476 16.8024 38.185 16.8024Z" fill="#F8F8F8"/>
<path d="M51.2378 2.38319H54.8485V16.4999H51.2378V2.38319Z" fill="#F8F8F8"/>
<path d="M70.3014 2.38319H73.892V16.4999H70.3014V11.075H66.3276V16.4999H62.7168V2.38319H66.3276V7.60636H70.3014V2.38319Z" fill="#F8F8F8"/>
<path d="M90.3934 16.4999L89.7883 14.463H85.0882L84.4831 16.4999H80.5697L85.2294 2.38319H89.6269L94.2866 16.4999H90.3934ZM86.0161 11.3574H88.8604L87.4282 6.55769L86.0161 11.3574Z" fill="#F8F8F8"/>
<path d="M108.748 2.38319H112.338V16.4999H109.555L104.572 9.40119V16.4999H100.961V2.38319H103.765L108.748 9.48186V2.38319Z" fill="#F8F8F8"/>
<path d="M142.462 2.38319L137.702 11.075V16.4999H134.091V11.1154L129.33 2.38319H133.385L135.886 7.60636L138.408 2.38319H142.462Z" fill="#F8F8F8"/>
<path d="M149.227 2.38319H152.838V16.4999H149.227V2.38319Z" fill="#F8F8F8"/>
<path d="M164.317 13.011H169.179V16.4999H160.706V2.38319H164.317V13.011Z" fill="#F8F8F8"/>
<path d="M190.548 2.38319V16.4999H186.957V8.89702L183.528 14.5639H183.165L179.756 8.91719V16.4999H176.145V2.38319H179.756L183.346 8.41302L186.957 2.38319H190.548Z" fill="#F8F8F8"/>
<path d="M207.052 16.4999L206.447 14.463H201.747L201.142 16.4999H197.229L201.888 2.38319H206.286L210.945 16.4999H207.052ZM202.675 11.3574H205.519L204.087 6.55769L202.675 11.3574Z" fill="#F8F8F8"/>
<path d="M221.856 13.011H227V16.4999H217.176V13.7169L222.159 5.87202H217.277V2.38319H226.839V5.16619L221.856 13.011Z" fill="#F8F8F8"/>
<path fill-rule="evenodd" clip-rule="evenodd" d="M10.1879 21.0835C10.0834 21.0835 9.97797 21.0651 9.87436 21.0275C9.47826 20.8836 9.2307 20.4876 9.27654 20.0687L9.98072 13.5668H4.58475C4.24642 13.5668 3.93559 13.3807 3.77604 13.0819C3.6165 12.783 3.63484 12.4219 3.82281 12.1405L11.0553 1.32379C11.2901 0.972709 11.7338 0.826959 12.1309 0.972709C12.5279 1.11663 12.7745 1.51263 12.7287 1.93154L12.0245 8.43346H17.4214C17.7597 8.43346 18.0706 8.61954 18.2301 8.91838C18.3887 9.21721 18.3713 9.57838 18.1833 9.85979L10.9499 20.6765C10.7766 20.9368 10.4869 21.0835 10.1879 21.0835Z" fill="#231F20"/>
<mask id="mask0" mask-type="alpha" maskUnits="userSpaceOnUse" x="3" y="0" width="16" height="22">
<path fill-rule="evenodd" clip-rule="evenodd" d="M10.1879 21.0835C10.0834 21.0835 9.97797 21.0651 9.87436 21.0275C9.47826 20.8836 9.2307 20.4876 9.27654 20.0687L9.98072 13.5668H4.58475C4.24642 13.5668 3.93559 13.3807 3.77604 13.0819C3.6165 12.783 3.63484 12.4219 3.82281 12.1405L11.0553 1.32379C11.2901 0.972709 11.7338 0.826959 12.1309 0.972709C12.5279 1.11663 12.7745 1.51263 12.7287 1.93154L12.0245 8.43346H17.4214C17.7597 8.43346 18.0706 8.61954 18.2301 8.91838C18.3887 9.21721 18.3713 9.57838 18.1833 9.85979L10.9499 20.6765C10.7766 20.9368 10.4869 21.0835 10.1879 21.0835Z" fill="white"/>
</mask>
<g mask="url(#mask0)">
<rect width="22.0057" height="22" fill="#FF5050"/>
</g>
</svg>
