<?xml version="1.0" encoding="UTF-8" standalone="no"?>
<!-- Created with Keyshape -->
<svg xmlns="http://www.w3.org/2000/svg" width="48" height="48" viewBox="0 0 48 48" fill="none">
    <style>
@keyframes a1_t { 0% { transform: translate(23.976115px,24.023889px) rotate(0deg); } 100% { transform: translate(23.976115px,24.023889px) rotate(0deg); } }
@keyframes a0_t { 0% { transform: rotate(0deg) translate(-23.976115px,-24.023889px); animation-timing-function: cubic-bezier(0.42,0,0.58,1); } 100% { transform: rotate(360deg) translate(-23.976115px,-24.023889px); } }
    </style>
    <ellipse fill="black" rx="18" ry="18" transform="translate(24,24)"/>
    <path fill-rule="evenodd" clip-rule="evenodd" d="M23.1165,34.2375C23.0105,34.2375,22.9036,34.2189,22.7985,34.1808C22.3967,34.0348,22.1456,33.633,22.1921,33.208L22.9063,26.6115L17.4333,26.6115C17.0901,26.6115,16.7749,26.4227,16.613,26.1195C16.4512,25.8164,16.4698,25.4499,16.6605,25.1644L23.9963,14.1904C24.2344,13.8342,24.6845,13.6864,25.0872,13.8342C25.4899,13.9803,25.7401,14.382,25.6936,14.807L24.9793,21.4035L30.4533,21.4035C30.7965,21.4035,31.1117,21.5923,31.2736,21.8955C31.4344,22.1987,31.4168,22.5651,31.2261,22.8506L23.8894,33.8246C23.7136,34.0887,23.4197,34.2375,23.1165,34.2375" fill="#FFF066" transform="translate(23.9431,24.0074) translate(-23.9431,-24.0074)"/>
    <g style="animation: 0.8s linear infinite both a1_t;">
        <path d="M46.4362,24C47.2999,24,48.0053,24.701,47.9491,25.5628C47.6752,29.7599,46.3021,33.8213,43.9553,37.3337C41.3181,41.2805,37.5698,44.3566,33.1844,46.1731C28.799,47.9896,23.9734,48.4649,19.3178,47.5388C14.6623,46.6128,10.3859,44.327,7.02944,40.9706C3.67298,37.6141,1.3872,33.3377,0.461153,28.6822C-0.464892,24.0266,0.0103881,19.201,1.82689,14.8156C3.64339,10.4302,6.71953,6.68188,10.6663,4.04473C14.1787,1.69785,18.2401,0.324768,22.4372,0.0509248C23.299,-0.00530745,24,0.700148,24,1.56383L24,1.56383C24,2.4275,23.2989,3.12155,22.4376,3.1862C18.8597,3.45475,15.4018,4.64215,12.4039,6.64528C8.9715,8.93876,6.29624,12.1986,4.71646,16.0125C3.13669,19.8264,2.72334,24.0232,3.52871,28.072C4.33407,32.1208,6.32197,35.8399,9.24102,38.759C12.1601,41.678,15.8792,43.6659,19.928,44.4713C23.9768,45.2767,28.1736,44.8633,31.9875,43.2835C35.8014,41.7038,39.0612,39.0285,41.3547,35.5961C43.3578,32.5982,44.5453,29.1403,44.8138,25.5624C44.8784,24.7011,45.5725,24,46.4362,24L46.4362,24Z" fill="black" transform="translate(23.9761,24.0239) translate(-23.9761,-24.0239)" style="animation: 0.8s linear infinite both a0_t;"/>
    </g>
</svg>
