<?xml version="1.0" encoding="UTF-8"?>
<svg width="61px" height="18px" viewBox="0 0 61 18" version="1.1" xmlns="http://www.w3.org/2000/svg" xmlns:xlink="http://www.w3.org/1999/xlink">
    <!-- Generator: Sketch 43.2 (39069) - http://www.bohemiancoding.com/sketch -->
    <title>Group 2</title>
    <desc>Created with Sketch.</desc>
    <defs>
        <rect id="path-1" x="0" y="0" width="60.8571429" height="18" rx="9"></rect>
    </defs>
    <g id="Page-1" stroke="none" stroke-width="1" fill="none" fill-rule="evenodd">
        <g id="Desktop-HD" transform="translate(-1037.000000, -50.000000)">
            <g id="Group-2" transform="translate(1037.000000, 50.000000)">
                <g id="Rectangle-5">
                    <use fill="#FFFFFF" fill-rule="evenodd" xlink:href="#path-1"></use>
                    <rect stroke="#E9E9E9" stroke-width="1" x="0.5" y="0.5" width="59.8571429" height="17" rx="8.5"></rect>
                </g>
                <g id="Group" transform="translate(6.857143, 5.142857)">
                    <path d="M3.70434815,2.06847205 C4.00516803,1.35547826 4.692373,0.857291925 5.49167734,0.857291925 C6.56839784,0.857291925 7.34385126,1.77838509 7.44134194,2.87612422 C7.44134194,2.87612422 7.49396306,3.14862112 7.37813697,3.63920497 C7.22042268,4.30732919 6.84968977,4.90091925 6.34986368,5.35393789 L3.70434815,7.71428571 L1.10340405,5.35378882 C0.603577964,4.90091925 0.232845045,4.30718012 0.0751307593,3.6390559 C-0.0406953276,3.14847205 0.0119257904,2.87597516 0.0119257904,2.87597516 C0.109416474,1.77823602 0.88486989,0.857142857 1.96159039,0.857142857 C2.7610438,0.857142857 3.40352827,1.35547826 3.70434815,2.06847205 Z" id="Shape" fill="#FF432B" fill-rule="nonzero"></path>
                    <path d="M13.0182857,6 L12.2777143,6 C12.1851424,6 12.1542856,5.94600054 12.1851429,5.838 L13.404,1.20171429 C13.4400002,1.09371375 13.5171423,1.03971429 13.6354286,1.03971429 L14.6614286,1.03971429 C14.7900006,1.03971429 14.8671427,1.09371375 14.8928571,1.20171429 L16.1117143,5.838 C16.1425716,5.94600054 16.1117147,6 16.0191429,6 L15.2785714,6 C15.2219997,6 15.1834287,5.98842869 15.1628571,5.96528571 C15.1422856,5.94214274 15.1268572,5.89971459 15.1165714,5.838 L14.9005714,4.98942857 L13.3962857,4.98942857 L13.1802857,5.838 C13.1699999,5.89971459 13.1532858,5.94214274 13.1301429,5.96528571 C13.1069999,5.98842869 13.0697145,6 13.0182857,6 Z M14.1368571,1.97314286 L13.5814286,4.20257143 L14.7231429,4.20257143 L14.1677143,1.97314286 L14.1368571,1.97314286 Z M17.5388571,6 L16.8831429,6 C16.7751423,6 16.7211429,5.94600054 16.7211429,5.838 L16.7211429,2.22771429 C16.7211429,2.11971375 16.7751423,2.06571429 16.8831429,2.06571429 L17.5388571,2.06571429 C17.6468577,2.06571429 17.7008571,2.11971375 17.7008571,2.22771429 L17.7008571,2.49 L17.7317143,2.49 C17.788286,2.35114216 17.8885707,2.24571465 18.0325714,2.17371429 C18.1765721,2.10171393 18.3282849,2.06571429 18.4877143,2.06571429 L18.7654286,2.06571429 C18.8682862,2.06571429 18.9197143,2.11971375 18.9197143,2.22771429 L18.9197143,2.76 C18.9197143,2.82171459 18.908143,2.86414274 18.885,2.88728571 C18.861857,2.91042869 18.8220003,2.9194286 18.7654286,2.91428571 L18.2331429,2.91428571 C17.8782839,2.91428571 17.7008571,3.11485514 17.7008571,3.516 L17.7008571,5.838 C17.7008571,5.94600054 17.6468577,6 17.5388571,6 Z M20.0537143,7.30371429 L19.56,7.30371429 C19.4571423,7.30371429 19.4057143,7.24714342 19.4057143,7.134 L19.4057143,6.61714286 C19.4057143,6.50399943 19.4571423,6.44742857 19.56,6.44742857 L19.722,6.44742857 C20.0460016,6.44742857 20.2658566,6.40242902 20.3815714,6.31242857 C20.4972863,6.22242812 20.5859997,6.04885843 20.6477143,5.79171429 L20.2388571,5.79171429 C20.1411424,5.79171429 20.0768573,5.73771483 20.046,5.62971429 L19.1434286,2.22771429 C19.1125713,2.11971375 19.1511423,2.06571429 19.2591429,2.06571429 L19.9457143,2.06571429 C20.0485719,2.06571429 20.112857,2.11971375 20.1385714,2.22771429 L20.802,5.07428571 L20.8328571,5.07428571 L21.4885714,2.22771429 C21.509143,2.11971375 21.573428,2.06571429 21.6814286,2.06571429 L22.3294286,2.06571429 C22.4580006,2.06571429 22.5094287,2.12228515 22.4837143,2.23542857 L21.5425714,6 C21.429428,6.42685928 21.2545726,6.75085604 21.018,6.972 C20.7814274,7.19314396 20.460002,7.30371429 20.0537143,7.30371429 Z M24.4277143,6 L24.2425714,6 C23.8362837,6 23.5225725,5.89200108 23.3014286,5.676 C23.0802846,5.45999892 22.9697143,5.14885917 22.9697143,4.74257143 L22.9697143,3.32314286 C22.9697143,2.91685511 23.0802846,2.60571537 23.3014286,2.38971429 C23.5225725,2.17371321 23.8362837,2.06571429 24.2425714,2.06571429 L26.0245714,2.06571429 C26.1377149,2.06571429 26.1942857,2.11971375 26.1942857,2.22771429 L26.1942857,5.838 C26.1942857,5.94600054 26.1377149,6 26.0245714,6 L25.3765714,6 C25.2685709,6 25.2145714,5.94600054 25.2145714,5.838 L25.2145714,5.58342857 L25.1837143,5.58342857 C25.1271426,5.72228641 25.0268579,5.82642822 24.8828571,5.89585714 C24.7388564,5.96528606 24.5871437,6 24.4277143,6 Z M25.2145714,4.56514286 L25.2145714,2.99914286 C25.2145714,2.94257115 25.1837146,2.91428571 25.122,2.91428571 L24.3968571,2.91428571 C24.2322849,2.91428571 24.1165718,2.94899965 24.0497143,3.01842857 C23.9828568,3.08785749 23.9494286,3.20485632 23.9494286,3.36942857 L23.9494286,4.69628571 C23.9494286,4.86085797 23.9828568,4.9778568 24.0497143,5.04728571 C24.1165718,5.11671463 24.2322849,5.15142857 24.3968571,5.15142857 L24.6822857,5.15142857 C25.0371446,5.15142857 25.2145714,4.95600195 25.2145714,4.56514286 Z M28.5548571,3.93257143 L27.0891429,3.93257143 C26.9811423,3.93257143 26.9271429,3.87857197 26.9271429,3.77057143 L26.9271429,3.31542857 C26.9271429,3.20228515 26.9811423,3.14571429 27.0891429,3.14571429 L28.5548571,3.14571429 C28.6628577,3.14571429 28.7168571,3.20228515 28.7168571,3.31542857 L28.7168571,3.77057143 C28.7168571,3.87857197 28.6628577,3.93257143 28.5548571,3.93257143 Z M29.4034286,4.73485714 L29.4034286,4.58057143 C29.4034286,4.47257089 29.457428,4.41857143 29.5654286,4.41857143 L30.2211429,4.41857143 C30.3291434,4.41857143 30.3831429,4.47257089 30.3831429,4.58057143 L30.3831429,4.64228571 C30.3831429,4.83771526 30.4217139,4.97142821 30.4988571,5.04342857 C30.5760004,5.11542893 30.7174275,5.15142857 30.9231429,5.15142857 L31.2857143,5.15142857 C31.4862867,5.15142857 31.6264282,5.11285753 31.7061429,5.03571429 C31.7858575,4.95857104 31.8257143,4.81457248 31.8257143,4.60371429 L31.8257143,4.51114286 C31.8257143,4.36199925 31.7652863,4.24757183 31.6444286,4.16785714 C31.5235708,4.08814246 31.3731438,4.04057151 31.1931429,4.02514286 C31.013142,4.00971421 30.819001,3.98014308 30.6107143,3.93642857 C30.4024275,3.89271407 30.2082866,3.8361432 30.0282857,3.76671429 C29.8482848,3.69728537 29.6978577,3.56100102 29.577,3.35785714 C29.4561423,3.15471327 29.3957143,2.89371588 29.3957143,2.57485714 L29.3957143,2.30485714 C29.3957143,1.90371228 29.508856,1.59257253 29.7351429,1.37142857 C29.9614297,1.15028461 30.2751409,1.03971429 30.6762857,1.03971429 L31.4477143,1.03971429 C31.854002,1.03971429 32.1702846,1.15028461 32.3965714,1.37142857 C32.6228583,1.59257253 32.736,1.90371228 32.736,2.30485714 L32.736,2.45142857 C32.736,2.55942911 32.6820005,2.61342857 32.574,2.61342857 L31.9182857,2.61342857 C31.8102852,2.61342857 31.7562857,2.55942911 31.7562857,2.45142857 L31.7562857,2.40514286 C31.7562857,2.20457043 31.7177147,2.06828607 31.6405714,1.99628571 C31.5634282,1.92428535 31.422001,1.88828571 31.2162857,1.88828571 L30.9154286,1.88828571 C30.7045704,1.88828571 30.5618575,1.92814246 30.4872857,2.00785714 C30.4127139,2.08757183 30.3754286,2.2431417 30.3754286,2.47457143 L30.3754286,2.62114286 C30.3754286,2.86285835 30.5862836,3.00171411 31.008,3.03771429 C31.445145,3.07371447 31.8334269,3.16114216 32.1728571,3.3 C32.352858,3.37714324 32.5032851,3.5147133 32.6241429,3.71271429 C32.7450006,3.91071528 32.8054286,4.16399846 32.8054286,4.47257143 L32.8054286,4.73485714 C32.8054286,5.13600201 32.6922868,5.44714175 32.466,5.66828571 C32.2397132,5.88942968 31.926002,6 31.5248571,6 L30.684,6 C30.2828551,6 29.969144,5.88942968 29.7428571,5.66828571 C29.5165703,5.44714175 29.4034286,5.13600201 29.4034286,4.73485714 Z M36.5082857,6 L34.8034286,6 C34.3971408,6 34.0834297,5.89200108 33.8622857,5.676 C33.6411418,5.45999892 33.5305714,5.14885917 33.5305714,4.74257143 L33.5305714,3.32314286 C33.5305714,2.91685511 33.6411418,2.60571537 33.8622857,2.38971429 C34.0834297,2.17371321 34.3971408,2.06571429 34.8034286,2.06571429 L35.4128571,2.06571429 C35.8191449,2.06571429 36.132856,2.17371321 36.354,2.38971429 C36.575144,2.60571537 36.6857143,2.91685511 36.6857143,3.32314286 L36.6857143,4.30285714 C36.6857143,4.41085768 36.6317148,4.46485714 36.5237143,4.46485714 L34.5874286,4.46485714 C34.525714,4.46485714 34.4948571,4.49314257 34.4948571,4.54971429 L34.4948571,4.71942857 C34.4948571,4.87885794 34.5295711,4.99328537 34.599,5.06271429 C34.6684289,5.1321432 34.7854277,5.16685714 34.95,5.16685714 L36.5082857,5.16685714 C36.6162863,5.16685714 36.6702857,5.22342801 36.6702857,5.33657143 L36.6702857,5.84571429 C36.6702857,5.902286 36.6587144,5.94214274 36.6355714,5.96528571 C36.6124285,5.98842869 36.5700003,6 36.5082857,6 Z M34.5874286,3.80914286 L35.6365714,3.80914286 C35.6931431,3.80914286 35.7214286,3.78085743 35.7214286,3.72428571 L35.7214286,3.354 C35.7214286,3.18942775 35.6880003,3.07371462 35.6211429,3.00685714 C35.5542854,2.93999967 35.4385723,2.90657143 35.274,2.90657143 L34.95,2.90657143 C34.7854277,2.90657143 34.6697146,2.93999967 34.6028571,3.00685714 C34.5359997,3.07371462 34.5025714,3.18942775 34.5025714,3.354 L34.5025714,3.72428571 C34.5025714,3.78085743 34.5308569,3.80914286 34.5874286,3.80914286 Z M38.0588571,7.30371429 L37.5651429,7.30371429 C37.4622852,7.30371429 37.4108571,7.24714342 37.4108571,7.134 L37.4108571,6.61714286 C37.4108571,6.50399943 37.4622852,6.44742857 37.5651429,6.44742857 L37.7271429,6.44742857 C38.0511445,6.44742857 38.2709994,6.40242902 38.3867143,6.31242857 C38.5024292,6.22242812 38.5911425,6.04885843 38.6528571,5.79171429 L38.244,5.79171429 C38.1462852,5.79171429 38.0820002,5.73771483 38.0511429,5.62971429 L37.1485714,2.22771429 C37.1177141,2.11971375 37.1562852,2.06571429 37.2642857,2.06571429 L37.9508571,2.06571429 C38.0537148,2.06571429 38.1179999,2.11971375 38.1437143,2.22771429 L38.8071429,5.07428571 L38.838,5.07428571 L39.4937143,2.22771429 C39.5142858,2.11971375 39.5785709,2.06571429 39.6865714,2.06571429 L40.3345714,2.06571429 C40.4631435,2.06571429 40.5145716,2.12228515 40.4888571,2.23542857 L39.5477143,6 C39.4345709,6.42685928 39.2597155,6.75085604 39.0231429,6.972 C38.7865702,7.19314396 38.4651449,7.30371429 38.0588571,7.30371429 Z M42.4945714,6 L42.1782857,6 C41.7822837,6 41.4827153,5.89200108 41.2795714,5.676 C41.0764276,5.45999892 40.9748571,5.14885917 40.9748571,4.74257143 L40.9748571,3.32314286 C40.9748571,2.91685511 41.0764276,2.60571537 41.2795714,2.38971429 C41.4827153,2.17371321 41.7822837,2.06571429 42.1782857,2.06571429 L42.4945714,2.06571429 C42.6540008,2.06571429 42.8057136,2.10042822 42.9497143,2.16985714 C43.093715,2.23928606 43.1939997,2.34342788 43.2505714,2.48228571 L43.2814286,2.48228571 L43.2814286,0.738857143 C43.2814286,0.630856603 43.335428,0.576857143 43.4434286,0.576857143 L44.0991429,0.576857143 C44.2071434,0.576857143 44.2611429,0.630856603 44.2611429,0.738857143 L44.2611429,5.838 C44.2611429,5.94600054 44.2071434,6 44.0991429,6 L43.4434286,6 C43.335428,6 43.2814286,5.94600054 43.2814286,5.838 L43.2814286,5.58342857 L43.2505714,5.58342857 C43.1939997,5.72228641 43.093715,5.82642822 42.9497143,5.89585714 C42.8057136,5.96528606 42.6540008,6 42.4945714,6 Z M43.2814286,4.56514286 L43.2814286,3.50057143 C43.2814286,3.10971233 43.1040018,2.91428571 42.7491429,2.91428571 L42.402,2.91428571 C42.2374277,2.91428571 42.1217146,2.94899965 42.0548571,3.01842857 C41.9879997,3.08785749 41.9545714,3.20485632 41.9545714,3.36942857 L41.9545714,4.69628571 C41.9545714,4.86085797 41.9879997,4.9778568 42.0548571,5.04728571 C42.1217146,5.11671463 42.2374277,5.15142857 42.402,5.15142857 L42.7491429,5.15142857 C43.1040018,5.15142857 43.2814286,4.95600195 43.2814286,4.56514286 Z M45.1482857,1.40228571 L45.1482857,0.731142857 C45.1482857,0.6282852 45.1997138,0.576857143 45.3025714,0.576857143 L45.9737143,0.576857143 C46.0765719,0.576857143 46.128,0.625713797 46.128,0.723428571 L46.128,1.40228571 C46.128,1.50514337 46.0765719,1.55657143 45.9737143,1.55657143 L45.3025714,1.55657143 C45.1997138,1.55657143 45.1482857,1.50514337 45.1482857,1.40228571 Z M45.1482857,5.838 L45.1482857,2.22771429 C45.1482857,2.11971375 45.1997138,2.06571429 45.3025714,2.06571429 L45.966,2.06571429 C46.0740005,2.06571429 46.128,2.11971375 46.128,2.22771429 L46.128,5.838 C46.128,5.90485748 46.1164287,5.94857133 46.0932857,5.96914286 C46.0701427,5.98971439 46.030286,6 45.9737143,6 L45.3102857,6 C45.2022852,6 45.1482857,5.94600054 45.1482857,5.838 Z" id="Arya-Seydi" fill="#D3D3D3"></path>
                </g>
            </g>
        </g>
    </g>
</svg>