<svg width="180" height="180" viewBox="0 0 180 180" fill="none" xmlns="http://www.w3.org/2000/svg">
<circle cx="90" cy="90" r="90" fill="black"/>
<path fill-rule="evenodd" clip-rule="evenodd" d="M85.5823 141.187C85.0522 141.187 84.5174 141.094 83.992 140.904C81.9832 140.174 80.7277 138.165 80.9602 136.04L84.5314 103.057H57.1661C55.4503 103.057 53.8739 102.113 53.0648 100.597C52.2557 99.0816 52.3487 97.2495 53.302 95.8219L89.9812 40.9519C91.1716 39.171 93.4222 38.4316 95.4356 39.171C97.4491 39.901 98.6999 41.9098 98.4674 44.0349L94.8962 77.0173H122.266C123.982 77.0173 125.558 77.9613 126.367 79.4772C127.172 80.9931 127.084 82.8252 126.13 84.2527L89.4464 139.123C88.5676 140.443 87.0982 141.187 85.5823 141.187Z" fill="#FFF066"/>
</svg>
