<svg width="1440" height="211" viewBox="0 0 1440 211" fill="none" xmlns="http://www.w3.org/2000/svg">
<path d="M1440 0L1361.66 0V200.876C1361.66 204.19 1364.35 206.876 1367.66 206.876H1440V0Z" fill="#FFF066"/>
<path d="M43.2109 0V72.1737C43.2109 100.404 25.779 121.768 0 127.188V210.635C83.1878 205.97 138.814 156.858 138.814 80.4208V0H43.2109Z" fill="#FFF066"/>
<path d="M265.596 0L282.129 27.823C283.267 29.7387 283.25 32.1274 282.085 34.0266L181.606 197.738C179.152 201.736 182.029 206.876 186.72 206.876H281.19C283.341 206.876 285.327 205.725 286.396 203.859L343.822 103.607C344.245 102.868 345.03 102.413 345.881 102.413C346.732 102.413 347.518 102.868 347.94 103.607L405.366 203.859C406.435 205.725 408.421 206.876 410.572 206.876H505.659C510.365 206.876 513.239 201.706 510.755 197.709L409.026 34.0456C407.84 32.1374 407.819 29.7265 408.972 27.7983L425.599 0H265.596Z" fill="#FFF066"/>
<path d="M553.55 0V80.4208C553.55 160.83 614.42 211 705.552 211C795.996 211 857.553 160.83 857.553 80.4208V0H761.951V72.1737C761.951 104.99 738.394 128.529 705.552 128.529C672.71 128.529 649.153 104.99 649.153 72.1737V0H553.55Z" fill="#FFF066"/>
<path d="M902.99 0V200.876C902.99 204.19 905.677 206.876 908.99 206.876H992.593C995.907 206.876 998.593 204.19 998.593 200.876V0H902.99Z" fill="#FFF066"/>
<path d="M1043.9 0V200.876C1043.9 204.19 1046.59 206.876 1049.9 206.876H1133.5C1136.82 206.876 1139.5 204.19 1139.5 200.876V108.413C1139.5 105.099 1142.19 102.413 1145.5 102.413H1192.46C1265.21 102.413 1316.22 63.6337 1325.18 0H1223.06C1215.76 17.771 1198.21 28.1892 1173.21 28.1892H1145.5C1142.19 28.1892 1139.5 25.5029 1139.5 22.1892V0H1043.9Z" fill="#FFF066"/>
</svg>
