<svg width="180" height="180" viewBox="0 0 180 180" fill="none" xmlns="http://www.w3.org/2000/svg">
<circle cx="90" cy="90" r="90" fill="#C9FA49"/>
<path fill-rule="evenodd" clip-rule="evenodd" d="M120.577 33H111.731V41.8462H120.577V33ZM111.731 41.8462H102.885V50.6923H111.731V41.8462ZM94.0384 50.6923H102.885H102.885H111.731V59.5385H102.885H102.885H94.0384V50.6923ZM102.885 68.3846V59.5385H94.0385H94.0384H85.1923V68.3846V77.2308H94.0384H94.0385H102.885V68.3846ZM94.0385 86.0769V77.2308H85.1923V86.0769V94.923V94.9231V103.769V112.615V121.462H94.0385L94.0384 112.615H102.885L102.885 103.769H111.731V94.9231V94.923V86.077H102.885H102.885L94.0385 86.0769ZM85.1922 86.077V94.9231H76.3461H76.346H67.5H67.4999H58.6538V86.077H67.4999V77.2308H76.346H76.3461H85.1922V86.077ZM76.346 121.462V112.615V103.769H85.1922V112.615V121.462V130.308H76.346L76.3461 139.154H67.4999V130.308V121.462H76.346ZM85.1922 68.3846H76.346V77.2308H85.1922V68.3846ZM58.6538 139.154H67.5V148H58.6538V139.154Z" fill="black"/>
</svg>
