<?xml version="1.0" encoding="UTF-8" standalone="no"?>
<!-- Created with Keyshape -->
<svg xmlns="http://www.w3.org/2000/svg" width="1440" height="206" viewBox="0 0 1440 206" fill="none" style="background: rgba(0,0,0,0.00);">
    <defs>
        <mask id="Mask-1">
            <rect width="48.02" height="206" stroke="none" fill="#d8ff69" opacity="1" transform="translate(-47,228) translate(-36,-228)" style="animation: 14s linear infinite both a0_o, 14s linear infinite both a0_w;"/>
        </mask>
    </defs>
    <style>
@keyframes a0_o { 0% { opacity: 1; } 42.8571% { opacity: 1; } 57.1429% { opacity: 0; } 100% { opacity: 0; } }
@keyframes a0_w { 0% { width: 48.02px; animation-timing-function: cubic-bezier(0.455,0.03,0.515,0.955); } 28.5714% { width: 1637.02px; } 42.8571% { width: 1637.02px; } 100% { width: 1637.02px; } }
    </style>
    <path id="Fill" fill-rule="evenodd" clip-rule="evenodd" d="M0,0L0,150.361L54.8927,150.361L54.8927,205.254L177.469,205.254L177.469,150.361L232.361,150.361L232.361,0L164.678,0L164.678,137.571L67.6832,137.571L67.6832,0L0,0ZM318.378,0L318.378,40.5759L373.27,40.5759L373.27,82.678L318.378,82.678L318.378,137.571L263.485,137.571L263.485,205.254L331.168,205.254L331.168,150.361L386.061,150.361L386.061,95.4685L428.163,95.4685L428.163,150.361L483.056,150.361L483.056,205.254L550.739,205.254L550.739,137.571L495.846,137.571L495.846,82.678L440.953,82.678L440.953,40.5759L495.846,40.5759L495.846,0L428.163,0L428.163,27.7853L386.061,27.7853L386.061,0L318.378,0ZM581.862,0L581.862,150.361L636.755,150.361L636.755,205.254L759.331,205.254L759.331,150.361L814.224,150.361L814.224,0L746.54,0L746.54,137.571L649.546,137.571L649.546,0L581.862,0ZM845.347,0L845.347,205.254L913.03,205.254L913.03,0L845.347,0ZM944.154,0L944.154,205.254L1011.84,205.254L1011.84,95.4685L1121.62,95.4685L1121.62,40.5759L1176.52,40.5759L1176.52,0L1106.64,0L1106.64,27.7853L1011.84,27.7853L1011.84,0L944.154,0ZM1207.64,0L1207.64,205.254L1385.11,205.254L1385.11,150.361L1440,150.361L1440,0L1370.12,0L1370.12,137.571L1275.32,137.571L1275.32,0L1207.64,0Z" fill="#C9FA49" transform="translate(720,102.627) translate(-720,-102.627)"/>
    <path id="Border" fill-rule="evenodd" clip-rule="evenodd" d="M0,0L0,150.361L54.8927,150.361L54.8927,205.254L177.469,205.254L177.469,150.361L232.361,150.361L232.361,0L164.678,0L164.678,137.571L67.6832,137.571L67.6832,0L0,0ZM318.378,0L318.378,40.5759L373.27,40.5759L373.27,82.678L318.378,82.678L318.378,137.571L263.485,137.571L263.485,205.254L331.168,205.254L331.168,150.361L386.061,150.361L386.061,95.4685L428.163,95.4685L428.163,150.361L483.056,150.361L483.056,205.254L550.739,205.254L550.739,137.571L495.846,137.571L495.846,82.678L440.953,82.678L440.953,40.5759L495.846,40.5759L495.846,0L428.163,0L428.163,27.7853L386.061,27.7853L386.061,0L318.378,0ZM581.862,0L581.862,150.361L636.755,150.361L636.755,205.254L759.331,205.254L759.331,150.361L814.224,150.361L814.224,0L746.54,0L746.54,137.571L649.546,137.571L649.546,0L581.862,0ZM845.347,0L845.347,205.254L913.03,205.254L913.03,0L845.347,0ZM944.154,0L944.154,205.254L1011.84,205.254L1011.84,95.4685L1121.62,95.4685L1121.62,40.5759L1176.52,40.5759L1176.52,0L1106.64,0L1106.64,27.7853L1011.84,27.7853L1011.84,0L944.154,0ZM1207.64,0L1207.64,205.254L1385.11,205.254L1385.11,150.361L1440,150.361L1440,0L1370.12,0L1370.12,137.571L1275.32,137.571L1275.32,0L1207.64,0Z" fill="#000000" stroke="#c9fa49" mask="url(#Mask-1)" transform="translate(720,102.627) translate(-720,-102.627)"/>
</svg>
