<svg width="1440" height="206" viewBox="0 0 1440 206" fill="none" xmlns="http://www.w3.org/2000/svg">
<path fill-rule="evenodd" clip-rule="evenodd" d="M0 0V150.361H54.8927V205.254H177.469V150.361H232.361V0H164.678V137.571H67.6832V0H0ZM318.378 0V40.5759H373.27V82.678H318.378V137.571H263.485V205.254H331.168V150.361H386.061V95.4685H428.163V150.361H483.056V205.254H550.739V137.571H495.846V82.678H440.953V40.5759H495.846V0H428.163V27.7853H386.061V0H318.378ZM581.862 0V150.361H636.755V205.254H759.331V150.361H814.224V0H746.54V137.571H649.546V0H581.862ZM845.347 0V205.254H913.03V0H845.347ZM944.154 0V205.254H1011.84V95.4685H1121.62V40.5759H1176.52V0H1106.64V27.7853H1011.84V0H944.154ZM1207.64 0V205.254H1385.11V150.361H1440V0H1370.12V137.571H1275.32V0H1207.64Z" fill="#C9FA49"/>
</svg>
