<svg width="875" height="232" viewBox="0 0 875 232" fill="none" xmlns="http://www.w3.org/2000/svg">
<rect x="145.833" width="0.747863" height="231.09" fill="#F4F4F4"/>
<rect x="291.667" width="0.747863" height="231.09" fill="#F4F4F4"/>
<rect x="437.5" width="0.747863" height="231.09" fill="#F4F4F4"/>
<rect x="583.333" width="0.747863" height="231.09" fill="#F4F4F4"/>
<rect x="729.167" width="0.747863" height="231.09" fill="#F4F4F4"/>
<rect x="0.747803" y="115.171" width="873.504" height="0.747863" fill="#F4F4F4"/>
<g clip-path="url(#clip0_990_357)">
<mask id="mask0_990_357" style="mask-type:alpha" maskUnits="userSpaceOnUse" x="35" y="50" width="17" height="17">
<path d="M35.1497 50.1716H51.3065V66.5491H35.1497V50.1716Z" fill="#385871"/>
</mask>
<g mask="url(#mask0_990_357)">
<path fill-rule="evenodd" clip-rule="evenodd" d="M50.0404 54.0061C49.4398 53.0585 48.7119 52.2827 47.8613 51.6797C47.0107 51.0767 46.0372 50.6467 44.9456 50.3907C43.1538 49.9706 41.4113 50.1603 39.7313 50.9121C38.803 51.3275 37.9814 51.9005 37.2744 52.629C36.3911 53.5392 35.7531 54.5701 35.3642 55.7211C35.3606 55.7317 35.3576 55.742 35.3541 55.7526C35.3406 55.793 35.3285 55.8342 35.3156 55.875C34.9168 57.2061 35.2895 57.9412 35.8757 57.3255C35.8988 57.2988 35.9225 57.2731 35.9457 57.2467C35.9546 57.236 35.9634 57.2263 35.9723 57.2151C36.658 56.3528 37.7489 55.6343 37.7489 55.6343L37.7495 55.6349C38.0272 55.4413 38.3158 55.2603 38.6158 55.0922C38.9588 54.8914 39.3174 54.7068 39.6516 54.5826C39.6516 54.5826 39.9625 54.4406 40.0454 54.0082C40.047 54.0001 40.0485 53.9922 40.0501 53.9842C40.0509 53.9798 40.052 53.976 40.0526 53.9716C40.1083 53.6116 40.494 52.6221 41.5853 52.557C41.9274 52.5101 42.2663 52.5709 42.5656 52.7133H42.5657C43.0918 52.9636 43.4955 53.4642 43.5773 54.0681C43.6424 54.5481 43.5279 55.0005 43.2825 55.3585C43.2695 55.3788 43.2544 55.3995 43.2378 55.4204C43.233 55.4267 43.2283 55.4331 43.2235 55.4394L43.2234 55.4394C43.0186 55.7042 42.7377 55.9094 42.4033 56.0249C42.2028 56.0993 41.999 56.1368 41.8038 56.1421L41.8028 56.1423C41.6802 56.1582 41.5445 56.1422 41.4082 56.1086C41.2544 56.0774 41.1134 56.0258 40.9923 55.9577C40.7816 55.859 40.6105 55.7474 40.5477 55.6895C40.4978 55.6435 40.4441 55.6185 40.3922 55.6062C40.2768 55.5872 40.1826 55.6091 40.1141 55.6388L40.1121 55.6398V55.6397C40.0739 55.6566 40.0441 55.6755 40.023 55.6911C39.7617 55.909 39.5132 56.1375 39.2776 56.3766C38.6587 57.027 38.1392 57.7655 37.8955 58.1304C37.7665 58.337 37.6436 58.5488 37.528 58.7666C37.4209 58.9681 37.3214 59.1721 37.229 59.3782C37.0843 59.7042 36.9477 60.0549 36.8253 60.4319C36.8198 60.4491 36.814 60.4662 36.8086 60.4834C36.801 60.5074 36.7936 60.5312 36.7864 60.555C36.7792 60.5785 36.7725 60.602 36.7655 60.6256C36.0148 63.1967 37.3661 64.6813 38.4987 63.1304C38.5605 63.0322 38.6237 62.9348 38.6884 62.8383C38.689 62.8373 38.6896 62.8363 38.6901 62.8353C39.877 60.7811 42.312 59.2987 42.312 59.2987L42.3133 59.2984C42.4623 59.2036 42.6129 59.1124 42.7652 59.0245L42.7657 59.0236C42.7657 59.0236 42.7762 59.0178 42.7943 59.0079C43.2114 58.7687 43.6406 58.5547 44.0824 58.3674C44.475 58.1927 44.8924 58.0292 45.2386 57.9452C45.2386 57.9452 45.6442 57.8397 45.7531 57.3407L45.7531 57.3406L45.7532 57.3402C45.8314 56.9823 46.0903 56.4588 46.6769 56.1773C46.8147 56.1068 46.9588 56.0539 47.1045 56.0216C47.2621 55.9867 47.4191 55.9741 47.5725 55.981L47.5737 55.981C47.6734 55.9793 47.7575 55.9906 47.829 56.0116C48.5731 56.1552 49.1826 56.7656 49.2711 57.5701C49.3783 58.5458 48.7005 59.4266 47.7307 59.5483C47.2472 59.6089 46.8093 59.5033 46.4359 59.2204C46.0169 59.0456 45.6945 59.1577 45.5786 59.2121C45.2131 59.4117 44.8625 59.6328 44.5269 59.8755C43.9026 60.3391 43.4066 60.8226 43.21 61.0221C42.7788 61.4695 42.397 61.944 42.0657 62.4463C42.0481 62.4735 42.0305 62.5008 42.0127 62.5289C42.0081 62.5362 42.0037 62.5436 41.999 62.5508C41.6582 63.0943 41.2954 63.79 40.9965 64.6314C40.9741 64.6968 40.9515 64.7621 40.9302 64.8283C40.6109 65.9081 41.303 66.338 42.1033 66.4944C42.2303 66.5101 42.3577 66.5232 42.486 66.5322C42.5175 66.5345 42.5485 66.5434 42.5796 66.5492H43.6337C43.6865 66.5447 43.734 66.5401 43.7744 66.5358C44.0024 66.5079 44.231 66.4835 44.4573 66.445C46.0157 66.1795 47.3933 65.5289 48.5696 64.4718C50.0505 63.1409 50.9428 61.4825 51.2199 59.5129C51.4975 57.5402 51.1082 55.6908 50.0404 54.0061Z" fill="black"/>
</g>
<path fill-rule="evenodd" clip-rule="evenodd" d="M73.5584 57.8242C73.3557 58.0001 73.0948 58.0855 72.7608 58.0855H71.3041V56.2291H72.7608C73.0947 56.2291 73.3555 56.3147 73.5584 56.4905C73.7552 56.6612 73.8508 56.8794 73.8508 57.1574C73.8508 57.4355 73.7552 57.6536 73.5584 57.8242ZM75.3316 58.6432C75.6701 58.23 75.8417 57.7301 75.8417 57.1574C75.8417 56.4105 75.5752 55.7828 75.0496 55.292C74.5023 54.7809 73.7693 54.5217 72.871 54.5217H69.3132V62.9456H71.3041V59.7018H72.2938L73.9939 62.9456H76.2977L74.316 59.3717C74.7236 59.2084 75.0646 58.964 75.3316 58.6432Z" fill="black"/>
<path fill-rule="evenodd" clip-rule="evenodd" d="M66.3952 59.956C66.3952 60.3829 66.2738 60.7073 66.0225 60.9491C65.7794 61.1899 65.4528 61.3068 65.0238 61.3068C64.5948 61.3068 64.2682 61.1899 64.0255 60.9491C63.783 60.709 63.6651 60.3841 63.6651 59.956V54.5217H61.6741V60.0133C61.6741 60.8986 61.9994 61.631 62.6419 62.191C63.2778 62.7373 64.0792 63.0143 65.0238 63.0143C65.9688 63.0143 66.7702 62.7372 67.4067 62.1903C68.0484 61.6309 68.3737 60.8984 68.3737 60.0133V54.5217H66.3952V59.956Z" fill="black"/>
<path fill-rule="evenodd" clip-rule="evenodd" d="M54.5552 56.2291H56.8298V62.9456H58.8209V56.2291H61.0956V54.5217H54.5552V56.2291Z" fill="black"/>
<path fill-rule="evenodd" clip-rule="evenodd" d="M84.2729 54.5217H81.8146L78.9563 57.8185V54.5217H76.9653V62.9456H78.9563V60.4115L79.9135 59.3429L82.0924 62.9456H84.4194L81.2429 57.9151L84.2729 54.5217Z" fill="black"/>
<path fill-rule="evenodd" clip-rule="evenodd" d="M107.469 61.2383V54.5217H105.478V62.9456H111.218V61.2383H107.469Z" fill="black"/>
<path fill-rule="evenodd" clip-rule="evenodd" d="M101.157 54.5217H99.1658V62.9456H104.73V61.2383H101.157V54.5217Z" fill="black"/>
<path fill-rule="evenodd" clip-rule="evenodd" d="M87.8604 56.1335C88.5745 56.1335 89.0134 56.4792 89.2018 57.1903L89.2305 57.2986H91.2578L91.2275 57.1278C91.0737 56.2565 90.6854 55.578 90.0741 55.1115C89.474 54.6473 88.7252 54.4119 87.848 54.4119C87.4989 54.4119 87.1643 54.4528 86.8567 54.5328C85.5406 54.8442 84.6733 55.6988 84.2047 57.1464C84.0357 57.6847 84.0002 58.2868 84.0002 58.6972C84.0002 59.1753 84.0609 59.6895 84.1674 60.1106C84.3599 60.8177 84.711 61.4415 85.1753 61.9067C85.2371 61.9789 85.3049 62.0495 85.3769 62.1166C86.044 62.7397 86.8753 63.0556 87.848 63.0556C88.7172 63.0556 89.4578 62.8241 90.048 62.3686C90.6769 61.8939 91.0737 61.2112 91.2275 60.3397L91.2578 60.1689H89.2305L89.2018 60.2772C89.0133 60.9884 88.5745 61.3341 87.8604 61.3341C87.3962 61.3341 87.0521 61.2678 86.6745 60.9365C86.4849 60.7422 86.3392 60.5329 86.2283 60.2949C86.1075 60.0447 85.9785 59.4873 85.9785 58.6733C85.9785 57.6644 86.202 56.9835 86.682 56.5304C86.9688 56.2596 87.3432 56.1335 87.8604 56.1335Z" fill="black"/>
<path fill-rule="evenodd" clip-rule="evenodd" d="M92.0664 62.9456H98.0932V61.2383H94.0573V59.5532H97.4942V57.8458H94.0573V56.2291H98.0932V54.5217H92.0664V62.9456Z" fill="black"/>
</g>
<g clip-path="url(#clip1_990_357)">
<mask id="mask1_990_357" style="mask-type:alpha" maskUnits="userSpaceOnUse" x="186" y="50" width="17" height="17">
<path d="M186.966 50.481H202.865V66.3805H186.966V50.481Z" fill="#385871"/>
</mask>
<g mask="url(#mask1_990_357)">
<path fill-rule="evenodd" clip-rule="evenodd" d="M198.307 51.2486C196.867 51.5545 195.723 52.8966 195.728 54.4188C195.728 54.4693 195.733 54.5232 195.738 54.5486C198.158 55.1379 199.257 56.5985 199.264 58.6196C199.271 60.6403 197.675 62.8547 194.979 62.8637C192.794 62.8708 190.522 61.0068 190.512 58.0134C190.505 56.0338 191.573 54.1283 192.938 52.9979C194.27 51.8952 196.094 51.1877 197.749 51.1821C197.942 51.1813 198.139 51.197 198.277 51.2341C197.255 50.7558 196.118 50.481 194.915 50.481C190.525 50.481 186.966 54.04 186.966 58.4307C186.966 62.8214 190.525 66.3805 194.915 66.3805C199.306 66.3805 202.865 62.8214 202.865 58.4307C202.865 55.2549 200.999 52.5222 198.307 51.2486Z" fill="black"/>
</g>
<path fill-rule="evenodd" clip-rule="evenodd" d="M207.999 61.7238L205.568 55.9233H207.157L208.673 59.7741L210.141 55.9233H211.658L209.299 61.7238H207.999Z" fill="black"/>
<path fill-rule="evenodd" clip-rule="evenodd" d="M215.888 58.7934C215.888 58.5519 215.86 58.3227 215.804 58.1054C215.748 57.8878 215.663 57.7008 215.551 57.5438C215.439 57.3867 215.302 57.2618 215.142 57.1695C214.981 57.0771 214.793 57.0304 214.576 57.0304C214.36 57.0304 214.171 57.0771 214.011 57.1695C213.85 57.2618 213.714 57.3867 213.602 57.5438C213.489 57.7008 213.405 57.8878 213.349 58.1054C213.293 58.3227 213.265 58.5519 213.265 58.7934C213.265 59.0432 213.293 59.2747 213.349 59.4878C213.405 59.701 213.487 59.8883 213.596 60.0495C213.704 60.2103 213.84 60.3374 214.005 60.4298C214.169 60.5221 214.36 60.5685 214.576 60.5685C214.793 60.5685 214.981 60.5221 215.142 60.4298C215.302 60.3374 215.439 60.2103 215.551 60.0495C215.663 59.8883 215.748 59.701 215.804 59.4878C215.86 59.2747 215.888 59.0432 215.888 58.7934ZM217.356 58.7994C217.356 59.1767 217.298 59.5477 217.182 59.9126C217.065 60.278 216.893 60.6048 216.664 60.8934C216.436 61.1821 216.147 61.4151 215.798 61.5916C215.449 61.7677 215.042 61.8559 214.576 61.8559C214.111 61.8559 213.704 61.7677 213.355 61.5916C213.006 61.4151 212.717 61.1821 212.488 60.8934C212.26 60.6048 212.087 60.278 211.971 59.9126C211.855 59.5477 211.797 59.1767 211.797 58.7994C211.797 58.4225 211.855 58.0534 211.971 57.6922C212.087 57.3314 212.26 57.0083 212.488 56.7234C212.717 56.4388 213.006 56.21 213.355 56.0376C213.704 55.8652 214.111 55.7788 214.576 55.7788C215.042 55.7788 215.447 55.8652 215.792 56.0376C216.137 56.21 216.426 56.4388 216.658 56.7234C216.891 57.0083 217.065 57.3314 217.182 57.6922C217.298 58.0534 217.356 58.4225 217.356 58.7994Z" fill="black"/>
<path fill-rule="evenodd" clip-rule="evenodd" d="M221.838 57.1994C221.551 57.0868 221.284 57.0304 221.036 57.0304C220.781 57.0304 220.562 57.079 220.378 57.1755C220.195 57.2719 220.043 57.4024 219.923 57.5677C219.804 57.733 219.713 57.9177 219.654 58.1234C219.594 58.3287 219.564 58.5396 219.564 58.7572C219.564 58.9988 219.59 59.2302 219.642 59.4516C219.694 59.673 219.774 59.8663 219.881 60.0312C219.989 60.1965 220.125 60.3292 220.289 60.4298C220.452 60.5304 220.646 60.5805 220.869 60.5805C221.052 60.5805 221.24 60.5304 221.432 60.4298C221.623 60.3292 221.759 60.2103 221.838 60.0734V57.1994ZM221.959 61.7236L221.899 61.2786C221.763 61.4308 221.583 61.5654 221.359 61.6813C221.135 61.798 220.871 61.856 220.567 61.856C220.167 61.856 219.815 61.7718 219.512 61.6032C219.208 61.4349 218.952 61.2106 218.743 60.9294C218.536 60.6489 218.378 60.324 218.27 59.9545C218.162 59.5858 218.108 59.2007 218.108 58.7994C218.108 58.4225 218.164 58.0531 218.276 57.6922C218.388 57.3314 218.558 57.0083 218.785 56.7234C219.013 56.4388 219.3 56.21 219.644 56.0376C219.987 55.8652 220.391 55.7788 220.855 55.7788C221.159 55.7788 221.487 55.8345 221.838 55.9456V53.6968H223.331V61.7236H221.959Z" fill="black"/>
<path fill-rule="evenodd" clip-rule="evenodd" d="M227.532 59.004C227.37 59.0122 227.205 59.026 227.035 59.0462C226.865 59.066 226.704 59.0922 226.551 59.1244C226.227 59.1887 226.003 59.299 225.878 59.4553C225.753 59.612 225.69 59.7821 225.69 59.9668C225.69 60.1594 225.761 60.3139 225.902 60.4301C226.044 60.5464 226.244 60.6048 226.502 60.6048C226.696 60.6048 226.884 60.5644 227.065 60.4844C227.247 60.4043 227.402 60.3038 227.532 60.1833V59.004ZM227.651 61.7183L227.592 61.285C227.431 61.4633 227.225 61.6032 226.976 61.7045C226.726 61.8055 226.453 61.8559 226.155 61.8559C225.905 61.8559 225.665 61.8141 225.436 61.7296C225.206 61.6454 225.003 61.525 224.826 61.3687C224.649 61.2124 224.506 61.0198 224.397 60.7914C224.289 60.5625 224.234 60.3038 224.234 60.0147C224.234 59.726 224.29 59.4714 224.403 59.2508C224.516 59.0301 224.669 58.8436 224.862 58.691C225.056 58.5388 225.277 58.4143 225.527 58.3182C225.776 58.2221 226.038 58.1495 226.312 58.1013C226.505 58.0613 226.716 58.0314 226.946 58.0112C227.175 57.9914 227.366 57.973 227.52 57.957V57.8728C227.52 57.552 227.437 57.3235 227.271 57.1867C227.107 57.0506 226.879 56.9821 226.588 56.9821C226.419 56.9821 226.257 57.0023 226.104 57.0427C225.951 57.0827 225.814 57.1324 225.693 57.1926C225.572 57.2528 225.465 57.313 225.373 57.3733C225.28 57.4335 225.205 57.4877 225.149 57.5359L224.655 56.4889C224.72 56.4328 224.818 56.3648 224.95 56.2844C225.083 56.204 225.243 56.1258 225.432 56.0495C225.62 55.9733 225.833 55.9093 226.07 55.857C226.306 55.805 226.561 55.7788 226.834 55.7788C227.154 55.7788 227.448 55.8211 227.712 55.9052C227.977 55.9893 228.206 56.1217 228.398 56.3019C228.591 56.4822 228.741 56.7106 228.849 56.987C228.958 57.2637 229.012 57.5984 229.012 57.991V61.7183H227.651Z" fill="black"/>
<path fill-rule="evenodd" clip-rule="evenodd" d="M233.622 55.0207C233.574 54.9967 233.48 54.9623 233.34 54.9182C233.199 54.8745 233.013 54.8524 232.78 54.8524C232.571 54.8524 232.397 54.9145 232.256 55.0386C232.116 55.1631 232.046 55.3658 232.046 55.6463V55.9233H233.298V57.1267H232.058V61.7238H230.566V57.1267H229.796V55.9233H230.566V55.6104C230.566 55.2334 230.614 54.9145 230.71 54.6539C230.806 54.3928 230.941 54.1805 231.113 54.0159C231.286 53.8514 231.488 53.731 231.721 53.6547C231.954 53.5784 232.206 53.5403 232.479 53.5403C232.84 53.5403 233.139 53.5747 233.376 53.6427C233.612 53.7108 233.751 53.7572 233.791 53.7811L233.622 55.0207Z" fill="black"/>
<path fill-rule="evenodd" clip-rule="evenodd" d="M237.69 58.7934C237.69 58.5519 237.662 58.3227 237.606 58.1054C237.549 57.8878 237.465 57.7008 237.353 57.5438C237.24 57.3867 237.104 57.2618 236.944 57.1695C236.783 57.0771 236.595 57.0304 236.378 57.0304C236.162 57.0304 235.973 57.0771 235.812 57.1695C235.652 57.2618 235.516 57.3867 235.403 57.5438C235.291 57.7008 235.207 57.8878 235.151 58.1054C235.094 58.3227 235.066 58.5519 235.066 58.7934C235.066 59.0432 235.094 59.2747 235.151 59.4878C235.207 59.701 235.289 59.8883 235.397 60.0495C235.505 60.2103 235.642 60.3374 235.806 60.4298C235.971 60.5221 236.162 60.5685 236.378 60.5685C236.595 60.5685 236.783 60.5221 236.944 60.4298C237.104 60.3374 237.24 60.2103 237.353 60.0495C237.465 59.8883 237.549 59.701 237.606 59.4878C237.662 59.2747 237.69 59.0432 237.69 58.7934ZM239.158 58.7994C239.158 59.1767 239.1 59.5477 238.983 59.9126C238.867 60.278 238.695 60.6048 238.466 60.8934C238.237 61.1821 237.949 61.4151 237.6 61.5916C237.251 61.7677 236.843 61.8559 236.378 61.8559C235.913 61.8559 235.505 61.7677 235.157 61.5916C234.808 61.4151 234.519 61.1821 234.29 60.8934C234.062 60.6048 233.889 60.278 233.773 59.9126C233.656 59.5477 233.598 59.1767 233.598 58.7994C233.598 58.4225 233.656 58.0534 233.773 57.6922C233.889 57.3314 234.062 57.0083 234.29 56.7234C234.519 56.4388 234.808 56.21 235.157 56.0376C235.505 55.8652 235.913 55.7788 236.378 55.7788C236.843 55.7788 237.248 55.8652 237.593 56.0376C237.939 56.21 238.227 56.4388 238.46 56.7234C238.693 57.0083 238.867 57.3314 238.983 57.6922C239.1 58.0534 239.158 58.4225 239.158 58.7994Z" fill="black"/>
<path fill-rule="evenodd" clip-rule="evenodd" d="M243.79 61.7238V58.4145C243.79 57.9733 243.698 57.6323 243.513 57.3914C243.329 57.151 243.072 57.0302 242.743 57.0302C242.51 57.0302 242.296 57.0904 242.099 57.2108C241.903 57.3312 241.732 57.4636 241.588 57.6083V61.7238H240.096V55.9234H241.455L241.528 56.3807C241.76 56.1881 242.023 56.0397 242.316 55.9354C242.609 55.831 242.904 55.7791 243.2 55.7791C243.505 55.7791 243.786 55.825 244.043 55.9174C244.299 56.0098 244.52 56.156 244.705 56.3564C244.889 56.5572 245.032 56.8178 245.132 57.1387C245.232 57.4599 245.283 57.8447 245.283 58.2941V61.7238H243.79Z" fill="black"/>
<path fill-rule="evenodd" clip-rule="evenodd" d="M249.925 58.1254C249.909 57.9249 249.866 57.7503 249.798 57.6019C249.729 57.4534 249.645 57.333 249.544 57.241C249.443 57.1486 249.334 57.0806 249.217 57.0361C249.1 56.9923 248.981 56.9699 248.86 56.9699C248.602 56.9699 248.356 57.0664 248.122 57.259C247.888 57.4515 247.751 57.7402 247.711 58.1254H249.925ZM247.675 59.1963C247.707 59.6858 247.86 60.0388 248.134 60.2553C248.408 60.4718 248.762 60.5802 249.197 60.5802C249.398 60.5802 249.587 60.5623 249.765 60.526C249.942 60.4901 250.099 60.4441 250.236 60.3876C250.373 60.3319 250.49 60.2755 250.586 60.2194C250.683 60.1633 250.755 60.1109 250.804 60.0627L251.201 61.2783C251.144 61.3184 251.054 61.3726 250.93 61.4406C250.806 61.5091 250.651 61.573 250.467 61.6332C250.282 61.6934 250.065 61.7454 249.817 61.7899C249.568 61.8336 249.295 61.8557 248.998 61.8557C248.621 61.8557 248.262 61.7959 247.922 61.6755C247.581 61.5551 247.281 61.3685 247.025 61.1157C246.768 60.8629 246.563 60.5484 246.411 60.1711C246.259 59.7942 246.182 59.3447 246.182 58.8231C246.182 58.334 246.253 57.9006 246.393 57.5237C246.533 57.1464 246.726 56.8297 246.971 56.5728C247.215 56.3163 247.5 56.1196 247.825 55.9831C248.15 55.847 248.497 55.7786 248.866 55.7786C249.235 55.7786 249.576 55.8388 249.889 55.9592C250.202 56.0796 250.472 56.2662 250.701 56.5186C250.93 56.7714 251.11 57.0985 251.243 57.4994C251.375 57.9006 251.441 58.3781 251.441 58.9316V59.1963H247.675Z" fill="black"/>
</g>
<g clip-path="url(#clip2_990_357)">
<mask id="mask2_990_357" style="mask-type:alpha" maskUnits="userSpaceOnUse" x="661" y="170" width="10" height="16">
<path d="M661.146 170.683H670.69V185.461H661.146V170.683Z" fill="#385871"/>
</mask>
<g mask="url(#mask2_990_357)">
<path fill-rule="evenodd" clip-rule="evenodd" d="M665.146 185.461C664.753 185.268 664.308 185.226 663.916 185.023C663.1 184.603 662.743 183.661 663.103 182.83C663.326 182.316 663.74 182.164 664.24 182.42C664.803 182.708 665.384 182.955 666.028 182.923C667.21 182.863 668.064 181.984 668.144 180.773C668.161 180.529 668.147 180.283 668.147 179.993C667.652 180.193 667.18 180.382 666.673 180.472C663.961 180.951 661.259 178.802 661.172 176.038C661.123 174.489 661.157 172.938 661.162 171.388C661.163 170.941 661.439 170.688 661.886 170.686C662.841 170.682 663.656 171.441 663.686 172.421C663.716 173.429 663.695 174.438 663.698 175.447C663.698 175.742 663.704 176.038 663.782 176.325C664.069 177.377 665.036 178.05 666.116 177.954C667.188 177.857 668.024 177.014 668.105 175.925C668.211 174.489 668.156 173.049 668.139 171.612C668.13 170.777 668.624 170.555 669.309 170.749C670.101 170.973 670.66 171.635 670.665 172.48C670.681 175.296 670.719 178.114 670.651 180.93C670.598 183.141 668.947 184.955 666.77 185.386C666.713 185.397 666.645 185.383 666.622 185.461H665.146Z" fill="black"/>
</g>
<path fill-rule="evenodd" clip-rule="evenodd" d="M630.449 179.186C630.641 178.937 630.8 178.662 631.094 178.505C631.674 178.196 632.229 178.236 632.762 178.605C633.372 179.027 634.029 179.205 634.75 178.971C635.656 178.677 636.174 178.043 636.295 177.098C636.325 176.868 636.321 176.632 636.321 176.398C636.323 173.926 636.322 171.453 636.322 168.98C636.322 168.125 636.614 167.697 637.244 167.622C637.901 167.543 638.62 168.057 638.785 168.74C638.831 168.929 638.846 169.129 638.846 169.324C638.85 171.797 638.868 174.27 638.843 176.743C638.823 178.788 637.884 180.312 636.027 181.175C634.162 182.042 632.436 181.62 630.853 180.404C630.661 180.257 630.588 180.032 630.449 179.85V179.186Z" fill="black"/>
<path fill-rule="evenodd" clip-rule="evenodd" d="M682.568 167.817C682.369 168.177 682.238 168.573 681.963 168.893C681.545 169.381 681.034 169.727 680.44 169.96C678.485 170.73 676.439 171.127 674.372 171.431C674.116 171.469 673.86 171.51 673.603 171.525C673.2 171.549 672.923 171.296 672.856 170.869C672.798 170.494 672.984 170.207 673.379 170.108C676.158 169.41 678.671 168.17 680.934 166.416C681.523 165.96 682.087 166.102 682.436 166.765C682.478 166.845 682.447 166.969 682.568 167.005V167.817Z" fill="black"/>
<path fill-rule="evenodd" clip-rule="evenodd" d="M648.254 176.225C648.267 174.733 647.078 173.504 645.605 173.488C644.09 173.471 642.858 174.659 642.844 176.151C642.831 177.703 644.043 178.943 645.569 178.938C647.04 178.934 648.242 177.72 648.254 176.225ZM645.57 170.773C648.519 170.773 650.955 173.224 650.956 176.193C650.958 179.159 648.523 181.612 645.573 181.616C642.596 181.619 640.173 179.175 640.181 176.177C640.19 173.196 642.606 170.772 645.57 170.773Z" fill="black"/>
<path fill-rule="evenodd" clip-rule="evenodd" d="M652.295 173.465C652.295 171.865 652.321 170.266 652.283 168.667C652.267 167.991 652.7 167.462 653.575 167.708C654.327 167.919 654.807 168.567 654.809 169.39C654.813 171.604 654.811 173.819 654.811 176.033C654.811 176.673 654.821 177.312 654.808 177.952C654.793 178.704 655.108 179.245 655.771 179.6C656.472 179.976 656.536 180.51 655.964 181.07C655.458 181.565 654.701 181.655 654.058 181.295C652.872 180.631 652.319 179.591 652.302 178.262C652.282 176.663 652.297 175.064 652.297 173.465H652.295Z" fill="black"/>
<path fill-rule="evenodd" clip-rule="evenodd" d="M656.791 173.45C656.791 171.851 656.814 170.251 656.781 168.653C656.767 167.998 657.178 167.472 658.05 167.7C658.821 167.902 659.307 168.575 659.308 169.442C659.31 172.234 659.323 175.027 659.3 177.819C659.294 178.675 659.597 179.28 660.378 179.659C660.885 179.905 660.977 180.359 660.661 180.826C660.199 181.508 659.309 181.716 658.571 181.306C657.402 180.657 656.822 179.639 656.803 178.321C656.778 176.697 656.797 175.073 656.797 173.45H656.791Z" fill="black"/>
<path fill-rule="evenodd" clip-rule="evenodd" d="M677.633 175.496C676.289 175.512 675.005 175.207 673.754 174.743C673.495 174.647 673.265 174.508 673.2 174.204C673.09 173.688 673.404 173.314 673.955 173.341C675.035 173.394 676.113 173.468 677.195 173.433C678.117 173.404 679.031 173.292 679.944 173.17C680.041 173.157 680.138 173.14 680.235 173.131C680.983 173.065 681.281 173.475 680.988 174.174C680.828 174.555 680.525 174.801 680.167 174.985C679.371 175.394 678.516 175.517 677.633 175.496Z" fill="black"/>
<path fill-rule="evenodd" clip-rule="evenodd" d="M676.388 163.774C676.391 164.228 676.214 164.695 675.921 165.116C674.887 166.601 673.512 167.727 672.048 168.753C671.86 168.885 671.639 168.984 671.389 168.893C670.944 168.731 670.801 168.207 671.127 167.847C672.514 166.32 673.664 164.627 674.624 162.809C674.928 162.232 675.641 162.102 676.112 162.733C676.301 162.986 676.393 163.31 676.388 163.774Z" fill="black"/>
<path fill-rule="evenodd" clip-rule="evenodd" d="M670.141 163.72C670.13 165.173 669.794 166.377 669.392 167.563C669.249 167.984 668.892 168.155 668.524 168.048C668.176 167.947 668.024 167.653 668.078 167.197C668.256 165.712 668.196 164.233 667.977 162.757C667.93 162.44 667.878 162.124 668.119 161.847C668.517 161.39 669.204 161.444 669.607 161.988C670.027 162.556 670.111 163.225 670.141 163.72Z" fill="black"/>
</g>
<g clip-path="url(#clip3_990_357)">
<mask id="mask3_990_357" style="mask-type:alpha" maskUnits="userSpaceOnUse" x="315" y="167" width="45" height="11">
<path d="M315.598 167.693H359.375V177.299H315.598V167.693Z" fill="#385871"/>
</mask>
<g mask="url(#mask3_990_357)">
<path fill-rule="evenodd" clip-rule="evenodd" d="M356.656 174.622C356.656 174.798 356.612 175.544 356.919 175.544C357.05 175.544 357.182 175.456 357.357 175.456C357.796 175.456 357.927 175.807 357.927 176.202C357.927 176.728 357.708 177.123 357.138 177.123C356.568 177.123 356.042 176.991 355.515 176.991C354.989 176.991 354.507 177.123 354.068 177.123C353.541 177.123 353.322 176.728 353.322 176.202C353.322 175.807 353.453 175.456 353.892 175.456C354.068 175.456 354.199 175.544 354.33 175.544C354.638 175.544 354.594 174.798 354.594 174.622V172.21C354.594 171.727 354.594 171.684 354.156 171.684C353.63 171.684 353.322 171.552 353.322 170.982C353.322 170.411 353.542 170.193 354.068 170.193C354.463 170.193 354.594 170.236 354.594 169.754C354.638 168.307 355.91 167.693 357.227 167.693C357.665 167.693 358.191 167.78 358.586 168C359.024 168.219 359.376 168.658 359.376 169.184C359.376 169.754 358.981 170.193 358.367 170.193C357.928 170.193 357.489 169.885 357.489 169.403C357.489 169.272 357.533 169.184 357.577 169.052C357.489 169.008 357.445 169.008 357.314 169.008C356.831 169.008 356.656 169.316 356.656 169.754C356.656 170.193 356.7 170.193 357.139 170.193C357.665 170.193 358.06 170.236 358.06 170.894C358.06 171.508 357.797 171.684 357.227 171.684C356.7 171.684 356.656 171.64 356.656 172.21V174.622H356.656ZM350.47 172.562C350.69 172.562 350.909 172.605 350.909 172.342C350.909 172.123 350.777 171.903 350.646 171.772C350.426 171.596 350.208 171.508 349.944 171.508C349.549 171.508 349.287 171.596 349.023 171.859C348.891 171.991 348.672 172.21 348.672 172.385C348.672 172.605 349.111 172.561 349.243 172.561H350.47V172.562ZM349.242 174.008C348.979 174.008 348.628 173.921 348.628 174.316C348.628 175.062 349.242 175.632 349.988 175.632C351.128 175.632 351.041 174.579 352.093 174.579C352.576 174.579 352.97 174.887 352.97 175.413C352.97 175.983 352.532 176.466 352.093 176.772C351.435 177.167 350.69 177.299 349.944 177.299C347.794 177.299 346.434 175.852 346.434 173.702C346.434 171.597 347.75 170.018 349.9 170.018C350.689 170.018 351.566 170.193 352.137 170.72C352.795 171.29 353.102 172.211 353.102 173.044C353.102 173.834 353.014 174.009 352.224 174.009H349.242V174.008V174.008ZM340.732 172.693C340.732 172.517 340.776 171.771 340.514 171.771C340.338 171.771 340.206 171.859 340.075 171.859C339.636 171.859 339.46 171.508 339.46 171.113C339.46 170.631 339.68 170.192 340.119 170.192C340.514 170.236 340.777 170.324 341.04 170.324C341.347 170.324 341.611 170.236 341.917 170.192C342.312 170.192 342.312 170.455 342.312 170.762V171.771C342.575 170.675 343.365 170.06 344.505 170.06C345.426 170.06 346.259 170.762 346.259 171.727C346.259 172.385 345.821 173.043 345.119 173.043C344.593 173.043 344.154 172.693 344.154 172.166C344.154 171.991 344.242 171.815 344.33 171.639C342.839 171.552 342.794 173.57 342.794 174.622C342.794 174.798 342.751 175.543 343.057 175.543C343.189 175.543 343.321 175.455 343.496 175.455C343.934 175.455 344.066 175.806 344.066 176.202C344.066 176.728 343.847 177.122 343.408 177.122C342.706 177.122 342.18 176.991 341.609 176.991C341.127 176.991 340.6 177.122 340.118 177.122C339.68 177.122 339.46 176.728 339.46 176.202C339.46 175.806 339.635 175.455 340.074 175.455C340.206 175.455 340.337 175.543 340.513 175.543C340.776 175.543 340.732 174.798 340.732 174.622V172.693H340.732V172.693ZM333.451 172.693C333.451 172.517 333.495 171.771 333.232 171.771C333.1 171.771 332.968 171.859 332.793 171.859C332.355 171.859 332.179 171.508 332.179 171.113C332.179 170.631 332.399 170.192 332.837 170.192C333.232 170.236 333.495 170.324 333.758 170.324C334.065 170.324 334.329 170.236 334.636 170.192C335.03 170.192 335.074 170.455 335.074 170.762V171.771C335.294 170.675 336.083 170.06 337.223 170.06C338.145 170.06 338.978 170.762 338.978 171.727C338.978 172.385 338.539 173.043 337.837 173.043C337.311 173.043 336.916 172.693 336.916 172.166C336.916 171.991 336.96 171.815 337.048 171.639C335.557 171.552 335.512 173.57 335.512 174.622C335.512 174.798 335.468 175.543 335.776 175.543C335.907 175.543 336.039 175.455 336.214 175.455C336.653 175.455 336.784 175.806 336.784 176.202C336.784 176.728 336.565 177.122 336.126 177.122C335.425 177.122 334.898 176.991 334.328 176.991C333.845 176.991 333.319 177.122 332.836 177.122C332.397 177.122 332.178 176.728 332.178 176.202C332.178 175.806 332.354 175.455 332.792 175.455C332.967 175.455 333.099 175.543 333.231 175.543C333.494 175.543 333.45 174.798 333.45 174.622V172.693H333.451V172.693ZM328.318 174.096C327.923 174.49 326.388 174.316 326.388 175.018C326.388 175.456 326.783 175.631 327.134 175.631C327.923 175.631 328.318 175.149 328.318 174.359V174.096V174.096ZM326.959 171.859C326.959 172.473 326.389 172.736 325.819 172.736C325.205 172.736 324.635 172.254 324.635 171.596C324.635 170.236 326.477 170.017 327.486 170.017C328.187 170.017 329.065 170.061 329.635 170.412C330.425 170.851 330.512 171.64 330.512 172.43V174.93C330.512 175.105 330.469 175.544 330.732 175.544H331.039C331.477 175.544 331.697 175.895 331.697 176.29C331.697 177.035 330.951 177.299 330.337 177.299C329.724 177.299 329.066 177.08 328.846 176.466C328.188 177.035 327.399 177.299 326.565 177.299C325.381 177.299 324.197 176.641 324.197 175.325C324.197 172.167 328.32 173.79 328.32 172.035C328.32 171.552 327.837 171.289 327.399 171.289C327.179 171.289 326.96 171.333 326.96 171.596V171.859H326.959ZM322.616 167.78C323.143 167.78 323.45 168.131 323.45 168.613C323.45 169.052 323.362 169.49 323.362 169.973C323.362 170.324 323.45 170.675 323.45 171.026C323.45 171.639 322.88 171.947 322.353 171.947C321.652 171.947 321.3 171.596 321.344 170.894C321.344 170.499 321.388 170.324 321.125 170.017C320.818 169.71 320.379 169.623 319.984 169.623C318.318 169.623 318.142 171.246 318.142 172.562C318.142 173.922 318.318 175.413 320.029 175.413C320.423 175.413 320.818 175.369 321.081 175.105C321.388 174.798 321.388 174.536 321.388 174.14C321.388 173.833 321.388 173.571 321.564 173.307C321.739 173.044 322.046 172.956 322.397 172.956C323.231 172.956 323.626 173.571 323.626 174.359C323.626 176.377 321.739 177.299 319.941 177.299C318.756 177.299 317.572 176.948 316.739 176.027C315.949 175.193 315.598 173.746 315.598 172.562C315.598 171.509 315.818 170.193 316.388 169.272C317.09 168.262 318.274 167.693 319.502 167.693C320.423 167.693 321.169 168 321.783 168.658C321.739 168.131 322.09 167.78 322.616 167.78Z" fill="black"/>
</g>
<path fill-rule="evenodd" clip-rule="evenodd" d="M361.788 171.684C360.691 171.684 360.428 172.78 360.428 173.658C360.428 174.447 360.691 175.632 361.656 175.632C362.139 175.632 362.533 175.5 362.753 175.061C362.972 174.623 363.06 174.097 363.06 173.658C363.059 172.78 362.84 171.684 361.788 171.684ZM365.209 173.57C365.209 175.763 364.113 177.299 361.788 177.299C359.507 177.299 358.279 175.895 358.279 173.657C358.279 171.376 359.507 170.016 361.788 170.016C363.937 170.017 365.209 171.421 365.209 173.57Z" fill="black"/>
<mask id="mask4_990_357" style="mask-type:alpha" maskUnits="userSpaceOnUse" x="364" y="165" width="51" height="17">
<path d="M364.901 165.324H414.424V181.686H364.901V165.324Z" fill="#385871"/>
</mask>
<g mask="url(#mask4_990_357)">
<path fill-rule="evenodd" clip-rule="evenodd" d="M414.424 173.526C414.424 173.658 414.293 173.789 414.293 173.789L407.056 180.983C406.792 181.291 406.617 181.115 406.705 180.895C406.88 180.544 407.143 180.15 407.406 179.273C407.801 178 407.801 176.948 407.625 176.334C407.494 175.764 406.792 174.579 405.258 174.579C403.283 174.579 402.714 176.377 402.757 177.035C402.8 177.474 402.757 178.131 403.459 178.747C403.985 179.185 404.468 179.053 404.599 179.01C404.73 179.01 404.994 178.834 404.994 179.273C404.994 179.756 404.556 180.37 404.292 180.676C403.984 180.94 403.02 181.686 401.617 181.686C400.783 181.686 399.774 181.335 399.073 180.501C398.546 179.888 398.195 179.186 397.888 178.177C397.274 176.335 397.186 174.974 397.186 173.527C397.186 172.212 397.318 170.764 397.888 168.921C398.151 167.956 398.633 167.079 399.073 166.508C399.73 165.675 400.784 165.324 401.617 165.324C403.02 165.324 403.984 166.07 404.292 166.377C404.556 166.64 404.994 167.254 404.994 167.78C404.994 168.175 404.73 168 404.599 168C404.467 167.956 403.985 167.824 403.459 168.263C402.757 168.877 402.8 169.579 402.757 169.974C402.714 170.675 403.283 172.43 405.258 172.43C406.792 172.43 407.494 171.29 407.625 170.675C407.801 170.061 407.801 169.008 407.406 167.78C407.143 166.859 406.88 166.508 406.705 166.114C406.617 165.938 406.792 165.719 407.056 166.026L414.293 173.22C414.293 173.219 414.424 173.351 414.424 173.526ZM375.561 172.692C375.561 172.517 375.605 171.771 375.297 171.771C375.166 171.771 375.034 171.859 374.859 171.859C374.42 171.859 374.289 171.508 374.289 171.113C374.289 170.631 374.509 170.192 374.947 170.192C375.341 170.236 375.606 170.324 375.868 170.324C376.175 170.324 376.439 170.236 376.745 170.192C377.14 170.192 377.14 170.455 377.14 170.762V171.771C377.403 170.675 378.193 170.06 379.333 170.06C380.254 170.06 381.045 170.762 381.045 171.727C381.045 172.385 380.649 173.043 379.904 173.043C379.421 173.043 378.983 172.693 378.983 172.166C378.983 171.99 379.071 171.815 379.158 171.639C377.668 171.552 377.622 173.569 377.622 174.621C377.622 174.798 377.579 175.543 377.886 175.543C378.019 175.543 378.15 175.455 378.325 175.455C378.763 175.455 378.895 175.806 378.895 176.202C378.895 176.728 378.676 177.122 378.236 177.122C377.491 177.122 376.965 176.99 376.439 176.99C375.956 176.99 375.429 177.122 374.947 177.122C374.509 177.122 374.289 176.728 374.289 176.202C374.289 175.806 374.421 175.455 374.859 175.455C375.035 175.455 375.166 175.543 375.297 175.543C375.605 175.543 375.561 174.798 375.561 174.621V172.693V172.692ZM366.174 172.692C366.174 172.517 366.217 171.771 365.91 171.771C365.778 171.771 365.647 171.859 365.472 171.859C365.033 171.859 364.901 171.508 364.901 171.113C364.901 170.631 365.121 170.192 366.129 170.192C366.393 170.236 366.657 170.324 366.963 170.324C367.271 170.324 367.577 170.236 367.885 170.192C368.323 170.192 368.236 170.587 368.236 170.938V174.096C368.236 174.359 368.236 174.841 368.411 175.105C368.542 175.324 368.849 175.5 369.156 175.5C369.551 175.5 369.903 175.324 370.121 174.973C370.385 174.535 370.429 174.096 370.429 173.613V172.693C370.429 172.517 370.472 171.771 370.165 171.771C370.034 171.771 369.902 171.859 369.726 171.859C369.288 171.859 369.156 171.508 369.156 171.113C369.156 170.631 369.375 170.192 370.297 170.192C370.56 170.236 370.823 170.324 371.131 170.324C371.437 170.324 371.744 170.236 372.051 170.192C372.534 170.192 372.49 170.499 372.49 170.85V174.622C372.49 174.798 372.445 175.544 372.709 175.544C372.841 175.544 372.972 175.456 373.147 175.456C373.586 175.456 373.761 175.807 373.761 176.202C373.761 176.728 373.498 177.123 372.972 177.123C372.621 177.123 372.314 176.991 372.008 176.991C371.744 176.991 371.437 177.123 371.174 177.123C370.691 177.123 370.691 176.684 370.691 176.421V176.157C370.209 176.903 369.244 177.298 368.367 177.298C367.665 177.298 366.875 177.034 366.48 176.464C366.129 175.894 366.173 175.104 366.173 174.446V172.693H366.174V172.692Z" fill="black"/>
</g>
<path fill-rule="evenodd" clip-rule="evenodd" d="M387.843 173.438C387.843 173.614 388.018 173.746 388.018 173.746L395.695 181.115C395.914 181.291 395.958 181.115 395.914 180.983C395.87 180.896 395.826 180.852 395.606 180.501C393.501 177.474 393.545 173.438 393.545 173.438C393.545 173.438 393.501 169.403 395.606 166.421C395.826 166.069 395.87 166.026 395.914 165.894C395.957 165.762 395.914 165.587 395.695 165.762L388.018 173.131C388.018 173.131 387.843 173.263 387.843 173.438Z" fill="black"/>
</g>
<g clip-path="url(#clip4_990_357)">
<mask id="mask5_990_357" style="mask-type:alpha" maskUnits="userSpaceOnUse" x="338" y="37" width="54" height="43">
<path d="M338.782 37.3931H391.132V79.2734H338.782V37.3931Z" fill="#385871"/>
</mask>
<g mask="url(#mask5_990_357)">
<path fill-rule="evenodd" clip-rule="evenodd" d="M389.33 77.6792H389.613C389.851 77.6792 390.07 77.6673 390.07 77.3903C390.07 77.1579 389.871 77.1215 389.688 77.1215H389.331L389.33 77.6792ZM389.059 76.9029H389.733C390.145 76.9029 390.34 77.0671 390.34 77.402C390.34 77.7179 390.143 77.8499 389.884 77.8774L390.381 78.6503H390.089L389.616 77.8984H389.33V78.6503H389.059L389.059 76.9029ZM389.641 79.0548C390.328 79.0548 390.862 78.5025 390.862 77.7717C390.862 77.0537 390.328 76.502 389.641 76.502C388.945 76.502 388.411 77.0537 388.411 77.7717C388.411 78.5023 388.945 79.0548 389.641 79.0548ZM389.641 76.2831C390.452 76.2831 391.132 76.9257 391.132 77.7712C391.132 78.6301 390.452 79.2731 389.641 79.2731C388.826 79.2731 388.14 78.6297 388.14 77.7712C388.14 76.9257 388.826 76.2831 389.641 76.2831ZM373.184 40.385C377.314 40.385 380.662 57.7958 380.662 79.2734H386.646C386.646 56.1431 380.618 37.3931 373.185 37.3931C368.955 37.3931 365.182 43.0282 362.714 51.84C360.248 43.0282 356.473 37.3931 352.244 37.3931C344.81 37.3931 338.782 56.1432 338.782 79.2734H344.766C344.766 57.7958 348.115 40.385 352.244 40.385C356.374 40.385 359.723 56.4566 359.723 76.2831H365.705C365.706 56.4566 369.054 40.385 373.184 40.385Z" fill="black"/>
</g>
</g>
<g clip-path="url(#clip5_990_357)">
<mask id="mask6_990_357" style="mask-type:alpha" maskUnits="userSpaceOnUse" x="753" y="50" width="99" height="16">
<path d="M753.846 50.8545H851.157V65.7994H753.846V50.8545Z" fill="#385871"/>
</mask>
<g mask="url(#mask6_990_357)">
<path fill-rule="evenodd" clip-rule="evenodd" d="M790.215 52.4646C789.804 52.5511 789.112 52.67 788.679 52.7458C788.257 52.8215 787.868 52.908 787.825 52.9512C787.781 53.0053 787.533 53.0378 787.262 53.0378C786.754 53.0378 786.213 53.2432 785.846 53.5893C785.673 53.7515 785.619 53.9354 785.619 54.3139C785.619 54.8763 785.445 55.4387 785.164 55.8496C785.056 55.9903 784.97 56.1741 784.97 56.239C784.97 56.3039 784.894 56.5094 784.807 56.6716C784.721 56.8446 784.645 57.1042 784.645 57.2448C784.645 57.3962 784.602 57.6557 784.537 57.8396C784.418 58.2289 784.126 59.8945 784.061 60.5974C784.007 61.1166 784.202 61.7005 784.537 62.0683C784.645 62.1872 784.818 62.4576 784.905 62.6631C784.991 62.8686 785.164 63.1281 785.283 63.2255C785.91 63.7554 788.484 64.015 789.512 63.6689C790.139 63.4526 790.485 63.0092 790.485 62.4252C790.485 62.0899 790.031 60.9976 789.847 60.8894C789.782 60.8462 789.577 60.8894 789.382 60.976C788.701 61.2896 788.019 61.3761 787.165 61.2571C786.722 61.2031 786.267 61.0949 786.148 61.03C785.867 60.8894 785.694 60.4352 785.824 60.1973C786.051 59.7647 786.321 59.6457 787.241 59.57C787.749 59.5268 788.214 59.451 788.279 59.4078C788.344 59.3537 788.755 59.278 789.198 59.2456C789.642 59.2131 790.042 59.1374 790.107 59.0833C790.161 59.0293 790.323 58.986 790.485 58.986C790.972 58.9752 791.642 58.6075 791.718 58.2938C791.805 57.9369 791.545 57.0393 791.242 56.6067C790.961 56.2174 790.41 56.1633 790.118 56.4877C789.912 56.704 789.685 56.7689 788.409 56.9528C787.219 57.115 786.992 56.8771 787.468 55.9686C787.911 55.1142 788.549 54.8222 790.215 54.7033C790.81 54.66 791.437 54.5627 791.61 54.4762C791.826 54.368 792.064 54.3355 792.399 54.3896C792.983 54.4762 793.189 54.3355 793.189 53.8597C793.189 53.4163 792.746 52.5835 792.421 52.4213C792.086 52.2483 791.177 52.2591 790.215 52.4646ZM826.294 55.3846C826.445 55.7631 826.348 57.3097 826.175 57.526C826.099 57.6125 825.948 57.6882 825.839 57.6882C825.72 57.6882 825.537 57.7423 825.428 57.818C825.266 57.9153 825.158 57.9153 824.942 57.818C824.574 57.6557 824.574 57.3097 824.931 56.6067C825.082 56.3147 825.201 55.9686 825.201 55.8496C825.201 55.5793 825.699 55.0926 825.98 55.0926C826.099 55.0926 826.229 55.2115 826.294 55.3846H826.294ZM825.45 52.5187C825.169 52.7566 824.78 53.1568 824.596 53.4163C824.098 54.0543 823.038 55.828 823.038 56.0011C823.038 56.0876 822.973 56.2066 822.887 56.2714C822.8 56.3472 822.703 56.5094 822.671 56.65C822.552 57.115 822.043 57.9153 821.676 58.2073C821.351 58.4669 821.308 58.5642 821.308 58.986C821.308 59.2564 821.243 59.57 821.167 59.689C821.092 59.8079 820.951 60.0783 820.875 60.2838C820.789 60.4893 820.572 60.8786 820.389 61.149C819.794 62.0358 819.632 62.9226 819.967 63.3985C820.053 63.5283 820.324 63.7338 820.551 63.8419L820.973 64.0366L821.297 63.7013C821.481 63.5066 821.632 63.3228 821.632 63.2687C821.632 63.2255 821.73 62.9659 821.859 62.6847C822.454 61.3112 822.714 61.0517 823.795 60.7813C824.52 60.5974 825.558 60.5326 825.948 60.6623C826.294 60.7705 826.391 61.1382 826.391 62.4035C826.391 63.3877 826.413 63.5499 826.607 63.7446C827.094 64.2313 827.808 64.3178 828.067 63.9176C828.229 63.6689 828.262 62.9984 828.197 61.4734C828.165 60.6407 828.229 60.3919 828.5 60.2838C828.868 60.1432 829.008 60.2189 829.354 60.7705C829.689 61.3004 830.825 62.3494 831.582 62.8361C833.313 63.9393 834.426 64.2529 836.406 64.188C836.752 64.1772 837.152 63.7662 837.584 62.9659C838.082 62.0358 838.244 62.025 839.023 62.8145C839.78 63.604 840.342 63.8635 841.51 63.9609C842.029 64.0042 842.505 64.0042 842.559 63.9609C842.624 63.9176 842.97 63.8527 843.338 63.8203C844.246 63.7446 844.917 63.4742 845.133 63.0957C845.252 62.901 845.317 62.5549 845.317 62.1548C845.317 61.3977 845.101 61.1706 844.528 61.3545C844.333 61.4085 843.749 61.4843 843.23 61.5275C842.7 61.56 842.17 61.6465 842.04 61.7005C841.856 61.7763 841.64 61.7438 841.153 61.5491C840.569 61.322 840.504 61.268 840.472 60.9543C840.418 60.4568 840.71 60.3811 842.43 60.4352C844.041 60.4893 844.549 60.565 844.636 60.7921C844.679 60.9111 844.722 60.9003 844.841 60.738C844.917 60.6191 845.155 60.446 845.371 60.3487C845.728 60.1756 846.399 59.4186 846.399 59.1807C846.399 58.9536 845.836 57.872 845.588 57.6233C845.317 57.3638 844.906 57.2772 844.712 57.4611C844.614 57.5693 843.544 57.6233 842.321 57.6017C841.207 57.5693 841.024 57.0717 841.802 56.1308C842.3 55.5252 842.354 55.5144 845.642 55.1467C846.831 55.0169 849.557 54.9087 849.968 54.9736C850.617 55.071 851.146 54.8331 851.157 54.4437C851.157 54.2599 851.071 54.1301 850.919 54.0652C850.757 53.9895 850.649 53.8164 850.595 53.5461C850.487 53.0269 850.227 52.6376 849.87 52.4538C849.632 52.324 849.481 52.3348 848.832 52.5078C848.421 52.616 847.783 52.7349 847.426 52.7674C847.069 52.8107 846.745 52.8647 846.701 52.8864C846.658 52.9188 846.269 52.962 845.836 52.9945C845.404 53.0269 844.571 53.1459 843.998 53.2649C843.425 53.373 842.776 53.4704 842.559 53.4704C842.343 53.4704 842.083 53.5136 841.986 53.5677C841.889 53.6218 841.51 53.6975 841.153 53.7299C840.678 53.784 840.44 53.8705 840.245 54.0652C839.931 54.3788 839.693 55.0061 839.693 55.5468C839.693 55.7848 839.531 56.2931 839.326 56.7473C839.12 57.1799 838.915 57.6774 838.882 57.8612C838.839 58.0343 838.774 58.2722 838.72 58.3912C838.536 58.8129 838.374 59.4835 838.32 60.0675C838.244 60.9327 838.028 61.1058 837.401 60.7813C837.119 60.6299 837.065 60.6407 836.568 60.976C836.168 61.2463 835.876 61.3545 835.335 61.4085C834.708 61.4734 834.524 61.441 833.734 61.149C833.237 60.976 832.815 60.7813 832.783 60.738C832.75 60.6947 832.523 60.5326 832.285 60.3919C832.047 60.2513 831.831 60.0999 831.798 60.0675C831.766 60.035 831.539 59.8512 831.29 59.6457C830.944 59.3861 830.825 59.2131 830.825 58.986C830.825 58.6183 831.074 57.991 831.301 57.7964C831.398 57.7206 831.474 57.6017 831.474 57.526C831.474 57.3962 833.107 55.6334 833.226 55.6334C833.269 55.6334 833.615 55.4819 834.015 55.2981C834.924 54.8763 835.259 54.952 835.389 55.5793C835.443 55.828 835.432 56.1308 835.367 56.3255C835.313 56.4985 835.259 56.7473 835.259 56.8771C835.259 57.1799 835.67 57.5584 836.103 57.6449C836.297 57.6882 836.481 57.7639 836.514 57.8072C836.611 57.9802 836.838 57.9153 837.163 57.6017C837.649 57.1583 837.898 56.4877 837.898 55.6442C837.887 55.0277 837.833 54.8438 837.52 54.3355C837.325 54.0111 837.055 53.6542 836.936 53.5569C836.622 53.2865 835.951 53.1135 835.713 53.2432C835.605 53.2973 835.302 53.373 835.032 53.4055C834.005 53.5245 832.577 53.9787 831.885 54.4113C831.658 54.5519 831.442 54.66 831.387 54.66C831.095 54.66 829.527 56.1849 829.527 56.4769C829.527 56.5851 829.387 56.8122 829.214 56.9744C828.868 57.2989 828.597 57.2989 828.489 56.9636C828.457 56.8555 828.381 56.6824 828.327 56.5851C828.273 56.4769 828.229 56.1957 828.229 55.9578C828.229 55.7199 828.165 55.3413 828.078 55.1251C827.992 54.898 827.894 54.5086 827.862 54.249C827.754 53.492 826.921 52.3889 826.315 52.1942C825.98 52.086 825.926 52.1077 825.45 52.5187H825.45ZM781.725 52.1834C781.455 52.2266 780.968 52.3131 780.633 52.3673C780.298 52.4321 779.919 52.5294 779.778 52.6052C779.649 52.67 779.194 52.7674 778.762 52.8215C777.983 52.8971 776.631 53.3298 776.145 53.6542C775.907 53.8056 775.885 53.8921 775.885 54.6059C775.885 55.1034 775.939 55.4603 776.026 55.5468C776.307 55.8496 776.534 56.2823 776.534 56.5526C776.534 56.704 776.404 57.0826 776.253 57.3962C775.755 58.4128 775.647 58.867 775.636 60.0026C775.625 61.3977 775.831 62.0358 776.48 62.6523C776.988 63.1281 777.291 63.2796 778.394 63.6364C779.822 64.0798 780.763 64.0042 781.217 63.4093C781.498 63.02 781.52 61.9385 781.238 61.5059C780.838 60.8894 780.795 60.8786 780.211 61.149C779.713 61.3869 779.627 61.3869 778.913 61.268C778.491 61.2031 778.026 61.0624 777.875 60.976C777.551 60.7596 777.442 60.3595 777.605 60.0026C777.724 59.7322 778.394 59.3645 778.621 59.451C778.697 59.4727 778.838 59.451 778.935 59.4078C779.043 59.3537 779.692 59.2564 780.395 59.2023C782.439 59.0293 782.698 58.986 782.807 58.7805C782.915 58.5534 782.796 57.9261 782.493 57.2231C782.32 56.8338 782.212 56.7257 781.941 56.6608C781.725 56.6175 781.53 56.6391 781.357 56.7473C781.206 56.8555 780.676 56.942 779.919 56.9852L778.719 57.061L778.524 56.7689C778.351 56.4985 778.351 56.4336 778.491 56.0227C778.621 55.6442 778.708 55.5576 779.13 55.4062C779.4 55.3089 779.692 55.2115 779.778 55.1683C780.049 55.0602 780.99 54.8655 781.725 54.7573C782.396 54.6708 783.185 54.5086 783.78 54.3355C784.137 54.2382 784.18 53.8381 783.899 53.2108C783.769 52.9404 783.672 52.6809 783.672 52.616C783.672 52.5619 783.542 52.4105 783.391 52.2915C783.088 52.0536 782.623 52.0211 781.725 52.1834ZM809.768 54.368C809.985 54.4653 810.201 54.6276 810.244 54.7249C810.331 54.9736 809.974 55.6117 809.693 55.6983C809.563 55.7415 809.282 55.8929 809.065 56.0227C808.438 56.4229 807.465 56.3688 807.465 55.947C807.465 55.828 807.4 55.5793 807.313 55.3846C807.227 55.1575 807.194 54.8655 807.238 54.5951C807.303 54.2166 807.346 54.1733 807.681 54.1192C808.222 54.0436 809.293 54.1733 809.768 54.368H809.768ZM820.302 51.8589C819.978 52.0428 816.452 52.9404 815.684 53.0269C815.295 53.0702 814.905 53.1459 814.808 53.1892C814.613 53.2757 814.073 54.3139 813.856 54.9953C813.629 55.6874 813.121 56.3904 812.829 56.3904C812.407 56.3904 812.277 56.1308 812.44 55.6334C812.613 55.1251 812.483 54.5086 811.996 53.5136C811.715 52.9296 811.607 52.8215 811.163 52.6268C810.266 52.2375 808.708 52.0752 806.437 52.1185C804.891 52.1509 804.253 52.205 803.874 52.3348C803.582 52.4321 803.333 52.5619 803.29 52.616C803.258 52.67 803.117 52.7133 802.977 52.7133C802.804 52.7133 802.609 52.8431 802.414 53.0918C802.014 53.6001 801.668 53.6001 801.462 53.0918C801.257 52.6268 800.781 52.1726 800.478 52.1726C800.067 52.1726 799.959 52.4538 799.938 53.6001C799.927 54.195 799.862 54.7357 799.786 54.8114C799.721 54.898 799.678 55.2008 799.7 55.4819C799.732 56.239 799.57 57.9369 799.44 58.0884C799.375 58.1641 799.235 58.2289 799.126 58.2289C798.921 58.2289 798.38 57.7206 798.38 57.526C798.38 57.4611 798.207 57.2448 798.002 57.0393C797.796 56.8338 797.623 56.6175 797.623 56.5418C797.623 56.4769 797.558 56.3904 797.472 56.358C797.396 56.3255 797.18 55.9903 796.996 55.6117C796.704 55.0169 796.65 54.779 796.607 53.7624C796.542 52.497 796.433 52.2158 795.979 52.1185C795.817 52.0752 795.655 51.9996 795.622 51.9455C795.536 51.8157 794.919 51.8157 794.919 51.9455C794.919 51.9996 794.822 52.0752 794.714 52.1185C794.411 52.205 794.271 52.7566 794.281 53.6866C794.292 55.1142 794.292 56.3796 794.271 56.6283C794.195 57.4935 794.022 58.6291 793.946 58.7697C793.892 58.867 793.827 59.1374 793.795 59.3754C793.773 59.6024 793.686 60.035 793.622 60.3379C793.557 60.6299 793.47 61.3653 793.449 61.9709C793.394 63.2904 793.481 63.4202 794.433 63.4742L795.049 63.5175L795.244 63.0633C795.374 62.7604 795.438 62.317 795.449 61.7438C795.46 61.268 795.536 60.6407 795.622 60.3487C795.709 60.0567 795.785 59.6565 795.785 59.4727C795.785 59.278 795.893 58.9968 796.012 58.8346C796.196 58.5967 796.304 58.5534 796.531 58.6075C796.899 58.694 796.996 58.8021 797.407 59.5808C797.601 59.9377 797.785 60.2513 797.829 60.2838C797.948 60.3703 798.564 61.4194 798.802 61.9385C798.932 62.2089 799.029 62.609 799.029 62.8253C799.029 63.2904 799.375 64.015 799.646 64.1231C800.846 64.6206 801.354 64.0907 801.311 62.3927C801.257 60.5001 801.268 60.0999 801.408 57.991C801.527 56.2714 801.527 55.8064 801.419 55.6009C801.322 55.4279 801.311 55.2332 801.376 54.9736C801.495 54.5194 801.808 54.4437 802.338 54.7573C802.825 55.0494 802.901 55.0385 803.496 54.7141C804.09 54.3788 804.923 54.2707 805.302 54.4653C805.54 54.5951 805.572 54.6817 805.594 55.3305C805.615 56.2823 805.399 56.65 804.685 56.8446C804.209 56.9852 804.166 57.0177 804.08 57.4178C804.036 57.6557 803.971 57.9802 803.939 58.1316C803.863 58.4993 804.112 58.986 804.566 59.3537C804.761 59.5051 804.988 59.689 805.064 59.7539C805.183 59.8512 805.194 60.2622 805.15 61.7438C805.096 63.431 805.107 63.6364 805.28 63.8527C805.496 64.1231 806.329 64.3178 806.61 64.1664C806.816 64.0582 806.924 63.5066 806.967 62.3927C807.021 60.7596 807.367 59.1158 807.67 59.0184C807.768 58.9968 807.995 58.9103 808.168 58.8238C808.352 58.748 808.611 58.6399 808.763 58.6075C809.011 58.5318 810.266 57.9802 810.558 57.818C810.623 57.7747 811.012 57.4827 811.412 57.1691C812.169 56.5851 812.537 56.4661 812.559 56.7906C812.58 57.1475 812.526 57.526 812.44 57.6342C812.396 57.6882 812.245 58.11 812.115 58.5534C811.985 58.9968 811.802 59.5484 811.704 59.7647C811.477 60.3379 811.574 62.0142 811.888 62.6198C812.483 63.8203 813.683 64.3935 815.587 64.3935C816.171 64.3935 816.668 64.3502 816.701 64.2961C816.733 64.2421 816.885 64.1664 817.047 64.1339C817.588 63.9933 818.053 63.5932 818.204 63.1389C818.442 62.4143 818.009 61.149 817.512 61.149C817.404 61.149 817.285 61.1922 817.252 61.2571C817.22 61.3112 816.982 61.4086 816.733 61.4843C816.484 61.5491 816.203 61.6681 816.117 61.7438C815.9 61.9168 815.035 62.0466 814.57 61.9601C814.376 61.9168 814.029 61.7222 813.813 61.5275C813.391 61.1382 813.305 60.7921 813.554 60.4677C813.694 60.2622 814.743 59.9594 815.284 59.9594C815.738 59.9594 817.912 59.6565 818.907 59.451C819.621 59.2997 819.696 59.2564 819.859 58.9211C820.021 58.575 820.021 58.4993 819.859 57.9694C819.632 57.2664 819.404 56.9312 819.156 56.9312C819.048 56.9312 818.669 57.0717 818.323 57.2556C817.89 57.4719 817.523 57.5801 817.177 57.5801C816.895 57.5801 816.43 57.6342 816.149 57.6882C815.576 57.8072 815.057 57.7098 814.895 57.4611C814.732 57.2015 814.873 56.823 815.371 56.2282C815.836 55.6658 815.911 55.6334 817.155 55.4279C817.458 55.3738 817.826 55.2764 817.955 55.2008C818.204 55.071 818.572 54.9953 820.335 54.7573C820.778 54.6924 821.319 54.5627 821.524 54.4545C821.881 54.2707 821.903 54.2274 821.892 53.7299C821.87 52.908 821.654 52.205 821.34 51.9563C821.038 51.7184 820.605 51.6859 820.302 51.8589H820.302ZM771.332 54.1409C771.851 54.7033 771.732 55.3197 770.921 56.2282C770.521 56.6824 770.186 56.8446 769.839 56.7473C769.558 56.6716 769.493 56.4769 769.623 56.0443C769.677 55.8496 769.753 55.2981 769.785 54.8331C769.839 53.8813 769.861 53.8164 770.186 53.6975C770.532 53.5677 770.964 53.7299 771.332 54.1409ZM768.206 51.8048C767.417 52.4754 767.298 53.2757 767.839 54.1301C768.109 54.5519 768.185 55.1359 767.99 55.2549C767.936 55.2873 767.882 55.4279 767.882 55.5576C767.882 55.6874 767.774 56.0443 767.655 56.3472C767.482 56.7689 767.32 56.9636 766.93 57.1907L766.444 57.4827L766.508 58.1749C766.552 58.5642 766.649 59.0293 766.746 59.2131C766.887 59.4835 766.909 59.7322 766.855 60.4352C766.811 60.9111 766.768 61.5383 766.757 61.8087C766.736 62.0899 766.692 62.3603 766.649 62.4252C766.617 62.49 766.627 62.5658 766.692 62.609C766.746 62.6415 766.8 62.7712 766.8 62.901C766.8 63.2038 767.471 63.8527 767.795 63.8527C767.936 63.8527 768.163 63.777 768.293 63.6797C768.498 63.5391 768.531 63.4202 768.531 62.7929C768.531 62.3927 768.477 61.8844 768.423 61.6681C768.26 61.1058 768.498 60.3271 768.888 60.0891C769.169 59.9161 769.191 59.9269 769.526 60.2405C769.72 60.4136 770.196 60.8029 770.586 61.0949C770.975 61.3977 771.57 61.9385 771.927 62.317C772.284 62.6847 772.738 63.0957 772.943 63.2255L773.322 63.4526L773.765 63.2147C774.284 62.9335 774.695 62.3494 774.695 61.8844C774.695 61.5708 774.403 60.9327 774.252 60.9327C774.209 60.9327 774.101 60.8678 774.025 60.7921C773.949 60.7164 773.614 60.4568 773.289 60.2405C772.965 60.0134 772.565 59.6998 772.403 59.5484C772.013 59.1807 771.992 58.6832 772.37 58.3371C772.727 58.0018 773.019 57.4286 773.246 56.5959C773.343 56.2174 773.473 55.8605 773.517 55.7956C773.646 55.655 773.636 55.2332 773.506 55.1467C773.452 55.1142 773.398 54.9736 773.398 54.8331C773.398 54.1192 772.532 52.5294 771.905 52.0752C771.483 51.7832 770.304 51.5237 769.342 51.5237C768.639 51.5237 768.509 51.5561 768.206 51.8048ZM760.744 51.0911C760.744 51.2317 760.647 51.329 760.452 51.3722C759.955 51.4912 759.533 51.7399 758.797 52.3673C758.408 52.6917 757.9 53.1027 757.673 53.2973C756.418 54.3031 756.202 54.5194 755.174 55.8389C754.309 56.942 754.255 57.0393 754.19 57.6125C754.158 57.8612 754.06 58.1208 753.974 58.1965C753.779 58.3371 753.801 58.8129 754.082 60.5001C754.233 61.3545 754.309 61.5708 754.558 61.7979C755.034 62.2521 755.52 62.5549 755.737 62.5549C755.845 62.5549 755.985 62.5982 756.05 62.6523C756.256 62.847 757.737 63.0957 758.722 63.0957C759.414 63.0957 760.019 63.02 760.593 62.8686C761.912 62.5225 761.923 62.5225 762.096 62.6631C762.226 62.7712 762.258 63.0524 762.247 64.0042C762.247 64.6638 762.269 65.2803 762.312 65.3777C762.41 65.6264 762.842 65.7995 763.394 65.7995C763.816 65.7995 763.891 65.7561 764.097 65.4101C764.291 65.1073 764.324 64.9234 764.281 64.5233C764.226 63.9825 764.324 62.7821 764.529 61.5275C764.648 60.857 764.81 60.3487 765.081 59.8512C765.449 59.1915 765.524 58.9644 765.459 58.6832C765.416 58.521 765.351 58.2182 765.297 58.0126C765.254 57.8072 765.135 57.4827 765.038 57.288C764.8 56.8338 764.356 56.7473 763.015 56.9095C762.453 56.9852 761.836 57.0393 761.663 57.0393C761.479 57.0393 761.285 57.0826 761.231 57.1366C761.166 57.1907 760.755 57.288 760.311 57.3529C759.868 57.4286 759.219 57.526 758.873 57.5693C757.965 57.7098 757.824 57.872 757.824 58.8238C757.824 59.4619 757.856 59.6349 758.04 59.7971C758.246 59.981 758.321 59.9918 759.1 59.862C759.554 59.7755 760.225 59.6782 760.582 59.6349C760.939 59.5808 761.382 59.4943 761.577 59.4186C761.761 59.3537 762.053 59.3105 762.226 59.3321C762.496 59.3645 762.529 59.4186 762.561 59.7863C762.615 60.4568 762.085 60.9111 760.722 61.322C760.084 61.5167 758.376 61.5059 757.77 61.3004C757.532 61.2139 757.229 61.149 757.089 61.149C756.959 61.149 756.764 61.1058 756.656 61.0409C756.559 60.9868 756.267 60.8894 756.029 60.8245C755.412 60.6731 755.185 60.3054 755.174 59.4727C755.174 58.8778 755.38 58.2182 755.683 57.8612C755.726 57.7964 756.029 57.3962 756.342 56.9636C756.959 56.1092 757.694 55.3197 758.592 54.5194C759.371 53.8272 759.338 53.8597 759.987 53.5028C760.301 53.3406 760.658 53.1351 760.787 53.0702C761.306 52.7674 761.782 53.0378 762.215 53.8705C762.464 54.368 762.55 54.4437 762.918 54.4437C763.329 54.4437 763.599 54.0976 763.513 53.665C763.48 53.4704 763.415 53.1134 763.383 52.8755C763.286 52.2591 762.691 51.5561 762.128 51.4155C761.847 51.3398 761.674 51.2208 761.642 51.0803C761.555 50.7775 760.744 50.7775 760.744 51.0911Z" fill="black"/>
</g>
</g>
<g clip-path="url(#clip6_990_357)">
<mask id="mask7_990_357" style="mask-type:alpha" maskUnits="userSpaceOnUse" x="504" y="49" width="14" height="8">
<path d="M504.218 49.3845H517.119V56.5659H504.218V49.3845Z" fill="#385871"/>
</mask>
<g mask="url(#mask7_990_357)">
<path fill-rule="evenodd" clip-rule="evenodd" d="M514.479 55.6716C511.357 54.0299 508.057 53.92 504.706 55.6125C504.655 55.638 504.613 55.6633 504.571 55.6802C504.249 55.9342 504.148 56.1626 504.266 56.374C504.334 56.5686 504.503 56.5941 504.706 56.543C504.782 56.5261 504.867 56.5009 504.951 56.467C508.15 54.7576 511.416 54.6394 514.412 56.5009C514.437 56.5092 514.454 56.5178 514.479 56.5261C514.623 56.5855 514.767 56.5682 514.961 56.4245C515.029 56.1875 514.97 56.0016 514.826 55.8575C514.713 55.7905 514.597 55.7285 514.479 55.6716ZM516.061 50.8569C515.477 50.8569 515.004 51.3392 515.004 51.9145C515.004 52.4987 515.477 52.9722 516.061 52.9722C516.646 52.9722 517.119 52.4987 517.119 51.9145C517.119 51.3392 516.645 50.8569 516.061 50.8569ZM515.021 53.1077C514.825 53.1077 514.64 53.1581 514.479 53.2597C514.166 53.4377 513.962 53.776 513.962 54.1654C513.962 54.5462 514.165 54.8848 514.479 55.071C514.639 55.164 514.825 55.2231 515.021 55.2231C515.604 55.2231 516.078 54.7407 516.078 54.1654C516.078 53.5813 515.605 53.1079 515.021 53.1077ZM506.17 51.9062C506.753 51.9062 507.227 51.4239 507.227 50.8482C507.227 50.2642 506.754 49.7909 506.17 49.7905C505.586 49.7907 505.112 50.2641 505.112 50.8482C505.112 51.4239 505.586 51.9062 506.17 51.9062ZM512.863 51.8555C513.438 51.8555 513.912 51.3814 513.912 50.7978C513.912 50.2138 513.438 49.7397 512.863 49.7397C512.279 49.7397 511.805 50.2134 511.805 50.7976C511.805 51.3818 512.279 51.8555 512.863 51.8555ZM512.347 54.2414C512.931 54.241 513.404 53.7677 513.405 53.1837C513.405 52.5994 512.931 52.1257 512.347 52.1257C511.762 52.1257 511.289 52.5994 511.289 53.1837C511.289 53.7679 511.763 54.2414 512.347 54.2414ZM505.67 53.3108C505.671 53.8951 506.144 54.3687 506.729 54.3689C507.313 54.3689 507.787 53.8952 507.787 53.3108C507.787 52.7265 507.313 52.2528 506.729 52.2528C506.144 52.2528 505.67 52.7265 505.67 53.3108ZM509.52 53.92C510.096 53.92 510.57 53.446 510.57 52.862C510.57 52.2784 510.096 51.8043 509.52 51.8043C508.936 51.8047 508.463 52.278 508.463 52.862C508.463 53.4461 508.936 53.9197 509.52 53.92ZM509.52 51.5002C510.096 51.5002 510.57 51.0262 510.57 50.4422C510.57 49.8583 510.096 49.3845 509.52 49.3845C508.936 49.3949 508.471 49.8769 508.481 50.4611C508.491 51.0308 508.951 51.4901 509.52 51.5002Z" fill="black"/>
</g>
<path fill-rule="evenodd" clip-rule="evenodd" d="M488.637 64.6665C487.452 64.6665 486.496 63.7018 486.496 62.5256C486.496 61.3494 487.452 60.385 488.637 60.385C489.813 60.385 490.778 61.3494 490.778 62.5256C490.778 63.7018 489.813 64.6665 488.637 64.6665ZM488.637 58.5737C486.759 58.5737 485.176 59.8853 484.77 61.6372C484.711 61.9247 484.668 62.2208 484.668 62.5256C484.668 62.8303 484.711 63.1265 484.77 63.4143C485.176 65.1745 486.759 66.4858 488.637 66.4858C490.202 66.4858 491.565 65.5635 492.208 64.2353C492.463 63.7014 492.596 63.1175 492.597 62.5259C492.597 61.9167 492.453 61.3328 492.208 60.8169C491.565 59.4963 490.203 58.5737 488.637 58.5737ZM500.72 63.0926C500.56 63.0926 500.39 63.0926 500.229 63.1009C500.374 62.8408 500.538 62.5919 500.72 62.3563C500.864 62.17 501.025 61.9924 501.194 61.8148C501.194 62.2377 501.211 62.6693 501.211 63.084C501.042 63.084 500.881 63.084 500.72 63.0926ZM502.303 58.4047C501.913 58.3028 501.626 58.4213 501.414 58.7261C501.177 59.0136 500.949 59.31 500.72 59.6058C499.637 60.9938 498.613 62.4323 497.589 63.8708C497.267 64.3359 496.937 64.793 496.607 65.2588C496.506 65.6651 496.607 65.9778 496.912 66.198C497.14 66.342 497.369 66.4008 497.589 66.3756C497.722 66.3564 497.851 66.3133 497.97 66.2484C498.35 65.7574 498.723 65.2588 499.104 64.7678H501.262V65.7833C501.397 66.181 501.684 66.3842 502.133 66.3842C502.581 66.3842 502.852 66.1641 502.945 65.7156V59.0477C502.887 58.6331 502.675 58.4133 502.303 58.4047ZM498.563 59.6652C498.681 59.2084 498.622 58.9037 498.376 58.7599C498.131 58.5481 497.869 58.4804 497.589 58.5567C497.53 58.5823 497.463 58.6075 497.395 58.6414C496.692 59.3947 495.982 60.1393 495.271 60.8922C494.518 60.139 493.79 59.4285 493.029 58.6749C492.758 58.4887 492.436 58.5312 492.208 58.6749C492.14 58.7174 492.081 58.7599 492.038 58.8104C491.776 59.1656 491.742 59.555 491.937 59.8684C492.03 59.9613 492.114 60.0546 492.207 60.1476C492.977 60.9852 493.756 61.8231 494.535 62.6607V65.8168C494.738 66.2315 495.008 66.4343 495.338 66.4008C495.762 66.4008 495.99 66.198 496.134 65.8763V62.593C496.616 62.009 497.107 61.4168 497.589 60.8328C497.919 60.4441 498.241 60.0463 498.563 59.6652ZM504.037 51.9653C504.047 51.381 503.582 50.8991 502.998 50.8888C502.414 50.8786 501.932 51.3439 501.922 51.9281C501.921 51.9406 501.921 51.9531 501.922 51.9656C501.932 52.5498 502.414 53.015 502.998 53.0046C503.568 52.9944 504.027 52.5349 504.037 51.9653ZM505.188 54.2247C505.188 53.8661 505.007 53.5318 504.706 53.3364C504.535 53.2247 504.335 53.1658 504.131 53.167C503.555 53.167 503.072 53.6408 503.072 54.2247C503.072 54.8087 503.555 55.2824 504.131 55.2824C504.342 55.2824 504.537 55.2233 504.706 55.1131C505.006 54.9176 505.188 54.5834 505.188 54.2247ZM514.353 56.7969C511.721 55.0368 508.641 54.8758 505.087 56.6445C504.807 56.8646 504.714 57.0761 504.816 57.2623C504.901 57.5077 505.155 57.4486 505.434 57.347C508.319 55.807 511.272 55.6967 513.98 57.3809C514.132 57.4569 514.276 57.4569 514.471 57.3049C514.471 57.2962 514.471 57.2879 514.479 57.2793C514.504 57.1879 514.504 57.0914 514.479 57.0001C514.453 56.9234 514.41 56.8538 514.353 56.7969Z" fill="black"/>
<mask id="mask8_990_357" style="mask-type:alpha" maskUnits="userSpaceOnUse" x="479" y="58" width="63" height="9">
<path d="M479.38 58.3335H541.49V66.5533H479.38V58.3335Z" fill="#385871"/>
</mask>
<g mask="url(#mask8_990_357)">
<path fill-rule="evenodd" clip-rule="evenodd" d="M507.812 64.5898H505.764V59.0643C505.739 58.1929 504.038 58.2012 504.038 59.0643V65.7664C504.063 66.0456 504.164 66.1979 504.351 66.2232H507.812C508.7 66.2062 508.717 64.5563 507.812 64.5898ZM520.656 63.0926C520.496 63.0843 520.326 63.0843 520.165 63.0843C520.165 62.6696 520.182 62.2381 520.182 61.8151C520.351 61.9927 520.512 62.1704 520.656 62.3566C520.834 62.585 520.995 62.8306 521.147 63.1012C520.978 63.0926 520.817 63.0926 520.656 63.0926ZM520.656 59.6061C520.43 59.3092 520.198 59.0159 519.962 58.7264C519.751 58.4216 519.463 58.3034 519.074 58.405C518.701 58.4133 518.481 58.6334 518.431 59.0481V65.7159C518.516 66.1644 518.786 66.3845 519.234 66.3845C519.691 66.3845 519.979 66.1817 520.114 65.7836V64.7681H522.272C522.653 65.2591 523.025 65.7577 523.406 66.2487C523.753 66.435 524.108 66.4184 524.464 66.1982C524.769 65.9781 524.87 65.6654 524.769 65.2591C523.415 63.3632 522.086 61.4509 520.656 59.6061ZM516.789 63.7608C516.273 64.2685 515.765 64.5646 515.283 64.6323C514.631 64.717 514.124 64.6071 513.785 64.2937C513.329 63.9551 513.032 63.5404 512.897 63.0415C512.787 62.593 512.795 62.1278 512.922 61.6372C513.074 61.1883 513.362 60.8417 513.785 60.5878C514.158 60.3425 514.581 60.2492 515.038 60.2409C515.621 60.2661 516.104 60.5539 516.527 60.8842C516.958 61.1887 517.305 61.1887 517.695 60.9012C517.965 60.5373 518.042 60.1648 517.737 59.708C517.635 59.5387 517.111 58.481 514.928 58.4389C512.744 58.3881 510.967 60.2073 510.967 62.3904C510.967 64.5732 512.744 66.3503 514.928 66.3503C517.111 66.3503 517.652 65.3096 517.89 64.9122C518.05 64.5145 518.016 64.1845 517.779 63.9388C517.517 63.6848 517.213 63.5916 516.789 63.7608ZM530.218 58.4047C529.803 58.4213 529.55 58.6331 529.423 58.9714V62.8383C528.585 61.4506 527.747 60.0543 526.91 58.6749C526.639 58.3957 526.25 58.3283 525.759 58.4804C525.404 58.6075 525.167 58.8612 525.065 59.2419V65.7235C525.082 66.1385 525.37 66.3327 525.936 66.3158C526.368 66.2819 526.639 66.0787 526.749 65.7235C526.74 64.3697 526.74 63.0159 526.732 61.6704L529.194 65.8842C529.372 66.1717 529.651 66.3493 530.15 66.2736C530.624 66.2567 530.912 66.003 531.09 65.5795V58.988C530.929 58.5909 530.641 58.396 530.218 58.4047ZM540.618 58.3366C540.203 58.3539 539.949 58.565 539.822 58.9037V62.7706C538.985 61.3829 538.147 59.9866 537.309 58.6075C537.03 58.3283 536.649 58.2606 536.158 58.413C535.795 58.5398 535.566 58.7934 535.465 59.1742V65.6475C535.481 66.0704 535.769 66.265 536.328 66.2484C536.768 66.2145 537.038 66.0117 537.149 65.6475C537.14 64.3023 537.14 62.9482 537.132 61.6027C537.953 63.0055 538.771 64.4101 539.585 65.8165C539.772 66.1043 540.051 66.2819 540.55 66.2059C541.016 66.189 541.312 65.9353 541.49 65.5121V58.9206C541.329 58.5232 541.032 58.3287 540.618 58.3366H540.618ZM533.18 58.3878C532.715 58.3878 532.384 58.6079 532.291 59.1493V65.6309C532.435 66.1555 532.757 66.3078 533.146 66.2995C533.569 66.2912 533.924 66.1302 534.136 65.6226V59.1154C534 58.6079 533.687 58.3622 533.18 58.3878ZM481.944 62.1195C481.445 62.1195 481.047 61.7218 481.047 61.2308C481.047 60.7398 481.445 60.3338 481.944 60.3338C482.435 60.3338 482.832 60.7402 482.832 61.2308C482.832 61.7215 482.435 62.1195 481.944 62.1195ZM484.77 65.284L483.526 63.4561C483.729 63.2191 483.941 62.991 484.153 62.7623C484.465 62.2291 484.635 61.6624 484.584 61.0446C484.474 60.2913 484.229 59.716 483.797 59.3691C483.332 58.895 482.756 58.6158 482.029 58.6414C481.995 58.6414 481.97 58.6497 481.944 58.6497C481.352 58.7343 480.819 58.9123 480.303 59.3014C479.896 59.6566 479.609 60.0799 479.38 60.6894L479.482 65.5798C479.584 66.2398 479.897 66.5614 480.404 66.5531C480.811 66.5362 481.073 66.3078 481.2 65.8762C481.208 65.191 481.225 64.4969 481.234 63.8034C481.191 63.7101 481.225 63.6254 481.318 63.5746C481.547 63.6254 481.589 63.7947 481.673 63.9388C481.758 64.057 481.851 64.1672 481.944 64.2774C482.494 64.9796 483.053 65.6737 483.611 66.3676C483.992 66.5452 484.33 66.5199 484.618 66.2829C484.677 66.2069 484.736 66.1305 484.77 66.0459C484.889 65.8088 484.914 65.5718 484.787 65.3096C484.787 65.3009 484.778 65.2923 484.77 65.284Z" fill="black"/>
</g>
</g>
<path fill-rule="evenodd" clip-rule="evenodd" d="M637.45 52.6264H641.593C641.593 52.6264 642.21 52.5382 642.915 53.3316C643.62 54.125 643.708 54.742 643.708 54.742V67.5239C643.708 67.5239 643.62 68.3173 643.003 68.8462C642.386 69.4632 641.857 69.4632 641.857 69.4632H634.188V46.3677H637.45V52.6264ZM640.535 66.4661C640.887 66.0254 640.887 65.5846 640.887 65.5846H640.799V56.7695C640.799 56.7695 640.799 56.4169 640.535 56.0643C640.27 55.7117 639.742 55.7117 639.742 55.7117H637.45V66.9069H639.653C639.653 66.9069 640.094 66.9069 640.535 66.4661ZM651.113 66.9069H653.581V52.6264H656.666V69.5514H648.557C648.557 69.5514 648.028 69.5514 647.411 68.758C646.794 67.9647 646.794 67.4358 646.794 67.4358V52.6264H650.143V65.5846C650.143 65.5846 650.231 66.0254 650.496 66.4661C650.76 66.9069 651.113 66.9069 651.113 66.9069ZM677.735 53.3316C677.118 52.5382 676.589 52.5382 676.589 52.5382H668.479V69.3751H671.564V55.6235H674.032C674.032 55.6235 674.385 55.6235 674.649 56.0643C674.914 56.505 675.002 56.9458 675.002 56.9458V69.2869H678.352V54.6539C678.352 54.6539 678.352 54.125 677.735 53.3316ZM659.487 54.6539C659.487 54.6539 659.487 54.125 660.104 53.3316C660.721 52.6264 661.25 52.5383 661.162 52.6264H665.922V55.7999H663.807C663.807 55.7999 663.454 55.7999 663.19 56.2406C662.837 56.5932 662.837 57.1221 662.837 57.1221V69.4633H659.487V54.6539Z" fill="black"/>
<path fill-rule="evenodd" clip-rule="evenodd" d="M789.475 172.864V173.553C789.475 173.953 789.809 174.287 790.209 174.287H796.077C796.478 174.287 796.811 173.953 796.811 173.553V173.175C796.811 172.775 796.478 172.442 796.077 172.442H790.209C788.786 172.442 787.631 171.264 787.631 169.797V169.419C787.608 167.952 788.786 166.773 790.209 166.773H796.077C797.5 166.773 798.656 167.952 798.656 169.419V170.086H796.789V169.419C796.789 169.019 796.455 168.685 796.055 168.685H790.187C789.787 168.685 789.453 169.019 789.453 169.419V169.797C789.453 170.197 789.787 170.53 790.187 170.53C795.477 170.53 796.011 170.53 796.055 170.508C797.456 170.53 798.634 171.708 798.634 173.175V173.553C798.634 175.02 797.478 176.198 796.055 176.198H790.187C788.764 176.198 787.608 175.02 787.608 173.553V173.175V172.864H789.475ZM830.888 169.885V168.507H832.666V169.885H837.134V171.397H832.666V173.642C832.666 174.331 832.999 174.487 833.355 174.487H834.978C835.533 174.487 835.711 174.264 835.711 173.687V172.642H837.356C837.356 172.642 837.378 173.131 837.356 173.575C837.356 173.998 837.334 174.509 837.289 174.731C837.045 175.843 836.378 176.132 835.155 176.154L832.933 176.132C831.888 176.109 831.354 175.531 831.11 174.976C830.976 174.709 830.932 174.442 830.91 174.242C830.888 174.02 830.91 173.909 830.91 173.909L830.888 171.397H829.509V169.885H830.888ZM824.019 171.197H826.509C826.953 171.197 827.309 171.553 827.287 171.997V173.153H828.932V172.264C828.909 170.397 827.753 169.663 826.331 169.663H824.219C823.863 169.663 823.508 169.708 823.263 169.863V169.663H821.485V175.954H823.263V171.753C823.286 171.308 823.619 171.197 824.019 171.197ZM814.238 174.376H818.084C818.462 174.376 818.773 174.064 818.773 173.687V172.331C818.773 171.953 818.462 171.642 818.084 171.642H814.238C813.86 171.642 813.549 171.953 813.549 172.331V173.664C813.549 174.064 813.86 174.376 814.238 174.376ZM811.771 173.664V172.331C811.771 170.975 812.882 169.863 814.238 169.863H818.084C819.44 169.863 820.551 170.975 820.551 172.331V173.664C820.551 175.02 819.44 176.132 818.084 176.132H814.238C812.882 176.132 811.771 175.043 811.771 173.664ZM808.281 179.444C809.726 179.444 810.882 178.288 810.882 176.843V176.332V169.885H809.104V170.197C808.681 169.93 808.037 169.885 807.77 169.885H804.702C803.324 169.885 802.19 171.019 802.19 172.397V172.486V173.664C802.19 175.042 803.324 176.176 804.702 176.176H808.326C808.592 176.176 808.859 176.132 809.104 176.043V176.31V176.843C809.104 177.288 808.748 177.665 808.281 177.665H804.791C804.347 177.665 803.969 177.31 803.969 176.843V176.532L802.19 176.51V176.843C802.19 178.288 803.346 179.444 804.791 179.444H808.281ZM803.924 172.375C803.924 171.953 804.258 171.619 804.68 171.619H808.303C808.726 171.619 809.059 171.953 809.059 172.375V173.642C809.059 174.064 808.726 174.398 808.303 174.398H804.68C804.258 174.398 803.924 174.064 803.924 173.642V172.375ZM799.523 167.529H801.301V169.33H799.523V167.529ZM799.523 169.952H801.301V176.154H799.523V169.952ZM844.87 172.308C844.669 172.219 844.425 172.175 844.18 172.175V172.131H840.357C839.335 172.131 838.49 172.953 838.49 173.953V174.309C838.49 175.331 839.335 176.132 840.357 176.132H843.98C844.225 176.132 844.581 176.109 844.87 175.976V176.132H846.581V171.975C846.581 170.619 845.447 169.819 844.092 169.819H840.802C839.246 169.908 838.89 170.663 838.89 171.975V172.019L840.446 171.997V171.864C840.468 171.464 840.602 171.353 840.98 171.353H844.247C844.692 171.353 844.892 171.419 844.87 171.997V172.308ZM840.068 174.331V174.02C840.068 173.864 840.202 173.709 840.402 173.709H844.358C844.558 173.709 844.692 173.864 844.692 174.02V174.331C844.692 174.509 844.536 174.642 844.358 174.642H840.402C840.202 174.642 840.068 174.487 840.068 174.331ZM774.405 166.862H777.472V170.286H778.917L782.807 166.862H786.986L781.562 171.419L787.631 176.198H783.274L778.828 172.597H777.472V176.198H774.405V166.862ZM767.758 172.531H763.824L765.758 169.019L767.758 172.531ZM767.78 166.862H763.779L758.333 176.198H761.756L762.668 174.554H768.914L769.87 176.198H773.293L767.78 166.862Z" fill="black"/>
<path fill-rule="evenodd" clip-rule="evenodd" d="M481.563 180.235H483.996C485.082 180.235 486.218 179.391 486.58 178.31L488.277 173.296H490.718C491.236 173.27 491.614 173.084 491.843 172.743C492.259 172.121 491.976 171.264 491.943 171.168L491.109 168.708C490.743 167.63 489.608 166.785 488.524 166.785H488.332V166.781H486.092C485.007 166.781 483.872 167.626 483.507 168.706L482.781 170.849L482.053 168.697C481.687 167.619 480.552 166.773 479.468 166.773H477.035C476.572 166.783 476.119 166.917 475.726 167.163C475.519 167.287 475.328 167.435 475.156 167.603C474.985 167.769 474.834 167.955 474.707 168.157H474.702C474.596 168.325 474.51 168.506 474.445 168.695L473.712 170.861L472.979 168.697H472.983C472.618 167.619 471.483 166.773 470.398 166.773H467.965C466.881 166.773 465.746 167.619 465.381 168.697L464.548 171.155C464.514 171.251 464.233 172.11 464.646 172.732C464.874 173.073 465.253 173.259 465.77 173.286H468.207L469.908 178.312C470.274 179.391 471.409 180.235 472.493 180.235H474.921C476.005 180.235 477.141 179.391 477.506 178.312L477.203 178.209L477.188 178.202L477.512 178.312L478.245 176.145L478.979 178.312C479.344 179.391 480.479 180.235 481.563 180.235ZM481.565 179.596C480.765 179.596 479.861 178.914 479.585 178.106L476.396 168.697V168.688C476.341 168.547 476.256 168.419 476.147 168.313C476.005 168.172 475.824 168.077 475.626 168.041C476.042 167.648 476.568 167.412 477.035 167.412H479.467C480.266 167.412 481.171 168.094 481.446 168.902L482.483 171.952H482.48L484.632 178.312L484.635 178.321C484.691 178.462 484.775 178.59 484.884 178.696C485.026 178.837 485.208 178.931 485.405 178.967C484.99 179.361 484.463 179.596 483.996 179.596H481.565ZM466.566 168.041C466.982 167.648 467.509 167.412 467.975 167.412H470.393C471.193 167.412 472.1 168.094 472.373 168.902L475.558 178.314L475.562 178.322C475.616 178.464 475.701 178.592 475.81 178.697C475.952 178.839 476.134 178.934 476.331 178.969C475.916 179.363 475.389 179.598 474.923 179.598H472.493C471.693 179.598 470.789 178.916 470.513 178.108L467.327 168.697C467.275 168.554 467.193 168.425 467.085 168.318C466.945 168.174 466.764 168.077 466.566 168.041ZM484.316 168.715C484.365 168.69 484.42 168.677 484.475 168.675H484.494C484.571 168.677 484.646 168.702 484.71 168.745C484.773 168.789 484.823 168.85 484.854 168.921L485.693 171.372C485.848 171.811 486.108 172.206 486.451 172.519C486.622 172.678 486.81 172.818 487.011 172.934C487.208 173.049 487.418 173.139 487.637 173.203L485.983 178.082C485.938 178.178 485.863 178.255 485.77 178.304C485.721 178.329 485.666 178.343 485.611 178.344H485.592C485.542 178.345 485.493 178.335 485.447 178.316C485.401 178.297 485.359 178.269 485.325 178.233C485.286 178.194 485.255 178.149 485.232 178.099L483.117 171.849L484.103 168.94C484.147 168.843 484.222 168.764 484.316 168.715ZM474.048 171.859L475.036 168.937L475.041 168.941C475.163 168.686 475.362 168.664 475.42 168.664H475.438C475.515 168.666 475.59 168.69 475.654 168.734C475.717 168.777 475.768 168.838 475.798 168.909L477.91 175.145L476.921 178.068H476.917C476.795 178.324 476.597 178.345 476.539 178.345H476.52C476.47 178.346 476.421 178.336 476.375 178.317C476.329 178.298 476.287 178.269 476.252 178.234C476.214 178.195 476.183 178.15 476.16 178.1L474.048 171.859ZM484.683 168.053C485.098 167.659 485.625 167.424 486.092 167.424L488.524 167.428C489.324 167.428 490.228 168.109 490.504 168.917L491.338 171.377C491.396 171.542 491.519 172.082 491.312 172.387C491.2 172.553 490.997 172.641 490.692 172.658H488.27C487.471 172.658 486.566 171.976 486.29 171.168L485.453 168.708V168.7C485.398 168.558 485.313 168.43 485.204 168.325C485.062 168.183 484.88 168.088 484.683 168.053ZM465.151 171.362L465.974 168.936L465.98 168.939C466.024 168.839 466.1 168.757 466.196 168.706C466.247 168.68 466.302 168.666 466.359 168.664H466.38C466.455 168.665 466.528 168.689 466.59 168.732C466.651 168.775 466.698 168.836 466.725 168.906L467.991 172.645H465.801C465.493 172.628 465.291 172.54 465.18 172.375C464.974 172.074 465.089 171.545 465.151 171.362ZM551.541 179.129C550.82 179.132 550.105 178.999 549.433 178.737C549.11 178.61 548.801 178.452 548.508 178.265C548.219 178.079 547.948 177.865 547.7 177.626C547.196 177.136 546.797 176.548 546.529 175.897C546.237 175.182 546.09 174.416 546.096 173.644C546.089 172.874 546.236 172.111 546.527 171.399C546.796 170.752 547.195 170.168 547.699 169.684C548.696 168.729 550.06 168.203 551.539 168.203C552.257 168.2 552.968 168.331 553.638 168.589C553.96 168.713 554.269 168.869 554.562 169.053C554.852 169.236 555.123 169.447 555.371 169.684C555.878 170.168 556.279 170.752 556.55 171.399C556.843 172.11 556.992 172.874 556.986 173.644C556.992 174.416 556.844 175.181 556.551 175.895C556.281 176.546 555.879 177.135 555.372 177.624C555.124 177.863 554.853 178.077 554.563 178.263C554.271 178.45 553.962 178.608 553.64 178.735C553.311 178.864 552.971 178.962 552.624 179.028C552.267 179.095 551.904 179.129 551.541 179.129ZM551.541 170.9C550.825 170.888 550.133 171.156 549.611 171.647C549.358 171.892 549.157 172.186 549.023 172.512C548.877 172.871 548.804 173.255 548.807 173.642C548.804 174.039 548.877 174.433 549.023 174.802C549.156 175.135 549.357 175.436 549.611 175.688C550.134 176.179 550.824 176.452 551.541 176.452C552.257 176.452 552.947 176.179 553.471 175.688C553.725 175.436 553.925 175.135 554.059 174.802C554.205 174.433 554.278 174.039 554.274 173.642C554.278 173.256 554.204 172.872 554.059 172.514C553.924 172.188 553.724 171.893 553.471 171.648C552.948 171.157 552.256 170.889 551.541 170.901V170.9ZM513.031 170.37C513.119 170.176 513.159 169.964 513.148 169.752C513.137 169.539 513.076 169.332 512.97 169.148C512.864 168.964 512.715 168.808 512.537 168.693C512.359 168.578 512.155 168.507 511.944 168.486L511.939 168.479L511.935 168.486C511.893 168.482 511.851 168.479 511.808 168.479C511.525 168.479 511.25 168.568 511.021 168.734C510.792 168.899 510.62 169.133 510.531 169.402V169.41L510.527 169.421L508.677 175.066L506.954 169.728C506.867 169.378 506.67 169.067 506.391 168.84C506.113 168.613 505.768 168.483 505.41 168.469C505.051 168.456 504.698 168.56 504.403 168.766C504.109 168.971 503.889 169.267 503.777 169.609H503.771L502.029 175.064L500.198 169.402L500.191 169.396C500.107 169.149 499.954 168.931 499.75 168.769C499.545 168.607 499.298 168.509 499.038 168.486L499.032 168.48L499.026 168.485C499.008 168.485 498.99 168.484 498.972 168.483C498.954 168.481 498.935 168.48 498.917 168.48C498.695 168.479 498.476 168.533 498.28 168.638C498.084 168.743 497.918 168.896 497.795 169.082C497.673 169.268 497.599 169.481 497.579 169.703C497.56 169.925 497.596 170.148 497.684 170.353L500.675 178.472C500.763 178.744 500.935 178.981 501.166 179.149C501.398 179.316 501.676 179.406 501.961 179.405C502.246 179.404 502.524 179.312 502.754 179.142C502.983 178.973 503.153 178.734 503.239 178.461L505.362 171.919L507.526 178.42H507.533C507.533 178.43 507.537 178.44 507.541 178.45C507.542 178.453 507.543 178.457 507.544 178.46C507.633 178.735 507.806 178.975 508.04 179.144C508.273 179.314 508.554 179.405 508.841 179.404C509.129 179.403 509.41 179.311 509.642 179.14C509.874 178.969 510.046 178.729 510.134 178.454C510.134 178.447 510.136 178.441 510.138 178.435L510.138 178.435L510.141 178.429H510.145L513.031 170.37ZM523.54 179.025C523.705 179.094 523.882 179.129 524.06 179.129C524.24 179.129 524.417 179.094 524.583 179.024C524.748 178.955 524.898 178.853 525.024 178.725C525.279 178.467 525.422 178.119 525.422 177.756V169.764C525.412 169.406 525.263 169.067 525.008 168.818C524.762 168.575 524.433 168.436 524.088 168.429C523.743 168.422 523.409 168.547 523.153 168.78C522.904 169.004 522.745 169.312 522.707 169.645H522.7V169.708V169.717V169.73C522.516 169.447 522.282 169.199 522.011 168.999C521.748 168.805 521.461 168.647 521.157 168.529C520.622 168.319 520.053 168.209 519.479 168.203C518.8 168.203 518.128 168.332 517.497 168.582C517.185 168.707 516.885 168.861 516.601 169.042C515.721 169.606 515.032 170.425 514.627 171.39C514.328 172.111 514.178 172.885 514.184 173.666C514.176 174.445 514.326 175.217 514.623 175.936C514.896 176.584 515.297 177.17 515.802 177.658C516.046 177.893 516.313 178.104 516.598 178.288C517.457 178.84 518.455 179.133 519.475 179.133C520.076 179.123 520.669 178.997 521.222 178.762C521.887 178.481 522.399 178.071 522.701 177.582V177.667V177.759C522.701 178.122 522.844 178.47 523.099 178.727C523.225 178.855 523.375 178.956 523.54 179.025ZM518.779 171.033C519.122 170.899 519.487 170.831 519.856 170.831L519.857 170.833C520.214 170.832 520.568 170.895 520.903 171.017C521.239 171.14 521.548 171.325 521.815 171.564C522.09 171.811 522.31 172.114 522.46 172.452C522.62 172.834 522.703 173.244 522.705 173.658C522.706 174.072 522.625 174.483 522.466 174.865C522.319 175.203 522.102 175.507 521.83 175.754C521.565 175.996 521.256 176.184 520.92 176.308C520.58 176.434 520.219 176.499 519.856 176.498C519.487 176.497 519.122 176.427 518.779 176.29C518.439 176.158 518.128 175.961 517.862 175.712C517.592 175.46 517.375 175.156 517.224 174.817C517.067 174.452 516.986 174.057 516.986 173.659C516.986 173.26 517.067 172.866 517.224 172.5C517.374 172.162 517.591 171.858 517.862 171.607C518.129 171.359 518.44 171.164 518.779 171.033ZM544.166 172.925C544.166 169.845 542.671 168.203 540.149 168.203C539.322 168.203 537.851 168.45 536.869 170.181C536.289 168.9 535.195 168.314 533.544 168.226C532.562 168.226 531.132 168.698 530.554 169.979V169.894V169.801C530.546 169.448 530.402 169.112 530.152 168.864C529.903 168.615 529.568 168.472 529.216 168.466C528.864 168.46 528.524 168.59 528.266 168.829C528.008 169.069 527.852 169.4 527.831 169.752V177.756C527.836 178.114 527.981 178.456 528.234 178.708C528.487 178.96 528.828 179.102 529.185 179.105C529.541 179.107 529.885 178.97 530.141 178.721C530.398 178.473 530.547 178.133 530.557 177.776V177.756V177.663V173.329C530.557 171.531 531.628 170.878 532.744 170.878C533.815 170.878 534.641 171.688 534.663 173.149V177.631C534.66 177.671 534.657 177.712 534.657 177.753C534.657 178.116 534.801 178.464 535.057 178.721C535.313 178.977 535.66 179.122 536.021 179.122C536.383 179.122 536.73 178.977 536.986 178.721C537.242 178.464 537.385 178.116 537.385 177.753V173.327C537.385 171.731 538.281 170.877 539.506 170.877C540.621 170.877 541.469 171.707 541.469 173.215V177.621C541.464 177.669 541.462 177.716 541.462 177.764C541.461 177.942 541.495 178.119 541.562 178.285C541.628 178.45 541.727 178.6 541.852 178.727C541.977 178.854 542.125 178.955 542.289 179.025C542.453 179.094 542.629 179.131 542.806 179.132C542.984 179.133 543.16 179.099 543.325 179.032C543.49 178.965 543.64 178.866 543.766 178.741C543.893 178.616 543.994 178.467 544.063 178.302C544.132 178.138 544.168 177.962 544.17 177.783V177.77V177.751L544.166 172.925Z" fill="black"/>
<g clip-path="url(#clip7_990_357)">
<path d="M97.6602 185.316C104.173 184.258 108.596 178.111 107.539 171.588C106.482 165.065 100.345 160.635 93.8327 161.693C87.32 162.752 82.8974 168.899 83.9543 175.422C85.0113 181.945 91.1476 186.375 97.6602 185.316Z" fill="black"/>
<path fill-rule="evenodd" clip-rule="evenodd" d="M95.6768 180.961C94.3956 180.996 93.149 180.615 92.1102 179.886C91.2099 179.193 90.6559 178.187 90.552 177.042V176.938H93.2875V177.008C93.4953 177.979 94.5341 178.672 95.746 178.672C96.958 178.672 98.066 177.944 98.066 176.834C98.066 175.724 97.4774 175.308 96.1615 174.927L94.3609 174.372C92.6642 173.886 90.6213 172.811 90.6213 170.314C90.6213 167.782 92.7335 166.082 95.6075 166.082C96.7848 166.048 97.9621 166.429 98.8971 167.157C99.7627 167.851 100.317 168.892 100.351 170.001V170.071H97.5812V170.001C97.4081 169.03 96.5424 168.337 95.5383 168.371C94.2917 168.371 93.426 169.169 93.426 170.21C93.426 171.25 93.7377 171.528 95.1574 171.944L96.7156 172.429C97.7197 172.707 98.6893 173.123 99.5203 173.782C100.351 174.476 100.871 175.516 100.836 176.626C100.871 177.944 100.282 179.158 99.2087 179.921C98.2045 180.649 96.958 180.996 95.6768 180.961Z" fill="white"/>
<path fill-rule="evenodd" clip-rule="evenodd" d="M59.8727 184.811H38.8889L48.6537 162.198H69.6375L59.8727 184.811Z" fill="black"/>
<path fill-rule="evenodd" clip-rule="evenodd" d="M60.1843 166.325L57.6219 172.221H52.0124L54.5747 166.325H51.5276L45.364 180.684H48.3765L50.835 174.961H56.4446L53.9515 180.684H56.9986L63.1968 166.325H60.1843Z" fill="white"/>
<path fill-rule="evenodd" clip-rule="evenodd" d="M75.2816 184.811H62.8853L72.65 162.198H85.0464L75.2816 184.811Z" fill="black"/>
<path fill-rule="evenodd" clip-rule="evenodd" d="M75.5585 166.325L69.3604 180.684H72.3729L78.5711 166.325H75.5585Z" fill="white"/>
</g>
<path d="M239.929 183.01C240.603 181.521 241.22 179.975 241.726 178.401C241.866 177.979 242.091 177.614 242.399 177.305C243.915 175.703 245.796 174.579 247.536 173.258C248.238 172.724 249.165 171.965 249.024 170.982C248.912 170.026 247.901 170.279 247.34 170.616C246.105 171.347 244.926 172.19 243.719 173.005C244.449 171.319 245.178 169.633 245.936 167.946C246.077 167.637 246.245 167.356 246.273 166.991C246.301 166.344 245.964 166.035 245.347 166.232C244.589 166.457 244.056 166.991 243.55 167.553C241.866 169.52 240.21 171.487 238.525 173.455C238.329 173.68 238.132 173.876 237.936 174.073C237.88 174.045 237.852 174.017 237.796 173.989C238.048 173.399 238.329 172.808 238.582 172.218C239.115 171.01 239.648 169.773 240.182 168.565C240.35 168.171 240.575 167.778 240.238 167.412C239.845 167.019 239.368 167.075 238.89 167.272C237.431 167.862 235.887 167.89 234.258 168.312C234.82 167.159 235.325 166.12 235.831 165.08C236.139 164.405 236.504 163.759 236.785 163.084C237.094 162.354 236.925 161.932 236.252 161.539H235.522C234.623 161.904 234.118 162.635 233.725 163.506C233.023 165.108 232.265 166.682 231.564 168.284C231.395 168.649 231.199 168.846 230.806 168.902C229.739 169.07 228.644 169.295 227.577 169.464C227.437 169.267 227.577 169.127 227.634 169.014C228.223 167.778 228.841 166.541 229.43 165.305C229.599 164.967 229.739 164.63 229.879 164.265C230.048 163.871 230.104 163.422 229.767 163.084C229.43 162.719 228.953 162.747 228.532 162.859C227.802 163.084 227.325 163.618 227.016 164.293C226.202 166.063 225.388 167.834 224.602 169.633C224.461 169.942 224.293 170.082 223.956 170.138C223.451 170.223 222.917 170.251 222.468 170.56C221.879 170.982 221.542 171.656 221.71 172.134C221.879 172.555 222.3 172.696 223.31 172.555C222.468 173.567 221.71 174.523 220.644 175.141C220.475 175.253 220.251 175.338 220.082 175.197C219.914 175.057 220.054 174.86 220.11 174.691C220.251 174.185 220.335 173.68 220.335 173.146C220.307 171.909 219.605 171.038 218.37 170.897C216.349 170.644 214.72 171.487 213.289 172.78C211.997 173.961 211.155 175.45 210.622 177.108C210.482 177.53 210.257 177.839 209.92 178.092C208.797 178.963 207.646 179.834 206.299 180.368C205.794 180.565 205.204 180.902 204.727 180.396C204.278 179.919 204.671 179.357 204.867 178.879C205.344 177.755 206.018 176.743 206.888 175.872C207.057 175.703 207.253 175.563 207.45 175.45C207.674 175.31 207.871 175.338 207.871 175.675C207.871 175.844 207.871 176.04 207.871 176.209C207.871 176.912 208.095 177.052 208.741 176.827C209.106 176.687 209.387 176.462 209.611 176.125C210.229 175.253 210.454 174.27 210.369 173.23C210.313 172.612 209.892 172.274 209.218 172.302C208.573 172.331 207.983 172.527 207.422 172.865C205.709 173.82 204.502 175.225 203.436 176.827C203.323 176.968 203.239 177.108 203.127 177.277C203.127 177.277 203.099 177.277 203.043 177.305C202.706 176.153 201.779 175.478 200.797 174.916C199.477 174.157 198.158 173.455 196.867 172.668C195.575 171.909 195.463 171.206 196.474 170.082C197.765 168.621 199.421 167.665 201.302 167.187C201.499 167.131 201.723 167.019 201.835 167.244C201.948 167.44 201.807 167.637 201.695 167.778C201.499 168.087 201.218 168.312 200.937 168.536C200.432 168.902 200.123 169.408 200.011 170.026C199.87 170.925 200.572 171.516 201.414 171.234C203.127 170.644 204.839 167.806 204.53 166.007C204.362 164.967 203.716 164.377 202.678 164.293C201.92 164.208 201.162 164.349 200.432 164.602C197.877 165.501 195.716 166.991 194.031 169.127C193.751 169.464 193.526 169.857 193.33 170.251C192.347 172.162 192.684 173.736 194.368 175.057C195.239 175.759 196.249 176.265 197.232 176.771C197.597 176.94 197.962 177.108 198.298 177.305C199.758 178.092 199.983 179.104 198.888 180.34C197.4 181.998 195.435 182.476 193.302 182.364C192.937 182.336 192.516 182.251 192.375 181.83C192.235 181.408 192.488 181.071 192.768 180.762C193.161 180.284 193.695 180.031 194.172 179.666C194.789 179.216 195.014 178.71 194.846 178.064C194.677 177.417 194.284 177.193 193.695 177.502C192.01 178.401 190.045 179.806 189.4 181.745C188.698 183.825 190.017 185.202 192.066 185.399C195.632 185.764 199.421 184.275 201.723 181.521C201.779 181.549 201.807 181.577 201.835 181.605C202.032 183.01 203.127 183.881 204.923 183.488C206.832 183.066 208.376 181.998 209.836 180.79C210.201 180.481 210.313 180.453 210.566 180.902C211.099 181.858 212.278 182.195 213.513 181.886C215.759 181.324 217.443 180.031 218.735 178.148C218.959 177.839 219.128 177.67 219.549 177.783C220.223 177.951 220.84 177.67 221.43 177.277C221.43 177.895 221.233 178.429 221.373 178.991C221.57 179.722 222.019 180.115 222.777 180.115C223.647 180.115 224.405 179.778 225.135 179.385C226.202 178.766 227.156 177.979 228.027 177.136C228.167 177.164 228.167 177.221 228.167 177.305C228.307 178.57 228.925 179.047 230.216 178.794C231.479 178.542 232.49 177.839 233.472 177.108C233.753 176.883 234.034 176.659 234.287 176.434C234.343 176.462 234.399 176.49 234.371 176.518C234.146 177.614 234.848 178.092 235.943 177.755C236.785 177.502 237.543 177.024 238.189 176.462C239.143 175.647 239.957 174.691 240.799 173.708C240.94 173.932 240.799 174.073 240.743 174.214C239.873 176.321 238.806 178.317 237.627 180.256C236.981 181.324 236.392 182.448 236.252 183.713C236.167 184.556 236.729 185.708 237.739 185.427C238.778 185.174 239.508 183.909 239.929 183.01ZM214.889 178.823C213.963 179.357 213.373 178.991 213.373 177.923C213.373 176.209 214.159 174.944 215.591 174.101C216.657 173.483 217.219 173.82 217.219 175.394C217.078 176.687 216.349 178.008 214.889 178.823ZM228.56 174.045C227.549 174.916 226.595 175.844 225.5 176.602C225.247 176.771 224.967 176.94 224.686 177.08C224.321 177.277 224.181 177.136 224.265 176.771C224.321 176.462 224.433 176.153 224.546 175.872C225.079 174.663 225.612 173.483 226.146 172.274C226.23 172.078 226.286 171.909 226.539 171.881C227.718 171.684 228.897 171.347 230.216 171.319C229.795 172.359 229.402 173.342 228.56 174.045ZM235.185 173.033C234.09 173.932 233.051 174.972 231.816 175.703C231.62 175.815 231.395 176.04 231.171 175.872C230.974 175.703 231.143 175.422 231.199 175.197C231.732 173.736 232.434 172.359 233.051 170.925C233.108 170.785 233.192 170.644 233.388 170.616C234.567 170.391 235.718 170.167 236.981 169.942C236.56 171.178 236.139 172.246 235.185 173.033Z" fill="black"/>
<defs>
<clipPath id="clip0_990_357">
<rect width="76.3889" height="16.453" fill="white" transform="translate(35.1497 50.1069)"/>
</clipPath>
<clipPath id="clip1_990_357">
<rect width="64.6368" height="16.453" fill="white" transform="translate(186.966 50.1069)"/>
</clipPath>
<clipPath id="clip2_990_357">
<rect width="52.1368" height="23.9316" fill="white" transform="translate(630.449 161.539)"/>
</clipPath>
<clipPath id="clip3_990_357">
<rect width="99.3761" height="16.453" fill="white" transform="translate(315.598 165.278)"/>
</clipPath>
<clipPath id="clip4_990_357">
<rect width="52.3504" height="41.8803" fill="white" transform="translate(338.782 37.3931)"/>
</clipPath>
<clipPath id="clip5_990_357">
<rect width="97.8454" height="14.9573" fill="white" transform="translate(753.846 50.8545)"/>
</clipPath>
<clipPath id="clip6_990_357">
<rect width="62.2266" height="17.2009" fill="white" transform="translate(479.38 49.3589)"/>
</clipPath>
<clipPath id="clip7_990_357">
<rect width="68.8034" height="23.9316" fill="white" transform="translate(38.8889 161.539)"/>
</clipPath>
</defs>
</svg>
