<svg width="207" height="20" viewBox="0 0 207 20" fill="none" xmlns="http://www.w3.org/2000/svg">
<path d="M34.7034 15.2751C32.7723 15.2751 31.1712 14.6395 29.9001 13.3684C28.6412 12.0851 28.0117 10.4901 28.0117 8.58339C28.0117 6.67672 28.6412 5.08783 29.9001 3.81672C31.1712 2.53339 32.7723 1.89172 34.7034 1.89172C35.8645 1.89172 36.9401 2.16672 37.9301 2.71672C38.9201 3.26672 39.6962 4.00617 40.2584 4.93506L37.4167 6.56672C37.1723 6.1145 36.8056 5.76006 36.3167 5.50339C35.8401 5.2345 35.3023 5.10006 34.7034 5.10006C33.6767 5.10006 32.8456 5.42395 32.2101 6.07172C31.5867 6.70728 31.2751 7.5445 31.2751 8.58339C31.2751 9.62228 31.5867 10.4656 32.2101 11.1134C32.8456 11.7489 33.6767 12.0667 34.7034 12.0667C35.3023 12.0667 35.8401 11.9384 36.3167 11.6817C36.8056 11.4128 37.1723 11.0462 37.4167 10.5817L40.2584 12.2317C39.6962 13.1728 38.9201 13.9184 37.9301 14.4684C36.9523 15.0062 35.8767 15.2751 34.7034 15.2751Z" fill="#F8F8F8"/>
<path d="M46.5665 2.16672H49.8482V15.0001H46.5665V2.16672Z" fill="#F8F8F8"/>
<path d="M63.8926 2.16672H67.156V15.0001H63.8926V10.0684H60.281V15.0001H56.9993V2.16672H60.281V6.91506H63.8926V2.16672Z" fill="#F8F8F8"/>
<path d="M82.1533 15.0001L81.6033 13.1484H77.3317L76.7817 15.0001H73.225L77.46 2.16672H81.4567L85.6917 15.0001H82.1533ZM78.175 10.3251H80.76L79.4583 5.96172L78.175 10.3251Z" fill="#F8F8F8"/>
<path d="M98.8348 2.16672H102.098V15.0001H99.5681L95.0398 8.54672V15.0001H91.7581V2.16672H94.3065L98.8348 8.62006V2.16672Z" fill="#F8F8F8"/>
<path d="M129.477 2.16672L125.15 10.0684V15.0001H121.868V10.1051L117.542 2.16672H121.227L123.5 6.91506L125.792 2.16672H129.477Z" fill="#F8F8F8"/>
<path d="M135.625 2.16672H138.907V15.0001H135.625V2.16672Z" fill="#F8F8F8"/>
<path d="M149.339 11.8284H153.758V15.0001H146.058V2.16672H149.339V11.8284Z" fill="#F8F8F8"/>
<path d="M173.179 2.16672V15.0001H169.916V8.08839L166.799 13.2401H166.469L163.371 8.10672V15.0001H160.089V2.16672H163.371L166.634 7.64839L169.916 2.16672H173.179Z" fill="#F8F8F8"/>
<path d="M188.179 15.0001L187.629 13.1484H183.358L182.808 15.0001H179.251L183.486 2.16672H187.483L191.718 15.0001H188.179ZM184.201 10.3251H186.786L185.484 5.96172L184.201 10.3251Z" fill="#F8F8F8"/>
<path d="M201.634 11.8284H206.309V15.0001H197.381V12.4701L201.909 5.33839H197.473V2.16672H206.163V4.69672L201.634 11.8284Z" fill="#F8F8F8"/>
<path fill-rule="evenodd" clip-rule="evenodd" d="M9.25971 19.1667C9.16471 19.1667 9.06887 19.1501 8.97471 19.1159C8.61471 18.9851 8.38971 18.6251 8.43138 18.2442L9.07137 12.3334H4.16721C3.85971 12.3334 3.57721 12.1642 3.43221 11.8926C3.28721 11.6209 3.30388 11.2926 3.47471 11.0367L10.048 1.2034C10.2614 0.884237 10.6647 0.751737 11.0255 0.884237C11.3864 1.01507 11.6105 1.37507 11.5689 1.7559L10.9289 7.66674H15.8339C16.1414 7.66674 16.4239 7.8359 16.5689 8.10757C16.713 8.37924 16.6972 8.70757 16.5264 8.9634L9.95221 18.7967C9.79471 19.0334 9.53137 19.1667 9.25971 19.1667Z" fill="#231F20"/>
<mask id="mask0" mask-type="alpha" maskUnits="userSpaceOnUse" x="3" y="0" width="14" height="20">
<path fill-rule="evenodd" clip-rule="evenodd" d="M9.25971 19.1667C9.16471 19.1667 9.06887 19.1501 8.97471 19.1159C8.61471 18.9851 8.38971 18.6251 8.43138 18.2442L9.07137 12.3334H4.16721C3.85971 12.3334 3.57721 12.1642 3.43221 11.8926C3.28721 11.6209 3.30388 11.2926 3.47471 11.0367L10.048 1.2034C10.2614 0.884237 10.6647 0.751737 11.0255 0.884237C11.3864 1.01507 11.6105 1.37507 11.5689 1.7559L10.9289 7.66674H15.8339C16.1414 7.66674 16.4239 7.8359 16.5689 8.10757C16.713 8.37924 16.6972 8.70757 16.5264 8.9634L9.95221 18.7967C9.79471 19.0334 9.53137 19.1667 9.25971 19.1667Z" fill="white"/>
</mask>
<g mask="url(#mask0)">
<rect width="20" height="20" fill="#FF5050"/>
</g>
</svg>
