<svg width="411" height="218" viewBox="0 0 411 218" fill="none" xmlns="http://www.w3.org/2000/svg">
<mask id="path-1-outside-1" maskUnits="userSpaceOnUse" x="0.99707" y="0" width="411" height="294" fill="black">
<rect fill="white" x="0.99707" width="411" height="294"/>
<path fill-rule="evenodd" clip-rule="evenodd" d="M400.696 290.263C403.826 291.976 408 289.812 408 285.857V5.80519H389.31V251.26L231.23 82.6364L154.448 5.80519C152.735 3.93506 150.399 3 147.907 3C68.3219 3 3.53234 67.987 3.99957 147.779C4.46681 227.26 70.035 290.844 149.465 290.844C151.333 290.844 153.046 290.065 154.137 288.663C154.137 288.662 154.137 288.662 154.137 288.662L193.54 240.351H353.489L399.434 289.286C399.823 289.695 400.249 290.019 400.696 290.263ZM136.734 271.74C131.496 271.265 126.395 270.516 121.431 269.493V127.675H102.741V263.727C56.0181 245.493 22.6889 199.987 22.6889 146.844C22.6889 81.2338 73.4614 27.1558 137.784 22.013V271.831C137.433 271.802 137.083 271.772 136.734 271.74ZM156.317 34.013L217.68 95.4156L245.247 124.714H156.317V34.013ZM248.518 143.571L156.317 256.403V143.571H248.518ZM208.803 221.649L267.986 149.182L335.89 221.649H208.803ZM121.43 66.5844H102.741V85.2857H121.43V66.5844Z"/>
</mask>
<path fill-rule="evenodd" clip-rule="evenodd" d="M400.696 290.263C403.826 291.976 408 289.812 408 285.857V5.80519H389.31V251.26L231.23 82.6364L154.448 5.80519C152.735 3.93506 150.399 3 147.907 3C68.3219 3 3.53234 67.987 3.99957 147.779C4.46681 227.26 70.035 290.844 149.465 290.844C151.333 290.844 153.046 290.065 154.137 288.663C154.137 288.662 154.137 288.662 154.137 288.662L193.54 240.351H353.489L399.434 289.286C399.823 289.695 400.249 290.019 400.696 290.263ZM136.734 271.74C131.496 271.265 126.395 270.516 121.431 269.493V127.675H102.741V263.727C56.0181 245.493 22.6889 199.987 22.6889 146.844C22.6889 81.2338 73.4614 27.1558 137.784 22.013V271.831C137.433 271.802 137.083 271.772 136.734 271.74ZM156.317 34.013L217.68 95.4156L245.247 124.714H156.317V34.013ZM248.518 143.571L156.317 256.403V143.571H248.518ZM208.803 221.649L267.986 149.182L335.89 221.649H208.803ZM121.43 66.5844H102.741V85.2857H121.43V66.5844Z" fill="#282A31"/>
<path d="M400.696 290.263L399.256 292.895H399.256L400.696 290.263ZM408 5.80519H411V2.80519H408V5.80519ZM389.31 5.80519V2.80519H386.31V5.80519H389.31ZM389.31 251.26L387.122 253.312L392.31 258.846V251.26H389.31ZM231.23 82.6364L233.419 80.5846L233.386 80.5496L233.352 80.5157L231.23 82.6364ZM154.448 5.80519L152.236 7.83166L152.28 7.87972L152.326 7.92583L154.448 5.80519ZM3.99957 147.779L0.999626 147.797L0.999627 147.797L3.99957 147.779ZM154.137 288.663L156.505 290.504L156.572 290.418L156.633 290.327L154.137 288.663ZM154.137 288.662L151.812 286.766L151.721 286.878L151.641 286.998L154.137 288.662ZM193.54 240.351V237.351H192.116L191.215 238.455L193.54 240.351ZM353.489 240.351L355.676 238.297L354.788 237.351H353.489V240.351ZM399.434 289.286L397.247 291.339L397.254 291.347L397.261 291.354L399.434 289.286ZM121.431 269.493H118.431V271.938L120.825 272.432L121.431 269.493ZM136.734 271.74L136.463 274.728H136.463L136.734 271.74ZM121.431 127.675H124.431V124.675H121.431V127.675ZM102.741 127.675V124.675H99.7413V127.675H102.741ZM102.741 263.727L101.651 266.522L105.741 268.118V263.727H102.741ZM137.784 22.013H140.784V18.7635L137.545 19.0225L137.784 22.013ZM137.784 271.831L137.534 274.821L140.784 275.092V271.831H137.784ZM217.68 95.4156L219.865 93.3598L219.834 93.3269L219.802 93.2949L217.68 95.4156ZM156.317 34.013L158.439 31.8923L153.317 26.7671V34.013H156.317ZM245.247 124.714V127.714H252.189L247.432 122.659L245.247 124.714ZM156.317 124.714H153.317V127.714H156.317V124.714ZM156.317 256.403H153.317V264.815L158.64 258.301L156.317 256.403ZM248.518 143.571L250.841 145.47L254.843 140.571H248.518V143.571ZM156.317 143.571V140.571H153.317V143.571H156.317ZM267.986 149.182L270.175 147.131L267.831 144.629L265.662 147.284L267.986 149.182ZM208.803 221.649L206.479 219.752L202.48 224.649H208.803V221.649ZM335.89 221.649V224.649H342.812L338.079 219.598L335.89 221.649ZM102.741 66.5844V63.5844H99.7411V66.5844H102.741ZM121.43 66.5844H124.43V63.5844H121.43V66.5844ZM102.741 85.2857H99.7411V88.2857H102.741V85.2857ZM121.43 85.2857V88.2857H124.43V85.2857H121.43ZM405 285.857C405 287.415 403.371 288.308 402.136 287.632L399.256 292.895C404.281 295.645 411 292.208 411 285.857H405ZM405 5.80519V285.857H411V5.80519H405ZM389.31 8.80519H408V2.80519H389.31V8.80519ZM392.31 251.26V5.80519H386.31V251.26H392.31ZM229.041 84.6882L387.122 253.312L391.499 249.208L233.419 80.5846L229.041 84.6882ZM152.326 7.92583L229.108 84.757L233.352 80.5157L156.57 3.68456L152.326 7.92583ZM147.907 6C149.628 6 151.137 6.63194 152.236 7.83166L156.66 3.77873C154.333 1.23819 151.17 0 147.907 0V6ZM6.99952 147.762C6.54205 69.6353 69.9835 6 147.907 6V0C66.6603 0 0.52264 66.3388 0.999626 147.797L6.99952 147.762ZM149.465 287.844C71.6422 287.844 7.45681 225.55 6.99952 147.762L0.999627 147.797C1.47681 228.97 68.4278 293.844 149.465 293.844V287.844ZM151.768 286.821C151.302 287.421 150.502 287.844 149.465 287.844V293.844C152.165 293.844 154.791 292.709 156.505 290.504L151.768 286.821ZM151.641 286.998C151.715 286.886 151.784 286.799 151.832 286.742C151.856 286.714 151.875 286.691 151.888 286.677C151.894 286.67 151.899 286.664 151.902 286.661C151.905 286.658 151.907 286.655 151.907 286.656C151.907 286.656 151.907 286.656 151.907 286.656C151.907 286.656 151.907 286.656 151.907 286.656C151.907 286.656 151.907 286.656 151.907 286.656C151.906 286.656 151.906 286.656 151.906 286.657C151.905 286.658 151.904 286.659 151.902 286.661C151.899 286.664 151.894 286.67 151.888 286.677C151.875 286.691 151.856 286.714 151.832 286.742C151.784 286.799 151.715 286.886 151.64 286.998L156.633 290.327C156.558 290.439 156.489 290.526 156.441 290.583C156.418 290.611 156.398 290.634 156.386 290.648C156.38 290.655 156.375 290.661 156.371 290.664C156.369 290.667 156.366 290.67 156.367 290.669C156.367 290.669 156.367 290.669 156.367 290.669C156.367 290.669 156.367 290.669 156.367 290.669C156.367 290.669 156.367 290.669 156.367 290.669C156.367 290.669 156.367 290.668 156.368 290.668C156.369 290.667 156.37 290.666 156.371 290.664C156.375 290.66 156.38 290.655 156.386 290.648C156.398 290.634 156.418 290.611 156.441 290.583C156.489 290.526 156.558 290.439 156.633 290.326L151.641 286.998ZM191.215 238.455L151.812 286.766L156.462 290.558L195.865 242.247L191.215 238.455ZM353.489 237.351H193.54V243.351H353.489V237.351ZM401.621 287.232L355.676 238.297L351.302 242.404L397.247 291.339L401.621 287.232ZM402.136 287.632C401.966 287.538 401.786 287.406 401.607 287.217L397.261 291.354C397.86 291.984 398.532 292.499 399.256 292.895L402.136 287.632ZM120.825 272.432C125.904 273.478 131.117 274.243 136.463 274.728L137.005 268.752C131.875 268.287 126.886 267.554 122.036 266.555L120.825 272.432ZM118.431 127.675V269.493H124.431V127.675H118.431ZM102.741 130.675H121.431V124.675H102.741V130.675ZM105.741 263.727V127.675H99.7413V263.727H105.741ZM19.6889 146.844C19.6889 201.272 53.8223 247.857 101.651 266.522L103.832 260.933C58.2139 243.13 25.6889 198.702 25.6889 146.844H19.6889ZM137.545 19.0225C71.6745 24.2891 19.6889 79.6583 19.6889 146.844H25.6889C25.6889 82.8092 75.2483 30.0225 138.023 25.0034L137.545 19.0225ZM140.784 271.831V22.013H134.784V271.831H140.784ZM136.463 274.728C136.82 274.76 137.177 274.791 137.534 274.821L138.033 268.842C137.69 268.813 137.347 268.783 137.005 268.752L136.463 274.728ZM219.802 93.2949L158.439 31.8923L154.195 36.1336L215.558 97.5362L219.802 93.2949ZM247.432 122.659L219.865 93.3598L215.495 97.4713L243.062 126.77L247.432 122.659ZM156.317 127.714H245.247V121.714H156.317V127.714ZM153.317 34.013V124.714H159.317V34.013H153.317ZM158.64 258.301L250.841 145.47L246.195 141.673L153.994 254.504L158.64 258.301ZM153.317 143.571V256.403H159.317V143.571H153.317ZM248.518 140.571H156.317V146.571H248.518V140.571ZM265.662 147.284L206.479 219.752L211.127 223.547L270.309 151.079L265.662 147.284ZM338.079 219.598L270.175 147.131L265.797 151.233L333.701 223.701L338.079 219.598ZM208.803 224.649H335.89V218.649H208.803V224.649ZM102.741 69.5844H121.43V63.5844H102.741V69.5844ZM105.741 85.2857V66.5844H99.7411V85.2857H105.741ZM121.43 82.2857H102.741V88.2857H121.43V82.2857ZM118.43 66.5844V85.2857H124.43V66.5844H118.43Z" fill="#282A31" mask="url(#path-1-outside-1)"/>
</svg>
