<?xml version="1.0" encoding="UTF-8" standalone="no"?>
<svg width="363px" height="336px" viewBox="0 0 363 336" version="1.1" xmlns="http://www.w3.org/2000/svg" xmlns:xlink="http://www.w3.org/1999/xlink" xmlns:sketch="http://www.bohemiancoding.com/sketch/ns">
    <!-- Generator: Sketch 3.3.3 (12072) - http://www.bohemiancoding.com/sketch -->
    <title>imza_cihan</title>
    <desc>Created with Sketch.</desc>
    <defs></defs>
    <g id="Page-1" stroke="none" stroke-width="1" fill="none" fill-rule="evenodd" sketch:type="MSPage">
        <g id="imza_cihan" sketch:type="MSLayerGroup">
            <path d="M40.4708845,128.636086 C39.2893267,129.149459 38.1265697,130.083914 37.2964422,131.074609 C35.1979841,133.578026 32.7076016,135.680549 30.6510837,138.211365 C30.0870598,138.904996 29.6083625,139.605837 29.2222231,140.361476 C29.0689243,140.659983 28.9980598,140.975794 28.8606693,141.278627 C28.408004,142.276532 26.9820359,142.16982 26.8301833,142.98891 C26.7318406,143.523914 27.5446135,143.94788 27.0876096,144.847725 C25.3839681,148.207725 24.4482669,151.625408 23.1871673,155.018575 C22.9846972,155.562232 22.7663187,156.039554 22.7634263,156.581768 C22.754749,158.202644 22.6491753,159.84515 21.7583068,161.598695 C21.2665936,162.56776 21.7033506,163.336378 21.47051,164.282369 C20.3395697,168.879657 20.9035936,172.970781 21.2579163,177.07921 C21.5066653,179.95612 22.0359801,182.802747 23.0382072,185.255691 C24.3383546,188.43976 26.2936375,191.165253 28.8389761,193.308155 C29.3581673,193.743657 29.9785936,193.883536 30.7899203,193.540326 C33.9455618,192.209305 36.7121713,190.566798 38.645761,186.9703 C42.2251434,180.315193 45.1392669,173.697579 45.8739442,166.925665 C45.9187769,166.511794 45.7871713,165.97679 46.4307371,165.714335 C47.0656255,165.454764 47.357761,165.831142 47.4850279,166.311348 C47.7757171,167.423176 48.1126853,168.504721 47.9348008,169.844395 C47.4691195,173.350043 46.7098566,176.913373 45.4169402,180.455073 C44.0994382,184.058781 42.3321633,187.645185 39.7636853,190.941734 C39.7101753,191.010953 39.6667888,191.094592 39.6046016,191.150833 C36.0237729,194.34788 32.5383944,197.743931 28.5526255,200.215622 C27.3566056,200.956841 26.1490159,201.804773 24.8618845,202.372944 C21.1856056,203.992378 17.7985697,204.233202 14.7123466,203.48333 C10.5458008,202.471004 7.53188845,200.065648 5.47970916,196.386953 C2.38914741,190.850884 1.13094024,184.32412 0.400601594,177.467124 C0.319613546,176.708601 0.0347091633,175.892395 1.47513944,175.549185 C1.93214343,175.439588 1.98131474,174.919004 2.01023904,174.545511 C2.06230279,173.869185 2.12738247,173.18709 2.12738247,172.528069 C2.1302749,168.849373 2.59884861,165.049545 3.03560558,161.258369 C3.07899203,160.879107 3.28146215,160.387365 3.15708765,160.135004 C2.23440239,158.253116 4.04795618,156.989871 5.38715139,155.761236 C5.99022311,155.206043 6.26355777,154.718627 6.43131873,154.108635 C7.18190438,151.386026 8.15954582,148.641785 9.48427888,146.0057 C10.5009681,143.979605 10.8350438,141.669425 12.8496215,139.940395 C12.9421793,138.153682 15.1780279,136.822661 15.2286454,134.922026 C15.246,134.277425 16.0139402,133.128103 16.6676295,132.607519 C18.0343028,131.520206 18.7776574,129.770987 20.3988645,128.983622 C20.7690956,128.803365 21.1725896,128.239519 21.3909681,127.809785 C22.1444462,126.327348 23.3202191,126.821974 24.2501355,126.229288 C25.2060837,125.620738 25.0122908,124.139742 26.2647131,123.770575 C27.6906813,123.350936 29.0327689,122.527519 30.4167968,121.806489 C32.5499641,120.694661 34.3736414,121.28879 35.9442311,121.96079 C38.1902032,122.921202 40.5099323,123.679725 43.0928725,123.994094 C43.7407769,124.071966 44.2136892,123.924876 44.70251,123.267296 C44.8080837,123.125974 44.9194422,122.984652 45.0452629,122.864961 C46.2947928,121.679588 47.0887649,119.731365 49.1134661,119.921717 C50.4410916,120.047176 52.0406056,119.339124 53.1353904,120.266369 C53.67049,120.720618 54.6799482,120.611021 55.4088406,120.870592 C57.985996,121.787742 58.6396853,124.028704 57.1442988,127.199794 C55.7110996,130.23533 54.5541275,133.302592 53.2134861,136.348223 C52.4224064,138.143588 51.2784502,139.761579 49.8090956,141.189219 C47.5616773,143.371056 45.7322151,145.761991 44.6605697,148.571124 C44.3973586,149.261871 44.1341474,149.998764 43.6973904,150.623176 C42.4970319,152.34067 41.2388247,152.582936 40.3783267,151.355742 C39.8331036,150.578472 39.264741,149.819948 38.7253028,149.035468 C38.5127092,148.726867 38.2278048,148.425476 38.188757,148.02891 C37.8705896,144.728034 37.4063546,141.51224 38.034012,137.832103 C38.5069243,135.048927 39.7853785,132.306129 40.407251,129.559004 C40.4737769,129.26915 40.7398805,128.944687 40.4708845,128.636086 L40.4708845,128.636086 Z M30.7855817,124.536309 C30.5773267,124.067639 30.2982072,124.02582 29.9988406,124.164258 C28.6625378,124.777133 27.3435896,125.43327 26.075259,126.359073 C25.5936693,126.710936 25.2075299,126.987811 25.3680598,127.473785 C25.5430518,128.005906 26.0391036,127.698747 26.4729681,127.410335 C27.8757968,126.477322 29.1180956,125.153511 30.7855817,124.536309 L30.7855817,124.536309 Z" id="Fill-1" fill="#000000" sketch:type="MSShapeGroup"></path>
            <path d="M57.4031713,157.92721 C58.3721355,146.843536 60.1451952,135.60412 62.1048167,124.325768 C62.6384701,121.257064 63.0622112,118.211433 63.2936056,115.203296 C63.4338884,113.376206 63.276251,111.696206 62.9407291,110.072446 C62.5560359,108.215073 62.0368446,106.569682 59.895,106.271176 C58.6960876,106.103897 58.940498,105.743382 60.0786693,104.383519 C61.9558566,102.139674 64.002251,100.700498 66.4564781,100.401991 C67.8491833,100.23327 69.2418884,100.094833 70.5955458,100.07176 C72.4481474,100.040034 74.2660398,100.126558 76.095502,100.16982 C78.4427092,100.227502 80.1984143,101.340773 81.486992,102.810232 C83.4957849,105.104549 84.9940637,107.851674 85.5306096,111.311176 C85.7677888,112.842644 85.7128327,114.453425 85.6434143,116.039691 C85.5407331,118.393133 85.5667649,120.760996 85.116992,123.169236 C84.5139203,126.400893 83.7213944,129.721957 82.0220916,132.982455 C81.6258287,133.742421 81.0675896,134.417305 81.3336932,135.161408 C81.3915418,135.327245 81.352494,135.671897 81.2208884,135.823313 C79.7963665,137.483124 79.9771434,139.106884 79.6242669,140.772464 C79.2193267,142.684635 78.0507849,144.572292 77.3421394,146.501768 C75.9696813,150.239588 74.1763745,153.967313 73.521239,157.706575 C73.2840598,159.054901 72.3049721,160.179708 71.9332948,161.484773 C71.1465538,164.252086 71.0265179,166.89394 70.4523705,169.613665 C69.9028088,172.212258 69.413988,174.800755 69.1001594,177.363296 C69.0148327,178.071348 69.1131753,178.669803 69.1681315,179.297099 C69.3518008,181.411159 69.622243,183.481957 69.3951873,185.757528 C69.144992,188.255176 67.350239,190.611502 64.9148127,191.46376 C64.3840518,191.649785 63.8937849,191.688721 63.4020717,191.622386 C59.7460398,191.129202 58.0554143,188.695004 57.4725896,185.118695 C56.9779841,182.088927 56.6641554,179.007245 56.8073307,175.709253 C56.9360438,172.740052 56.6106454,169.913614 56.8290239,166.905476 C57.0474024,163.905991 57.2137171,160.919485 57.4031713,157.92721" id="Fill-2" fill="#000000" sketch:type="MSShapeGroup"></path>
            <path d="M69.7249243,63.3251845 C70.6418247,62.9704378 71.6686375,62.6315536 72.5132271,62.8348841 C73.9044861,63.1694421 75.2769442,62.6243433 76.7593147,61.7663176 C77.9119482,61.0986438 78.8476494,61.0005837 80.0292072,61.3048584 C82.2939801,61.8874506 84.1870757,63.0108155 86.2132231,63.9005665 C88.5647689,64.9345236 89.795498,67.1437597 89.4397291,70.3624378 C89.3645259,71.040206 89.1244542,71.7972876 89.2314741,72.3813219 C90.0268924,76.7493219 87.5307251,81.2499914 85.5306096,85.7362403 C85.2746295,86.3101803 84.9318765,86.7572189 84.3476056,87.0326524 C83.5276016,87.4205665 82.7625538,87.8517425 82.2766255,88.8179227 C82.1204343,89.1294077 81.6041355,89.5548155 81.3091076,89.6009614 C79.8918167,89.8302489 78.4311394,90.8988155 77.0847131,90.960824 C74.3137649,91.0906094 71.3996414,91.6097511 68.9309522,90.815176 C68.7443904,90.7560515 68.5346892,90.7344206 68.3568048,90.6637597 C67.1983865,90.1950901 65.4687131,90.7041373 64.822255,89.3601373 C63.6378048,86.8927725 62.5054183,84.4066609 63.3861633,80.9240858 C64.1295179,77.9837253 64.8381633,75.0462489 65.0334024,72.1880858 C65.1158367,70.9955021 65.3081833,69.7365837 64.2611235,69.16697 C63.8489522,68.9434506 64.0210518,68.5468841 64.2567849,68.0219742 C65.3038446,65.6843948 66.6734104,63.8529785 69.2042869,63.4910215 C69.3489084,63.4693906 69.5036534,63.3972876 69.7249243,63.3251845" id="Fill-3" fill="#000000" sketch:type="MSShapeGroup"></path>
            <path d="M102.036263,140.041339 C103.716765,136.790936 105.401606,133.540532 107.077769,130.288687 C110.57761,123.496584 114.697876,116.987124 119.661287,110.852601 C120.546371,109.759519 121.411207,108.643365 122.202287,107.495485 C123.333227,105.852979 124.751964,105.059845 126.289291,104.967554 C127.194622,104.912755 128.02041,104.581082 128.925741,104.242197 C132.330131,102.9703 135.785139,102.156979 138.833761,102.494421 C142.024112,102.847725 144.095092,104.87382 144.964267,108.030489 C145.468996,109.867674 145.808857,111.726489 145.256402,113.99485 C144.767582,116.003639 144.910757,117.89418 144.715518,119.845288 C144.381442,123.200961 143.724861,126.634506 143.392231,129.988738 C143.210008,131.828807 142.708171,133.58812 141.954693,135.465682 C140.763012,138.433442 139.710167,141.437253 138.900287,144.410781 C138.365187,146.369099 138.308785,148.312996 138.143916,150.236704 C138.090406,150.858232 138.182964,151.397562 137.568323,151.968618 C136.324578,153.122266 136.2971,154.366764 136.398335,155.482918 C136.514032,156.77212 136.389657,158.119004 136.373749,159.441373 C136.365072,160.195571 136.359287,160.871897 135.55953,161.591485 C135.284749,161.839519 134.956458,162.488446 135.041785,162.68024 C135.686797,164.128069 134.215996,166.227708 134.921749,167.619296 C135.48288,168.72824 135.111203,169.835742 133.899275,170.908635 C133.109641,171.606592 132.714825,172.952034 131.486988,172.939056 C130.101514,172.926077 128.691454,173.14527 127.751414,172.029116 C126.597335,170.659159 125.03253,169.714609 123.900143,168.269665 C121.405422,165.082712 119.95053,161.249717 119.34312,156.816824 C118.288829,149.114781 118.844175,140.884944 119.638147,132.58012 C120.14143,127.30218 120.712685,122.008378 121.255016,116.721785 C121.324434,116.046901 121.443024,115.351828 120.977343,114.77212 C119.717689,115.940189 118.71257,117.209202 117.776869,118.544549 C113.70288,124.357494 110.444558,130.457408 107.171773,136.560206 C104.817335,140.954163 103.034151,145.424549 101.239398,149.894936 C100.503275,151.727794 99.8640478,153.579399 99.5343108,155.42812 C99.2624223,156.962472 98.2544104,158.574695 98.4554343,160.06867 C96.7792709,162.479794 97.8046375,164.576549 96.9672789,166.912687 C96.3338367,168.680652 95.9838526,170.415451 96.0214542,172.148807 C96.0503785,173.419262 95.3605339,174.903142 94.2729801,176.190901 C93.9793984,176.538438 93.6872629,176.848481 93.3199243,177.06479 C92.0125458,177.830524 91.5150478,178.309288 91.0681673,179.383622 C90.9712709,179.617236 90.810741,180.000824 90.7210757,179.976309 C89.493239,179.631657 88.6486494,181.265511 87.53651,181.571227 C85.9297649,182.012498 84.9709243,181.248206 84.3056653,180.357013 C82.9939482,178.599142 81.8528845,176.668223 82.8334183,173.608172 C83.1226614,172.704 83.0850598,171.78685 83.1226614,170.898541 C83.4046733,164.415039 84.7236215,157.700807 85.4033426,151.135107 C85.6969243,148.300017 86.2233466,145.407245 86.2710717,142.605322 C86.3144582,140.051433 86.9233147,137.298541 87.4555219,134.610541 C88.1366892,131.17267 88.5908008,127.779502 89.123008,124.370472 C90.5200518,115.431142 91.2865458,106.624481 92.5953705,97.7067811 C93.3199243,92.7706094 94.0719562,87.8012704 94.5260677,82.9545064 C95.4675538,72.8918112 97.9854143,62.6099227 99.6933944,52.4477253 C101.200351,43.4925322 103.047167,34.4825408 104.165092,25.5907983 C104.745024,20.9733219 105.709649,16.2750901 106.487713,11.615794 C106.641012,10.6986438 106.798649,9.77139914 106.834805,8.88453219 C106.873853,7.89816309 106.752371,7.03292704 105.523088,7.07186266 C104.700191,7.09781974 104.451442,6.60463519 105.329295,5.73939914 C105.816669,5.25775107 105.896211,4.70976824 106.150745,4.18630043 C107.024259,2.39958798 108.184124,1.49109013 109.912351,1.31660086 C113.19092,0.983484979 116.482506,0.611433476 119.722028,0.425407725 C122.216749,0.282643777 124.373056,0.889751073 125.923398,2.45727039 C126.244458,2.78173391 126.577088,2.96054936 127.042769,3.07735622 C129.622817,3.72339914 130.445713,5.29091845 129.84698,8.36106438 C129.752976,8.84271245 129.745745,9.27244635 129.822394,9.67045494 C130.159363,11.3951588 129.478195,13.4039485 129.148458,15.2324807 C128.880908,16.7105923 128.15057,18.3559828 127.81794,19.9523433 C127.614024,20.9358283 127.151235,21.9337339 127.392753,22.8335794 C127.441924,23.0210472 127.467956,23.3022489 127.35949,23.4897167 C126.384741,25.1812532 126.902486,26.6334077 126.500438,28.1951588 C125.897367,30.5442747 126.12153,32.6987124 125.567629,34.9944721 C125.035422,37.199382 125.010837,39.3466094 124.043319,41.6048755 C123.722259,42.3547468 123.636932,43.1464378 123.496649,43.9107296 C122.948534,46.8885837 122.169024,49.8433648 120.537693,52.8226609 C119.976562,53.8450815 119.622239,55.0016137 119.440016,56.0543176 C118.991689,58.6456996 117.659725,61.3063004 117.539689,63.8616309 C117.532458,64.007279 117.441347,64.1817682 117.447131,64.320206 C117.503534,65.4810644 115.80857,66.4155193 116.154215,67.7782661 C116.401518,68.7530987 115.944514,70.1418026 115.721797,71.3574592 C115.497633,72.5832103 115.169343,73.824824 114.893116,75.0592275 C114.583625,76.4464893 114.327645,77.8294249 113.967538,79.2210129 C112.916139,83.2732017 112.715116,87.1537854 112.326084,91.0704206 C112.236418,91.9745923 112.317406,92.8499227 111.55959,93.7699571 C111.319518,94.0612532 111.189359,94.3338026 111.354227,94.5962575 C112.013701,95.6431931 111.39906,96.9944034 110.973873,98.3023519 C110.849498,98.688824 110.654259,99.1041373 110.645582,99.4588841 C110.580502,102.3257 109.608645,105.335279 109.092347,108.272755 C108.473367,111.788498 107.387259,115.34606 106.489159,118.88776 C106.411064,119.196361 106.363339,119.678009 106.191239,119.791931 C104.160753,121.130163 105.096454,122.563571 104.690068,123.956601 C103.984315,126.364841 104.199801,128.711073 102.809988,131.164017 C102.68706,131.380326 102.549669,131.67018 102.58004,131.847554 C103.011012,134.424515 102.192454,137.297099 102.036263,140.041339" id="Fill-4" fill="#000000" sketch:type="MSShapeGroup"></path>
            <path d="M191.993737,133.43382 C190.249602,136.085768 188.67612,138.465167 187.1171,140.851777 C183.811052,145.909082 179.984367,150.556841 175.486637,154.685459 C175.292845,154.862833 175.067235,155.034438 174.929845,155.243536 C173.004932,158.185339 170.215183,159.839382 167.510761,161.588601 C165.601757,162.823004 163.529331,163.376755 161.633343,164.714987 C157.453781,165.35382 153.180215,166.292601 149.664466,164.805837 C146.287554,163.378197 144.421936,160.50994 143.765355,156.72309 C142.92655,151.877768 143.351737,146.63588 145.019223,141.091159 C145.888398,138.199828 147.500928,135.542112 149.496705,133.076189 C150.351418,132.020601 151.401371,131.034232 152.70441,130.242541 C153.92357,129.502764 154.927243,128.210678 156.425522,127.906403 C156.814554,127.82709 158.292586,126.944549 157.306267,126.014421 C157.122598,125.841373 157.628773,125.528446 157.912231,125.46067 C160.347657,124.875193 162.412853,123.033682 164.609653,121.577202 C165.608988,120.913854 166.770299,120.671588 167.859299,120.233202 C168.381382,120.022661 168.939622,119.892876 169.418319,119.569854 C173.24645,116.982798 177.246681,115.726764 181.20208,114.146266 C184.244916,112.930609 187.106976,111.165528 189.877924,109.009648 C191.136131,108.031931 191.623506,107.049888 191.681355,105.684258 C191.906964,100.26067 192.216454,94.8096824 192.546191,89.3558112 C192.648873,87.6397597 192.916422,85.8775622 193.094307,84.1398798 C193.290992,82.2204979 193.143478,80.4655107 192.320582,79.0248927 C191.743542,78.0154506 190.841104,77.3607554 189.496124,77.6909871 C185.578327,78.6499571 181.683669,80.0127039 178.075363,83.1246695 C176.598777,84.3965665 175.765757,85.7722918 175.449036,87.5849614 C175.010833,90.0898197 174.237108,92.6278455 173.934849,95.1456824 C173.722255,96.9064378 172.589869,98.831588 171.184147,100.497167 C169.496414,102.498747 167.979335,103.131811 166.09347,102.640069 C165.133183,102.38915 164.168558,102.144 163.185131,101.939227 C162.236414,101.743107 161.519092,101.225408 160.968084,100.543313 C160.495171,99.960721 160.259438,99.2699742 160.89288,98.1321888 C161.682514,96.7160858 162.220506,95.2206695 162.878534,93.7627468 C164.340657,90.5166695 166.549028,87.6613906 169.220187,85.1983519 C176.31098,78.6600515 184.022199,74.2242747 192.28298,71.8852532 C194.022777,71.3935107 195.671462,71.3026609 197.328825,71.2593991 C201.981299,71.1397082 205.995992,72.3279657 209.842924,73.8464549 C210.820566,74.232927 211.978984,74.568927 212.106251,75.9533047 C212.117821,76.0830901 212.204594,76.2200858 212.31306,76.2633476 C214.486721,77.1502146 214.684853,79.7863004 216.003801,81.431691 C216.922147,82.5781288 216.427542,84.3086009 216.087681,85.9020773 C215.837486,87.0787983 215.77096,88.1646695 215.78253,89.2649614 C215.801331,91.2319313 216.005247,93.1340086 215.747821,95.1990386 C215.616215,96.2575107 215.688526,97.2683948 215.930044,98.1985236 C216.154207,99.0608755 216.152761,99.9708155 215.87798,101.026403 C215.454239,102.657373 216.06888,103.966764 215.831701,105.603502 C215.373251,108.76594 215.593076,111.74091 215.608984,114.776446 C215.626339,118.186918 215.736251,121.59018 215.555474,125.077082 C215.513534,125.893288 215.451347,126.72103 215.487502,127.509837 C215.558367,129.110524 214.765841,130.881373 213.801215,132.183554 C212.50396,133.938541 212.597964,135.227742 212.826466,136.545785 C213.215498,138.776652 214.44912,140.547502 214.388378,143.04515 C214.381147,143.345099 214.742701,143.546987 214.974096,143.747433 C216.035618,144.671794 215.509195,146.063382 214.721008,147.443433 C213.861956,148.94606 212.749817,150.046352 211.077992,150.200652 C207.922351,150.491948 205.144171,149.896378 202.948817,148.416824 C197.963713,145.055382 193.424044,141.212292 192.374092,134.251468 C192.343721,134.058232 192.219347,133.911142 191.993737,133.43382 L191.993737,133.43382 Z M191.548303,121.993957 C191.52661,119.127142 191.551195,117.141425 191.483223,115.188876 C191.431159,113.729511 191.153486,113.628567 189.691363,114.483708 C186.79604,116.176687 183.8501,117.628841 180.957669,119.405459 C176.455602,122.172773 172.105386,125.127554 168.300394,129.077356 C166.964092,130.464618 165.295159,131.85188 164.891665,133.847691 C164.222068,137.14424 163.176454,140.524429 163.890884,143.497957 C163.967534,143.81521 163.896669,144.227639 163.834482,144.606901 C163.35,147.554472 163.892331,150.138644 163.954518,152.891536 C163.971873,153.628429 164.237976,154.234094 164.567713,154.784961 C165.875092,156.974009 167.183916,157.027365 169.766857,154.722953 C173.561725,151.335554 177.129538,147.730403 180.170928,143.57006 C183.126992,139.523639 185.526263,135.245047 188.285641,131.127966 C190.564876,127.727588 192.287319,124.462764 191.548303,121.993957 L191.548303,121.993957 Z" id="Fill-5" fill="#000000" sketch:type="MSShapeGroup"></path>
            <path d="M240.60392,127.10606 C239.731853,125.126112 239.731853,125.126112 238.496785,124.406524 C237.15759,125.937991 238.047012,127.333906 237.326797,129.024 C236.192964,128.829322 236.600797,127.271897 235.591339,127.074335 C234.778566,127.802575 235.134335,128.357768 235.232677,129.01679 C235.348375,129.775313 235.076486,130.246867 234.05112,130.816481 C232.720602,131.556258 231.056008,131.713442 230.071135,133.579468 C229.84408,134.009202 228.727602,134.44903 228.500546,133.62994 C228.419558,133.334318 228.377618,133.043021 228.063789,133.229047 C225.245116,134.897511 224.21541,132.792103 222.647713,132.016275 C221.454586,131.426472 220.981673,129.851742 220.92961,128.373631 C220.828375,125.424618 220.576733,122.53473 220.667845,119.496309 C220.81102,114.749047 221.561606,109.854695 221.722135,105.110318 C221.817586,102.295416 221.933283,99.480515 221.894235,96.7031073 C221.855187,93.8233133 222.225418,90.7993133 222.416319,87.8373219 C222.746056,82.752618 223.461932,77.5237082 223.302849,72.6192618 C223.127857,67.223073 223.437347,61.5975966 222.106829,56.6426781 C221.584745,54.7031073 220.721355,53.2639313 218.777641,52.7894936 C218.520215,52.727485 218.254112,52.6654764 218.207833,52.3121717 C218.758841,51.4094421 219.616446,51.1022833 220.414757,50.7965665 C222.916709,49.8390386 225.347797,49.3227811 227.693558,49.4799657 C231.405992,49.728 234.901494,50.4764292 237.824295,52.1247039 C241.030554,53.9330472 243.580231,56.544618 245.035124,60.1613047 C245.597701,61.5586609 246.105323,62.9935107 246.685255,64.5379571 C247.70339,63.7477082 248.046143,62.7671073 248.493024,61.8167897 C250.228482,58.1236738 252.407928,54.5819742 254.752243,51.1066094 C256.678602,48.2498884 259.059072,45.7738712 261.637673,43.5011845 C265.1621,40.3935451 268.978661,38.7294077 272.787992,38.3876395 C275.816367,38.1165322 278.279271,39.0365665 279.815151,41.3727039 C280.500657,42.4153133 281.489869,43.2271931 282.480526,43.9770644 C284.375068,45.4147983 285.273167,47.6946953 286.352044,49.7986609 C288.369514,53.7340429 289.1201,58.3572876 289.141793,63.3641202 C289.151916,65.8343691 289.326908,68.2584721 289.597351,70.6277768 C289.743418,71.9155365 289.613259,73.2999142 289.420912,74.616515 C288.942215,77.8943176 289.225673,80.928412 288.849657,84.1831416 C288.274064,89.1943004 286.738183,94.2934249 285.926857,99.3074678 C285.744633,100.435159 284.713482,101.425854 284.586215,102.511725 C284.372175,104.335931 283.34247,105.964017 282.143558,107.560378 C281.531809,108.375142 281.165916,109.100498 281.39008,109.96285 C281.575195,110.675227 281.447928,111.635639 280.841964,112.401373 C279.893247,113.598283 280.227323,114.469288 280.345912,115.405185 C280.413884,115.951725 280.672757,116.385785 280.729159,116.96982 C280.902705,118.742112 281.533255,120.282232 280.946092,122.406386 C280.620693,123.583107 281.05745,124.650232 281.534701,125.613528 C282.077032,126.710936 282.377845,127.994369 281.886131,129.564773 C281.230996,131.65576 280.040761,132.388326 278.565622,131.582215 C276.112841,130.242541 273.910255,128.600034 271.946295,126.663348 C270.750275,125.483742 269.484837,124.37624 268.309064,123.176446 C263.344207,118.111931 260.989769,111.302524 260.427191,103.270249 C259.799534,94.2991931 260.647016,84.8955193 261.513299,75.4745408 C261.873406,71.5579056 262.009351,67.6946266 262.50251,63.743382 C263.148968,58.5735966 264.057191,53.3692017 265.849052,48.0595365 C266.298825,46.727073 266.586622,45.4104721 266.439108,44.1962575 C266.307502,43.1190386 265.796988,42.9647382 264.742697,43.8328584 C262.778737,45.4494077 261.09245,47.351485 259.605741,49.4467983 C255.452211,55.295794 252.287892,61.3870558 250.125801,67.7494249 C249.810526,68.6752275 249.350629,69.5967039 248.960151,70.5210644 C247.824873,73.2076223 247.606494,75.6879657 247.683143,78.2130129 C247.778594,81.3091159 247.754008,84.4830901 247.085857,87.8041545 C246.832769,89.0558627 246.920988,90.0927039 247.120566,91.2088584 C247.406916,92.7951245 247.307127,94.6438455 247.094534,96.3959485 C246.855908,98.3686867 246.854462,100.247691 246.813968,102.13679 C246.743104,105.509768 246.137139,108.917356 244.692371,112.450403 C244.567996,112.753236 244.31057,113.082026 244.294661,113.348807 C244.077729,116.792446 241.970594,120.400481 241.771016,123.857099 C241.713167,124.855004 240.830976,125.968275 240.60392,127.10606" id="Fill-6" fill="#000000" sketch:type="MSShapeGroup"></path>
            <path d="M73.6716454,213.387399 C73.2941833,213.796944 73.0989442,213.935382 73.0324183,214.091124 C71.6585139,217.325665 70.0098287,220.509734 68.6850956,223.760137 C67.0465339,227.786369 65.2431036,231.801064 63.1750159,235.763845 C61.8314821,238.339365 60.6586016,240.985545 58.9028964,243.40388 C55.0993506,248.645768 50.0925538,251.780807 45.5066056,248.109322 C43.3459602,246.37885 42.773259,243.542318 41.8766056,240.939399 C40.7138486,237.560652 40.8946255,233.571914 40.96549,229.658163 C41.0667251,224.100464 41.536745,218.434609 41.8071873,212.82788 C41.9706096,209.463554 42.0515976,206.1223 42.0747371,202.802678 C42.0935378,200.270421 42.0284582,200.292052 40.1006534,198.96103 C40.2973386,198.278936 40.7803745,198.459193 41.1433745,198.325082 C44.0748526,197.252189 46.8313386,196.770541 49.4648964,197.33727 C50.8315697,197.631451 52.3949283,197.583863 53.8208964,197.829013 C54.5758207,197.958798 55.2338486,198.166455 55.8036574,198.588979 C57.0690956,199.530644 58.6035299,200.146403 59.471259,201.561064 C60.1379641,202.651262 60.6571554,203.827983 60.6831873,205.297442 C60.694757,205.933391 60.7005418,206.556361 60.8364861,207.144721 C61.4496813,209.802438 60.9189203,212.849511 60.8075618,215.75382 C60.7945458,216.10424 60.6759562,216.495039 60.7135578,216.819502 C61.0331713,219.521923 60.2956016,222.476704 59.8704143,225.355056 C59.720008,226.371708 59.7879801,227.335004 59.7764104,228.296858 C59.7561633,229.855725 59.3700239,231.411708 58.866741,232.999416 C58.2361912,234.993785 58.247761,236.950661 57.2252869,238.970987 C57.071988,239.276704 57.2007012,239.65885 57.2296255,239.991966 C57.2383028,240.088584 57.3568924,240.136172 57.4827131,240.264515 C58.2419761,239.863622 58.5268805,239.087794 58.9390518,238.433099 C61.3788167,234.566936 63.1779084,230.539262 64.9610916,226.517356 C67.5801873,220.609236 70.3901833,214.728515 72.734498,208.778575 C73.1220837,207.793648 73.5414861,206.808721 73.6976773,205.836773 C73.8582072,204.843193 73.9883665,203.900086 75.0513347,203.114163 C75.4143347,202.84594 75.4678446,202.429185 75.5170159,202.062901 C75.732502,200.436258 76.0043904,198.795193 76.1316574,197.191622 C76.1923984,196.424446 76.5481673,195.415004 75.5965578,195.155433 C75.3102072,195.077562 75.5459402,194.644944 75.6066813,194.349322 C75.7209323,193.799897 75.8091514,193.253356 75.9262948,192.703931 C76.1981833,191.430592 76.4454861,190.176 74.8908048,190.07073 C75.161247,189.713099 75.2668207,189.478043 75.3940876,189.420361 C77.9885976,188.245082 80.5585219,186.875124 83.2036494,186.503073 C87.6739004,185.875777 91.7276414,186.239176 95.1508327,188.017236 C96.4148247,188.674815 97.0844223,189.964017 96.7040677,191.879073 C96.2586335,194.120034 96.1024422,196.306197 95.811753,198.518318 C95.3576414,201.98503 95.2867769,205.359451 94.6504422,208.872309 C94.2917809,210.852258 94.3293825,212.770197 93.4717769,214.819365 C93.4226056,214.93473 93.4298367,215.063073 93.4341753,215.176996 C93.5281793,217.790009 92.7023904,220.568858 92.0718406,223.297236 C91.4933546,225.804979 91.2214661,228.236292 90.9958566,230.663279 C90.8772669,231.935176 90.6314104,233.205631 89.97049,234.480412 C89.6957092,235.01109 89.6928167,235.459571 89.6393068,235.916704 C89.5091474,237.048721 89.6986016,237.133803 90.7803705,236.608893 C91.3675339,236.323365 91.9575896,236.042163 92.5418606,235.733562 C93.2562908,235.355742 93.8347769,235.443708 94.3510757,235.680206 C94.7603546,235.866232 94.8919602,236.236841 94.554992,236.836738 C94.111004,237.626987 93.5744582,238.352343 92.8412271,238.901768 C91.7276414,239.735279 90.8555737,240.845665 89.8302072,241.781562 C88.7455458,242.770815 88.1959841,243.938884 87.8778167,245.22376 C87.4685378,246.874918 87.3239163,248.53473 86.7439841,250.154163 C85.6202749,253.290644 85.1893028,256.362232 84.2174462,259.474197 C83.9513426,260.323571 83.6100359,261.072 83.0286574,261.912721 C81.9902749,263.413906 80.9533386,265.049202 80.6988048,266.732086 C80.3430359,269.069665 79.1918486,271.35533 78.2257769,273.64388 C77.1121912,276.279966 75.9291873,278.914609 75.0889363,281.562232 C74.3470279,283.902695 73.4214502,286.276326 72.9051514,288.570644 C72.526243,290.252086 71.5500478,291.880172 71.3851793,293.568824 C71.2694821,294.736893 70.1139562,295.95976 69.3358924,297.019674 C68.4667171,298.206489 67.8303825,299.461082 67.2200797,300.646455 C66.5316813,301.983245 65.6465976,303.312824 65.1968247,304.711622 C64.9133665,305.595605 64.1555498,306.232996 63.5380159,306.782421 C62.3246414,307.862524 61.8199124,309.118558 61.4250956,310.377476 C60.8408247,312.243502 60.1755657,314.041751 58.7336892,315.682815 C58.5630359,315.878936 58.422753,316.160137 58.3735817,316.389425 C57.9729801,318.281408 56.5817211,319.934009 55.734239,321.712069 C55.3596693,322.497991 54.638008,322.829665 54.1752191,323.559348 C52.4513307,326.281957 50.261761,328.717597 47.9203386,330.974421 C45.9448088,332.87794 43.6771434,334.276738 41.3935697,335.38424 C38.9783904,336.555193 37.0838486,335.776481 35.1994303,335.186678 C34.7901514,335.058335 34.6961474,334.60697 34.5934661,334.171468 C32.6613227,325.915674 33.2730717,317.120549 37.4902351,307.388086 C39.8070717,302.042369 42.5577729,296.865373 45.697506,291.770575 C49.5892709,285.454352 53.4766972,279.136687 57.9238088,273.071382 C60.3896056,269.705614 62.9971315,266.443674 65.7203546,263.271142 C66.8541873,261.950215 67.3661474,260.666781 67.6192351,259.223279 C68.6561713,253.292086 69.4053108,247.415691 70.3091952,241.510455 C71.4965378,233.766592 72.425008,226.077528 73.3809562,218.382695 C73.5790876,216.783451 73.917502,215.132292 73.6716454,213.387399 L73.6716454,213.387399 Z M65.7868805,268.145305 C65.6682908,268.139536 65.5497012,268.132326 65.4311116,268.126558 C64.3580199,269.483536 63.2531116,270.818884 62.2219602,272.198936 C59.7662869,275.485391 57.797988,279.001133 55.5462311,282.37988 C51.8410279,287.939021 48.5060558,293.643811 45.260749,299.367348 C42.9207729,303.495966 40.9871833,307.758695 38.8858327,311.965185 C38.6775777,312.380498 38.5763426,312.820326 38.4158127,313.248618 C37.5365139,315.59485 37.4454024,317.913682 36.5834582,320.220979 C35.4872271,323.158455 35.4539641,325.795983 35.365745,328.492635 C35.2963267,330.686009 36.5068088,331.702661 38.2104502,332.226129 C39.1548287,332.515983 40.3248167,332.018472 41.2446096,331.265717 C42.7544582,330.029871 44.0849761,328.661356 45.2997968,326.953957 C47.7742709,323.472824 49.7729402,319.869116 51.741239,316.230798 C52.5438884,314.746918 53.3060438,313.225545 53.4043865,311.678215 C53.4188486,311.456137 53.515745,311.167725 53.663259,310.960069 C54.7884143,309.376687 55.3625618,307.618815 55.7313466,306.045528 C56.2433068,303.860807 57.0907888,301.704927 57.7661713,299.546163 C58.6888566,296.595708 59.5681554,293.649579 60.3736972,290.704893 C60.6065378,289.855519 60.4980717,288.984515 60.8610717,288.172635 C61.7938805,286.08309 62.0108127,284.032481 62.5516972,281.990524 C63.2907131,279.197253 63.9632032,276.382352 64.5387968,273.593408 C64.9119203,271.785064 65.3645857,269.9623 65.7868805,268.145305 L65.7868805,268.145305 Z" id="Fill-7" fill="#000000" sketch:type="MSShapeGroup"></path>
            <path d="M95.8392311,250.374798 C96.5261833,242.509803 97.7843904,234.53521 99.1742032,226.533219 C99.5531116,224.355708 99.8539243,222.195502 100.017347,220.059811 C100.117135,218.764841 100.005777,217.572258 99.7685976,216.420052 C99.4952629,215.102009 99.1264781,213.935382 97.606506,213.723399 C96.7561315,213.60515 96.9296773,213.348464 97.7366653,212.383725 C99.0686295,210.791691 100.520629,209.770712 102.261873,209.55873 C103.251084,209.439039 104.238849,209.340979 105.199135,209.325116 C106.513745,209.302043 107.802323,209.362609 109.101024,209.394335 C110.767064,209.434712 112.012255,210.224961 112.926263,211.267571 C114.352231,212.895657 115.415199,214.84388 115.795554,217.298266 C115.963315,218.385579 115.924267,219.529133 115.876542,220.65394 C115.802785,222.323845 115.821586,224.003845 115.501972,225.712687 C115.073892,228.005562 114.511315,230.361888 113.306618,232.674953 C113.026052,233.214283 112.629789,233.693047 112.817797,234.222283 C112.859737,234.33909 112.830813,234.582798 112.738255,234.690953 C111.727351,235.869116 111.854618,237.01988 111.605869,238.202369 C111.318072,239.559348 110.487944,240.899021 109.986108,242.267536 C109.012805,244.919485 107.740135,247.564223 107.274454,250.217614 C107.106693,251.175142 106.411064,251.972601 106.147853,252.898403 C105.589614,254.862489 105.504287,256.735725 105.0979,258.666644 C104.707422,260.509597 104.360331,262.345339 104.13906,264.165219 C104.076873,264.667056 104.147737,265.091021 104.186785,265.536618 C104.316944,267.036361 104.507845,268.50582 104.347315,270.119485 C104.16943,271.891777 102.895315,273.564567 101.168534,274.16879 C100.792518,274.301459 100.44398,274.328858 100.095442,274.28127 C97.5009323,273.93085 96.3005737,272.204704 95.8884024,269.666678 C95.5369721,267.518009 95.314255,265.330403 95.41549,262.98994 C95.5066016,260.884532 95.2766534,258.878627 95.4313984,256.744378 C95.5861434,254.615897 95.7047331,252.497511 95.8392311,250.374798" id="Fill-8" fill="#000000" sketch:type="MSShapeGroup"></path>
            <path d="M123.739614,128.770197 C129.560629,124.928549 129.012514,128.493322 134.20298,128.902867 C134.759773,128.946129 135.219669,129.124944 135.539283,129.520069 C137.177845,131.553373 138.561873,133.739536 138.408574,136.98273 C138.357956,138.071485 138.599474,139.075159 138.733972,140.106232 C139.202546,143.701288 139.595916,147.296343 138.900287,151.331227 C138.360849,154.46194 137.869135,157.595536 137.221231,160.733459 C136.550187,163.976652 136.649976,166.98479 136.3159,170.119828 C136.044012,172.669391 135.698367,175.2377 135.436602,177.784378 C135.286195,179.239416 135.508912,180.788189 134.473422,182.413391 C134.385203,182.551828 134.334586,182.766695 134.367849,182.890712 C134.82196,184.631279 133.83998,186.86503 134.390988,188.569545 C133.552183,190.618712 134.148024,192.392446 133.531936,194.40412 C133.313558,195.11794 133.384422,195.749562 133.53049,196.388395 C133.831303,197.709322 133.838534,199.10091 133.309219,200.743416 C132.847876,202.172498 132.688793,203.652052 132.766888,205.024893 C132.842092,206.341494 132.42992,207.783554 132.467522,209.13188 C132.487769,209.854352 132.286745,210.695073 132.369179,211.446386 C132.416904,211.870352 132.490661,212.340464 132.020641,213.035536 C131.628717,211.92515 132.108861,210.478764 131.466741,209.62218 C131.262825,209.723124 131.228116,209.891845 131.220884,210.028841 C131.011183,213.668601 130.888255,217.28673 130.574426,220.952446 C130.406665,222.903554 129.904829,224.9383 129.562076,226.93267 C129.489765,227.358077 129.187506,227.66091 128.902602,227.995468 C128.227219,228.792927 127.995825,229.475021 128.143339,230.403708 C128.506339,232.680721 128.59745,235.087519 128.798474,237.440961 C128.838968,237.909631 128.603235,237.960103 128.211311,238.016343 C127.622701,238.102867 127.854096,238.489339 127.874343,238.734489 C127.898928,239.064721 128.050781,239.145476 128.371841,238.754678 C128.645175,238.423004 128.882355,238.441751 128.966235,238.731605 C129.086271,239.14115 129.217876,239.559348 129.217876,240.017923 C129.217876,240.398627 129.200522,240.991313 128.526586,240.571674 C128.261928,240.405837 128.066689,240.838455 128.172263,241.087931 C128.545386,241.974798 128.574311,243.036155 128.778227,244.005219 C128.902602,244.599348 128.458614,245.235296 128.665422,245.840961 C129.096394,247.09988 129.520135,248.355914 130.113084,249.502352 C130.651076,250.542077 131.099402,251.652464 131.721275,252.618644 C132.145016,253.277665 131.988825,253.935245 131.420462,254.688 C130.765327,255.557562 130.17961,256.601614 129.016853,256.685253 C127.916283,256.763124 127.013845,256.404052 126.063681,256.157459 C125.911829,256.117082 125.846749,255.890678 125.774438,255.726283 C125.68188,255.515742 125.70502,255.126386 125.535813,255.078798 C124.075135,254.673579 123.871219,253.055588 122.948534,252.142764 C122.649167,251.847142 122.440912,251.489511 122.410542,251.045356 C122.291952,249.352378 121.55149,248.035777 121.119072,246.534592 C120.56951,244.626747 120.455259,242.489614 119.937514,240.552927 C119.165235,237.670249 119.210068,234.411193 119.043753,231.260292 C118.770418,226.055897 118.621458,220.802472 118.447912,215.559142 C118.392956,213.913751 118.414649,212.240961 118.42188,210.572498 C118.443574,205.73006 118.327876,200.933768 118.511546,196.036532 C118.664845,191.929545 118.92661,187.793717 119.272255,183.633373 C119.630916,179.311519 119.90859,175.011296 120.187709,170.711073 C120.387287,167.653906 120.659175,164.569339 120.667853,161.57418 C120.679422,157.720996 121.411207,153.631313 121.025068,149.932429 C120.669299,146.519073 120.628805,142.98891 120.384394,139.53806 C120.283159,138.117631 124.478629,135.553648 124.148892,134.263004 C123.84808,133.084841 124.581311,129.593614 123.739614,128.770197" id="Fill-9" fill="#000000" sketch:type="MSShapeGroup"></path>
            <path d="M198.372992,171.70321 C197.843677,172.682369 197.38812,173.472618 196.987518,174.274403 C195.301231,177.658918 193.16951,180.965562 192.054478,184.448137 C191.196873,187.128927 190.089072,189.795296 189.361625,192.496275 C188.827972,194.479107 188.51559,196.290335 188.453402,198.186644 C188.394108,200.01085 188.797602,201.667777 188.495343,203.553991 C188.276964,204.923948 188.344936,206.231897 187.955904,207.632137 C187.769343,208.302695 188.000737,208.817511 188.032554,209.400103 C188.083171,210.338884 188.162713,211.199794 187.390434,212.21933 C187.18941,212.487554 187.111315,212.87691 187.066482,213.191279 C186.846657,214.734283 186.363622,216.330644 186.420024,217.815966 C186.428701,218.032275 186.37953,218.381253 186.214661,218.404326 C185.121323,218.551416 185.309331,219.343107 184.956454,219.983382 C184.699028,220.452052 184.049677,221.327382 183.205088,221.214901 C182.492104,221.121167 182.136335,221.715296 182.195629,222.282026 C182.341697,223.656309 181.168817,224.426369 180.296749,225.278627 C179.084821,226.462558 177.546048,226.595227 176.229992,227.593133 C175.861207,227.871451 174.76353,228.224755 174.866211,227.753202 C175.149669,226.446695 174.284833,227.088412 173.809028,227.212429 C172.339673,227.591691 171.495084,227.098506 171.040972,225.941974 C170.680865,225.020498 170.432116,224.087485 170.387283,222.958352 C170.290386,220.516944 169.879661,218.193785 169.597649,215.821597 C169.580295,215.673064 169.547032,215.527416 169.554263,215.371674 C169.76541,210.830627 169.091474,206.608275 169.228865,202.098953 C169.398072,196.581631 169.385056,191.120549 169.78855,185.531124 C169.886892,184.165494 170.161673,182.729202 169.781319,181.499124 C168.770414,181.992309 168.588191,182.949837 168.158665,183.682403 C166.366805,186.741013 164.677625,189.829906 163.283474,193.00388 C162.028159,195.866369 161.21394,198.665408 160.930482,201.491845 C160.712104,203.663588 160.566036,205.867056 160.033829,208.060429 C159.634673,209.710146 159.767725,211.244498 159.161761,212.914403 C158.934705,213.5417 158.979538,214.200721 158.972307,214.820807 C158.959291,215.808618 158.976645,216.787777 158.435761,217.849133 C158.014912,218.672549 158.305602,219.314266 158.239076,220.042506 C158.159534,220.913511 158.103131,221.777305 157.594064,222.631004 C157.128382,223.409717 157.401717,224.003845 157.199247,224.716223 C156.768275,226.236155 155.987319,227.793579 156.055291,229.276017 C156.065414,229.49521 155.951163,229.790833 155.735677,229.854283 C154.551227,230.207588 154.723327,231.02091 154.645231,231.724635 C154.496271,233.064309 153.142614,235.161064 151.88296,235.910936 C151.641442,236.055142 151.349307,236.021974 151.132375,236.311828 C150.015896,237.800034 148.717195,237.521717 147.487912,237.882232 C147.062725,238.007691 146.87761,237.69188 146.667908,237.472687 C145.105996,235.843159 144.06906,233.832927 143.688705,231.326627 C143.421155,229.558661 143.345952,227.712824 143.218685,225.887176 C142.988737,222.594953 142.745773,219.307056 142.592474,215.983107 C142.482562,213.580635 142.644538,211.068567 142.427606,208.713682 C142.285876,207.189425 142.71251,205.467605 142.171625,204.064481 C141.941677,203.466026 142.404466,202.421974 142.491239,201.595674 C142.557765,200.96982 142.515825,200.40309 142.287323,199.862318 C142.061713,199.328755 142.024112,198.567348 142.193319,197.880927 C142.619952,196.138918 142.693709,194.562747 142.096422,193.205768 C142.060267,193.123571 141.993741,193.024069 142.025558,192.937545 C142.656108,191.23303 142.054482,189.926524 141.886721,188.549356 C141.607602,186.240618 141.390669,183.856893 140.527279,181.836567 C140.15994,180.981425 139.325474,180.67715 138.482331,180.404601 C137.864797,180.202712 137.222677,180.033991 136.793151,179.562438 C136.412797,179.142798 136.566096,178.741906 137.237139,178.501082 C138.14247,178.175176 139.056478,177.880996 139.956024,177.673339 C143.405247,176.878764 146.8429,176.141871 149.966725,176.737442 C150.676817,176.871554 151.278442,177.093631 151.732554,177.643056 C152.172203,178.175176 152.746351,178.664034 153.776056,178.17806 C153.922124,178.108841 154.157857,178.069906 154.225829,178.143451 C154.912781,178.894764 156.198466,178.763536 156.904219,179.460052 C158.147964,180.685803 159.041725,182.16103 159.332414,184.145305 C159.639012,186.230524 160.177004,188.206146 160.584837,190.243777 C160.678841,190.716773 160.658594,191.248893 160.710657,192.04491 C161.76061,190.056309 162.728127,188.331605 163.579948,186.582386 C165.039179,183.582901 166.818024,180.721854 168.816693,177.934352 C169.625127,176.806661 170.649048,176.052464 171.769865,175.507365 C175.5199,173.681717 178.847641,173.468292 181.696685,174.979571 C181.894817,175.083399 182.097287,175.185785 182.315665,175.253562 C186.142351,176.438936 187.996398,179.323056 188.100526,183.737202 C188.114988,184.381803 188.04557,185.08697 188.302996,185.639279 C188.851112,185.382592 188.884375,184.960069 189.060813,184.606764 C191.600367,179.535039 193.88394,174.388326 197.210235,169.545888 C197.349072,169.342558 197.529849,169.127691 197.592036,168.920034 C198.459765,166.041682 200.752016,164.8217 203.038482,163.721408 C204.185331,163.170541 205.366888,162.753785 206.544108,162.34424 C209.060522,161.466026 210.719331,162.24618 212.177116,163.487794 C212.715108,163.944927 213.177896,164.490026 213.650809,165.019262 C214.036948,165.450438 214.200371,166.027262 214.382594,166.628601 C214.940833,168.46867 215.010251,170.514953 215.160657,172.529511 C215.394944,175.663107 215.795546,178.728927 215.710219,181.990867 C215.620554,185.428738 215.640801,188.832 215.516426,192.279966 C215.465809,193.685974 215.215614,195.15976 214.950956,196.619124 C214.801996,197.439657 215.013143,198.133288 214.749932,198.999966 C214.28859,200.511245 213.665271,201.951863 212.509745,203.243948 C212.207486,203.581391 212.116375,203.776069 212.237857,204.096206 C212.593625,205.039313 212.537223,206.227571 213.063645,207.069734 C213.478709,207.734524 212.621104,208.490163 212.516976,209.227056 C212.415741,209.95097 212.352108,210.533562 212.584948,211.123365 C213.299378,212.92594 212.85539,214.17909 211.150303,216.056652 C210.587725,216.676738 210.174108,216.831039 209.575375,216.81806 C208.049618,216.784893 206.996773,216.05521 206.072641,215.143828 C205.314825,214.395399 204.656797,213.540258 203.894641,212.797597 C202.326944,211.269013 201.872833,208.928549 201.074522,206.856309 C199.824992,203.617442 199.151056,200.055554 198.861813,196.294661 C198.728761,194.567073 199.035359,192.708258 198.802518,191.0023 C198.562446,189.237219 198.701283,187.301974 198.749008,185.411433 C198.848797,181.373665 198.832888,177.371948 198.843012,173.361579 C198.843012,172.80927 198.869044,172.215142 198.372992,171.70321" id="Fill-10" fill="#000000" sketch:type="MSShapeGroup"></path>
            <path d="M249.347737,190.918661 C248.109777,192.800549 246.993299,194.489202 245.886944,196.180738 C243.541183,199.770026 240.826637,203.068017 237.634841,205.996841 C237.49745,206.1223 237.33692,206.244876 237.240024,206.393408 C235.874797,208.480069 233.894928,209.653906 231.977247,210.894077 C230.622143,211.77085 229.151343,212.164532 227.806363,213.113408 C224.841622,213.566215 221.808908,214.232446 219.314187,213.1783 C216.917809,212.164532 215.594522,210.129785 215.128841,207.441785 C214.533,204.003914 214.835259,200.286283 216.018263,196.350901 C216.634351,194.300292 217.778307,192.414077 219.195598,190.664858 C219.801562,189.916429 220.546363,189.215588 221.470494,188.654627 C222.335331,188.128275 223.048315,187.212567 224.111283,186.996258 C224.386064,186.940017 225.436016,186.314163 224.736048,185.6537 C224.605888,185.531124 224.96455,185.309047 225.165574,185.261459 C226.893801,184.846146 228.358817,183.539639 229.917837,182.505682 C230.627928,182.035571 231.450825,181.863966 232.223104,181.552481 C232.593335,181.402506 232.989598,181.311657 233.329458,181.082369 C236.04545,179.246627 238.884371,178.355433 241.691474,177.233511 C243.849227,176.371159 245.879713,175.118009 247.846566,173.589425 C248.73888,172.894352 249.085972,172.199279 249.12502,171.230215 C249.28555,167.381356 249.505375,163.513751 249.739661,159.644704 C249.811972,158.426163 250.001426,157.175897 250.128693,155.942936 C250.26753,154.581631 250.163402,153.335691 249.579131,152.314712 C249.169853,151.598009 248.530625,151.133665 247.576124,151.367279 C244.795052,152.047931 242.032781,153.015554 239.471534,155.223348 C238.424474,156.126077 237.834418,157.10091 237.608809,158.38867 C237.297873,160.163845 236.748311,161.964979 236.534271,163.751691 C236.383865,165.001957 235.579769,166.367588 234.583327,167.550077 C233.385861,168.969064 232.309876,169.418987 230.970681,169.070009 C230.289514,168.892635 229.605454,168.718146 228.906932,168.572498 C228.234442,168.432618 227.725375,168.066335 227.33345,167.581803 C226.999375,167.169373 226.831614,166.679073 227.281386,165.871519 C227.841072,164.866403 228.222873,163.806489 228.69,162.77109 C229.726936,160.46812 231.293187,158.442026 233.189175,156.694249 C238.220558,152.055142 243.69159,148.907124 249.5531,147.248755 C250.786721,146.899777 251.956709,146.834884 253.132482,146.804601 C256.434191,146.719519 259.281789,147.563124 262.012243,148.640343 C262.70498,148.914335 263.527876,149.152275 263.617542,150.134318 C263.626219,150.226609 263.688406,150.323227 263.76361,150.354953 C265.306721,150.983691 265.447004,152.855485 266.382705,154.022112 C267.033502,154.835433 266.683518,156.062627 266.443446,157.193202 C266.264116,158.029597 266.217837,158.799657 266.225068,159.579811 C266.23953,160.975725 266.384151,162.325494 266.201928,163.790627 C266.107924,164.540498 266.159988,165.258644 266.330641,165.919107 C266.489725,166.530541 266.488279,167.175142 266.294486,167.925013 C265.993673,169.081545 266.428984,170.011674 266.261223,171.172532 C265.935825,173.416378 266.092016,175.527554 266.103586,177.680549 C266.115155,180.100326 266.193251,182.514335 266.065984,184.98891 C266.035614,185.568618 265.992227,186.155536 266.016813,186.715056 C266.06743,187.851399 265.504853,189.107433 264.820793,190.031794 C263.899554,191.276292 263.96608,192.192 264.129502,193.126455 C264.404283,194.708395 265.280689,195.965871 265.237303,197.738163 C265.231518,197.950146 265.488944,198.094352 265.652367,198.237116 C266.405845,198.891811 266.032721,199.879622 265.473036,200.858781 C264.864179,201.924464 264.074546,202.70606 262.888649,202.814215 C260.649908,203.021871 258.677271,202.599348 257.121143,201.549528 C253.583701,199.164361 250.36298,196.437425 249.616733,191.498369 C249.596486,191.361373 249.508267,191.257545 249.347737,190.918661 L249.347737,190.918661 Z M249.032462,182.801305 C249.016554,180.768 249.033908,179.357665 248.984737,177.973288 C248.948582,176.937888 248.75045,176.865785 247.71496,177.472893 C245.659888,178.674129 243.568661,179.70376 241.516482,180.965562 C238.321793,182.928206 235.237016,185.024961 232.536932,187.826884 C231.588215,188.811811 230.405211,189.796738 230.117414,191.212841 C229.643056,193.550421 228.901147,195.950009 229.407323,198.0583 C229.462279,198.284704 229.411661,198.577442 229.368275,198.845665 C229.024076,200.936652 229.408769,202.770953 229.453602,204.724944 C229.465171,205.24697 229.654625,205.676704 229.888912,206.067502 C230.815936,207.620601 231.744406,207.659536 233.576761,206.022798 C236.269614,203.620326 238.801936,201.062112 240.958243,198.110215 C243.056701,195.239073 244.758896,192.203536 246.717072,189.281923 C248.33394,186.869356 249.555992,184.553408 249.032462,182.801305 L249.032462,182.801305 Z" id="Fill-11" fill="#000000" sketch:type="MSShapeGroup"></path>
            <path d="M286.971024,190.545167 C286.443155,191.23303 286.726614,191.700258 286.379522,192.180464 C285.728725,191.28927 285.579765,190.124086 285.433697,188.928618 C285.116976,186.34733 284.513904,183.907365 283.939757,181.454421 C283.498661,179.569648 282.99104,177.713717 282.950546,175.631382 C282.911498,173.686043 283.24702,171.714747 284.311434,169.63818 C284.944876,168.402335 285.422127,167.128996 285.993382,165.877288 C286.383861,165.020704 286.671657,164.130953 287.631944,163.520961 C288.091841,163.228223 288.327574,162.649957 288.47798,162.146678 C288.865566,160.861803 289.652307,159.801888 290.635733,158.73909 C291.556972,157.742627 292.356729,156.601957 293.100084,155.474266 C294.728522,153.001133 296.503028,150.634712 298.520498,148.418266 C298.965932,147.93085 299.480785,147.466506 299.780151,146.697888 C297.794498,147.49679 296.45241,149.042678 295.182633,150.602987 C293.076944,153.187159 290.799155,155.606936 287.934203,156.914884 C284.994048,158.256 281.981582,159.246695 279.094936,159.496172 C277.365263,159.646146 275.694884,159.450026 274.154665,159.028944 C273.485068,158.845803 273.137976,158.270421 272.935506,157.660429 C272.675187,156.874506 271.807458,156.502455 272.015713,155.402163 C272.031622,155.317082 271.950633,155.187296 271.87543,155.18297 C270.443677,155.09933 270.549251,153.644292 270.090801,152.704069 C269.620781,151.73933 270.034398,150.656343 270.922375,149.619502 C271.318637,149.155159 271.210171,149.022489 270.860187,148.983554 C270.579622,148.95327 270.388721,149.006627 270.356904,148.574009 C270.29761,147.780876 269.928825,147.11897 269.824697,146.340258 C269.709,145.476464 269.671398,144.622764 270.090801,143.541219 C270.524665,142.423622 270.75606,141.269974 271.301283,139.786094 C271.788657,140.860429 272.845841,140.815725 273.508207,141.411296 C274.046199,141.895828 275.282713,141.598764 276.20106,141.673751 C277.765865,141.800652 279.475291,141.457442 281.024187,141.64491 C281.549163,141.708361 282.129096,141.696824 282.701797,141.574249 C285.449606,140.98733 288.197414,140.422043 290.958239,139.698129 C292.164382,139.380876 293.400896,138.720412 294.620056,138.185408 C298.017215,136.69576 301.424498,135.360412 304.83612,134.299056 C306.668474,133.728 308.398147,133.657339 309.796637,134.460567 C310.10902,134.63794 310.43008,134.727348 310.354876,135.285425 C310.270996,135.922815 310.759817,136.199691 311.105462,136.531365 C312.03104,137.419674 312.013685,138.67715 311.566805,140.215828 C310.934809,142.396223 309.523303,144.27667 308.207247,146.217682 C306.400924,148.876841 304.068179,151.096172 301.97406,153.515948 C299.817753,156.007828 297.419928,158.283399 295.422705,160.912275 C293.348833,163.643536 291.53094,166.4743 290.077494,169.452155 C289.581442,170.468807 289.877916,171.247519 290.277072,171.92673 C290.627056,172.520858 291.183849,172.89291 291.765227,173.241888 C294.183299,174.696927 296.625956,176.124567 298.601486,178.127588 C299.255175,178.789494 299.877048,179.484567 300.501813,180.175313 C300.678251,180.368549 300.87349,180.548807 300.841673,180.906438 C300.786717,181.548155 300.804072,182.148052 301.547426,182.166798 C301.846793,182.174009 301.809191,182.502798 302.017446,182.706129 C303.096323,181.715433 304.016116,180.535828 305.151394,179.586953 C306.834789,178.17806 308.27088,178.224206 309.912335,178.505408 C308.680159,180.021013 307.586821,181.357803 306.502159,182.700361 C305.8369,183.522335 305.186104,184.355845 304.526629,185.182146 C303.369657,186.631416 303.190327,187.984069 303.783275,189.124738 C304.016116,189.573219 304.03347,189.962575 303.920665,190.530747 C303.78906,191.194094 303.580805,191.939639 304.315482,192.225167 C304.636542,192.349185 304.671251,192.817854 304.256187,193.336996 C303.909096,193.769614 303.97996,194.205116 304.078303,194.577167 C304.228709,195.143897 304.358869,198.150592 304.282219,198.762026 C304.207016,199.354712 303.742781,199.302798 303.437629,199.532086 C302.973394,199.882506 302.844681,200.235811 303.366765,200.309356 C304.418163,200.457888 304.564231,201.190455 304.296681,202.299399 C303.888849,203.99382 303.465108,205.694009 303.356641,207.346609 C303.301685,208.177236 303.73555,208.940086 303.219251,209.808206 C302.708737,210.667674 302.587255,211.439176 302.513498,212.21933 C302.355861,213.905099 301.859809,215.635571 301.51561,217.344412 C301.255291,218.633614 300.793948,219.993476 300.255956,221.265373 C299.179972,223.803399 298.433725,226.355845 297.603598,228.876567 C296.760454,231.436223 295.38655,233.902146 294.617163,236.474781 C294.034339,238.430215 292.886044,240.44333 291.704486,242.391554 C290.514251,244.357082 289.387649,246.381734 288.615371,248.474163 C287.738964,250.85212 286.563191,253.185373 285.426466,255.520069 C285.00851,256.378094 284.256478,257.136618 283.774888,257.958592 C283.18194,258.973803 282.581761,260.006318 282.186944,261.109494 C281.757418,262.316498 280.922952,263.447073 279.995928,264.469494 C279.731271,264.759348 279.481076,264.91509 279.606896,265.294352 C279.721147,265.641888 279.345131,266.052876 279.13543,266.388876 C277.54604,268.926901 276.09404,271.564429 274.251562,273.940944 C272.831378,275.772361 272.099594,277.792687 270.721351,279.59382 C270.348227,280.081236 270.001135,280.60903 269.580287,281.047416 C267.908462,282.783657 266.320518,284.619399 264.443331,286.12491 C261.685398,288.335588 259.647681,287.57418 258.57459,285.993682 C257.66492,284.654009 256.797191,283.284052 255.755916,282.064069 C255.586709,281.865064 255.390024,281.625682 255.387131,281.343039 C255.343745,277.065888 255.643112,272.720961 257.232502,268.112137 C257.991765,265.912996 258.6469,263.709528 259.401825,261.510386 C260.946382,257.005391 262.911789,252.537888 264.679064,248.053082 C265.370355,246.300979 266.028382,244.544549 266.700873,242.789562 C268.463809,238.190833 270.39306,233.619502 272.863195,229.139021 C273.535685,227.920481 273.470606,226.492841 274.831494,225.468979 C274.811247,224.152378 275.89157,222.978541 276.538028,221.81624 C277.543147,220.013665 278.020398,218.017854 279.615574,216.401305 C279.909155,216.10424 280.107287,215.690369 280.312649,215.318318 C282.130542,212.014558 284.231892,208.824721 286.339028,205.643536 C287.180725,204.375966 287.540833,203.18194 287.588558,201.950421 C287.720163,198.576 287.657976,195.267914 287.436705,192.016069 C287.403442,191.509906 287.25159,191.081614 286.971024,190.545167 L286.971024,190.545167 Z M286.622486,211.00079 C286.016522,212.421219 284.911614,213.628223 284.155243,214.989528 C282.827618,217.380464 281.540486,219.78582 280.160797,222.158009 C278.439801,225.114232 277.008048,228.139674 275.584972,231.159348 C273.903024,234.725562 272.459701,238.333597 270.983116,241.935863 C269.442896,245.698197 267.891108,249.467742 266.410183,253.228635 C264.540227,257.980223 262.58639,262.731811 260.904442,267.503588 C259.639004,271.092876 258.915896,274.634575 258.218821,278.176275 C258.114693,278.705511 258.298363,279.089099 258.547112,279.400584 C259.448104,280.534043 260.746805,281.044532 262.415737,280.916189 C263.283466,280.848412 264.102024,280.485013 264.783191,279.586609 C265.814343,278.228189 267.117382,276.979365 267.306837,275.303691 C267.334315,275.068635 267.564263,274.760034 267.752271,274.51921 C268.297494,273.818369 268.692311,273.058403 269.02494,272.302764 C269.742263,270.670352 270.703996,269.102833 271.360578,267.443021 C272.001251,265.822146 272.304956,264.18685 273.143761,262.574627 C273.308629,262.258815 273.609442,261.966077 273.662952,261.647382 C274.038968,259.380464 274.80257,257.106335 275.622574,254.819227 C278.893912,245.690987 281.526024,236.571399 283.929633,227.454695 C285.391757,221.909974 286.022307,216.505133 286.622486,211.00079 L286.622486,211.00079 Z M286.185729,185.389803 C285.8531,186.596807 285.97892,187.646627 286.508235,188.728172 C286.991271,187.685562 286.950777,187.167863 286.185729,185.389803 L286.185729,185.389803 Z" id="Fill-12" fill="#000000" sketch:type="MSShapeGroup"></path>
            <path d="M343.574438,112.18218 C342.995952,112.578747 342.376972,111.814455 341.766669,112.274472 C341.021869,112.838318 340.780351,113.381974 341.451394,114.374112 C341.943108,115.102352 341.716052,115.558043 341.351606,116.0743 C341.062363,116.485288 340.488215,116.681408 340.599574,117.367828 C340.650191,117.685082 340.274175,117.875433 339.979147,117.87976 C338.119315,117.904275 336.376625,118.452258 334.633936,119.013219 C334.561625,119.037734 334.445928,118.929579 334.351924,118.883433 C335.248578,117.657682 335.248578,117.657682 338.070143,116.705923 C337.574092,116.228601 337.049116,116.416069 336.597896,116.517013 C335.303534,116.805425 334.026526,116.912137 332.732163,116.502592 C332.406765,116.400206 332.02641,116.417511 331.677873,116.447794 C330.393633,116.564601 329.878781,117.076532 330.1391,118.27921 C330.901255,121.802163 330.831837,125.43327 331.527466,128.941803 C331.903482,130.835227 332.145,132.743073 332.490645,134.635056 C332.801582,136.332361 331.732829,138.176755 330.370494,139.262627 C328.990805,140.361476 327.264024,140.218712 325.812024,140.968584 C324.72447,141.532429 323.502418,141.770369 322.393171,142.364498 C320.847167,143.195124 317.988,141.878524 316.971311,140.009614 C316.177339,138.547365 315.669717,136.963983 315.128833,135.396464 C314.089004,132.372464 313.052068,129.347021 311.997777,126.32879 C311.565359,125.091502 311.534988,125.055451 310.197239,125.315021 C308.510952,125.640927 306.928793,126.366283 305.213582,126.608549 C303.804968,126.807554 302.419494,127.185373 301.007988,127.345442 C299.226251,127.548773 297.486454,127.036841 295.729303,126.829185 C295.2911,126.77727 294.988841,126.484532 294.784924,126.09085 C294.531837,125.601991 294.134127,125.224172 293.653984,124.994884 C293.05959,124.710798 292.67345,124.142627 292.551968,123.663863 C291.528048,119.631863 290.365291,115.602747 291.073936,111.361648 C291.366072,109.609545 291.964805,108.904378 293.67857,109.274987 C296.155936,109.809991 298.371538,108.944755 300.67102,108.525116 C302.710183,108.154506 304.713191,107.586335 306.729215,107.087382 C308.025024,106.765803 308.111797,106.705236 307.922343,105.395845 C307.566574,102.935691 307.102339,100.494283 306.775494,98.0269185 C306.416833,95.3244979 306.09288,92.6264034 306.004661,89.9009099 C305.980076,89.1409442 305.805084,88.3853047 305.700956,87.6339914 C307.729996,87.0254421 309.792299,86.8596052 311.857494,86.7226094 C312.033932,86.711073 312.220494,86.6894421 312.388255,86.7283777 C316.44055,87.6686009 320.495737,88.6160343 324.083797,90.8483433 C325.645709,91.8217339 326.861976,93.0777682 326.90247,95.0894421 C326.912594,95.5638798 326.877884,96.0138026 326.76508,96.4853562 C326.530793,97.4587468 326.354355,98.4508841 326.74194,99.4502318 C326.940072,99.960721 326.81859,100.482747 326.723139,101.019193 C326.525008,102.13679 326.792558,102.393476 327.958207,102.197356 C329.768869,101.893082 331.560729,101.496515 333.403207,101.37394 C334.379402,101.309047 335.26304,101.425854 336.169817,101.806558 C337.138781,102.214661 338.224888,102.547777 339.062247,103.04673 C340.465076,103.884567 342.197641,104.819021 341.893936,107.000858 C341.866458,107.199863 341.869351,107.416172 342.058805,107.407519 C343.45151,107.344069 343.227347,108.686627 343.732076,109.365837 C343.979378,109.696069 344.160155,110.281545 343.434155,110.689648 C342.640183,111.133803 343.852112,111.638524 343.574438,112.18218" id="Fill-13" fill="#D6BA47" sketch:type="MSShapeGroup"></path>
            <path d="M362.107685,156.180876 C362.456223,156.111657 362.135163,155.585305 362.148179,155.464172 C361.639112,155.791519 362.174211,156.323639 362.107685,156.180876" id="Fill-14" fill="#DBC25C" sketch:type="MSShapeGroup"></path>
            <path d="M357.112458,159.450026 L357.125474,159.183245 L356.528187,160.042712 L357.112458,159.450026" id="Fill-15" fill="#DBC25C" sketch:type="MSShapeGroup"></path>
            <path d="M352.007319,161.28721 C352.844677,162.078901 353.797733,160.46091 354.833223,160.47533 L355.063171,160.642609 L355.188992,159.715365 C354.128916,160.238833 352.883725,161.274232 352.007319,161.28721" id="Fill-16" fill="#DBC25C" sketch:type="MSShapeGroup"></path>
            <path d="M348.511817,160.184034 C348.819861,160.498403 348.041797,160.720481 349.190092,160.071554 C349.113442,160.052807 349.08741,160.035502 349.039685,160.018197 C348.932665,160.064343 348.779367,160.1177 348.511817,160.184034" id="Fill-17" fill="#DBC25C" sketch:type="MSShapeGroup"></path>
            <path d="M349.039685,160.018197 C349.569,159.79612 348.571112,159.829288 349.039685,160.018197" id="Fill-18" fill="#DBC25C" sketch:type="MSShapeGroup"></path>
            <path d="M346.641861,161.153099 L347.221793,160.55176 C346.991845,160.385923 346.345386,160.573391 346.518932,160.323914 C345.862351,160.781047 346.093745,160.945442 346.641861,161.153099" id="Fill-19" fill="#DBC25C" sketch:type="MSShapeGroup"></path>
            <path d="M346.23692,162.110627 L346.549303,161.830867 C346.449514,161.761648 346.341048,161.765974 346.23692,162.110627" id="Fill-20" fill="#DBC25C" sketch:type="MSShapeGroup"></path>
            <path d="M347.211669,161.23818 L346.549303,161.830867 C346.708386,161.947674 346.8371,162.256275 346.863131,161.588601 C346.906518,161.897202 346.958582,161.565528 347.211669,161.23818" id="Fill-21" fill="#DBC25C" sketch:type="MSShapeGroup"></path>
            <path d="M347.704829,161.219433 C348.179187,161.28 348.738873,161.219433 348.156048,161.820773 C349.459088,161.190592 349.006422,160.580601 347.704829,161.219433" id="Fill-22" fill="#DBC25C" sketch:type="MSShapeGroup"></path>
            <path d="M352.114339,162.380292 L352.749227,162.471142 L353.089088,161.980841 C352.918434,162.224549 351.971163,162.088996 352.114339,162.380292" id="Fill-23" fill="#DBC25C" sketch:type="MSShapeGroup"></path>
            <path d="M342.058805,162.313957 C342.092068,162.534592 342.502793,162.769648 342.653199,163.011914 L343.085618,162.580738 C342.764558,162.541803 342.209211,162.603811 342.058805,162.313957" id="Fill-24" fill="#DBC25C" sketch:type="MSShapeGroup"></path>
            <path d="M342.653199,163.011914 L342.008187,163.657957 C342.719725,163.437322 342.783359,163.222455 342.653199,163.011914" id="Fill-25" fill="#DBC25C" sketch:type="MSShapeGroup"></path>
            <path d="M346.511701,163.228223 L347.513928,162.005356 L346.268737,163.330609 L346.511701,163.228223" id="Fill-26" fill="#DBC25C" sketch:type="MSShapeGroup"></path>
            <path d="M339.069478,163.411365 L339.331243,162.77109 L338.81639,163.784858 L339.069478,163.411365" id="Fill-27" fill="#DBC25C" sketch:type="MSShapeGroup"></path>
            <path d="M337.124319,164.240549 C337.302203,163.725734 336.421458,163.745923 336.674546,163.373871 C336.164032,163.647863 335.835741,164.15691 335.539267,164.615485 C335.91239,164.280927 336.396873,164.148258 337.124319,164.240549" id="Fill-28" fill="#DBC25C" sketch:type="MSShapeGroup"></path>
            <path d="M335.015737,165.317768 C335.199406,165.141837 335.361382,164.888034 335.539267,164.615485 C335.341135,164.7943 335.161805,165.010609 335.015737,165.317768" id="Fill-29" fill="#DBC25C" sketch:type="MSShapeGroup"></path>
            <path d="M340.641514,164.057408 C340.534494,163.956464 340.295869,163.676704 339.805602,163.704103 L340.332024,164.165562 C340.426028,164.132395 340.533048,164.094901 340.641514,164.057408" id="Fill-30" fill="#DBC25C" sketch:type="MSShapeGroup"></path>
            <path d="M340.349378,164.179983 L340.332024,164.165562 C339.99361,164.273717 339.757876,164.350146 339.656641,164.383313 C339.744861,164.357356 339.953116,164.295348 340.349378,164.179983" id="Fill-31" fill="#DBC25C" sketch:type="MSShapeGroup"></path>
            <path d="M340.71961,164.031451 C340.690685,164.041545 340.670438,164.048755 340.641514,164.057408 C340.693578,164.103554 340.718163,164.11509 340.71961,164.031451" id="Fill-32" fill="#DBC25C" sketch:type="MSShapeGroup"></path>
            <path d="M344.274406,163.476258 C343.937438,163.970884 343.115988,164.676052 344.223789,164.820258 C344.40312,164.301116 343.768231,164.220361 344.274406,163.476258" id="Fill-33" fill="#DBC25C" sketch:type="MSShapeGroup"></path>
            <path d="M341.374745,164.608275 L342.251151,164.428017 C342.177394,164.280927 341.944554,164.116532 342.110869,163.86994 L341.374745,164.608275" id="Fill-34" fill="#DBC25C" sketch:type="MSShapeGroup"></path>
            <path d="M341.039223,164.944275 L341.374745,164.608275 L341.049347,164.674609 L341.039223,164.944275" id="Fill-35" fill="#DBC25C" sketch:type="MSShapeGroup"></path>
            <path d="M336.642729,165.320652 C336.380964,165.705682 335.997717,165.874403 335.57253,166.08206 C336.088829,166.015725 336.602235,165.891708 337.06647,165.715777 C337.062131,165.509562 337.141673,165.10867 336.642729,165.320652" id="Fill-36" fill="#DBC25C" sketch:type="MSShapeGroup"></path>
            <path d="M338.463514,164.815931 L338.396988,164.879382 C338.463514,164.909665 338.509793,164.911107 338.463514,164.815931" id="Fill-37" fill="#DBC25C" sketch:type="MSShapeGroup"></path>
            <path d="M331.238223,167.76206 L331.348135,167.838489 L331.324996,167.733219 L331.238223,167.76206" id="Fill-38" fill="#DBC25C" sketch:type="MSShapeGroup"></path>
            <path d="M337.186506,165.793648 C337.585661,165.769133 337.743299,165.548498 337.877797,165.294695 C337.634833,165.453322 337.367283,165.597528 337.06647,165.715777 C337.067916,165.808069 337.082378,165.864309 337.186506,165.793648" id="Fill-39" fill="#DBC25C" sketch:type="MSShapeGroup"></path>
            <path d="M333.907936,166.048893 C334.139331,166.096481 334.38808,166.11667 334.645506,166.128206 C334.392418,166.012841 333.915167,165.872961 333.907936,166.048893" id="Fill-40" fill="#DBC25C" sketch:type="MSShapeGroup"></path>
            <path d="M338.214765,164.765459 C338.229227,164.749597 338.242243,164.733734 338.259598,164.719313 C338.094729,164.64 338.132331,164.694798 338.214765,164.765459" id="Fill-41" fill="#DBC25C" sketch:type="MSShapeGroup"></path>
            <path d="M338.214765,164.765459 C338.064359,164.916876 337.974693,165.114438 337.877797,165.294695 C338.077375,165.167794 338.255259,165.029356 338.396988,164.879382 C338.336247,164.854867 338.268275,164.810163 338.214765,164.765459" id="Fill-42" fill="#DBC25C" sketch:type="MSShapeGroup"></path>
            <path d="M331.372721,171.961339 C331.225207,171.404704 331.961331,170.54812 332.985251,170.804807 C333.618693,170.095313 332.421227,168.546541 331.348135,167.838489 C331.414661,168.080755 331.498542,168.295622 330.808697,168.928687 C331.206406,169.107502 332.876785,168.899845 332.379287,169.651159 C331.410323,170.347674 331.424785,169.808343 330.791343,169.733356 C331.495649,170.222215 329.800685,171.234541 330.418219,172.117082 L331.225207,171.404704 C331.303303,171.54891 331.056,171.925288 331.372721,171.961339" id="Fill-43" fill="#DBC25C" sketch:type="MSShapeGroup"></path>
            <path d="M332.920171,167.284738 L333.228215,167.087176 C332.810259,167.143416 332.45449,167.038146 331.789231,166.818953 C331.333673,167.297717 331.294625,167.541425 331.324996,167.733219 L333.002606,167.160721 L332.920171,167.284738" id="Fill-44" fill="#DBC25C" sketch:type="MSShapeGroup"></path>
            <path d="M334.732279,166.497373 C334.693231,167.1737 333.987478,167.740429 334.720709,168.173047 C335.688227,167.751966 335.223992,167.42606 335.715705,166.95018 C334.178378,167.694283 336.048335,166.454112 334.76988,166.559382 C335.044661,166.343073 335.315104,166.206077 335.57253,166.08206 C335.257255,166.119554 334.947765,166.136858 334.645506,166.128206 L334.696124,166.149837 L334.701908,166.145511 L334.704801,166.155605 C334.801697,166.201751 334.840745,166.236361 334.746741,166.224824 C334.743849,166.233476 334.726494,166.243571 334.717817,166.249339 C334.738064,166.332979 334.736618,166.415176 334.730833,166.494489 C334.223211,166.549288 334.599227,166.371914 334.717817,166.249339 C334.712032,166.219056 334.714924,166.18733 334.704801,166.155605 L334.696124,166.149837 L333.228215,167.087176 C333.597,167.036704 334.009171,166.850678 334.732279,166.497373" id="Fill-45" fill="#DBC25C" sketch:type="MSShapeGroup"></path>
            <path d="M343.846327,166.392103 C343.776908,166.358936 343.763892,166.317116 343.743645,166.275296 C343.668442,166.386335 343.648195,166.449785 343.846327,166.392103" id="Fill-46" fill="#DBC25C" sketch:type="MSShapeGroup"></path>
            <path d="M343.058139,166.288275 C343.143466,166.162815 343.152143,165.89315 343.551299,165.812395 C343.943223,165.862867 343.655426,166.090712 343.743645,166.275296 C343.912853,166.035914 344.37998,165.558592 343.562869,165.544172 L343.478988,165.666747 C342.763112,165.708567 341.662542,165.294695 341.744976,165.17212 C342.129669,165.624927 342.437713,165.93497 343.058139,166.288275" id="Fill-47" fill="#DBC25C" sketch:type="MSShapeGroup"></path>
            <path d="M338.910394,166.556498 L337.692681,167.342421 L338.561857,167.589013 L338.41145,167.300601 C339.211207,167.133322 338.906056,166.823279 338.910394,166.556498" id="Fill-48" fill="#DBC25C" sketch:type="MSShapeGroup"></path>
            <path d="M330.973566,167.532773 L330.909932,166.85212 L330.483299,168.015863 L330.973566,167.532773" id="Fill-49" fill="#DBC25C" sketch:type="MSShapeGroup"></path>
            <path d="M329.28294,168.281202 L329.138319,167.724567 L328.810028,168.223519 L329.28294,168.281202" id="Fill-50" fill="#DBC25C" sketch:type="MSShapeGroup"></path>
            <path d="M237.310888,216.981013 L237.014414,217.312687 C237.166267,217.180017 237.254486,217.074747 237.310888,216.981013" id="Fill-51" fill="#DBC25C" sketch:type="MSShapeGroup"></path>
            <path d="M240.010972,215.66297 L239.950231,215.378884 C239.895275,215.57933 239.895275,215.707674 240.010972,215.66297" id="Fill-52" fill="#DBC25C" sketch:type="MSShapeGroup"></path>
            <path d="M287.406335,185.695519 C286.635502,185.453253 285.678108,184.970163 286.004952,185.52824 L286.428693,186.024309 C286.772892,185.75176 287.099737,185.683983 287.406335,185.695519" id="Fill-53" fill="#DBC25C" sketch:type="MSShapeGroup"></path>
            <path d="M260.735235,201.930232 C260.813331,201.960515 260.895765,201.993682 260.978199,202.025408 C261.018693,201.768721 261.056295,201.530781 261.091004,201.310146 C260.982538,201.499056 260.862502,201.709597 260.735235,201.930232" id="Fill-54" fill="#DBC25C" sketch:type="MSShapeGroup"></path>
            <path d="M261.459789,204.452395 L260.566028,204.42788 C260.787299,204.478352 261.077988,204.49133 261.459789,204.452395" id="Fill-55" fill="#DBC25C" sketch:type="MSShapeGroup"></path>
            <path d="M223.016498,225.040687 L222.883446,225.829494 C223.553044,225.476189 223.10761,225.346403 223.016498,225.040687" id="Fill-56" fill="#DBC25C" sketch:type="MSShapeGroup"></path>
            <path d="M311.811215,175.526112 C311.232729,175.49727 310.806096,175.560721 310.454665,175.67176 C311.177773,175.764052 311.856048,176.069768 311.811215,175.526112" id="Fill-57" fill="#DBC25C" sketch:type="MSShapeGroup"></path>
            <path d="M235.377299,210.516258 C235.200861,210.732567 235.160367,210.895519 235.229785,211.016652 C235.416347,210.803227 235.495888,210.628738 235.377299,210.516258" id="Fill-58" fill="#DBC25C" sketch:type="MSShapeGroup"></path>
            <path d="M309.051837,176.2457 C309.161749,176.268773 309.257199,176.264446 309.364219,176.277425 C309.679494,176.035159 310.004892,175.811639 310.454665,175.67176 C309.919566,175.601099 309.361327,175.650129 309.051837,176.2457" id="Fill-59" fill="#DBC25C" sketch:type="MSShapeGroup"></path>
            <path d="M170.7821,253.453597 C170.731482,253.452155 170.679418,253.466575 170.628801,253.457923 C170.660618,253.537236 170.714127,253.511279 170.7821,253.453597" id="Fill-60" fill="#DBC25C" sketch:type="MSShapeGroup"></path>
            <path d="M152.62053,257.002506 C152.747797,256.879931 152.986422,256.734283 153.207693,256.590077 C153.074641,256.620361 152.892418,256.735725 152.62053,257.002506" id="Fill-61" fill="#DBC25C" sketch:type="MSShapeGroup"></path>
            <path d="M322.264458,170.74424 C322.614442,170.562541 322.296275,170.657717 322.264458,170.74424" id="Fill-62" fill="#DBC25C" sketch:type="MSShapeGroup"></path>
            <path d="M324.954418,172.346369 C324.903801,172.442987 324.877769,172.5497 324.922602,172.686695 C324.89657,172.535279 324.912478,172.425682 324.954418,172.346369" id="Fill-63" fill="#DBC25C" sketch:type="MSShapeGroup"></path>
            <path d="M306.953378,181.328961 L306.921562,181.340498 C307.074861,181.408275 307.047382,181.393854 306.953378,181.328961" id="Fill-64" fill="#DBC25C" sketch:type="MSShapeGroup"></path>
            <path d="M322.919594,170.79327 C322.753279,170.774524 322.572502,170.777408 322.384494,170.803365 C322.477052,170.819227 322.64192,170.819227 322.919594,170.79327" id="Fill-65" fill="#DBC25C" sketch:type="MSShapeGroup"></path>
            <path d="M322.735924,170.546678 C322.870422,170.519279 322.975996,170.49909 323.077231,170.478901 C323.084462,170.363536 323.019382,170.318833 322.735924,170.546678" id="Fill-66" fill="#DBC25C" sketch:type="MSShapeGroup"></path>
            <path d="M321.769853,170.97497 C321.973769,170.88412 322.179131,170.83509 322.384494,170.803365 C322.296275,170.791828 322.252888,170.771639 322.264458,170.74424 C322.160331,170.79327 322.012817,170.861047 321.769853,170.97497" id="Fill-67" fill="#DBC25C" sketch:type="MSShapeGroup"></path>
            <path d="M197.63253,236.171948 C197.600713,236.16618 197.56745,236.170506 197.529849,236.160412 C197.312916,236.578609 197.444522,236.458918 197.63253,236.171948" id="Fill-68" fill="#DBC25C" sketch:type="MSShapeGroup"></path>
            <path d="M280.758084,195.739468 C280.7711,195.725047 280.773992,195.7063 280.785562,195.693322 C280.766761,195.693322 280.742175,195.696206 280.724821,195.696206 L280.758084,195.739468" id="Fill-69" fill="#DBC25C" sketch:type="MSShapeGroup"></path>
            <path d="M279.677761,196.743142 C279.897586,195.787056 280.246124,195.7337 280.724821,195.696206 L279.559171,194.244052 L279.677761,196.743142" id="Fill-70" fill="#DBC25C" sketch:type="MSShapeGroup"></path>
            <path d="M230.973574,220.381391 L232.10596,220.440515 C231.471072,221.797494 230.561402,221.898438 231.744406,222.188292 C230.973574,220.381391 235.053347,220.293425 234.286853,218.486524 L235.050454,218.562953 C234.876908,218.629288 234.90294,218.746094 234.730841,218.810987 C236.278291,219.080652 234.923187,217.126661 236.498116,216.645013 C237.070817,216.52388 237.55096,216.600309 237.310888,216.981013 L238.217665,215.981665 C238.561865,215.850438 238.634175,216.19509 238.292869,216.326318 L239.937215,215.321202 L239.950231,215.378884 C240.057251,214.979433 240.398558,214.275708 240.579335,213.958455 C241.140466,213.988738 240.453514,214.254077 240.674785,214.41703 L241.412355,213.512858 C242.026996,213.770987 241.458633,214.608824 240.770235,214.875605 C242.533171,216.179227 241.334259,214.029116 243.772578,214.114197 L242.980052,214.777545 C244.057482,215.488481 244.581012,214.784755 245.908637,214.908773 C245.50659,214.701116 243.09141,214.339159 243.909968,213.396052 C244.268629,213.385957 244.685139,213.26194 245.069833,212.634644 C245.383661,213.257614 245.853681,212.836532 246.520386,212.467365 L246.88194,213.31818 C247.502367,212.719725 247.236263,212.326043 247.487904,211.740567 C248.352741,211.420429 248.838669,211.978506 249.29712,212.425545 C250.679701,211.913614 247.881275,211.840069 249.366538,210.922918 C250.61896,210.703725 251.222032,209.989906 252.295124,208.85212 C253.2019,208.764155 252.406482,209.42606 252.798406,209.528446 L253.157068,208.534867 C253.33206,208.468532 253.376892,208.699262 253.398586,208.814627 C253.848359,208.27818 253.044263,207.962369 253.836789,207.296137 C253.635765,206.25497 256.340187,207.737408 256.964952,206.17133 C257.35543,206.276601 257.074865,206.743828 257.314936,207.026472 C258.528311,205.616137 258.398151,205.907433 259.225386,204.390386 L260.566028,204.42788 C259.474135,204.175519 260.135056,202.956979 260.735235,201.930232 C260.310048,201.760069 259.944155,201.608652 259.722884,201.559622 L260.930474,200.442026 C261.166207,200.498266 261.158976,200.851571 261.091004,201.310146 C261.156084,201.196223 261.215378,201.083742 261.257319,200.987124 C261.909562,201.056343 261.874853,201.662009 261.731677,202.299399 C261.484375,202.209991 261.228394,202.116258 260.978199,202.025408 C260.866841,202.697408 260.8061,203.41267 261.111251,203.866918 C261.15753,203.727039 261.29492,203.561202 261.468466,203.422764 C261.442434,203.603021 261.442434,203.752996 261.523422,203.816446 C261.613088,203.881339 261.673829,203.627536 261.803988,203.305957 L262.566143,204.083227 L262.469247,203.678009 L264.596629,203.386712 C265.480267,201.827845 265.98355,199.894043 267.918586,198.528412 C267.711777,199.45133 268.326418,199.696481 268.674956,200.519897 C267.695869,199.922884 267.212833,201.650472 266.041398,201.987914 C266.653147,201.809099 266.708104,202.254695 266.627116,202.456584 L268.206382,200.760721 C268.469594,201.441373 268.852841,201.066438 269.490622,201.108258 C268.494179,199.973356 270.543466,199.571021 271.153769,198.80673 C271.406857,199.224927 271.424211,199.761373 270.403183,200.097373 C271.931833,200.596326 271.075673,197.925631 272.516104,198.286146 C272.283263,198.404395 272.124179,198.395742 272.134303,198.661082 C272.507426,198.017923 274.005705,197.710764 273.863976,198.24 L273.631135,198.356807 C275.276928,197.795845 278.426785,196.183622 278.156343,194.959313 C278.237331,195.096309 278.561283,196.399931 278.568514,196.669597 L279.679207,191.626712 C279.864323,192.699605 281.845637,194.555536 280.785562,195.693322 C281.223765,195.661597 281.754526,195.602472 282.396645,194.913167 C282.078478,194.888652 281.131207,193.807107 281.442143,193.563399 C282.889805,194.209442 282.370614,193.841717 283.968681,194.231073 C283.49143,194.195021 283.244127,192.497717 283.876124,192.278524 C283.881908,192.545305 284.592,193.745099 284.440147,194.000343 L285.296307,191.851674 C285.035988,192.285734 285.789466,193.136549 286.314442,193.407657 C286.028092,193.185579 287.637729,192.858232 287.976143,192.533768 L287.180725,192.47176 C288.991386,191.943966 287.950112,189.642438 289.687016,188.97188 C289.614705,189.369888 290.009522,191.083056 290.955347,190.88982 C291.016088,189.955365 291.104307,186.458369 292.359622,185.208103 L292.838319,185.516704 L293.781251,184.514472 C293.554195,185.973837 292.588124,189.276155 291.899725,190.695142 C292.692251,190.758592 292.303219,191.130644 293.244705,190.669185 C293.76245,190.928755 292.993064,191.518558 292.721175,191.665648 L295.066936,190.948944 C294.579562,190.101013 296.387331,189.30788 295.98239,188.609923 L293.954797,190.589871 C293.471761,189.753476 294.252717,187.434644 295.920203,186.924155 C296.478442,187.107296 296.302004,188.637322 296.46398,188.919966 C296.537737,188.526283 297.722187,187.694215 297.962259,187.849957 L297.492239,188.611365 C298.521944,188.572429 298.429386,186.818884 299.861139,187.216893 C300.253064,187.118833 301.449084,187.900429 301.287108,187.346678 C300.253064,186.582386 298.786602,183.486283 298.860359,182.551828 C299.019442,182.564807 301.213351,182.703245 301.848239,183.027708 C302.794064,183.569923 301.74845,185.3177 302.555438,185.783485 C302.47445,185.531124 302.681259,185.088412 302.779602,184.93267 C303.25396,184.977373 302.940131,185.756086 303.732657,185.2903 C303.488247,184.325562 305.472454,184.642815 303.804968,184.357288 C304.516506,183.75018 304.756578,184.172704 305.703849,183.724223 C305.149948,183.269974 305.72988,181.365013 306.445757,180.756464 C306.494928,181.007382 306.805865,181.229459 306.953378,181.328961 C308.670036,180.688687 309.760482,180.749253 311.341195,180.106094 C311.576928,180.267605 312.450442,180.222901 312.28702,180.746369 C312.44755,180.492567 312.528538,180.098884 313.007235,179.878249 C314.27412,180.279142 311.971745,180.443536 313.080992,181.095348 C312.923355,180.541597 314.038386,179.852292 314.596625,179.239416 C314.047064,178.509734 312.927693,179.736927 312.3709,180.349803 C311.90088,179.226438 312.623988,177.55509 314.065865,176.35818 C315.266223,175.541974 314.93504,176.852807 315.097016,176.600446 C317.646693,175.790009 316.400056,173.772567 318.783418,173.748052 C319.888327,174.134524 319.399506,175.164155 319.789984,175.608309 C318.829697,176.317803 317.961968,175.823176 317.247538,176.147639 L318.278689,176.123124 C318.035725,176.500944 317.395052,176.97394 316.920693,176.92491 C317.867964,177.298403 321.133518,175.331433 323.288378,175.184343 C323.531343,174.809408 324.018717,174.329202 323.625347,174.148944 L323.059876,174.486386 C322.270243,174.124429 323.878434,173.23612 323.002028,173.266403 C323.651378,172.539605 324.30796,171.538815 325.583522,171.417682 L326.125853,172.154575 C326.005817,171.923845 325.18292,171.959897 324.961649,172.336275 C325.294279,171.783966 327.157004,172.758798 327.2539,171.478249 L326.225641,171.223004 C326.877884,170.488996 327.543143,169.219983 328.662514,169.080103 C327.878665,168.448481 328.464382,169.264687 327.366705,168.597013 C328.460044,169.534352 324.746163,169.568961 326.244442,170.416893 C325.065777,169.605013 324.77798,170.451502 323.433,169.893425 C323.571837,170.151554 323.984008,170.277013 323.077231,170.478901 C323.07,170.572635 323.019382,170.708189 322.984673,170.790386 C322.955749,170.791828 322.945625,170.791828 322.919594,170.79327 L322.978888,170.806249 C322.958641,170.861047 322.958641,170.871142 323.000582,170.810575 C323.252223,170.849511 323.473494,170.927382 323.600761,171.051399 C323.425769,171.840206 322.061988,172.353579 321.733697,172.853974 C321.175458,172.924635 321.82047,172.460292 321.428546,172.280034 L320.936833,173.031348 C320.627343,172.457408 319.197036,172.578541 320.241203,171.742146 L319.162327,172.151691 C318.397279,172.070936 317.477486,172.290129 317.046514,172.761682 C316.489721,172.83667 316.044287,173.944172 316.29159,173.295245 L314.768725,174.350833 L314.692076,174.208069 C313.007235,174.806524 311.701303,176.587468 309.364219,176.277425 C308.87106,176.655245 308.373562,177.074884 307.372781,177.285425 L306.975072,176.84127 C306.335845,177.311382 304.62208,177.224858 304.542538,177.89109 C303.190327,176.825408 300.963155,179.049064 299.609498,179.33315 L299.84957,180.025339 C298.973163,180.352687 298.229809,180.892017 297.278199,181.614489 L297.599259,182.181219 C296.890614,183.059433 295.05392,182.760927 293.623614,183.438695 C293.62506,183.16903 294.019876,183.072412 294.340936,183.098369 C292.015422,182.488378 291.11443,185.666678 289.118653,185.37394 C288.823625,185.760412 288.508351,185.810884 288.16849,185.783485 C288.204645,185.76618 288.232124,185.740223 288.252371,185.70994 C288.208984,185.720034 288.148243,185.744549 288.088948,185.771948 C287.87057,185.745991 287.640622,185.705614 287.406335,185.695519 C287.63339,185.767622 287.843092,185.818094 288.002175,185.812326 C287.707147,185.956532 287.28196,186.231966 286.900159,186.576618 L286.428693,186.024309 C286.39543,186.047382 286.369398,186.064687 286.333243,186.089202 C285.789466,186.047382 286.113418,186.544893 286.558853,186.919828 C286.379522,187.123159 286.229116,187.339468 286.136558,187.562987 C285.325231,186.694867 285.11553,188.423897 284.142227,187.545682 C284.078594,188.210472 282.069801,188.935828 282.333012,190.160137 C282.252024,190.0217 282.090048,190.010163 282.327227,189.894798 C281.77188,189.985648 281.215088,190.07794 280.909936,190.589871 L280.335789,189.877494 L279.738502,191.445013 C278.859203,191.254661 278.457155,191.09315 278.831725,190.176 C277.684876,191.847348 277.713801,191.119107 276.799793,192.672206 L276.629139,192.122781 C276.15912,192.360721 275.709347,193.406215 275.224865,193.10915 C273.702,192.610197 269.85796,195.387605 266.680625,195.726489 C267.922924,197.004155 265.082558,195.629871 265.527992,196.868601 C265.201147,196.583073 264.723896,196.56 265.021817,196.037974 C263.789641,197.0503 262.652916,196.457614 262.155418,197.906884 C261.825681,197.621356 262.206036,197.237768 261.963072,197.09212 C261.887869,197.221906 261.666598,197.614146 261.420741,197.467056 C261.176331,197.319966 261.482928,197.069047 261.630442,196.808034 C260.22906,197.542043 260.609414,198.718764 260.997,199.807519 C260.042498,199.656103 259.714207,199.895485 259.516076,200.82273 C259.103904,200.602094 258.513849,200.443468 259.34253,199.904137 C258.820446,200.088721 256.058175,200.842918 256.405267,201.69806 C256.149287,201.561064 255.679267,201.966283 255.59394,202.123468 C254.452876,202.60079 254.318378,202.573391 253.256857,203.168961 L253.627088,203.161751 C253.676259,204.365871 252.825884,203.820773 252.004434,204.370197 L251.979849,204.256275 C249.612394,204.517288 251.276988,205.026335 248.886394,205.173425 L249.298566,205.743039 C249.765693,207.170678 247.150936,205.8137 246.245606,206.889476 L246.837108,207.040893 C246.432167,207.805185 244.18041,206.083365 243.463088,206.227571 C243.267849,206.178541 243.590355,205.934833 243.740761,205.754575 C241.690028,205.777648 243.925876,206.673167 242.783367,207.464858 C242.337932,207.137511 242.52594,206.207382 241.652426,206.531845 C241.062371,206.384755 239.938661,209.123227 238.392657,208.856446 C238.810614,209.068429 239.224231,209.280412 238.781689,209.821185 C237.96747,210.382146 235.776454,209.740429 235.520474,211.201236 C235.364283,211.165185 235.27751,211.097408 235.229785,211.016652 C234.699024,211.628086 233.287518,212.568309 233.176159,213.344137 C231.473964,211.5257 229.551944,216.476292 228.562733,214.504996 L226.561171,215.648549 L226.510554,215.420704 C225.130865,215.958592 224.916825,216.67818 224.701339,217.38479 C224.329661,217.407863 224.455482,217.110798 224.428004,216.995433 C222.315084,217.593888 222.16757,217.77703 221.07857,219.583931 L220.579625,219.037391 C220.341,219.630077 217.301056,219.481545 215.818685,221.196155 C215.798438,221.113957 215.772406,220.971193 215.873641,220.805356 C214.15843,222.629562 209.906558,221.702318 210.373685,224.417717 L209.299147,225.725665 C211.177781,224.944069 209.56959,226.863451 210.506737,226.850472 C209.87908,227.360961 208.324398,227.133116 209.121263,226.551966 L209.317948,226.593785 C208.989657,225.228155 206.873845,227.362403 206.48192,226.524567 C203.005219,228.47279 199.213243,229.640858 195.928888,231.426129 L196.816865,232.139948 L195.648323,232.719657 C195.230367,232.670627 194.845673,232.220704 195.680139,231.806833 C194.961371,231.521305 194.560769,233.0023 194.650434,233.215725 C192.851343,233.726215 194.672127,231.795296 194.171737,232.04333 L193.546972,232.481717 L193.756673,232.506232 C193.429829,233.181116 193.604821,233.606524 192.60404,234.104034 C191.882378,234.262661 191.967705,233.711794 191.704494,233.811296 C191.669785,233.744961 191.569996,233.760824 191.316908,233.991554 L189.83743,234.711142 L190.81941,235.119245 C190.385546,235.83018 189.449845,235.83018 190.575,236.284429 C188.881482,235.54321 184.975255,238.816687 184.168267,238.777751 C183.586888,239.811708 182.710482,240.302009 181.592558,240.857202 C181.948327,240.854318 182.575984,241.573906 181.586773,242.007966 C180.963454,240.137614 179.463729,242.258884 178.011729,241.487382 C179.148454,241.899811 175.476514,243.203433 177.190279,243.731227 C176.33412,244.04127 176.779554,243.132773 175.960996,243.076532 C174.480072,244.773837 171.648382,245.021871 169.503645,246.583622 C169.597649,246.823004 170.174689,246.932601 169.881108,247.545476 L168.034291,247.161888 C167.649598,247.53394 168.369813,248.665957 167.100036,248.393408 C167.325645,248.50733 167.662614,248.683262 167.403741,248.929854 C162.30294,250.477185 158.862394,255.194163 153.175876,255.954129 C154.040713,256.003159 153.660359,256.291571 153.207693,256.590077 C153.570693,256.506438 153.528753,257.127966 153.767378,257.384652 L151.391247,257.713442 C151.550331,258.734421 149.412825,258.995433 149.697729,259.889511 L150.205351,259.389116 C149.98408,260.78503 152.571359,260.751863 153.181661,261.997803 C153.421733,260.418747 156.455892,262.127588 156.983761,259.752515 C157.449442,259.798661 156.943267,260.299056 157.281681,260.467777 C157.338084,259.739536 157.716992,259.364601 158.675833,259.092052 L158.659924,259.273751 C160.891434,257.752378 162.171335,257.631245 164.972653,256.414146 L164.42743,255.942592 C165.034841,255.68879 165.263343,255.802712 165.613327,255.795502 C165.721793,254.526489 164.009474,256.675159 164.005135,255.349906 C165.465813,256.102661 167.970657,253.029631 169.283821,254.090987 C170.150104,253.587708 168.625793,253.560309 169.492076,253.058472 L169.938956,253.290644 L169.875323,252.689305 C170.487072,252.432618 171.045311,252.723914 171.250673,253.023863 C171.09159,253.067124 170.913705,253.341116 170.7821,253.453597 C171.771311,253.455039 172.759076,252.085082 173.094598,252.077871 L172.132865,252.340326 C174.280494,250.605528 177.430351,249.385545 179.291629,247.336378 L178.956108,247.15612 C180.406661,245.637631 180.535375,246.660052 182.318558,245.318936 L182.286741,245.425648 C182.510904,244.926695 182.943323,244.492635 183.4871,244.22297 C183.190625,244.828635 184.765554,244.335451 184.33892,245.063691 C185.915295,243.419742 185.025873,244.088858 185.6839,242.329545 L186.237801,242.628052 C186.425809,241.963262 186.334697,241.720996 187.227012,241.050438 C186.66588,241.901253 188.242255,241.408069 187.660876,242.440584 C190.246709,242.29782 190.080394,239.720858 191.852008,240.689923 C192.055924,238.881579 189.691363,240.949494 190.057255,240.382764 C189.381873,240.205391 190.281418,238.992618 190.992956,238.767657 C191.658215,238.434541 193.026335,239.804498 194.640311,238.875811 C194.475442,238.959451 194.518829,239.063279 194.35396,239.146918 C195.147932,239.138266 195.299785,238.036532 196.346845,238.156223 C196.32949,237.142455 197.343287,237.661597 196.907976,236.597356 L195.541303,237.658712 C196.242717,236.927588 196.388785,235.316807 198.101104,235.106266 C198.103996,235.368721 197.835,235.86479 197.63253,236.171948 C198.203785,236.238283 198.310805,235.538884 198.902307,235.606661 C199.336171,236.673785 197.20445,236.833854 196.721414,238.099983 C197.393904,238.277356 198.036024,236.421425 198.182092,237.756773 C198.072179,236.017648 199.882841,237.040069 200.403478,235.374489 L200.662351,236.014764 C200.783833,235.82297 200.989195,235.33988 201.318932,235.175485 L201.16708,236.275777 C201.694948,235.117803 203.204797,235.896515 203.871502,235.075983 C202.076749,236.06812 203.067406,234.568378 202.065179,234.548189 C203.849809,232.536515 204.20847,235.426403 206.542661,233.793991 C206.251972,234.060773 205.077645,234.115571 205.453661,233.553167 C205.995992,233.420498 206.74947,233.313785 207.212259,233.472412 C208.795865,232.458644 206.622203,232.990764 207.12404,232.242335 C208.085773,232.672069 207.77339,231.506884 208.372124,230.882472 L208.709092,231.491021 C210.804657,230.869494 208.518191,229.946575 210.472028,229.506747 L210.213155,230.742592 L210.978203,230.047519 L211.171996,230.842094 C211.85461,229.808137 212.226287,229.780738 213.273347,229.467811 C212.823574,229.154884 212.800434,228.288206 213.624777,227.819536 C214.389825,227.878661 213.617546,228.575176 214.754271,227.84982 C214.692084,228.379056 214.657375,229.017888 213.840263,228.729476 C213.895219,228.957322 213.783861,229.255828 213.834478,229.483674 C214.671837,229.573082 215.425315,228.749665 215.850502,228.514609 C215.674064,228.579502 215.458578,228.653047 215.311064,228.61988 L216.580841,226.860567 C216.974211,226.949974 216.857068,227.248481 216.739924,227.541219 C217.055199,227.291742 217.146311,226.883639 217.633685,226.56206 C217.765291,227.131674 218.070442,227.630627 217.468817,228.244944 L218.818135,226.833167 C219.042299,226.993236 219.978,226.991794 219.860857,227.287416 C220.926717,227.107159 221.584745,225.150283 222.997697,224.909459 C223.009267,224.778232 223.085916,224.619605 223.305741,224.414833 C224.501761,223.936069 225.82794,224.026918 226.815705,222.636773 L228.046434,223.140052 C228.995151,222.385854 226.425227,222.544481 228.004494,221.288446 C229.100725,220.353991 228.864992,221.814798 229.433355,221.842197 C229.819494,221.073579 230.428351,219.601236 231.954108,219.755536 C231.660526,220.117494 231.294633,220.134798 230.973574,220.381391 L230.973574,220.381391 Z M243.879598,213.397494 C243.688697,213.652738 243.380653,214.304549 243.010422,214.029116 C242.946789,213.172532 243.341606,213.404704 243.879598,213.397494 L243.879598,213.397494 Z M263.266112,202.21576 C263.172108,202.514266 262.827908,202.550318 262.381028,202.469562 C262.599406,202.303725 262.885757,202.198455 263.266112,202.21576 L263.266112,202.21576 Z M318.491283,172.866953 C318.484052,172.881373 318.479713,172.89291 318.475375,172.910215 C317.782637,172.90012 318.032833,172.913099 318.491283,172.866953 L318.491283,172.866953 Z M319.830478,172.646318 C319.918697,172.506438 319.873865,172.419914 319.785645,172.350695 C319.765398,172.5497 319.494956,172.673717 319.162327,172.755914 C319.317072,172.888584 319.52388,172.940498 319.830478,172.646318 L319.830478,172.646318 Z M191.701602,234.106918 L192.016876,234.140086 C191.606151,234.597219 191.659661,234.360721 191.701602,234.106918 L191.701602,234.106918 Z" id="Fill-71" fill="#DBC25C" sketch:type="MSShapeGroup"></path>
            <path d="M261.383139,204.156773 C261.260211,204.08467 261.183562,203.976515 261.111251,203.866918 C261.060633,204.019777 261.11559,204.143794 261.383139,204.156773" id="Fill-72" fill="#DBC25C" sketch:type="MSShapeGroup"></path>
            <path d="M223.041084,224.895039 L222.997697,224.909459 C222.994805,224.957047 223.003482,225.000309 223.016498,225.040687 L223.041084,224.895039" id="Fill-73" fill="#DBC25C" sketch:type="MSShapeGroup"></path>
            <path d="M303.178757,185.910386 C302.889514,185.924807 302.70006,185.865682 302.555438,185.783485 C302.608948,185.946438 302.779602,186.030077 303.178757,185.910386" id="Fill-74" fill="#DBC25C" sketch:type="MSShapeGroup"></path>
            <path d="M325.923382,168.969064 L325.200275,169.447828 C325.570506,169.266129 325.762853,169.354094 325.995693,169.381494 C325.919044,169.237288 325.680418,169.077219 325.923382,168.969064" id="Fill-75" fill="#DBC25C" sketch:type="MSShapeGroup"></path>
            <path d="M334.346139,170.289991 C334.431466,170.164532 334.587657,170.184721 334.670092,170.059262 L334.521131,169.77085 C334.038096,169.982833 333.789347,170.360652 334.346139,170.289991" id="Fill-76" fill="#DBC25C" sketch:type="MSShapeGroup"></path>
            <path d="M327.506988,170.832206 C327.784661,171.35279 328.20551,170.973528 328.718916,170.656275 C328.685653,170.670695 328.656729,170.688 328.620574,170.693768 C328.483183,169.867468 327.992916,170.352 327.506988,170.832206" id="Fill-77" fill="#DBC25C" sketch:type="MSShapeGroup"></path>
            <path d="M328.838952,170.587056 C328.999482,170.494764 329.167243,170.412567 329.345127,170.372189 C329.288725,170.041957 329.112287,170.390936 328.838952,170.587056" id="Fill-78" fill="#DBC25C" sketch:type="MSShapeGroup"></path>
            <path d="M321.244876,171.659948 C321.56449,171.697442 321.130625,170.901425 321.369251,171.064378 C321.383713,170.258266 319.954853,172.588635 321.244876,171.659948" id="Fill-79" fill="#DBC25C" sketch:type="MSShapeGroup"></path>
            <path d="M328.662514,172.450197 L328.199725,171.856069 L328.104275,172.519416 L328.662514,172.450197" id="Fill-80" fill="#DBC25C" sketch:type="MSShapeGroup"></path>
            <path d="M324.109829,173.668738 L325.065777,173.50867 C325.007928,173.400515 325.093255,173.290918 325.210398,173.18709 C324.657944,173.377442 324.01004,173.478386 324.109829,173.668738" id="Fill-81" fill="#DBC25C" sketch:type="MSShapeGroup"></path>
            <path d="M325.210398,173.18709 C325.499641,173.08903 325.762853,172.967897 325.875657,172.796292 C325.725251,172.864069 325.405637,173.015485 325.210398,173.18709" id="Fill-82" fill="#DBC25C" sketch:type="MSShapeGroup"></path>
            <path d="M327.537359,173.125082 L327.220637,173.087588 L326.579964,173.283708 L327.537359,173.125082" id="Fill-83" fill="#DBC25C" sketch:type="MSShapeGroup"></path>
            <path d="M314.61398,177.356086 L313.734681,177.938678 C313.731789,178.206901 314.049956,178.241511 314.36957,178.003571 C314.532992,177.75121 314.851159,177.517597 314.61398,177.356086" id="Fill-84" fill="#DBC25C" sketch:type="MSShapeGroup"></path>
            <path d="M318.25555,178.007897 C317.940275,177.973288 317.862179,177.831966 317.626446,177.670455 L317.935936,178.512618 L318.25555,178.007897" id="Fill-85" fill="#DBC25C" sketch:type="MSShapeGroup"></path>
            <path d="M315.548235,179.338918 C315.546789,179.607142 314.433203,180.56467 315.621992,180.018129 C315.624884,179.749906 316.504183,179.168755 315.548235,179.338918" id="Fill-86" fill="#DBC25C" sketch:type="MSShapeGroup"></path>
            <path d="M300.746223,184.272206 L300.983402,184.159725 L300.371653,182.822936 L300.746223,184.272206" id="Fill-87" fill="#DBC25C" sketch:type="MSShapeGroup"></path>
            <path d="M289.569873,192.927451 C290.829526,192.75873 289.468637,191.981459 290.65598,191.939639 C290.778908,191.507021 289.68557,191.974249 289.83453,191.582009 C289.306661,192.213631 288.869904,192.179021 289.569873,192.927451" id="Fill-88" fill="#DBC25C" sketch:type="MSShapeGroup"></path>
            <path d="M289.83453,191.582009 C289.91841,191.481064 290.005183,191.3657 290.089064,191.22582 C289.92998,191.395983 289.866347,191.499811 289.83453,191.582009" id="Fill-89" fill="#DBC25C" sketch:type="MSShapeGroup"></path>
            <path d="M149.736777,257.836017 L148.900865,257.985991 L149.596494,258.140292 L149.736777,257.836017" id="Fill-90" fill="#DBC25C" sketch:type="MSShapeGroup"></path>
            <path d="M149.016562,259.550627 L148.364319,258.85267 L148.406259,259.81885 C148.536418,259.690506 148.789506,259.442472 149.016562,259.550627" id="Fill-91" fill="#DBC25C" sketch:type="MSShapeGroup"></path>
            <path d="M246.676578,214.132944 L246.630299,213.903657 C246.413367,213.739262 246.239821,213.802712 245.892729,213.929614 L246.676578,214.132944" id="Fill-92" fill="#DBC25C" sketch:type="MSShapeGroup"></path>
            <path d="M236.842315,218.244258 L237.014414,218.179365 L236.326016,217.578026 L236.842315,218.244258" id="Fill-93" fill="#DBC25C" sketch:type="MSShapeGroup"></path>
            <path d="M229.369721,223.230901 C229.708135,223.092464 230.003163,222.731948 230.345916,222.599279 C229.706689,223.091021 228.798466,222.339708 229.369721,223.230901" id="Fill-94" fill="#DBC25C" sketch:type="MSShapeGroup"></path>
        </g>
    </g>
</svg>