<svg width="12" height="10" viewBox="0 0 12 10" fill="none" xmlns="http://www.w3.org/2000/svg">
<path d="M5.8833 9.99999C5.80588 10.0004 5.72913 9.9856 5.65746 9.95632C5.58579 9.92705 5.5206 9.88392 5.46564 9.8294L0.894928 5.2528C0.321596 4.67348 0 3.89134 0 3.07628C0 2.26121 0.321596 1.47907 0.894928 0.899747C1.47274 0.323561 2.25545 0 3.07146 0C3.88746 0 4.67017 0.323561 5.24799 0.899747L5.8833 1.53506L6.51861 0.899747C7.09642 0.323561 7.87913 0 8.69514 0C9.51114 0 10.2938 0.323561 10.8717 0.899747C11.445 1.47907 11.7666 2.26121 11.7666 3.07628C11.7666 3.89134 11.445 4.67348 10.8717 5.2528L6.30095 9.8294C6.24599 9.88392 6.1808 9.92705 6.10913 9.95632C6.03746 9.9856 5.96071 10.0004 5.8833 9.99999Z" fill="white"/>
</svg>
